<?xml version="1.0" encoding="UTF-8" standalone="no"?>
<svg
   version="1.1"
   width="90.017189mm"
   height="66.161438mm"
   viewBox="0 0 90.017189 66.161439"
   id="svg3582"
   xmlns="http://www.w3.org/2000/svg"
   xmlns:svg="http://www.w3.org/2000/svg"
   xmlns:rdf="http://www.w3.org/1999/02/22-rdf-syntax-ns#"
   xmlns:cc="http://creativecommons.org/ns#"
   xmlns:dc="http://purl.org/dc/elements/1.1/">
  <defs
     id="defs3582" />
  <title
     id="title1">SVG Image created as transceiver.svg date 2026/03/26 19:22:31 </title>
  <desc
     id="desc1">Image generated by Eeschema-SVG </desc>
  <rect
     x="35.032925"
     y="5.585516"
     width="26.175472"
     height="52.350945"
     rx="0.000000"
     id="rect960"
     style="fill:#ffffc2;fill-opacity:1;stroke:none;stroke-width:0.858775" />
  <rect
     x="2.3135786"
     y="13.220024"
     width="15.269027"
     height="19.631605"
     rx="0.000000"
     id="rect2837"
     style="fill:#ffffc2;fill-opacity:1;stroke:none;stroke-width:0.858775" />
  <circle
     cx="6.1308351"
     cy="25.217115"
     r="0.54532236"
     id="circle2839"
     style="fill:#840000;fill-opacity:1;stroke:#840000;stroke-width:0.218129;stroke-linecap:round;stroke-linejoin:round;stroke-opacity:1" />
  <path
     id="path3213"
     style="fill:none;stroke:#008484;stroke-width:0.176389;stroke-linecap:round;stroke-linejoin:round;stroke-dasharray:none;stroke-opacity:1"
     d="m 9.4070653,14.438201 0.051956,-0.05187 m -0.1039117,0.207738 0.051956,-0.155868 m -0.051956,0.259694 v -0.103826 m 0.051956,0.259607 -0.051956,-0.155781 m 0.1558678,0.259693 -0.1039118,-0.103912 m 0.2077378,0.155868 -0.103826,-0.05196 M 9.8225411,15.06141 9.6148034,15.00954 m 0.3635194,0.05187 h -0.155782 m 0.3635202,-0.05187 -0.2077385,0.05187 m 0.3116495,-0.103826 -0.103911,0.05196 m 0.207823,-0.155868 -0.103912,0.103912 m 0.155782,-0.259693 -0.05187,0.155781 m 0.05187,-0.259607 v 0.103826 m -0.05187,-0.259694 0.05187,0.155868 m -0.103826,-0.207738 0.05196,0.05187 m -0.9868187,1.090645 0.051956,-0.05187 m -0.1039117,0.207737 0.051956,-0.155867 m -0.051956,0.259693 v -0.103826 m 0.051956,0.259608 -0.051956,-0.155782 m 0.1558635,0.259694 -0.1039118,-0.103912 m 0.2077378,0.155868 -0.103826,-0.05196 m 0.3115637,0.103826 -0.2077377,-0.05187 m 0.3635194,0.05187 H 9.8225408 m 0.3635202,-0.05187 -0.2077385,0.05187 m 0.3116495,-0.103826 -0.103911,0.05196 m 0.207823,-0.155868 -0.103912,0.103912 m 0.155782,-0.259694 -0.05187,0.155782 m 0.05187,-0.259608 v 0.103826 m -0.05187,-0.259693 0.05187,0.155867 m -0.103826,-0.207737 0.05196,0.05187 m 0.05187,1.298468 -1.0906447,-0.363606 m 0,0.727125 1.0906447,-0.363519 m 0,12.313121 v 0.259693 m -0.05187,-0.415475 0.05187,0.155782 m -0.155782,-0.259694 0.103912,0.103912 m -0.207823,-0.155868 0.103911,0.05196 m -0.3116495,-0.103826 0.2077385,0.05187 m -0.3635202,-0.05187 h 0.1557817 m -0.3635194,0.05187 0.2077377,-0.05187 m -0.3115637,0.103826 0.103826,-0.05196 m -0.2077418,0.155868 0.1039118,-0.103912 m -0.1558678,0.259694 0.051956,-0.155782 m -0.051956,0.415475 v -0.259693 m 1.0906447,0.259693 H 9.3551093 m 1.0906447,0.519388 H 9.3551093 m 0,0.623213 1.0906447,-0.623213 m 0,0.623213 H 9.3551093 m 0.6232132,0.467432 V 31.2179 M 10.341928,31.010161 H 9.9783225 m 0.4155615,0.05187 -0.05196,-0.05187 M 10.44575,31.2179 10.39388,31.062031 m 0.05187,0.259692 V 31.2179 m -0.05187,0.259607 0.05187,-0.155784 m -0.155782,0.259696 0.103912,-0.103912 m -0.207823,0.155867 0.103911,-0.05195 m -0.3116495,0.103824 0.2077385,-0.05187 m -0.3635202,0.05187 h 0.1557817 m -0.3635194,-0.05187 0.2077377,0.05187 m -0.3115637,-0.103824 0.103826,0.05195 m -0.2077378,-0.155867 0.1039118,0.103912 m -0.1558678,-0.259696 0.051956,0.155784 m -0.051956,-0.311565 v 0.155781 m 0.051956,-0.259692 -0.051956,0.103911 M 16.15652,16.989622 h -0.207738 m 0.31165,-0.05187 -0.103912,0.05187 m 0.207738,-0.155781 -0.103826,0.103911 m 0.155782,-0.311649 -0.05196,0.207738 m 0.05196,-0.571258 v 0.36352 m -0.05196,-0.571257 0.05196,0.207737 m -0.155782,-0.311649 0.103826,0.103912 m -0.207738,-0.155868 0.103912,0.05196 m -0.31165,-0.05196 h 0.207738 m -0.311563,0.05196 0.103825,-0.05196 m -0.207737,0.155868 0.103912,-0.103912 m -0.155782,0.311649 0.05187,-0.207737 m -0.05187,0.571257 v -0.36352 m 0.05187,0.571258 -0.05187,-0.207738 m 0.155782,0.311649 -0.103912,-0.103911 m 0.207737,0.155781 -0.103825,-0.05187 m 0.155782,-0.207823 h -0.103826 m 0.207737,0.05196 -0.103911,-0.05196 m 0.259693,0.207823 -0.155782,-0.155867 m 0.259608,0.259693 -0.103826,-0.103826 m 0.207738,0.155782 -0.103912,-0.05196 M 15.065876,16.470317 H 14.6504 m 0.519387,-0.05196 -0.103911,0.05196 m 0.155867,-0.103912 -0.05196,0.05196 m 0.103826,-0.155782 -0.05187,0.103826 m 0.05187,-0.259693 v 0.155867 m -0.05187,-0.259693 0.05187,0.103826 m -0.103826,-0.155782 0.05196,0.05196 m -0.155867,-0.103912 0.103911,0.05196 M 14.6504,15.898982 h 0.415476 M 14.6504,16.989626 v -1.090644 m 0.623213,1.090644 -0.363519,-0.519301 m -0.779081,0.519301 v -1.090644 m 1.7659,2.181289 H 16.4163 m -0.519387,1.090645 v -1.090645 m 0.519387,1.090645 h -0.519387 m 0,-0.571257 h 0.363605 m -0.882907,-0.467432 0.05187,0.05196 m -0.207738,-0.103912 0.155868,0.05196 m -0.259694,-0.05196 h 0.103826 m -0.259607,0.05196 0.155781,-0.05196 m -0.259693,0.155868 0.103912,-0.103912 m -0.155868,0.207738 0.05196,-0.103826 m -0.103826,0.311564 0.05187,-0.207738 m -0.05187,0.36352 v -0.155782 m 0.05187,0.363519 -0.05187,-0.207737 m 0.103826,0.311649 -0.05196,-0.103912 m 0.155868,0.207824 -0.103912,-0.103912 m 0.259693,0.155782 -0.155781,-0.05187 m 0.259607,0.05187 h -0.103826 m 0.259694,-0.05187 -0.155868,0.05187 m 0.207738,-0.103826 -0.05187,0.05196 m -1.916443,3.021086 h 3.053805 m -0.150715,1.393363 v -1.090645 m -0.623213,0 0.623213,1.090645 m -0.623213,0 v -1.090645 m -0.623213,0 0.155867,0.05196 m -0.415475,-0.05196 h 0.259608 m -0.36352,0.05196 0.103912,-0.05196 m -0.155868,0.103912 0.05196,-0.05196 m -0.103826,0.155782 0.05187,-0.103826 m -0.05187,0.207737 v -0.103911 m 0.05187,0.207737 -0.05187,-0.103826 m 0.103826,0.155782 -0.05196,-0.05196 m 0.155868,0.103912 -0.103912,-0.05196 m 0.31165,0.103912 -0.207738,-0.05196 m 0.311563,0.103826 -0.103825,-0.05187 m 0.155781,0.103826 -0.05196,-0.05196 m 0.103912,0.155868 -0.05196,-0.103912 m 0.05196,0.207738 v -0.103826 m -0.05196,0.207738 0.05196,-0.103912 m -0.103912,0.155868 0.05196,-0.05196 m -0.155781,0.103826 0.103825,-0.05187 m -0.363519,0.05187 h 0.259694 m -0.415476,-0.05187 0.155782,0.05187 m -0.623213,-1.038689 0.05187,0.05196 m -0.207738,-0.103912 0.155868,0.05196 m -0.259694,-0.05196 h 0.103826 m -0.259608,0.05196 0.155782,-0.05196 m -0.259694,0.155868 0.103912,-0.103912 m -0.155868,0.207738 0.05196,-0.103826 m -0.103826,0.311563 0.05187,-0.207737 m -0.05187,0.363519 v -0.155782 m 0.05187,0.36352 -0.05187,-0.207738 m 0.103826,0.31165 -0.05196,-0.103912 m 0.155868,0.207824 -0.103912,-0.103912 m 0.259694,0.155782 -0.155782,-0.05187 m 0.259608,0.05187 h -0.103826 m 0.259694,-0.05187 -0.155868,0.05187 m 0.207738,-0.103826 -0.05187,0.05196 m 2.233159,1.142514 -0.623213,0.623214 m 0.623213,0.467431 -0.467345,-0.623213 m -0.155868,0.623213 v -1.090645 m -0.519302,0.05196 0.05187,0.05196 m -0.207737,-0.103912 0.155867,0.05196 m -0.259693,-0.05196 h 0.103826 m -0.259608,0.05196 0.155782,-0.05196 m -0.259694,0.155868 0.103912,-0.103912 m -0.155868,0.207738 0.05196,-0.103826 m -0.103826,0.311564 0.05187,-0.207738 m -0.05187,0.36352 v -0.155782 m 0.05187,0.363519 -0.05187,-0.207737 m 0.103826,0.311649 -0.05196,-0.103912 m 0.155868,0.207824 -0.103912,-0.103912 m 0.259694,0.155782 -0.155782,-0.05187 m 0.259608,0.05187 h -0.103826 m 0.259693,-0.05187 -0.155867,0.05187 m 0.207737,-0.103826 -0.05187,0.05196 m -1.194556,-1.038775 0.155867,0.05196 m -0.415475,-0.05196 h 0.259608 m -0.36352,0.05196 0.103912,-0.05196 m -0.155868,0.103912 0.05196,-0.05196 m -0.103826,0.155782 0.05187,-0.103826 m -0.05187,0.207738 v -0.103916 m 0.05187,0.207738 -0.05187,-0.103826 m 0.103826,0.155782 -0.05196,-0.05196 m 0.155868,0.103912 -0.103912,-0.05196 m 0.31165,0.103912 -0.207738,-0.05196 m 0.311564,0.103826 -0.103826,-0.05187 m 0.155782,0.103825 -0.05196,-0.05196 m 0.103911,0.155867 -0.05195,-0.103912 m 0.05195,0.207738 v -0.103826 m -0.05195,0.207738 0.05195,-0.103912 m -0.103911,0.155868 0.05196,-0.05196 m -0.155782,0.103826 0.103826,-0.05187 m -0.36352,0.05187 h 0.259694 m -0.415476,-0.05187 0.155782,0.05187 m 2.077378,1.1426 0.103825,-0.05196 m -0.207737,0.155867 0.103912,-0.103912 m -0.155782,0.31165 0.05187,-0.207738 m -0.05187,0.571258 v -0.36352 m 0.05187,0.571258 -0.05187,-0.207738 m 0.155782,0.311649 -0.103912,-0.103911 m 0.207737,0.155781 -0.103825,-0.05187 m 0.311563,0.05187 h -0.207738 m 0.31165,-0.05187 -0.103912,0.05187 m 0.207738,-0.155781 -0.103826,0.103911 m 0.155782,-0.311649 -0.05196,0.207738 m 0.05196,-0.571258 v 0.36352 m -0.05196,-0.571258 0.05196,0.207738 m -0.155782,-0.31165 0.103826,0.103912 m -0.207738,-0.155867 0.103912,0.05196 m -0.31165,-0.05196 h 0.207738 m -1.038688,0 0.155867,0.05196 m -0.415475,-0.05196 h 0.259608 m -0.36352,0.05196 0.103912,-0.05196 m -0.155868,0.103911 0.05196,-0.05196 m -0.103826,0.155782 0.05187,-0.103826 m -0.05187,0.207738 v -0.103912 m 0.05187,0.207738 -0.05187,-0.103826 m 0.103826,0.155782 -0.05196,-0.05196 m 0.155868,0.103912 -0.103912,-0.05196 m 0.31165,0.103912 -0.207738,-0.05196 m 0.311563,0.103826 -0.103825,-0.05187 m 0.155781,0.103826 -0.05196,-0.05196 m 0.103912,0.155868 -0.05196,-0.103912 m 0.05196,0.207738 V 27.58446 m -0.05196,0.207737 0.05196,-0.103911 m -0.103912,0.155867 0.05196,-0.05196 m -0.155781,0.103826 0.103825,-0.05187 m -0.363519,0.05187 h 0.259694 m -0.415476,-0.05187 0.155782,0.05187 m -0.623299,0 v -1.090644 m -0.519302,0 v 1.090644 m -0.363519,-0.311563 0.363519,-0.779081 m -0.727125,0 0.363606,0.779081 m -0.363606,0.311563 v -1.090644 m 3.427716,3.271934 v -1.090645 m -0.623213,0 0.155868,0.05196 m -0.415476,-0.05196 h 0.259608 m -0.36352,0.05196 0.103912,-0.05196 m -0.155868,0.103912 0.05196,-0.05196 m -0.103826,0.155782 0.05187,-0.103826 m -0.05187,0.207738 v -0.103912 m 0.05187,0.207737 -0.05187,-0.103825 m 0.103826,0.155781 -0.05196,-0.05196 m 0.155868,0.103912 -0.103912,-0.05196 m 0.31165,0.103912 -0.207738,-0.05196 m 0.311564,0.103826 -0.103826,-0.05187 m 0.155782,0.103826 -0.05196,-0.05196 m 0.103912,0.155868 -0.05196,-0.103912 m 0.05196,0.207738 v -0.103826 m -0.05196,0.207738 0.05196,-0.103912 m -0.103912,0.155868 0.05196,-0.05196 m -0.155782,0.103826 0.103826,-0.05187 m -0.36352,0.05187 h 0.259694 m -0.415476,-0.05187 0.155782,0.05187 m -1.142601,-1.038689 0.103826,-0.05196 m -0.207737,0.155868 0.103911,-0.103912 m -0.155781,0.311649 0.05187,-0.207737 m -0.05187,0.571257 v -0.36352 m 0.05187,0.571258 -0.05187,-0.207738 m 0.155781,0.31165 -0.103911,-0.103912 m 0.207737,0.155782 -0.103826,-0.05187 m 0.311564,0.05187 h -0.207738 m 0.31165,-0.05187 -0.103912,0.05187 m 0.207738,-0.155782 -0.103826,0.103912 m 0.155782,-0.31165 -0.05196,0.207738 m 0.05196,-0.571258 v 0.36352 m -0.05196,-0.571257 0.05196,0.207737 m -0.155782,-0.311649 0.103826,0.103912 m -0.207738,-0.155868 0.103912,0.05196 m -0.31165,-0.05196 h 0.207738 m -0.934777,0 v 1.090645 m -0.363519,-0.311564 0.363519,-0.779081 m -0.727125,0 0.363606,0.779081 m -0.363606,0.311564 v -1.090645 m 47.147025,26.791302 h -0.166174 m 0.166174,0.290867 v -0.290867 m -0.04156,0.332431 0.04156,-0.04156 m -0.166174,0.08304 0.12461,-0.04148 m -0.207738,0.04148 h 0.08313 m -0.207736,-0.04148 0.124608,0.04148 m -0.207739,-0.124607 0.08313,0.08313 m -0.12461,-0.16626 0.04148,0.08313 m -0.08304,-0.249303 0.04156,0.166171 m -0.04156,-0.290781 v 0.12461 m 0.04156,-0.290867 -0.04156,0.166257 m 0.08304,-0.2493 -0.04148,0.08304 m 0.12461,-0.166175 -0.08313,0.08313 m 0.207739,-0.124696 -0.124608,0.04156 m 0.2493,-0.04156 h -0.124692 m 0.207738,0.04156 -0.08305,-0.04156 m -0.332346,-10.075409 -0.04156,-0.04156 m 0.12461,0.08304 -0.08305,-0.04148 m 0.290782,0.04148 h -0.207736 m 0.290867,-0.04148 -0.08313,0.04148 m 0.124696,-0.08304 -0.04157,0.04156 m 0.08304,-0.124696 -0.04148,0.08313 m 0.04148,-0.290867 v 0.207735 m -0.04148,-0.290867 0.04148,0.08313 m -0.08304,-0.124611 0.04157,0.04148 m -0.124696,-0.08304 0.08313,0.04156 m -0.290867,-0.04156 h 0.207736 m -0.290782,0.04156 0.08305,-0.04156 m -0.12461,0.08304 0.04156,-0.04148 m 0,-0.373995 -0.04156,0.415474 m 0.457042,-0.415474 h -0.415478 m -0.789469,0.207739 -0.08305,0.04156 m 0.166174,-0.124611 -0.08313,0.08305 m 0.166256,-0.207739 -0.08313,0.124692 m 0.08313,0.747824 v -0.872516 m 0.249218,0.872516 h -0.49852 m -0.54017,-0.457042 H 57.92314 m 0.373913,-0.04148 -0.08313,0.04148 m 0.124695,-0.08304 -0.04156,0.04156 m 0.08304,-0.124692 -0.04148,0.08313 m 0.04148,-0.166171 v 0.08304 m -0.04148,-0.166175 0.04148,0.08313 m -0.08304,-0.124696 0.04156,0.04156 m -0.124695,-0.08313 0.08313,0.04156 m -0.373913,-0.04156 h 0.290782 m -0.290782,0.872516 v -0.872516 m 0.332349,0.872516 H 57.92314 m 0.415477,-0.04148 -0.08313,0.04148 m 0.124607,-0.08304 -0.04148,0.04156 m 0.08304,-0.124696 -0.04156,0.08313 m 0.04156,-0.207739 v 0.124607 m -0.04156,-0.207735 0.04156,0.08313 m -0.08304,-0.124696 0.04148,0.04157 m -0.166174,-0.08313 0.124695,0.04156 m 1.246426,-2.056593 h 0.540085 m -0.332346,-0.623213 -0.207739,0.623213 m 0.415477,-0.290867 v 0.581648 m -1.163382,-0.664777 -0.08305,0.04157 m 0.166174,-0.124611 -0.08313,0.08305 m 0.166256,-0.207738 -0.08313,0.124692 m 0.08313,0.747823 v -0.872515 m 0.249218,0.872515 h -0.49852 m -0.54017,-0.457041 h -0.290782 m 0.373913,-0.04148 -0.08313,0.04148 m 0.124695,-0.08304 -0.04156,0.04156 m 0.08304,-0.124692 -0.04148,0.08313 m 0.04148,-0.166171 v 0.08304 m -0.04148,-0.166175 0.04148,0.08313 m -0.08304,-0.124696 0.04156,0.04156 m -0.124695,-0.08313 0.08313,0.04156 m -0.373913,-0.04156 h 0.290782 m -0.290782,0.872515 v -0.872515 m 0.332349,0.872515 h -0.332349 m 0.415477,-0.04148 -0.08313,0.04148 m 0.124607,-0.08304 -0.04148,0.04156 m 0.08304,-0.124696 -0.04156,0.08313 m 0.04156,-0.207738 v 0.124607 m -0.04156,-0.207736 0.04156,0.08313 m -0.08304,-0.124696 0.04148,0.04157 m -0.166174,-0.08313 0.124695,0.04156 m 1.246426,-1.807291 -0.04156,-0.04156 m 0.124607,0.08304 -0.08304,-0.04148 m 0.332346,0.04148 h -0.249303 m 0.332434,-0.04148 -0.08313,0.04148 m 0.124696,-0.08304 -0.04157,0.04156 m 0.08304,-0.124695 -0.04148,0.08313 m 0.04148,-0.290867 v 0.207736 m -0.04148,-0.290867 0.04148,0.08313 m -0.08304,-0.12461 0.04157,0.04148 m -0.124696,-0.08304 0.08313,0.04156 m -0.207738,-0.04156 h 0.124607 m 0.166174,-0.332432 -0.290781,0.332432 m -0.249303,-0.332432 h 0.540084 m -1.246425,0.207739 -0.08305,0.04156 m 0.166174,-0.12461 -0.08313,0.08305 m 0.166256,-0.207739 -0.08313,0.124693 m 0.08313,0.747823 v -0.872516 m 0.249218,0.872516 h -0.49852 m -0.54017,-0.457041 h -0.290782 m 0.373913,-0.04148 -0.08313,0.04148 m 0.124695,-0.08304 -0.04156,0.04156 m 0.08304,-0.124693 -0.04148,0.08313 m 0.04148,-0.166175 v 0.08305 m -0.04148,-0.166174 0.04148,0.08313 m -0.08304,-0.124692 0.04156,0.04156 m -0.124695,-0.08313 0.08313,0.04156 m -0.373913,-0.04156 h 0.290782 m -0.290782,0.872516 v -0.872516 m 0.332349,0.872516 h -0.332349 m 0.415477,-0.04148 -0.08313,0.04148 m 0.124607,-0.08304 -0.04148,0.04156 m 0.08304,-0.124695 -0.04156,0.08313 m 0.04156,-0.207739 v 0.124608 m -0.04156,-0.207736 0.04156,0.08313 m -0.08304,-0.124695 0.04148,0.04157 m -0.166174,-0.08313 0.124695,0.04156 m 1.204862,-1.765812 h 0.540084 m -0.04148,-0.49852 -0.498606,0.49852 m 0.540084,-0.623213 -0.04148,0.124693 m 0.04148,-0.207739 v 0.08305 m -0.04148,-0.166174 0.04148,0.08313 m -0.08304,-0.124693 0.04157,0.04156 m -0.124696,-0.08313 0.08313,0.04156 m -0.290867,-0.04156 h 0.207736 m -0.290782,0.04156 0.08305,-0.04156 m -0.12461,0.08313 0.04156,-0.04156 m -0.789469,0.166172 -0.08305,0.04157 m 0.166174,-0.12461 -0.08313,0.08304 m 0.166256,-0.207736 -0.08313,0.124693 m 0.08313,0.747823 V 37.829004 M 59.2526,38.70152 h -0.49852 m -0.54017,-0.457042 h -0.290782 m 0.373913,-0.04148 -0.08313,0.04148 m 0.124695,-0.08304 -0.04156,0.04156 m 0.08304,-0.124693 -0.04148,0.08313 m 0.04148,-0.166174 v 0.08305 m -0.04148,-0.166174 0.04148,0.08313 m -0.08304,-0.124693 0.04156,0.04156 m -0.124695,-0.08313 0.08313,0.04156 m -0.373913,-0.04156 h 0.290782 m -0.290782,0.872516 v -0.872516 m 0.332349,0.872516 h -0.332349 m 0.415477,-0.04148 -0.08313,0.04148 m 0.124607,-0.08304 -0.04148,0.04156 m 0.08304,-0.124696 -0.04156,0.08313 m 0.04156,-0.207739 v 0.124607 m -0.04156,-0.207735 0.04156,0.08313 m -0.08304,-0.124696 0.04148,0.04157 m -0.166174,-0.08313 0.124695,0.04156 m 1.329469,-2.430592 -0.08304,0.04157 m 0.166175,-0.124611 -0.08313,0.08304 m 0.16626,-0.207735 -0.08313,0.124692 m 0.08313,0.747824 v -0.872516 m 0.249217,0.872516 h -0.49852 m -0.747905,-0.664781 -0.08305,0.04157 m 0.166174,-0.124611 -0.08313,0.08304 m 0.166256,-0.207735 -0.08313,0.124692 m 0.08313,0.747824 v -0.872516 m 0.249218,0.872516 h -0.49852 m -0.54017,-0.457042 h -0.290782 m 0.373913,-0.04148 -0.08313,0.04148 m 0.124695,-0.08304 -0.04156,0.04156 m 0.08304,-0.124692 -0.04148,0.08313 m 0.04148,-0.166174 v 0.08305 m -0.04148,-0.166175 0.04148,0.08313 m -0.08304,-0.124693 0.04156,0.04156 m -0.124695,-0.08313 0.08313,0.04156 m -0.373913,-0.04156 h 0.290782 m -0.290782,0.872516 v -0.872516 m 0.332349,0.872516 h -0.332349 m 0.415477,-0.04148 -0.08313,0.04148 m 0.124607,-0.08304 -0.04148,0.04156 m 0.08304,-0.124696 -0.04156,0.08313 m 0.04156,-0.207739 v 0.124607 m -0.04156,-0.207739 0.04156,0.08313 m -0.08304,-0.124696 0.04148,0.04156 m -0.166174,-0.08313 0.124695,0.04156 m 1.371036,-2.596763 0.08313,-0.04156 m -0.124696,0.08313 0.04157,-0.04156 m -0.08305,0.124692 0.04148,-0.08313 m -0.08304,0.249303 0.04156,-0.166175 m -0.04156,0.373914 v -0.207739 m 0.04156,0.37391 -0.04156,-0.166171 m 0.08304,0.249302 -0.04148,-0.08313 m 0.08305,0.124696 -0.04157,-0.04156 m 0.124696,0.08304 -0.08313,-0.04148 m 0.166197,0.04158 h -0.08304 m 0.166171,-0.04148 -0.08313,0.04148 m 0.124695,-0.08304 -0.04157,0.04156 m 0.08313,-0.124696 -0.04157,0.08313 m 0.08304,-0.249302 -0.04148,0.166171 m 0.04148,-0.37391 v 0.207739 m -0.04148,-0.373914 0.04148,0.166175 m -0.08304,-0.249303 0.04157,0.08313 m -0.08313,-0.124692 0.04157,0.04156 m -0.124695,-0.08313 0.08313,0.04156 m -0.166171,-0.04156 h 0.08304 m -1.038687,0.207735 -0.08305,0.04157 m 0.166174,-0.124611 -0.08313,0.08304 m 0.166256,-0.207735 -0.08313,0.124692 m 0.08313,0.747823 V 33.46651 m 0.249218,0.872515 h -0.49852 m -0.54017,-0.457041 h -0.290782 m 0.373913,-0.04148 -0.08313,0.04148 m 0.124695,-0.08304 -0.04156,0.04156 m 0.08304,-0.124692 -0.04148,0.08313 m 0.04148,-0.166175 v 0.08305 m -0.04148,-0.166175 0.04148,0.08313 m -0.08304,-0.124692 0.04156,0.04156 m -0.124695,-0.08313 0.08313,0.04156 m -0.373913,-0.04156 h 0.290782 m -0.290776,0.872523 v -0.872515 m 0.332349,0.872515 h -0.332349 m 0.415477,-0.04148 -0.08313,0.04148 m 0.124607,-0.08304 -0.04148,0.04156 m 0.08304,-0.124696 -0.04156,0.08313 m 0.04156,-0.207738 v 0.124607 m -0.04156,-0.207739 0.04156,0.08313 m -0.08304,-0.124696 0.04148,0.04156 m -0.166174,-0.08313 0.124695,0.04156 m 1.703468,-2.18129 0.04148,-0.08304 m -0.08304,0.124607 0.04157,-0.04156 m -0.124696,0.08313 0.08313,-0.04157 m -0.249302,0.04157 h 0.166171 m -0.249303,-0.04157 0.08313,0.04157 m -0.124611,-0.08313 0.04148,0.04156 m -0.08304,-0.124607 0.04156,0.08304 m -0.04156,-0.290782 v 0.207739 m 0.04156,-0.290867 -0.04156,0.08313 m 0.08304,-0.124692 -0.04148,0.04156 m 0.124611,-0.08313 -0.08313,0.04156 m 0.249303,-0.04156 h -0.166171 m 0.249302,0.04156 -0.08313,-0.04156 m 0.124696,0.08313 -0.04157,-0.04156 m 0.08304,0.124692 -0.04148,-0.08313 m 0.04148,0.415474 v -0.332346 m -0.04148,0.49852 0.04148,-0.166174 m -0.12461,0.290867 0.08313,-0.124693 m -0.124696,0.16626 0.04156,-0.04157 m -0.124607,0.08305 0.08304,-0.04148 m -0.249303,0.04148 h 0.16626 m -0.789473,-0.457041 h -0.290781 m 0.373913,-0.04148 -0.08313,0.04148 m 0.124696,-0.08304 -0.04156,0.04156 m 0.08304,-0.124693 -0.04148,0.08313 m 0.04148,-0.166175 v 0.08305 m -0.04148,-0.166174 0.04148,0.08313 m -0.08304,-0.124692 0.04156,0.04156 m -0.124696,-0.08313 0.08313,0.04156 m -0.373913,-0.04156 h 0.290781 m -0.290781,0.872516 v -0.872516 m 0.332345,0.872516 h -0.332345 m 0.415477,-0.04148 -0.08313,0.04148 m 0.124611,-0.08305 -0.04148,0.04157 m 0.08304,-0.124695 -0.04156,0.08313 m 0.04156,-0.207735 v 0.124607 m -0.04156,-0.207739 0.04156,0.08313 m -0.08304,-0.124696 0.04148,0.04156 m -0.166175,-0.08313 0.124696,0.04156 m 0.830951,-2.222854 -0.08313,-0.04148 m 0.124696,0.08304 -0.04157,-0.04156 m 0.08304,0.124694 -0.04148,-0.08313 m 0.04148,0.249303 v -0.166174 m -0.04148,0.249303 0.04148,-0.08313 m -0.08304,0.124694 0.04157,-0.04156 m -0.124696,0.08304 0.08313,-0.04148 m -0.249302,0.04148 h 0.166171 m -0.249303,-0.04148 0.08313,0.04148 m -0.124611,-0.08304 0.04148,0.04156 m -0.08304,-0.124694 0.04156,0.08313 m -0.04156,-0.249303 v 0.166174 m 0.04156,-0.249303 -0.04156,0.08313 m 0.08304,-0.124694 -0.04148,0.04156 m 0.124611,-0.08304 -0.08313,0.04148 m 0.249303,-0.04148 h -0.166171 m 0.249302,-0.04156 -0.08313,0.04156 m 0.124696,-0.08313 -0.04157,0.04157 m 0.08304,-0.124694 -0.04148,0.08313 m 0.04148,-0.124608 v 0.04148 m -0.04148,-0.124609 0.04148,0.08313 m -0.08304,-0.124694 0.04157,0.04156 m -0.124696,-0.08313 0.08313,0.04156 m -0.249302,-0.04156 h 0.166171 m -0.249303,0.04156 0.08313,-0.04156 m -0.124611,0.08313 0.04148,-0.04156 m -0.08304,0.124694 0.04156,-0.08313 m -0.04156,0.124609 v -0.04148 m 0.04156,0.124608 -0.04156,-0.08313 m 0.08304,0.124694 -0.04148,-0.04157 m 0.124611,0.08313 -0.08313,-0.04156 m -0.623213,0.08304 h -0.290781 m 0.373913,-0.04148 -0.08313,0.04148 m 0.124696,-0.08304 -0.04156,0.04156 m 0.08304,-0.124695 -0.04148,0.08313 m 0.04148,-0.166173 v 0.08304 m -0.04148,-0.166173 0.04148,0.08313 m -0.08304,-0.124694 0.04156,0.04156 m -0.124696,-0.08313 0.08313,0.04156 m -0.373913,-0.04156 h 0.290781 m -0.290781,0.872516 v -0.872516 m 0.332345,0.872516 h -0.332345 m 0.415477,-0.04148 -0.08313,0.04148 m 0.124611,-0.08304 -0.04148,0.04156 m 0.08304,-0.124694 -0.04156,0.08313 m 0.04156,-0.207738 v 0.124609 m -0.04156,-0.207738 0.04156,0.08313 m -0.08304,-0.124694 0.04148,0.04156 m -0.166175,-0.08313 0.124696,0.04156 m 0.955559,-2.638329 -0.37391,0.872515 m -0.207739,-0.872515 h 0.581649 m -1.080255,0.415475 h -0.290781 m 0.373913,-0.04148 -0.08313,0.04148 m 0.124696,-0.08304 -0.04156,0.04156 m 0.08304,-0.124694 -0.04148,0.08313 m 0.04148,-0.166173 v 0.08304 m -0.04148,-0.166173 0.04148,0.08313 m -0.08304,-0.124694 0.04156,0.04157 m -0.124696,-0.08313 0.08313,0.04156 m -0.373913,-0.04156 h 0.290781 m -0.290781,0.872515 v -0.872515 m 0.332345,0.872515 h -0.332345 m 0.415477,-0.04148 -0.08313,0.04148 m 0.124611,-0.08304 -0.04148,0.04156 m 0.08304,-0.124695 -0.04156,0.08313 m 0.04156,-0.207738 v 0.124608 m -0.04156,-0.207738 0.04156,0.08313 m -0.08304,-0.124694 0.04148,0.04156 m -0.166175,-0.08313 0.124696,0.04157 m 0.457038,-2.222855 -0.04156,0.08313 m 0.08304,-0.124608 -0.04148,0.04148 m 0.124611,-0.08304 -0.08313,0.04156 m 0.249303,-0.04156 h -0.166171 m 0.249302,0.04156 -0.08313,-0.04156 m 0.124696,0.08304 -0.04157,-0.04148 m 0.08304,0.124608 -0.04148,-0.08313 m 0.04148,0.290868 v -0.207694 m -0.04148,0.290867 0.04148,-0.08313 m -0.08304,0.124694 0.04157,-0.04156 m -0.124696,0.08304 0.08313,-0.04148 m -0.249302,0.04148 h 0.166171 m -0.249303,-0.04148 0.08313,0.04148 m -0.124611,-0.08304 0.04148,0.04156 m -0.08304,-0.124694 0.04156,0.08313 m -0.04156,-0.415475 v 0.332346 m 0.04156,-0.498605 -0.04156,0.166259 m 0.12461,-0.290867 -0.08305,0.124608 m 0.124611,-0.166173 -0.04156,0.04157 m 0.124693,-0.08313 -0.08313,0.04156 m 0.249302,-0.04156 h -0.166174 m -0.789473,0.41547 H 58.7541 m 0.373913,-0.04148 -0.08313,0.04148 m 0.124696,-0.08304 -0.04156,0.04156 m 0.08304,-0.124694 -0.04148,0.08313 m 0.04148,-0.166173 v 0.08304 m -0.04148,-0.166173 0.04148,0.08313 m -0.08304,-0.124694 0.04156,0.04157 m -0.124696,-0.08313 0.08313,0.04156 M 58.7541,24.741359 h 0.290781 M 58.7541,25.613875 v -0.872516 m 0.332345,0.872516 H 58.7541 m 0.415477,-0.04148 -0.08313,0.04148 m 0.124611,-0.08304 -0.04148,0.04156 m 0.08304,-0.124694 -0.04156,0.08313 m 0.04156,-0.207738 v 0.124609 m -0.04156,-0.207738 0.04156,0.08313 m -0.08304,-0.124694 0.04148,0.04157 m -0.166175,-0.08313 0.124696,0.04156 m 0.457038,-1.807292 -0.04156,-0.04156 m 0.12461,0.08304 -0.08305,-0.04148 m 0.290782,0.04148 h -0.207736 m 0.290867,-0.04148 -0.08313,0.04148 m 0.124696,-0.08304 -0.04157,0.04156 m 0.08304,-0.124694 -0.04148,0.08313 m 0.04148,-0.290867 v 0.207738 m -0.04148,-0.290868 0.04148,0.08313 m -0.08304,-0.124609 0.04157,0.04148 m -0.124696,-0.08304 0.08313,0.04156 m -0.290867,-0.04156 h 0.207736 m -0.290782,0.04156 0.08305,-0.04156 m -0.12461,0.08304 0.04156,-0.04148 m 0,-0.373996 -0.04156,0.415475 m 0.457042,-0.415475 h -0.415478 m -0.581734,0.415475 h -0.290781 m 0.373913,-0.04148 -0.08313,0.04148 m 0.124696,-0.08304 -0.04156,0.04156 m 0.08304,-0.124694 -0.04148,0.08313 m 0.04148,-0.166173 v 0.08304 m -0.04148,-0.166173 0.04148,0.08313 m -0.08304,-0.124694 0.04156,0.04156 m -0.124696,-0.08313 0.08313,0.04156 m -0.373913,-0.04156 h 0.290781 m -0.290781,0.872516 v -0.872516 m 0.332345,0.872516 h -0.332345 m 0.415477,-0.04148 -0.08313,0.04148 m 0.124611,-0.08304 -0.04148,0.04156 m 0.08304,-0.124694 -0.04156,0.08313 m 0.04156,-0.207738 v 0.124609 m -0.04156,-0.207738 0.04156,0.08313 m -0.08304,-0.124694 0.04148,0.04156 m -0.166175,-0.08313 0.124696,0.04156 m 0.415474,-2.056595 h 0.540085 m -0.332346,-0.623214 -0.207739,0.623214 m 0.415477,-0.290867 v 0.581648 m -0.955647,-0.45704 h -0.290781 m 0.373913,-0.04148 -0.08313,0.04148 m 0.124696,-0.08304 -0.04156,0.04156 m 0.08304,-0.124694 -0.04148,0.08313 m 0.04148,-0.166173 v 0.08304 m -0.04148,-0.166173 0.04148,0.08313 m -0.08304,-0.124694 0.04156,0.04157 m -0.124696,-0.08313 0.08313,0.04156 m -0.373913,-0.04156 h 0.290781 m -0.290781,0.872516 v -0.872516 m 0.332345,0.872516 h -0.332345 m 0.415477,-0.04148 -0.08313,0.04148 m 0.124611,-0.08304 -0.04148,0.04156 m 0.08304,-0.124694 -0.04156,0.08313 m 0.04156,-0.207738 v 0.124608 m -0.04156,-0.207738 0.04156,0.08313 m -0.08304,-0.124695 0.04148,0.04157 m -0.166175,-0.08313 0.124696,0.04156 m 0.415474,-1.807292 -0.04156,-0.04156 m 0.124607,0.08304 -0.08304,-0.04148 m 0.332346,0.04148 h -0.249303 m 0.332434,-0.04148 -0.08313,0.04148 m 0.124696,-0.08304 -0.04157,0.04156 m 0.08304,-0.124694 -0.04148,0.08313 m 0.04148,-0.290867 v 0.207751 m -0.04148,-0.290868 0.04148,0.08313 m -0.08304,-0.124608 0.04157,0.04148 m -0.124696,-0.08304 0.08313,0.04156 m -0.207738,-0.04156 h 0.124607 m 0.166174,-0.332432 -0.290781,0.332432 m -0.249303,-0.332432 h 0.540084 m -1.03869,0.415475 h -0.290781 m 0.373913,-0.04148 -0.08313,0.04148 m 0.124696,-0.08304 -0.04156,0.04156 m 0.08304,-0.124694 -0.04148,0.08313 m 0.04148,-0.166173 v 0.08304 m -0.04148,-0.166174 0.04148,0.08313 m -0.08304,-0.124694 0.04156,0.04156 m -0.124696,-0.08313 0.08313,0.04156 m -0.373913,-0.04156 h 0.290781 m -0.290781,0.872516 v -0.872516 m 0.332345,0.872516 h -0.332345 m 0.415477,-0.04148 -0.08313,0.04148 m 0.124611,-0.08304 -0.04148,0.04156 m 0.08304,-0.124694 -0.04156,0.08313 m 0.04156,-0.207738 v 0.124614 m -0.04156,-0.207738 0.04156,0.08313 m -0.08304,-0.124694 0.04148,0.04156 m -0.166175,-0.08313 0.124696,0.04156 m 0.498517,-2.430592 -0.08304,0.04157 m 0.166175,-0.124608 -0.08313,0.08304 m 0.16626,-0.207737 -0.08313,0.124694 m 0.08313,0.747821 v -0.872515 m 0.249217,0.872515 h -0.49852 m -0.54017,-0.45704 h -0.290781 m 0.373913,-0.04148 -0.08313,0.04148 m 0.124696,-0.08304 -0.04156,0.04156 m 0.08304,-0.124694 -0.04148,0.08313 m 0.04148,-0.166174 v 0.08304 m -0.04148,-0.166173 0.04148,0.08313 m -0.08304,-0.124694 0.04156,0.04157 m -0.124696,-0.08313 0.08313,0.04156 m -0.373913,-0.04156 h 0.290781 m -0.290781,0.872515 v -0.872515 m 0.332345,0.872515 h -0.332345 m 0.415477,-0.04148 -0.08313,0.04148 m 0.124611,-0.08304 -0.04148,0.04156 m 0.08304,-0.124694 -0.04156,0.08313 m 0.04156,-0.207738 v 0.124608 m -0.04156,-0.207738 0.04156,0.08313 m -0.08304,-0.124694 0.04148,0.04156 m -0.166175,-0.08313 0.124696,0.04156 m 0.540084,-2.596765 0.08313,-0.04157 m -0.124696,0.08313 0.04157,-0.04156 m -0.08305,0.124694 0.04148,-0.08313 m -0.08304,0.249302 0.04156,-0.166173 m -0.04156,0.373911 v -0.207719 m 0.04156,0.373911 -0.04156,-0.166173 m 0.08304,0.249302 -0.04148,-0.08313 m 0.08305,0.124694 -0.04157,-0.04157 m 0.124696,0.08304 -0.08313,-0.04148 m 0.166172,0.04148 h -0.08304 m 0.166171,-0.04148 -0.08313,0.04148 m 0.124695,-0.08304 -0.04157,0.04157 m 0.08313,-0.124694 -0.04157,0.08313 m 0.08304,-0.249302 -0.04148,0.166173 m 0.04148,-0.373911 v 0.207738 m -0.04148,-0.373911 0.04148,0.166173 m -0.08304,-0.249302 0.04157,0.08313 m -0.08313,-0.124694 0.04157,0.04156 m -0.124695,-0.08313 0.08313,0.04157 m -0.166171,-0.04157 h 0.08304 m -0.830952,0.415476 h -0.290781 m 0.373913,-0.04148 -0.08313,0.04148 m 0.124696,-0.08304 -0.04156,0.04157 m 0.08304,-0.124694 -0.04148,0.08313 m 0.04148,-0.166173 v 0.08304 m -0.04148,-0.166173 0.04148,0.08313 m -0.08304,-0.124694 0.04156,0.04156 m -0.124696,-0.08313 0.08313,0.04157 m -0.373913,-0.04157 h 0.290781 m -0.290781,0.872516 v -0.872516 m 0.332345,0.872516 h -0.332345 m 0.415477,-0.04148 -0.08313,0.04148 m 0.124611,-0.08304 -0.04148,0.04157 m 0.08304,-0.124694 -0.04156,0.08313 m 0.04156,-0.207737 v 0.124608 m -0.04156,-0.207738 0.04156,0.08313 m -0.08304,-0.124695 0.04148,0.04157 m -0.166175,-0.08313 0.124696,0.04156 m 0.74782,-4.3625785 h -0.332346 m 0.415477,-0.041564 -0.08313,0.041564 m 0.12461,-0.083044 -0.04148,0.041479 m 0.08304,-0.1246084 -0.04156,0.083129 m 0.04156,-0.2077377 v 0.1246084 m -0.04156,-0.2077377 0.04156,0.083129 m -0.08304,-0.1246942 0.04148,0.041565 m -0.12461,-0.08313 0.08313,0.041565 m -0.415477,-0.041565 h 0.332346 M 59.585051,10.344848 V 9.4723322 M 60.083571,10.344848 59.79279,9.9293725 M 59.87583,8.1635587 60.166611,7.291043 m -0.581648,0 0.290867,0.8725157 m -0.99712,-0.041479 -0.04156,-0.041565 m 0.124607,0.083044 -0.08304,-0.041479 m 0.290782,0.041479 h -0.207746 m 0.290867,-0.041479 -0.08313,0.041479 m 0.124692,-0.083044 -0.04156,0.041565 m 0.08304,-0.1246941 -0.04148,0.083129 m 0.04148,-0.290867 v 0.2077377 m -0.04148,-0.2908674 0.04148,0.08313 m -0.08304,-0.1246084 0.04156,0.041479 m -0.124692,-0.083044 0.08313,0.041565 m -0.290867,-0.041565 h 0.207739 m -0.290782,0.041565 0.08304,-0.041565 m -0.124607,0.083044 0.04156,-0.041479 m 0,-0.3739967 -0.04156,0.4154754 m 0.457038,-0.4154754 h -0.415474 m -21.474624,47.7287592 -0.04156,-0.04156 m 0.124607,0.08304 -0.08304,-0.04148 m 0.332346,0.04148 h -0.249303 m 0.332434,-0.04148 -0.08313,0.04148 m 0.124695,-0.08304 -0.04156,0.04156 m 0.08304,-0.124692 -0.04148,0.08313 m 0.04148,-0.290867 v 0.207739 m -0.04148,-0.29087 0.04148,0.08313 m -0.08304,-0.12461 0.04156,0.04148 m -0.124695,-0.08304 0.08313,0.04156 m -0.207738,-0.04156 h 0.124607 m 0.166174,-0.332431 -0.290781,0.332431 m -0.249303,-0.332431 h 0.540084 m -0.87243,0.789472 v 0.08304 m -0.04156,-0.04148 0.04156,-0.04156 m 0,0.08304 -0.04156,-0.04148 m 0.08304,0 -0.04148,0.04148 m 0,-0.08304 0.04148,0.04156 m -0.913995,0 -0.04156,-0.04156 m 0.124607,0.08304 -0.08304,-0.04148 m 0.332346,0.04148 h -0.249315 m 0.332431,-0.04148 -0.08313,0.04148 m 0.124696,-0.08304 -0.04157,0.04156 m 0.08305,-0.124692 -0.04148,0.08313 m 0.04148,-0.290867 v 0.207739 m -0.04148,-0.29087 0.04148,0.08313 m -0.08305,-0.12461 0.04157,0.04148 m -0.124696,-0.08304 0.08313,0.04156 m -0.207735,-0.04156 h 0.124607 m 0.166175,-0.332431 -0.290782,0.332431 m -0.249303,-0.332431 h 0.540085 m 1.246511,-2.440897 -0.04156,-0.04156 m 0.124608,0.08304 -0.08304,-0.04148 m 0.290781,0.04148 h -0.207738 m 0.290867,-0.04148 -0.08313,0.04148 m 0.124693,-0.08304 -0.04156,0.04156 m 0.08304,-0.124696 -0.04148,0.08313 m 0.04148,-0.290867 v 0.207736 m -0.04148,-0.290867 0.04148,0.08313 m -0.08304,-0.12461 0.04156,0.04148 m -0.124693,-0.08304 0.08313,0.04156 m -0.290867,-0.04156 h 0.207738 m -0.290781,0.04156 0.08304,-0.04156 m -0.124608,0.08304 0.04156,-0.04148 m 0,-0.373995 -0.04156,0.415474 m 0.457039,-0.415474 h -0.415474 m -0.789473,0.207738 -0.08304,0.04156 m 0.166174,-0.124608 -0.08313,0.08304 m 0.16626,-0.207738 -0.08313,0.124695 m 0.08313,0.74782 v -0.872515 m 0.249217,0.872515 h -0.49852 m -0.373995,-0.830951 0.04156,0.04156 m -0.166175,-0.08313 0.124611,0.04156 m -0.207739,-0.04156 h 0.08313 m -0.207735,0.04156 0.124607,-0.04156 m -0.207739,0.124695 0.08313,-0.08313 m -0.124611,0.166174 0.04148,-0.08304 m -0.08304,0.2493 0.04156,-0.166257 m -0.04156,0.290867 v -0.12461 m 0.04156,0.290782 -0.04156,-0.166172 m 0.08304,0.249303 -0.04148,-0.08313 m 0.124611,0.16626 -0.08313,-0.08313 m 0.207739,0.124607 -0.124607,-0.04148 m 0.207735,0.04148 h -0.08313 m 0.207739,-0.04148 -0.124611,0.04148 m 0.166175,-0.08304 -0.04156,0.04156 m 1.204946,-2.430593 h 0.540085 m -0.332346,-0.623212 -0.207739,0.623212 m 0.415475,-0.290867 v 0.581649 m -1.163383,-0.664777 -0.08304,0.04156 m 0.166174,-0.12461 -0.08313,0.08305 m 0.16626,-0.207739 -0.08313,0.124693 m 0.08313,0.747823 v -0.872516 m 0.249217,0.872516 h -0.49852 m -0.373995,-0.830951 0.04156,0.04156 m -0.166175,-0.08313 0.124611,0.04157 m -0.207739,-0.04157 h 0.08313 m -0.207735,0.04157 0.124607,-0.04157 m -0.207739,0.124693 0.08313,-0.08313 m -0.124611,0.166174 0.04148,-0.08305 m -0.08304,0.249303 0.04156,-0.166257 m -0.04156,0.290867 v -0.12461 m 0.04156,0.290781 -0.04156,-0.166171 m 0.08304,0.249303 -0.04148,-0.08313 m 0.124611,0.16626 -0.08313,-0.08313 m 0.207739,0.124607 -0.124607,-0.04148 m 0.207735,0.04148 h -0.08313 m 0.207739,-0.04148 -0.124611,0.04148 m 0.166175,-0.08304 -0.04156,0.04156 M 37.86114,47.38527 37.81958,47.34371 m 0.124607,0.08304 -0.08304,-0.04148 m 0.332346,0.04148 H 37.94419 m 0.332432,-0.04148 -0.08313,0.04148 m 0.124693,-0.08304 -0.04156,0.04156 m 0.08304,-0.124696 -0.04148,0.08313 m 0.04148,-0.290867 v 0.207735 m -0.04148,-0.290867 0.04148,0.08313 m -0.08304,-0.12461 0.04156,0.04148 m -0.124693,-0.08304 0.08313,0.04157 m -0.207736,-0.04157 h 0.124607 m 0.166172,-0.332431 -0.290779,0.332431 m -0.249323,-0.332412 h 0.540082 m -1.246426,0.207739 -0.08304,0.04156 m 0.166174,-0.12461 -0.08313,0.08305 m 0.16626,-0.207739 -0.08313,0.124693 m 0.08313,0.747823 v -0.872516 m 0.249217,0.872516 h -0.49852 m -0.373995,-0.830952 0.04156,0.04156 m -0.166175,-0.08313 0.124611,0.04156 m -0.207739,-0.04156 h 0.08313 m -0.207735,0.04156 0.124607,-0.04156 m -0.207739,0.124693 0.08313,-0.08313 m -0.124611,0.166175 0.04148,-0.08305 m -0.08304,0.249303 0.04156,-0.166257 m -0.04156,0.290867 v -0.12461 m 0.04156,0.290781 -0.04156,-0.166171 m 0.08304,0.249303 -0.04148,-0.08313 m 0.124611,0.16626 -0.08313,-0.08313 m 0.207739,0.124607 -0.124607,-0.04148 m 0.207735,0.04148 h -0.08313 m 0.207739,-0.04148 -0.124611,0.04148 m 0.166175,-0.08304 -0.04156,0.04156 m 1.121904,-4.362578 -0.04157,-0.04156 m 0.12461,0.08304 -0.08304,-0.04148 m 0.290781,0.04148 h -0.207739 m 0.290868,-0.04148 -0.08313,0.04148 m 0.124693,-0.08304 -0.04156,0.04156 m 0.08304,-0.124696 -0.04148,0.08313 m 0.04148,-0.290867 v 0.207736 m -0.04148,-0.290867 0.04148,0.08313 m -0.08304,-0.12461 0.04156,0.04148 m -0.124693,-0.08304 0.08313,0.04156 m -0.290868,-0.04156 h 0.207739 m -0.290781,0.04156 0.08304,-0.04156 m -0.12461,0.08304 0.04157,-0.04148 m 0,-0.373995 -0.04157,0.415474 m 0.457042,-0.415474 h -0.415474 m -0.789473,0.207738 -0.08304,0.04157 m 0.166171,-0.124611 -0.08313,0.08305 m 0.16626,-0.207738 -0.08313,0.124692 m 0.08313,0.747823 V 42.19167 m 0.249214,0.872515 h -0.498517 m -0.54017,-0.872515 0.290782,0.872515 m -0.581649,0 0.290867,-0.872515 m -0.207739,0.623213 h 0.415474 m 1.121819,-1.931987 h 0.540084 m -0.04148,-0.49852 -0.498606,0.49852 m 0.540084,-0.623213 -0.04148,0.124693 m 0.04148,-0.207739 v 0.08305 m -0.04148,-0.166174 0.04148,0.08313 m -0.08304,-0.124692 0.04156,0.04156 m -0.124693,-0.08313 0.08313,0.04156 m -0.290868,-0.04156 h 0.207739 m -0.290781,0.04156 0.08304,-0.04156 m -0.12461,0.08313 0.04157,-0.04156 m -0.789473,0.166174 -0.08304,0.04156 m 0.166171,-0.12461 -0.08313,0.08305 m 0.16626,-0.207739 -0.08313,0.124693 m 0.08313,0.747823 v -0.872516 m 0.249214,0.872516 H 36.90557 m -0.54017,-0.872516 0.290782,0.872516 m -0.581649,0 0.290867,-0.872516 m -0.207739,0.623213 h 0.415474 m 1.246429,-2.596766 -0.08305,0.04157 m 0.166175,-0.12461 -0.08313,0.08304 m 0.166257,-0.207736 -0.08313,0.124693 m 0.08313,0.747823 v -0.872516 m 0.249217,0.872516 h -0.49852 m -0.747905,-0.66478 -0.08304,0.04157 m 0.166171,-0.12461 -0.08313,0.08304 m 0.16626,-0.207736 -0.08313,0.124693 m 0.08313,0.747823 v -0.872516 m 0.249214,0.872516 h -0.498517 m -0.54017,-0.872516 0.290782,0.872516 m -0.581649,0 0.290867,-0.872516 m -0.207739,0.623213 h 0.415474 m 1.287993,-2.762938 0.08313,-0.04156 m -0.124693,0.08313 0.04156,-0.04156 m -0.08304,0.124693 0.04148,-0.08313 m -0.08305,0.249303 0.04157,-0.166174 m -0.04157,0.373913 v -0.207739 m 0.04157,0.37391 -0.04157,-0.166171 m 0.08305,0.249303 -0.04148,-0.08313 m 0.08304,0.124696 -0.04156,-0.04156 m 0.124693,0.08304 -0.08313,-0.04148 m 0.166172,0.04148 h -0.08304 m 0.166174,-0.04148 -0.08313,0.04148 m 0.124696,-0.08304 -0.04156,0.04156 m 0.08313,-0.124696 -0.04156,0.08313 m 0.08304,-0.249303 -0.04148,0.166171 m 0.04148,-0.37391 v 0.207739 m -0.04148,-0.373913 0.04148,0.166174 m -0.08304,-0.249303 0.04156,0.08313 m -0.08313,-0.124693 0.04156,0.04156 m -0.124696,-0.08313 0.08313,0.04156 m -0.166174,-0.04156 h 0.08304 m -1.038687,0.207735 -0.08304,0.04157 m 0.166171,-0.124611 -0.08313,0.08304 m 0.16626,-0.207735 -0.08313,0.124692 m 0.08313,0.747824 v -0.872516 m 0.249214,0.872516 h -0.498517 m -0.54017,-0.872516 0.290782,0.872516 m -0.581649,0 0.290867,-0.872516 m -0.207739,0.623213 h 0.415474 m 0.789473,-2.347464 0.04148,-0.08304 m -0.08304,0.124607 0.04156,-0.04156 m -0.124692,0.08313 0.08313,-0.04157 m -0.249303,0.04157 h 0.166175 m -0.249303,-0.04157 0.08313,0.04157 m -0.124607,-0.08313 0.04148,0.04156 m -0.08304,-0.124607 0.04156,0.08304 m -0.04156,-0.290782 v 0.207739 m 0.04156,-0.290867 -0.04156,0.08313 m 0.08304,-0.124692 -0.04148,0.04156 m 0.124607,-0.08313 -0.08313,0.04156 m 0.249303,-0.04156 H 37.07174 m 0.249303,0.04156 -0.08313,-0.04156 m 0.124692,0.08313 -0.04156,-0.04156 m 0.08304,0.124692 -0.04148,-0.08313 m 0.04148,0.415474 v -0.332346 m -0.04148,0.498521 0.04148,-0.166175 m -0.124607,0.29087 0.08313,-0.124695 m -0.124692,0.16626 0.04156,-0.04156 m -0.124607,0.08304 0.08304,-0.04148 m -0.249303,0.04148 h 0.16626 m -0.789473,-0.872515 0.290782,0.872515 m -0.581649,0 0.290867,-0.872515 m -0.207739,0.623213 h 0.415474 m 0.747909,-2.389029 -0.08313,-0.04148 m 0.124692,0.08304 -0.04156,-0.04156 m 0.08304,0.124695 -0.04148,-0.08313 m 0.04148,0.249303 v -0.166172 m -0.04148,0.2493 0.04148,-0.08313 m -0.08304,0.124695 0.04156,-0.04157 m -0.124692,0.08305 0.08313,-0.04148 m -0.249303,0.04148 h 0.166175 m -0.249303,-0.04148 0.08313,0.04148 m -0.124607,-0.08305 0.04148,0.04157 m -0.08304,-0.124695 0.04156,0.08313 m -0.04156,-0.2493 v 0.166172 m 0.04156,-0.249303 -0.04156,0.08313 m 0.08304,-0.124695 -0.04148,0.04156 m 0.124607,-0.08304 -0.08313,0.04148 m 0.249303,-0.04148 h -0.166175 m 0.249303,-0.04156 -0.08313,0.04156 m 0.124692,-0.08313 -0.04156,0.04156 m 0.08304,-0.124696 -0.04148,0.08313 m 0.04148,-0.12461 v 0.04148 m -0.04148,-0.124607 0.04148,0.08313 m -0.08304,-0.124692 0.04156,0.04156 m -0.124692,-0.08313 0.08313,0.04156 m -0.249303,-0.04156 h 0.166175 m -0.249303,0.04156 0.08313,-0.04156 m -0.124607,0.08313 0.04148,-0.04156 m -0.08304,0.124692 0.04156,-0.08313 m -0.04156,0.124607 v -0.04148 m 0.04156,0.12461 -0.04156,-0.08313 m 0.08304,0.124696 -0.04148,-0.04156 m 0.124607,0.08313 -0.08313,-0.04156 m -0.623213,-0.332432 0.290782,0.872516 m -0.581649,0 0.290867,-0.872516 m -0.207739,0.623213 h 0.415474 m 0.872516,-2.804503 -0.37391,0.872516 m -0.207739,-0.872516 h 0.581649 m -1.080251,0 0.290782,0.872516 m -0.581649,0 0.290867,-0.872516 m -0.207739,0.623213 h 0.415474 m 0.373999,-2.389027 -0.04156,0.08313 m 0.08304,-0.124608 -0.04148,0.04148 m 0.124607,-0.08304 -0.08313,0.04156 m 0.249303,-0.04156 h -0.166175 m 0.249303,0.04156 -0.08313,-0.04156 m 0.124692,0.08304 -0.04156,-0.04148 m 0.08304,0.124608 -0.04148,-0.08313 m 0.04148,0.290867 v -0.207738 m -0.04148,0.290868 0.04148,-0.08313 m -0.08304,0.124695 0.04156,-0.04156 m -0.124692,0.08304 0.08313,-0.04148 m -0.249303,0.04148 h 0.166175 m -0.249303,-0.04148 0.08313,0.04148 m -0.124607,-0.08304 0.04148,0.04156 m -0.08304,-0.124695 0.04156,0.08313 m -0.04156,-0.415476 v 0.332346 m 0.04156,-0.498605 -0.04156,0.166259 m 0.124607,-0.290867 -0.08304,0.124608 m 0.124607,-0.166173 -0.04156,0.04157 m 0.124696,-0.08313 -0.08313,0.04156 m 0.249303,-0.04156 h -0.166171 m -0.789473,0 0.290782,0.872515 m -0.581649,0 0.290867,-0.872515 m -0.207739,0.623213 h 0.415474 m 0.373999,-1.973466 -0.04156,-0.04156 m 0.124607,0.08304 -0.08304,-0.04148 m 0.290782,0.04148 H 37.03019 m 0.290867,-0.04148 -0.08313,0.04148 m 0.124692,-0.08304 -0.04156,0.04156 m 0.08304,-0.124694 -0.04148,0.08313 m 0.04148,-0.290867 v 0.207738 m -0.04148,-0.290868 0.04148,0.08313 m -0.08304,-0.124608 0.04156,0.04148 m -0.124692,-0.08304 0.08313,0.04156 m -0.290867,-0.04156 h 0.207739 m -0.290782,0.04156 0.08304,-0.04156 m -0.124607,0.08304 0.04156,-0.04148 m 0,-0.373997 -0.04156,0.415475 m 0.457038,-0.415475 h -0.415485 m -0.581734,0 0.290782,0.872516 m -0.581649,0 0.290867,-0.872516 m -0.207739,0.623214 h 0.415474 m 0.332435,-2.222769 h 0.540081 m -0.332346,-0.623213 -0.207735,0.623213 m 0.415474,-0.290867 v 0.581649 m -0.955644,-0.872516 0.290782,0.872516 m -0.581649,0 0.290867,-0.872516 m -0.207739,0.623213 h 0.415474 m 0.332435,-1.973466 -0.04157,-0.04156 m 0.124611,0.08304 -0.08304,-0.04148 m 0.332346,0.04148 h -0.249303 m 0.332431,-0.04148 -0.08313,0.04148 m 0.124692,-0.08304 -0.04156,0.04156 m 0.08304,-0.124694 -0.04148,0.08313 m 0.04148,-0.290868 v 0.207738 m -0.04148,-0.290867 0.04148,0.08313 m -0.08304,-0.124608 0.04156,0.04148 m -0.124692,-0.08304 0.08313,0.04156 m -0.207739,-0.04156 h 0.124611 m 0.166171,-0.332432 -0.290782,0.332432 m -0.249303,-0.332432 h 0.540085 m -1.038687,0 0.290782,0.872516 m -0.581649,0 0.290867,-0.872516 m -0.207739,0.623214 h 0.415474 m 0.290867,-1.931987 h 0.540085 m -0.04148,-0.498519 -0.498606,0.498519 m 0.540085,-0.623213 -0.04148,0.124694 m 0.04148,-0.207738 v 0.08304 m -0.04148,-0.166174 0.04148,0.08313 m -0.08304,-0.124694 0.04156,0.04156 m -0.124692,-0.08313 0.08313,0.04156 m -0.290867,-0.04156 h 0.207739 m -0.290782,0.04156 0.08304,-0.04156 m -0.124607,0.08313 0.04156,-0.04156 m -0.581734,-0.04156 0.290782,0.872516 m -0.581649,0 0.290867,-0.872516 m -0.207739,0.623213 h 0.415474 m 0.415478,-2.596765 -0.08304,0.04157 m 0.166171,-0.124608 -0.08313,0.08304 m 0.16626,-0.207737 -0.08313,0.124694 m 0.08313,0.747821 v -0.872515 m 0.249214,0.872515 h -0.498517 m -0.54017,-0.872515 0.290782,0.872515 m -0.581649,0 0.290867,-0.872515 m -0.207739,0.623213 h 0.415474 m 0.457042,-2.762938 0.08313,-0.04157 m -0.124692,0.08313 0.04156,-0.04156 m -0.08304,0.124694 0.04148,-0.08313 m -0.08304,0.249302 0.04156,-0.166173 m -0.04156,0.373911 v -0.20776 m 0.04156,0.373911 -0.04156,-0.166173 m 0.08304,0.249302 -0.04148,-0.08313 m 0.08304,0.124694 -0.04156,-0.04157 m 0.124692,0.08304 -0.08313,-0.04148 m 0.166174,0.04148 h -0.08305 m 0.166175,-0.04148 -0.08313,0.04148 m 0.124693,-0.08304 -0.04156,0.04157 m 0.08313,-0.124694 -0.04156,0.08313 m 0.08304,-0.249302 -0.04148,0.166173 m 0.04148,-0.373911 v 0.207738 m -0.04148,-0.373911 0.04148,0.166173 m -0.08304,-0.249302 0.04156,0.08313 m -0.08313,-0.124694 0.04156,0.04156 m -0.124693,-0.08313 0.08313,0.04157 m -0.166175,-0.04157 h 0.08305 m -0.830951,0 0.290782,0.872516 m -0.581649,0 0.290867,-0.872516 m -0.207739,0.623214 h 0.415474 m 0.664786,-4.570313 h -0.290782 m 0.37391,-0.041479 -0.08313,0.041479 m 0.124692,-0.083044 -0.04156,0.041564 m 0.08304,-0.1246941 -0.04148,0.08313 m 0.04148,-0.1661732 v 0.083044 m -0.04148,-0.1661729 0.04148,0.083129 m -0.08304,-0.1246942 0.04156,0.041565 m -0.124692,-0.08313 0.08313,0.041565 m -0.37391,-0.041564 h 0.290782 M 36.947133,10.344848 V 9.4723322 m 0.332346,0.8725158 h -0.332346 m 0.415474,-0.04148 -0.08313,0.04148 m 0.124607,-0.08304 -0.04148,0.04156 m 0.08304,-0.124694 -0.04156,0.08313 m 0.04156,-0.207738 v 0.124608 m -0.04156,-0.2077377 0.04156,0.08313 m -0.08304,-0.1246935 0.04148,0.041565 m -0.166171,-0.08313 0.124692,0.041564 m -0.997208,0.4154735 0.290782,-0.8725138 m -0.581649,0 0.290867,0.8725138" />
  <path
     id="path3224"
     style="fill:none;stroke:#840000;stroke-width:0.15875;stroke-linecap:round;stroke-linejoin:round;stroke-dasharray:none;stroke-opacity:1"
     d="m 9.5895551,11.947495 v -0.67517 m -0.6232135,0.05196 0.6232135,0.623214 M 8.81056,11.272329 8.9663416,11.324289 M 8.7066482,11.272329 H 8.81056 m -0.2077378,0.05196 0.103826,-0.05196 m -0.155782,0.103913 0.051956,-0.05196 m -0.1039117,0.155782 0.051956,-0.103825 m -0.051956,0.363519 v -0.259695 m 0.051956,0.363606 -0.051956,-0.103912 m 0.1039117,0.155782 -0.051956,-0.05187 m 0.2077377,22.851585 0.051956,0.103823 m -0.155782,-0.207735 0.103826,0.103912 M 8.4989105,34.487515 8.6547779,34.591342 M 9.5895551,34.487515 H 8.4989105 m 1.0906446,-0.31165 v 0.623212 m 9.8367559,-19.236911 -0.103826,-0.05196 m 0.155782,0.103912 -0.05196,-0.05196 m 0.103912,0.155782 -0.05196,-0.103826 m 0.05196,0.311564 V 15.71794 m -0.05196,0.31165 0.05196,-0.103912 m -0.103912,0.155867 0.05196,-0.05195 m -0.155782,0.103825 0.103826,-0.05187 m -0.311563,0.05187 h 0.207737 m -0.311649,-0.05187 0.103912,0.05187 m -0.155868,-0.103825 0.05196,0.05195 m -0.103826,-0.155867 0.05187,0.103912 m -0.05187,-0.31165 v 0.207738 m 0.05187,-0.311564 -0.05187,0.103826 m 0.103826,-0.155782 -0.05196,0.05196 m 0.155868,-0.103912 -0.103912,0.05196 m 0.311649,-0.05196 h -0.207737 m 0.311563,-0.05196 -0.103826,0.05196 m 0.155782,-0.103826 -0.05196,0.05187 m 0.103912,-0.155782 -0.05196,0.103912 m 0.05196,-0.155868 v 0.05196 m -0.05196,-0.155782 0.05196,0.103826 m -0.103912,-0.155781 0.05196,0.05195 m -0.155782,-0.103911 0.103826,0.05196 m -0.311563,-0.05196 h 0.207737 m -0.311649,0.05196 0.103912,-0.05196 m -0.155868,0.103911 0.05196,-0.05195 m -0.103826,0.155781 0.05187,-0.103826 m -0.05187,0.155782 v -0.05196 m 0.05187,0.155868 -0.05187,-0.103912 m 0.103826,0.155782 -0.05196,-0.05187 m 0.155868,0.103826 -0.103912,-0.05196 m -0.103826,2.804589 -0.05196,-0.05196 m 0.155782,0.103826 -0.103826,-0.05187 m 0.415475,0.05187 h -0.311649 m 0.415475,-0.05187 -0.103826,0.05187 m 0.155782,-0.103826 -0.05196,0.05196 m 0.103912,-0.155868 -0.05196,0.103912 m 0.05196,-0.363606 v 0.259694 m -0.05196,-0.36352 0.05196,0.103826 m -0.103912,-0.155782 0.05196,0.05196 m -0.155782,-0.103911 0.103826,0.05195 m -0.259693,-0.05195 h 0.155867 m 0.207738,-0.415476 -0.363605,0.415476 M 18.85505,17.224064 h 0.675169 m -0.623213,5.089704 h 0.675083 m -0.415475,-0.778995 -0.259608,0.778995 m 0.519301,-0.36352 v 0.72704 m -0.467431,2.129419 -0.05187,-0.05196 m 0.155782,0.103826 -0.103912,-0.05187 m 0.363605,0.05187 h -0.259693 m 0.363519,-0.05187 -0.103826,0.05187 m 0.155782,-0.103826 -0.05196,0.05196 m 0.103912,-0.155868 -0.05196,0.103912 m 0.05196,-0.363606 v 0.259694 m -0.05196,-0.36352 0.05196,0.103826 m -0.103912,-0.155781 0.05196,0.05195 m -0.155782,-0.103911 0.103826,0.05196 m -0.363519,-0.05196 h 0.259693 m -0.363605,0.05196 0.103912,-0.05196 m -0.155782,0.103911 0.05187,-0.05195 m 0,-0.467432 -0.05187,0.519387 m 0.571257,-0.519387 h -0.519387 m 0.623213,2.18129 -0.467345,1.090644 M 18.85505,25.949222 h 0.727039 m -0.623213,2.700676 -0.05187,0.103826 m 0.103826,-0.155782 -0.05196,0.05196 m 0.155868,-0.103911 -0.103912,0.05195 m 0.311649,-0.05195 H 19.11474 m 0.311563,0.05195 -0.103826,-0.05195 m 0.155782,0.103911 -0.05196,-0.05196 m 0.103912,0.155782 -0.05196,-0.103826 m 0.05196,0.36352 v -0.259694 m -0.05196,0.363606 0.05196,-0.103912 m -0.103912,0.155868 0.05196,-0.05196 m -0.155782,0.103826 0.103826,-0.05187 m -0.311563,0.05187 h 0.207737 m -0.311649,-0.05187 0.103912,0.05187 m -0.155868,-0.103826 0.05196,0.05196 m -0.103826,-0.155868 0.05187,0.103912 m -0.05187,-0.519388 v 0.415476 m 0.05187,-0.623213 -0.05187,0.207737 m 0.155782,-0.363519 -0.103912,0.155782 m 0.155868,-0.207738 -0.05196,0.05196 m 0.155782,-0.103912 -0.103826,0.05196 m 0.311563,-0.05196 h -0.207737 m 44.794324,26.87735 0.04148,-0.08304 m -0.08304,0.124607 0.04156,-0.04156 m -0.124696,0.08313 0.08313,-0.04157 m -0.249303,0.04157 h 0.166171 m -0.249303,-0.04157 0.08313,0.04157 m -0.124611,-0.08313 0.04148,0.04156 m -0.08304,-0.124607 0.04156,0.08304 m -0.04156,-0.290782 v 0.207739 m 0.04156,-0.290867 -0.04156,0.08313 m 0.08304,-0.124692 -0.04148,0.04156 m 0.124611,-0.08313 -0.08313,0.04156 m 0.249303,-0.04156 h -0.166171 m 0.249303,0.04156 -0.08313,-0.04156 m 0.124696,0.08313 -0.04156,-0.04156 m 0.08304,0.124692 -0.04148,-0.08313 m 0.04148,0.415474 v -0.332346 m -0.04148,0.498521 0.04148,-0.166175 m -0.124607,0.290867 0.08313,-0.124692 m -0.124696,0.16626 0.04157,-0.04157 m -0.12461,0.08305 0.08304,-0.04148 m -0.249303,0.04148 h 0.16626 m -0.997208,-0.66478 -0.08305,0.04156 m 0.166174,-0.124607 -0.08313,0.08304 m 0.166256,-0.207735 -0.08313,0.124692 m 0.08313,0.747823 v -0.872515 m 0.249218,0.872515 h -0.49852 M 63.555845,44.22611 h 0.540085 m -0.332346,-0.623217 -0.207739,0.623217 m 0.415478,-0.290871 v 0.581649 m -1.287994,0 h 0.540085 m -0.04148,-0.498517 -0.498606,0.498517 m 0.540085,-0.623213 -0.04148,0.124696 m 0.04148,-0.207739 v 0.08304 m -0.04148,-0.166171 0.04148,0.08313 m -0.08304,-0.124692 0.04156,0.04156 m -0.124692,-0.08313 0.08313,0.04157 m -0.290867,-0.04157 h 0.207739 m -0.290782,0.04157 0.08304,-0.04157 m -0.12461,0.08313 0.04157,-0.04156 m 0.789384,-1.39182 -0.04156,-0.04156 m 0.124607,0.08304 -0.08304,-0.04148 m 0.332346,0.04148 h -0.249303 m 0.332435,-0.04148 -0.08313,0.04148 m 0.124696,-0.08304 -0.04156,0.04156 m 0.08304,-0.124693 -0.04148,0.08313 m 0.04148,-0.290867 v 0.207738 m -0.04148,-0.290867 0.04148,0.08313 m -0.08304,-0.124607 0.04156,0.04148 m -0.124696,-0.08304 0.08313,0.04156 m -0.207739,-0.04156 h 0.124607 m 0.166174,-0.332434 -0.290781,0.332434 m -0.249303,-0.332434 h 0.540084 m -1.371036,0.872516 h 0.540085 m -0.04148,-0.498517 -0.498606,0.498517 m 0.540085,-0.623213 -0.04148,0.124696 m 0.04148,-0.207739 v 0.08304 m -0.04148,-0.166171 0.04148,0.08313 m -0.08304,-0.124693 0.04156,0.04156 m -0.124692,-0.08313 0.08313,0.04157 m -0.290867,-0.04157 h 0.207739 m -0.290782,0.04157 0.08304,-0.04157 m -0.12461,0.08313 0.04157,-0.04156 m 0.74782,-1.350341 h 0.540084 m -0.04148,-0.498517 -0.498606,0.498517 m 0.540084,-0.623212 -0.04148,0.124695 m 0.04148,-0.207738 v 0.08304 m -0.04148,-0.166172 0.04148,0.08313 m -0.08304,-0.124696 0.04156,0.04157 m -0.124696,-0.08313 0.08313,0.04156 m -0.290867,-0.04156 h 0.207735 m -0.290782,0.04156 0.08305,-0.04156 m -0.124611,0.08313 0.04156,-0.04157 m -0.91408,0.830951 h 0.540085 m -0.04148,-0.498517 -0.498606,0.498517 m 0.540085,-0.623212 -0.04148,0.124695 m 0.04148,-0.207738 v 0.08304 m -0.04148,-0.166172 0.04148,0.08313 m -0.08304,-0.124696 0.04156,0.04157 m -0.124692,-0.08313 0.08313,0.04156 m -0.290867,-0.04156 h 0.207739 m -0.290782,0.04156 0.08304,-0.04156 m -0.12461,0.08313 0.04157,-0.04157 m 0.872427,-2.015115 -0.08304,0.04156 m 0.166175,-0.124607 -0.08313,0.08304 m 0.16626,-0.207739 -0.08313,0.124696 m 0.08313,0.74782 v -0.872516 m 0.249217,0.872516 h -0.49852 m -0.872516,0 h 0.540085 m -0.04148,-0.498517 -0.498606,0.498517 m 0.540085,-0.623213 -0.04148,0.124696 m 0.04148,-0.207739 v 0.08304 m -0.04148,-0.166171 0.04148,0.08313 m -0.08304,-0.124695 0.04156,0.04157 m -0.124692,-0.08313 0.08313,0.04157 m -0.290867,-0.04157 h 0.207739 m -0.290782,0.04157 0.08304,-0.04157 m -0.12461,0.08313 0.04157,-0.04157 m 0.830948,-1.807376 -0.04156,0.08313 m 0.08304,-0.124607 -0.04148,0.04148 m 0.124611,-0.08305 -0.08313,0.04157 m 0.249303,-0.04157 h -0.166171 m 0.249303,0.04157 -0.08313,-0.04157 m 0.124696,0.08305 -0.04156,-0.04148 m 0.08304,0.124607 -0.04148,-0.08313 m 0.04148,0.290867 v -0.207739 m -0.04148,0.290867 0.04148,-0.08313 m -0.08304,0.124692 0.04156,-0.04156 m -0.124696,0.08304 0.08313,-0.04148 m -0.249303,0.04148 h 0.166171 m -0.249303,-0.04148 0.08313,0.04148 m -0.124611,-0.08304 0.04148,0.04156 m -0.08304,-0.124692 0.04156,0.08313 m -0.04156,-0.415474 v 0.332346 m 0.04156,-0.498606 -0.04156,0.16626 m 0.124611,-0.290867 -0.08305,0.124607 m 0.124611,-0.166175 -0.04156,0.04157 m 0.124692,-0.08313 -0.08313,0.04156 m 0.249303,-0.04156 h -0.166175 m -0.997208,0.207739 -0.08305,0.04156 m 0.166174,-0.124607 -0.08313,0.08304 m 0.166256,-0.207739 -0.08313,0.124696 m 0.08313,0.74782 v -0.872516 m 0.249218,0.872516 h -0.49852 m 0.872515,-2.222768 -0.04156,-0.04156 m 0.124611,0.08304 -0.08305,-0.04148 m 0.290782,0.04148 h -0.207735 m 0.290867,-0.04148 -0.08313,0.04148 m 0.124696,-0.08304 -0.04156,0.04156 m 0.08304,-0.124693 -0.04148,0.08313 m 0.04148,-0.290867 v 0.207738 m -0.04148,-0.290867 0.04148,0.08313 m -0.08304,-0.124607 0.04156,0.04148 m -0.124696,-0.08305 0.08313,0.04157 m -0.290867,-0.04157 h 0.207735 m -0.290782,0.04157 0.08305,-0.04157 m -0.124611,0.08305 0.04156,-0.04148 m 0,-0.374 -0.04156,0.415478 m 0.457042,-0.415478 h -0.415478 m -0.789469,0.20774 -0.08305,0.04156 m 0.166174,-0.124608 -0.08313,0.08304 m 0.166256,-0.20774 -0.08313,0.124696 m 0.08313,0.747821 v -0.872517 m 0.249218,0.872517 h -0.49852 M 64.09593,30.55662 63.72202,31.429135 M 63.514281,30.55662 h 0.581649 m -1.371036,0.831037 -0.04156,-0.04156 m 0.124611,0.08304 -0.08305,-0.04148 m 0.332349,0.04148 h -0.249303 m 0.332431,-0.04148 -0.08313,0.04148 m 0.124692,-0.08304 -0.04156,0.04156 m 0.08304,-0.124693 -0.04148,0.08313 m 0.04148,-0.290868 v 0.207739 m -0.04148,-0.290868 0.04148,0.08313 m -0.08304,-0.124608 0.04156,0.04148 m -0.124692,-0.08304 0.08313,0.04157 m -0.207729,-0.04156 h 0.124611 m 0.166171,-0.332432 -0.290782,0.332432 M 62.68334,30.556641 h 0.540085 m 0.373995,-1.765814 -0.04156,0.08313 m 0.08304,-0.124608 -0.04148,0.04148 m 0.124611,-0.08304 -0.08313,0.04157 m 0.249303,-0.04157 h -0.166171 m 0.249303,0.04157 -0.08313,-0.04157 m 0.124696,0.08304 -0.04156,-0.04148 m 0.08304,0.124608 -0.04148,-0.08313 m 0.04148,0.290868 v -0.207738 m -0.04148,0.290867 0.04148,-0.08313 m -0.08304,0.124694 0.04156,-0.04156 m -0.124696,0.08304 0.08313,-0.04148 m -0.249303,0.04148 h 0.166171 m -0.249303,-0.04148 0.08313,0.04148 m -0.124611,-0.08304 0.04148,0.04156 m -0.08304,-0.124694 0.04156,0.08313 m -0.04156,-0.415475 v 0.332346 m 0.04156,-0.498605 -0.04156,0.166259 m 0.124611,-0.290868 -0.08305,0.124609 m 0.124611,-0.166173 -0.04156,0.04156 m 0.124692,-0.08313 -0.08313,0.04156 m 0.249303,-0.04156 h -0.166175 m -1.080254,0.831037 -0.04156,-0.04156 m 0.124611,0.08304 -0.08305,-0.04148 m 0.332349,0.04148 h -0.249303 m 0.332431,-0.04148 -0.08313,0.04148 m 0.124692,-0.08304 -0.04156,0.04156 m 0.08304,-0.124694 -0.04148,0.08313 m 0.04148,-0.290867 v 0.207738 m -0.04148,-0.290868 0.04148,0.08313 m -0.08304,-0.124608 0.04156,0.04148 m -0.124692,-0.08304 0.08313,0.04157 m -0.207739,-0.04157 h 0.124611 m 0.166171,-0.332432 -0.290782,0.332432 m -0.249303,-0.332432 h 0.540085 m 0.373995,-1.350252 -0.04156,-0.04157 m 0.124611,0.08304 -0.08305,-0.04148 m 0.290782,0.04148 h -0.207735 m 0.290867,-0.04148 -0.08313,0.04148 m 0.124696,-0.08304 -0.04156,0.04157 m 0.08304,-0.124695 -0.04148,0.08313 m 0.04148,-0.290868 v 0.207738 m -0.04148,-0.290867 0.04148,0.08313 m -0.08304,-0.124608 0.04156,0.04148 m -0.124696,-0.08304 0.08313,0.04157 m -0.290867,-0.04157 h 0.207735 m -0.290782,0.04157 0.08305,-0.04157 m -0.124611,0.08304 0.04156,-0.04148 m 0,-0.373996 -0.04156,0.415475 m 0.457042,-0.415475 h -0.415478 m -0.872515,0.831037 -0.04156,-0.04157 m 0.124611,0.08304 -0.08305,-0.04148 m 0.332349,0.04148 H 62.80796 m 0.332431,-0.04148 -0.08313,0.04148 m 0.124692,-0.08304 -0.04156,0.04157 m 0.08304,-0.124695 -0.04148,0.08313 m 0.04148,-0.290868 v 0.207738 m -0.04148,-0.290867 0.04148,0.08313 m -0.08304,-0.124608 0.04156,0.04148 m -0.124692,-0.08304 0.08313,0.04157 m -0.207739,-0.04157 h 0.124611 m 0.166162,-0.332439 -0.290782,0.332431 M 62.68334,26.194063 h 0.540085 m 0.332431,-1.599556 h 0.540085 m -0.332346,-0.623213 -0.207739,0.623213 m 0.415478,-0.290867 v 0.581649 m -1.246429,-0.04148 -0.04156,-0.04156 m 0.124611,0.08304 -0.08305,-0.04148 m 0.332349,0.04148 h -0.249303 m 0.332431,-0.04148 -0.08313,0.04148 m 0.124692,-0.08304 -0.04156,0.04156 m 0.08304,-0.124694 -0.04148,0.08313 m 0.04148,-0.290867 v 0.207738 m -0.04148,-0.290867 0.04148,0.08313 m -0.08304,-0.124608 0.04156,0.04148 m -0.124692,-0.08304 0.08313,0.04157 m -0.207739,-0.04157 h 0.124611 m 0.16617,-0.332438 -0.290782,0.332432 M 62.68334,24.012773 h 0.540085 m 0.332431,-1.350252 -0.04156,-0.04157 m 0.124607,0.08304 -0.08304,-0.04148 m 0.332346,0.04148 h -0.249303 m 0.332435,-0.04148 -0.08313,0.04148 m 0.124696,-0.08304 -0.04156,0.04157 m 0.08304,-0.124694 -0.04148,0.08313 m 0.04148,-0.290867 v 0.207738 m -0.04148,-0.290868 0.04148,0.08313 m -0.08304,-0.124609 0.04156,0.04148 m -0.124696,-0.08304 0.08313,0.04156 m -0.207739,-0.04156 h 0.124607 m 0.166174,-0.332432 -0.290781,0.332432 m -0.249303,-0.332432 h 0.540084 m -1.329471,0.831037 -0.04156,-0.04157 m 0.124611,0.08304 -0.08305,-0.04148 m 0.332349,0.04148 h -0.249303 m 0.332431,-0.04148 -0.08313,0.04148 m 0.124692,-0.08304 -0.04156,0.04157 m 0.08304,-0.124694 -0.04148,0.08313 m 0.04148,-0.290867 v 0.207738 m -0.04148,-0.290868 0.04148,0.08313 m -0.08304,-0.124609 0.04156,0.04148 m -0.124692,-0.08304 0.08313,0.04156 m -0.207739,-0.04156 h 0.124611 m 0.166171,-0.332432 -0.290782,0.332432 m -0.249303,-0.332432 h 0.540085 M 63.5143,20.52272 h 0.540084 m -0.04148,-0.498519 -0.498606,0.498519 m 0.540084,-0.623213 -0.04148,0.124694 m 0.04148,-0.207738 v 0.08304 m -0.04148,-0.166173 0.04148,0.08313 m -0.08304,-0.124694 0.04156,0.04156 m -0.124696,-0.08313 0.08313,0.04156 m -0.290867,-0.04156 h 0.207735 m -0.290782,0.04156 0.08305,-0.04156 m -0.124611,0.08313 0.04156,-0.04156 m -0.872515,0.789472 -0.04156,-0.04156 m 0.124611,0.08304 -0.08305,-0.04148 m 0.332349,0.04148 h -0.249303 m 0.332431,-0.04148 -0.08313,0.04148 m 0.124692,-0.08304 -0.04156,0.04156 m 0.08304,-0.124694 -0.04148,0.08313 m 0.04148,-0.290868 v 0.207738 m -0.04148,-0.290867 0.04148,0.08313 m -0.08304,-0.124608 0.04156,0.04148 m -0.124692,-0.08304 0.08313,0.04157 m -0.207739,-0.04157 h 0.124611 m 0.166171,-0.332432 -0.290782,0.332432 m -0.249303,-0.332432 h 0.540085 m 0.415474,-1.973551 -0.08304,0.04156 m 0.166175,-0.124608 -0.08313,0.08304 m 0.16626,-0.207738 -0.08313,0.124694 m 0.08313,0.747822 V 17.46891 m 0.249217,0.872516 h -0.49852 m -0.830951,-0.04148 -0.04156,-0.04156 m 0.124611,0.08304 -0.08305,-0.04148 m 0.332349,0.04148 h -0.249303 m 0.332431,-0.04148 -0.08313,0.04148 m 0.124692,-0.08304 -0.04156,0.04156 m 0.08304,-0.124694 -0.04148,0.08313 m 0.04148,-0.290867 v 0.207738 m -0.04148,-0.290868 0.04148,0.08313 m -0.08304,-0.124608 0.04156,0.04148 m -0.124692,-0.08304 0.08313,0.04157 m -0.207739,-0.04157 h 0.124611 m 0.166171,-0.332432 -0.290782,0.332432 m -0.249303,-0.332432 h 0.540085 m 0.332431,-1.599555 h 0.540085 m -0.332346,-0.623213 -0.207739,0.623213 m 0.415478,-0.290867 v 0.581648 m -1.163383,-0.664778 -0.08305,0.04157 m 0.166174,-0.124608 -0.08313,0.08304 m 0.166256,-0.207737 -0.08313,0.124694 m 0.08313,0.747821 v -0.872515 m 0.249218,0.872515 h -0.49852 m 0.830951,-2.222768 -0.04156,-0.04157 m 0.124607,0.08304 -0.08304,-0.04148 m 0.332346,0.04148 h -0.249303 m 0.332435,-0.04148 -0.08313,0.04148 m 0.124696,-0.08304 -0.04156,0.04157 m 0.08304,-0.124694 -0.04148,0.08313 m 0.04148,-0.290867 v 0.207738 m -0.04148,-0.290867 0.04148,0.08313 m -0.08304,-0.124608 0.04156,0.04148 m -0.124696,-0.08304 0.08313,0.04157 m -0.207739,-0.04157 h 0.124607 m 0.166174,-0.332432 -0.290781,0.332432 m -0.249303,-0.332432 h 0.540084 m -1.246425,0.207738 -0.08305,0.04156 m 0.166174,-0.124609 -0.08313,0.08304 m 0.166256,-0.207738 -0.08313,0.124694 m 0.08313,0.747822 v -0.872516 m 0.249218,0.872516 h -0.49852 m 1.371036,-5.2350948 -0.37391,0.872516 m -0.207739,-0.872516 h 0.581649 m -1.28799,0.207738 -0.08305,0.041564 m 0.166174,-0.124608 -0.08313,0.083044 m 0.166256,-0.207738 -0.08313,0.1246945 m 0.08313,0.7478215 v -0.872516 m 0.249218,0.872516 h -0.49852 m 1.246429,-2.6383298 -0.08313,-0.041479 m 0.124696,0.083044 -0.04156,-0.041565 m 0.08304,0.1246941 -0.04148,-0.083129 m 0.04148,0.2493025 V 7.1026275 m -0.04148,0.2493026 0.04148,-0.083129 m -0.08304,0.1246942 0.04156,-0.041565 m -0.124696,0.083044 0.08313,-0.041479 m -0.249303,0.041479 h 0.166171 m -0.249303,-0.041479 0.08313,0.041479 m -0.124611,-0.083044 0.04148,0.041565 m -0.08304,-0.1246942 0.04156,0.083129 m -0.04156,-0.2493026 v 0.1661732 m 0.04156,-0.2493025 -0.04156,0.083129 m 0.08304,-0.1246941 -0.04148,0.041565 m 0.124611,-0.083044 -0.08313,0.041479 m 0.249303,-0.041479 h -0.166171 m 0.249303,-0.041565 -0.08313,0.041565 m 0.124696,-0.083129 -0.04156,0.041565 m 0.08304,-0.1246941 -0.04148,0.08313 m 0.04148,-0.1246084 v 0.041479 m -0.04148,-0.1246084 0.04148,0.08313 m -0.08304,-0.1246941 0.04156,0.041564 m -0.124696,-0.083129 0.08313,0.041565 m -0.2493,-0.041566 h 0.166171 m -0.249303,0.041565 0.08313,-0.041565 m -0.124611,0.083129 0.04148,-0.041564 m -0.08304,0.1246941 0.04156,-0.08313 m -0.04156,0.1246084 v -0.041479 m 0.04156,0.1246084 -0.04156,-0.08313 m 0.08304,0.1246941 -0.04148,-0.041565 m 0.124611,0.083129 -0.08313,-0.041565 m -0.913994,0.4986051 -0.04156,-0.041565 m 0.124611,0.083044 -0.08305,-0.041479 m 0.332349,0.041479 h -0.249303 m 0.332431,-0.041479 -0.08313,0.041479 m 0.124692,-0.083044 -0.04156,0.041565 m 0.08304,-0.1246942 -0.04148,0.083129 m 0.04148,-0.2908671 v 0.2077377 m -0.04148,-0.2908673 0.04148,0.08313 m -0.08304,-0.1246084 0.04156,0.041479 m -0.124692,-0.083044 0.08313,0.041565 m -0.20774,-0.041563 h 0.124611 m 0.166171,-0.332432 -0.290782,0.3324319 M 62.68334,6.5624579 h 0.540085 m -29.790144,47.3131981 -0.08313,-0.04148 m 0.124693,0.08304 -0.04156,-0.04156 m 0.08304,0.124696 -0.04148,-0.08313 m 0.04148,0.249303 v -0.166171 m -0.04148,0.2493 0.04148,-0.08313 m -0.08304,0.124696 0.04156,-0.04157 m -0.124693,0.08305 0.08313,-0.04148 m -0.249303,0.04148 h 0.166174 m -0.249302,-0.04148 0.08313,0.04148 m -0.124607,-0.08305 0.04148,0.04157 m -0.08304,-0.124696 0.04156,0.08313 m -0.04156,-0.2493 v 0.166171 m 0.04156,-0.249303 -0.04156,0.08313 m 0.08304,-0.124696 -0.04148,0.04156 m 0.124607,-0.08304 -0.08313,0.04148 m 0.249302,-0.04148 h -0.166174 m 0.249303,-0.04156 -0.08313,0.04156 m 0.124693,-0.08313 -0.04156,0.04156 m 0.08304,-0.124695 -0.04148,0.08313 m 0.04148,-0.12461 v 0.04148 m -0.04148,-0.124608 0.04148,0.08313 m -0.08304,-0.124693 0.04156,0.04156 m -0.124693,-0.08313 0.08313,0.04156 m -0.249303,-0.04156 h 0.166174 m -0.249302,0.04156 0.08313,-0.04156 m -0.124607,0.08313 0.04148,-0.04156 m -0.08304,0.124693 0.04156,-0.08313 m -0.04156,0.124608 v -0.04148 m 0.04156,0.12461 -0.04156,-0.08313 m 0.08304,0.124695 -0.04148,-0.04156 m 0.124607,0.08313 -0.08313,-0.04156 m -0.830952,-0.124695 -0.08304,0.04156 m 0.166171,-0.124607 -0.08313,0.08304 m 0.16626,-0.207736 -0.08313,0.124693 m 0.08313,0.747823 v -0.872516 m 0.249214,0.872516 h -0.498517 m 0.415474,-3.562716 h 0.540085 m -0.332346,-0.623216 -0.207739,0.623216 m 0.415478,-0.290867 v 0.581649 m -0.415478,-2.222771 -0.04156,-0.04156 m 0.124607,0.08304 -0.08304,-0.04148 m 0.332346,0.04148 H 32.68538 m 0.332435,-0.04148 -0.08313,0.04148 m 0.124696,-0.08304 -0.04156,0.04156 m 0.08304,-0.124693 -0.04148,0.08313 m 0.04148,-0.290868 v 0.207739 m -0.04148,-0.290867 0.04148,0.08313 m -0.08304,-0.124607 0.04156,0.04148 m -0.124696,-0.08304 0.08313,0.04156 m -0.207739,-0.04156 h 0.124607 m 0.166175,-0.332434 -0.290782,0.332434 m -0.249303,-0.332434 h 0.540085 m -0.540085,-1.308774 h 0.540085 m -0.04148,-0.498517 -0.498606,0.498517 m 0.540085,-0.623213 -0.04148,0.124696 m 0.04148,-0.207739 v 0.08304 m -0.04148,-0.166171 0.04148,0.08313 m -0.08304,-0.124692 0.04156,0.04156 m -0.124696,-0.08313 0.08313,0.04157 m -0.290868,-0.04157 h 0.207736 m -0.290782,0.04157 0.08305,-0.04157 m -0.12461,0.08313 0.04156,-0.04156 m 0.498521,-4.362579 0.08313,-0.04157 m -0.124692,0.08313 0.04156,-0.04156 m -0.08304,0.124693 0.04148,-0.08313 m -0.08304,0.249302 0.04156,-0.166174 m -0.04156,0.37391 v -0.207736 m 0.04156,0.37391 -0.04156,-0.166174 m 0.08304,0.249303 -0.04148,-0.08313 m 0.08304,0.124693 -0.04156,-0.04156 m 0.124692,0.08304 -0.08313,-0.04148 m 0.166174,0.04148 h -0.08305 m 0.166175,-0.04148 -0.08313,0.04148 m 0.124693,-0.08304 -0.04156,0.04156 m 0.08313,-0.124693 -0.04156,0.08313 m 0.08304,-0.249303 -0.04148,0.166174 m 0.04148,-0.37391 v 0.207736 m -0.04148,-0.37391 0.04148,0.166174 m -0.08304,-0.249302 0.04156,0.08313 m -0.08313,-0.124693 0.04156,0.04156 m -0.124693,-0.08313 0.08313,0.04157 m -0.166175,-0.04157 h 0.08305 m -1.121733,0.831037 -0.04156,-0.04156 m 0.124607,0.08304 -0.08304,-0.04148 m 0.332346,0.04148 h -0.249303 m 0.332431,-0.04148 -0.08313,0.04148 m 0.124692,-0.08304 -0.04156,0.04156 m 0.08304,-0.124693 -0.04148,0.08313 m 0.04148,-0.290867 v 0.207738 m -0.04148,-0.290867 0.04148,0.08313 m -0.08304,-0.124607 0.04156,0.04148 m -0.124692,-0.08304 0.08313,0.04156 m -0.207735,-0.04156 h 0.124607 m 0.166171,-0.332434 -0.290778,0.332434 m -0.249303,-0.332434 h 0.540081 m 0.789473,-1.724248 0.04148,-0.08304 m -0.08304,0.124607 0.04156,-0.04156 m -0.124693,0.08313 0.08313,-0.04156 m -0.249303,0.04156 h 0.166174 m -0.249302,-0.04156 0.08313,0.04156 m -0.124607,-0.08313 0.04148,0.04156 m -0.08304,-0.124607 0.04156,0.08304 m -0.04156,-0.290781 v 0.207738 m 0.04156,-0.290867 -0.04156,0.08313 m 0.08304,-0.124696 -0.04148,0.04157 m 0.124607,-0.08313 -0.08313,0.04156 m 0.249302,-0.04156 H 33.18399 m 0.249303,0.04156 -0.08313,-0.04156 m 0.124693,0.08313 -0.04156,-0.04157 m 0.08304,0.124696 -0.04148,-0.08313 m 0.04148,0.415474 v -0.332345 m -0.04148,0.49852 0.04148,-0.166175 m -0.124607,0.290868 0.08313,-0.124693 m -0.124693,0.166257 0.04157,-0.04156 m -0.124607,0.08304 0.08304,-0.04148 m -0.249302,0.04148 h 0.16626 m -1.121819,0 h 0.540081 m -0.04148,-0.498517 -0.498602,0.498517 m 0.540081,-0.623212 -0.04148,0.124695 m 0.04148,-0.207738 v 0.08304 m -0.04148,-0.166172 0.04148,0.08313 m -0.08304,-0.124696 0.04156,0.04157 m -0.124692,-0.08313 0.08313,0.04156 m -0.290867,-0.04156 h 0.207739 m -0.290782,0.04156 0.08304,-0.04156 m -0.124607,0.08313 0.04156,-0.04157 m 1.204862,-1.807376 -0.08313,-0.04148 m 0.124693,0.08304 -0.04156,-0.04156 m 0.08304,0.124692 -0.04148,-0.08313 m 0.04148,0.249303 v -0.166175 m -0.04148,0.249303 0.04148,-0.08313 m -0.08304,0.124692 0.04156,-0.04156 m -0.124693,0.08304 0.08313,-0.04148 m -0.249303,0.04148 h 0.166174 m -0.249302,-0.04148 0.08313,0.04148 m -0.124607,-0.08304 0.04148,0.04156 m -0.08304,-0.124692 0.04156,0.08313 m -0.04156,-0.249303 v 0.166175 m 0.04156,-0.249303 -0.04156,0.08313 m 0.08304,-0.124692 -0.04148,0.04156 m 0.124607,-0.08304 -0.08313,0.04148 m 0.249302,-0.04148 h -0.166174 m 0.249303,-0.04156 -0.08313,0.04156 m 0.124693,-0.08313 -0.04156,0.04157 m 0.08304,-0.124696 -0.04148,0.08313 m 0.04148,-0.124608 v 0.04148 m -0.04148,-0.124607 0.04148,0.08313 m -0.08304,-0.124695 0.04156,0.04157 m -0.124693,-0.08313 0.08313,0.04157 m -0.249303,-0.04157 h 0.166174 m -0.249302,0.04157 0.08313,-0.04157 m -0.124607,0.08313 0.04148,-0.04157 m -0.08304,0.124695 0.04156,-0.08313 m -0.04156,0.124607 v -0.04148 m 0.04156,0.124608 -0.04156,-0.08313 m 0.08304,0.124696 -0.04148,-0.04157 m 0.124607,0.08313 -0.08313,-0.04156 m -0.955559,0.540081 h 0.540081 m -0.04148,-0.498517 -0.498602,0.498517 m 0.540081,-0.623213 -0.04148,0.124696 m 0.04148,-0.207739 v 0.08304 m -0.04148,-0.166171 0.04148,0.08313 m -0.08304,-0.124695 0.04156,0.04157 m -0.124692,-0.08313 0.08313,0.04157 m -0.290867,-0.04157 h 0.207739 m -0.290782,0.04157 0.08304,-0.04157 m -0.124607,0.08313 0.04156,-0.04157 m 1.329472,-2.222854 -0.373913,0.872516 M 32.976243,34.91922 h 0.581648 m -1.4126,0.872516 h 0.540081 m -0.04148,-0.498517 -0.498602,0.498517 m 0.540081,-0.623213 -0.04148,0.124696 m 0.04148,-0.207739 v 0.08304 m -0.04148,-0.166171 0.04148,0.08313 m -0.08304,-0.124696 0.04156,0.04157 m -0.124692,-0.08313 0.08313,0.04156 m -0.290867,-0.04156 h 0.207739 m -0.290782,0.04156 0.08304,-0.04156 m -0.124607,0.08313 0.04156,-0.04157 m 0.830952,-1.807376 -0.04156,0.08313 m 0.08304,-0.124607 -0.04148,0.04148 m 0.124607,-0.08305 -0.08313,0.04157 m 0.249302,-0.04157 h -0.166174 m 0.249303,0.04157 -0.08313,-0.04157 m 0.124693,0.08305 -0.04156,-0.04148 m 0.08304,0.124607 -0.04148,-0.08313 m 0.04148,0.290867 v -0.207738 m -0.04148,0.290867 0.04148,-0.08313 m -0.08304,0.124693 0.04156,-0.04156 m -0.124693,0.08304 0.08313,-0.04148 m -0.249303,0.04148 h 0.166174 m -0.249302,-0.04148 0.08313,0.04148 m -0.124607,-0.08304 0.04148,0.04156 m -0.08304,-0.124693 0.04156,0.08313 m -0.04156,-0.415474 v 0.332345 m 0.04156,-0.498605 -0.04156,0.16626 m 0.124607,-0.290868 -0.08304,0.124608 m 0.124607,-0.166176 -0.04156,0.04157 m 0.124696,-0.08313 -0.08313,0.04156 m 0.249303,-0.04156 h -0.166171 m -1.121819,0.872517 h 0.540081 m -0.04148,-0.498517 -0.498602,0.498517 m 0.540081,-0.623213 -0.04148,0.124696 m 0.04148,-0.207739 v 0.08304 m -0.04148,-0.166172 0.04148,0.08313 m -0.08304,-0.124697 0.04156,0.04157 m -0.124692,-0.08313 0.08313,0.04156 m -0.290867,-0.04156 h 0.207739 m -0.290782,0.04156 0.08304,-0.04156 m -0.124607,0.08313 0.04156,-0.04157 m 0.830952,-1.391816 -0.04156,-0.04156 m 0.124607,0.08304 -0.08304,-0.04148 m 0.290781,0.04148 H 33.14242 m 0.290867,-0.04148 -0.08313,0.04148 m 0.124693,-0.08304 -0.04156,0.04156 m 0.08304,-0.124693 -0.04148,0.08313 m 0.04148,-0.290868 v 0.207739 m -0.04148,-0.290868 0.04148,0.08313 m -0.08304,-0.124608 0.04156,0.04148 m -0.124693,-0.08304 0.08313,0.04157 m -0.290867,-0.04157 h 0.207738 m -0.290781,0.04157 0.08304,-0.04157 m -0.124607,0.08304 0.04156,-0.04148 m 0,-0.373997 -0.04156,0.415476 m 0.457038,-0.415476 h -0.415474 m -0.91408,0.872515 h 0.540081 m -0.04148,-0.498518 -0.498602,0.498518 m 0.540081,-0.623212 -0.04148,0.124694 m 0.04148,-0.207738 v 0.08304 m -0.04148,-0.166173 0.04148,0.08313 m -0.08304,-0.124694 0.04156,0.04156 m -0.124692,-0.08313 0.08313,0.04156 m -0.290867,-0.04156 h 0.207739 m -0.290782,0.04156 0.08304,-0.04156 m -0.124607,0.08313 0.04156,-0.04156 m 0.747824,-1.350338 h 0.540081 m -0.04148,-0.498519 -0.498602,0.498519 m 0.540081,-0.623214 -0.04148,0.124695 m 0.04148,-0.207738 v 0.08304 m -0.04148,-0.166173 0.04148,0.08313 m -0.08304,-0.124694 0.04156,0.04156 m -0.124693,-0.08313 0.08313,0.04156 m -0.290867,-0.04156 h 0.207738 m -0.290781,0.04156 0.08304,-0.04156 m -0.124607,0.08313 0.04156,-0.04156 m -0.789473,0.166173 -0.08304,0.04156 m 0.166171,-0.124608 -0.08313,0.08304 m 0.16626,-0.207738 -0.08313,0.124694 m 0.08313,0.747822 v -0.872516 m 0.249214,0.872516 h -0.498517 m 0.913995,-2.846068 -0.08304,0.04156 m 0.166171,-0.124608 -0.08313,0.08304 m 0.16626,-0.207737 -0.08313,0.124694 m 0.08313,0.747821 v -0.872496 m 0.249214,0.872515 h -0.498517 m -0.747909,-0.664778 -0.08304,0.04156 m 0.166171,-0.124608 -0.08313,0.08304 m 0.16626,-0.207737 -0.08313,0.124694 m 0.08313,0.747821 v -0.872507 m 0.249214,0.872515 h -0.498517 m 0.955559,-3.01224 0.08313,-0.04156 m -0.124692,0.08313 0.04156,-0.04156 m -0.08304,0.124694 0.04148,-0.08313 m -0.08304,0.249302 0.04156,-0.166173 m -0.04156,0.373911 v -0.207738 m 0.04156,0.373911 -0.04156,-0.166173 m 0.08304,0.249302 -0.04148,-0.08313 m 0.08304,0.124694 -0.04156,-0.04156 m 0.124692,0.08304 -0.08313,-0.04148 m 0.166174,0.04148 h -0.08305 m 0.166175,-0.04148 -0.08313,0.04148 m 0.124693,-0.08304 -0.04156,0.04156 m 0.08313,-0.124694 -0.04156,0.08313 m 0.08304,-0.249302 -0.04148,0.166173 m 0.04148,-0.373911 v 0.207738 m -0.04148,-0.373911 0.04148,0.166173 m -0.08304,-0.249302 0.04156,0.08313 m -0.08313,-0.124694 0.04156,0.04156 m -0.124693,-0.08313 0.08313,0.04156 m -0.166175,-0.04156 h 0.08305 m -1.03869,0.207738 -0.08304,0.04156 m 0.166171,-0.124609 -0.08313,0.08304 m 0.16626,-0.207738 -0.08313,0.124694 m 0.08313,0.747822 v -0.872512 m 0.249214,0.872516 h -0.498517 m 0.872516,-2.596765 0.04148,-0.08304 m -0.08304,0.124609 0.04156,-0.04156 m -0.124696,0.08313 0.08313,-0.04156 m -0.249304,0.04156 h 0.166172 m -0.249303,-0.04156 0.08313,0.04156 m -0.12461,-0.08313 0.04148,0.04156 m -0.08304,-0.124609 0.04156,0.08304 m -0.04156,-0.290781 v 0.207737 m 0.04156,-0.290867 -0.04156,0.08313 m 0.08304,-0.124694 -0.04148,0.04156 m 0.12461,-0.08313 -0.08313,0.04157 m 0.249303,-0.04157 h -0.166162 m 0.249304,0.04157 -0.08313,-0.04157 m 0.124696,0.08313 -0.04156,-0.04156 m 0.08304,0.124694 -0.04148,-0.08313 m 0.04148,0.415476 v -0.332346 m -0.04148,0.498519 0.04148,-0.166173 m -0.124607,0.290867 0.08313,-0.124694 m -0.124696,0.166259 0.04157,-0.04157 m -0.124611,0.08304 0.08304,-0.04148 m -0.249303,0.04148 h 0.16626 m 0.166175,-2.638329 -0.08313,-0.04148 m 0.124696,0.08304 -0.04156,-0.04156 m 0.08304,0.124694 -0.04148,-0.08313 m 0.04148,0.249303 v -0.166173 m -0.04148,0.249303 0.04148,-0.08313 m -0.08304,0.124694 0.04156,-0.04156 m -0.124696,0.08304 0.08313,-0.04148 m -0.249304,0.04148 h 0.166172 m -0.249303,-0.04148 0.08313,0.04148 m -0.12461,-0.08304 0.04148,0.04156 m -0.08304,-0.124694 0.04156,0.08313 m -0.04156,-0.249303 v 0.166173 m 0.04156,-0.249303 -0.04156,0.08313 m 0.08304,-0.124694 -0.04148,0.04156 m 0.12461,-0.08304 -0.08313,0.04148 m 0.249303,-0.04148 h -0.166176 m 0.249304,-0.04157 -0.08313,0.04157 m 0.124696,-0.08313 -0.04156,0.04156 m 0.08304,-0.124694 -0.04148,0.08313 m 0.04148,-0.124609 v 0.04148 m -0.04148,-0.124608 0.04148,0.08313 m -0.08304,-0.124694 0.04156,0.04156 m -0.124696,-0.08313 0.08313,0.04156 m -0.249304,-0.04156 h 0.166172 m -0.249303,0.04156 0.08313,-0.04156 m -0.12461,0.08313 0.04148,-0.04156 m -0.08304,0.124694 0.04156,-0.08313 m -0.04156,0.124608 v -0.04148 m 0.04156,0.124609 -0.04156,-0.08313 m 0.08304,0.124694 -0.04148,-0.04156 m 0.12461,0.08313 -0.08313,-0.04157 m 0.457042,-2.513721 -0.373911,0.872516 m -0.207738,-0.872516 h 0.581649 m -0.498521,-1.765814 -0.04156,0.08313 m 0.08304,-0.124608 -0.04148,0.04148 m 0.12461,-0.08304 -0.08313,0.04156 m 0.249303,-0.04156 h -0.166173 m 0.249304,0.04156 -0.08313,-0.04156 m 0.124696,0.08304 -0.04156,-0.04148 m 0.08304,0.124608 -0.04148,-0.08313 m 0.04148,0.290867 v -0.207738 m -0.04148,0.290868 0.04148,-0.08313 m -0.08304,0.124695 0.04156,-0.04157 m -0.124696,0.08304 0.08313,-0.04148 m -0.249304,0.04148 h 0.166172 m -0.249303,-0.04148 0.08313,0.04148 m -0.12461,-0.08304 0.04148,0.04157 m -0.08304,-0.124695 0.04156,0.08313 m -0.04156,-0.415476 v 0.332346 m 0.04156,-0.498605 -0.04156,0.166259 m 0.12461,-0.290867 -0.08305,0.124608 m 0.12461,-0.166173 -0.04156,0.04157 m 0.124693,-0.08313 -0.08313,0.04156 m 0.249304,-0.04156 h -0.166175 m -0.207739,-1.350253 -0.04156,-0.04157 m 0.12461,0.08304 -0.08305,-0.04148 m 0.290782,0.04148 h -0.207736 m 0.290868,-0.04148 -0.08313,0.04148 m 0.124696,-0.08304 -0.04156,0.04157 m 0.08304,-0.124694 -0.04148,0.08313 m 0.04148,-0.290867 v 0.207738 m -0.04148,-0.290867 0.04148,0.08313 m -0.08304,-0.124608 0.04156,0.04148 m -0.124696,-0.08304 0.08313,0.04157 m -0.290868,-0.04157 h 0.207736 m -0.290782,0.04157 0.08305,-0.04157 m -0.12461,0.08304 0.04156,-0.04148 m 0,-0.373997 -0.04156,0.415476 m 0.457042,-0.415476 h -0.415484 m 0.04148,-4.1548408 -0.08304,0.041564 m 0.166174,-0.124608 -0.08313,0.083044 m 0.16626,-0.207738 -0.08313,0.1246945 m 0.08313,0.7478215 v -0.872516 m 0.249218,0.872516 h -0.498521" />
  <path
     id="path3473"
     style="fill:none;stroke:#840000;stroke-width:0.246944;stroke-linecap:round;stroke-linejoin:round;stroke-dasharray:none;stroke-opacity:1"
     d="m 72.114842,44.848726 v 1.090645 m 0,-5.453223 v -1.090645 m 7.634512,-7.634516 v 2.18129 m 0,-6.543868 V 25.21712 m 1.090645,6.543867 v -4.362578 m -0.65439,3.92632 a 0.43625792,0.43625792 0 0 1 -0.436258,0.436258 0.43625792,0.43625792 0 0 1 -0.436258,-0.436258 0.43625792,0.43625792 0 0 1 0.436258,-0.436259 0.43625792,0.43625792 0 0 1 0.436258,0.436259 z m 0.65439,-1.74503 h 1.526902 m -2.181292,-1.745031 a 0.43625792,0.43625792 0 0 1 -0.436258,0.436257 0.43625792,0.43625792 0 0 1 -0.436258,-0.436257 0.43625792,0.43625792 0 0 1 0.436258,-0.436258 0.43625792,0.43625792 0 0 1 0.436258,0.436258 z M 65.570974,61.208396 v 0 m 0,0 v 1.090644 h 1.090645 L 65.570974,63.389685 64.48033,62.29904 h 1.090644 M 72.114842,50.301949 V 48.12066 m 0,4.362579 v 2.181289 m 0,-2.181289 v -2.18129 m 0.654387,2.617548 1.308773,1.308773 v -0.654387 0.654387 h -0.654387 m -0.654386,-0.218129 1.308773,1.308774 v -0.654387 0.654387 H 73.423615 M 9.9480936,13.220028 V 9.9480939 m 0,22.9035371 v 3.271935 M 17.582607,16.491962 h 3.271934 m -3.271934,2.181289 h 3.271934 m -3.271934,4.362579 h 3.271934 m -3.271934,2.726612 -1.090645,-0.545322 1.090645,-0.545323 m 0,0.545323 h 3.271934 m -3.271934,2.181289 h 3.271934 m -3.271934,2.18129 h 3.271934 m 40.353855,26.175474 h 4.362578 M 61.208396,44.848726 h 4.362578 m -4.362578,-2.181289 h 4.362578 m -4.362578,-2.181289 h 4.362578 m -4.362578,-2.181289 h 4.362578 m -4.362578,-2.181293 h 4.362578 m -4.362578,-2.181289 h 4.362578 m -4.362578,-2.18129 h 4.362578 m -4.362578,-2.181288 h 4.362578 m -4.362578,-2.18129 h 4.362578 M 61.208396,25.21712 h 4.362578 m -4.362578,-2.18129 h 4.362578 m -4.362578,-2.181289 h 4.362578 m -4.362578,-2.18129 h 4.362578 m -4.362578,-2.181289 h 4.362578 m -4.362578,-2.181289 h 4.362578 M 61.208396,9.9480939 h 4.362578 M 61.208396,7.7668044 h 4.362578 M 35.032921,54.664528 h -4.362578 m 4.362578,-3.271934 h -4.362578 m 4.362578,-2.181289 h -4.362578 m 4.362578,-2.181289 h -4.362578 m 4.362578,-4.362579 h -4.362578 m 4.362578,-2.181289 h -4.362578 m 4.362578,-2.181289 h -4.362578 m 4.362578,-2.181293 h -4.362578 m 4.362578,-2.181289 h -4.362578 m 4.362578,-2.18129 h -4.362578 m 4.362578,-2.181288 h -4.362578 m 4.362578,-2.18129 h -4.362578 m 4.362578,-2.181289 h -4.362578 m 4.362578,-2.18129 h -4.362578 m 4.362578,-2.181289 h -4.362578 m 4.362578,-2.18129 h -4.362578 m 4.362578,-2.181289 h -4.362578 m 4.362578,-2.181289 H 30.670343 M 35.032921,9.9480939 H 30.670343 M 9.9480936,7.7668044 v 0 m 0,0 V 5.5855151 m 0,0 0.6543874,1.0906446 m -1.3087742,0 0.6543868,-1.0906446 M 79.749354,44.848726 v 1.090645 m 0,-5.453223 v -1.090645 m -8.507021,1.090638 h 1.745031 v 4.362579 h -1.745031 z m 1.963154,9.815808 h -2.18129 l 1.090645,2.18129 z m 0,2.18129 h -2.18129 M 5.0357269,25.216948 a 1.0569807,1.0569807 0 0 0 1.0951105,1.090816 m -1.6411197,-1.63777 a 1.7099076,1.7099076 0 0 0 2.186442,2.183093 M 6.1308374,24.671797 V 21.945186 M 3.9547006,24.129051 A 2.4368609,2.4368609 0 0 0 7.221482,27.398409 M 2.3135787,13.220025 H 17.582605 V 32.851631 H 2.3135787 Z M 35.032925,5.5855158 H 61.208396 V 57.936458 H 35.032925 Z M 78.876842,40.486141 h 1.745031 v 4.362579 h -1.745031 z" />
  <path
     id="path3497"
     style="fill:none;stroke:#008484;stroke-width:0.194028;stroke-linecap:round;stroke-linejoin:round;stroke-dasharray:none;stroke-opacity:1"
     d="m 76.313138,43.160803 -0.623216,0.623213 m 0.623216,0.467432 -0.467346,-0.623213 m -0.15587,0.623213 v -1.090645 m -0.986733,0.259693 -0.103823,0.05195 m 0.207735,-0.155781 -0.103912,0.103826 m 0.207739,-0.259693 -0.103827,0.155867 m 0.103827,0.934778 v -1.09064 m 0.311651,1.090645 h -0.623213 m 1.194468,-3.012241 -0.103823,0.05195 m 0.207735,-0.155781 -0.103912,0.103826 m 0.207739,-0.259693 -0.103827,0.155867 m 0.103827,0.934778 v -1.090645 m 0.31165,1.090645 H 75.690011 M 75.066709,41.55085 h -0.415474 m 0.519386,-0.05195 -0.103912,0.05195 m 0.15587,-0.103912 -0.05196,0.05196 m 0.103827,-0.155781 -0.05187,0.103824 m 0.05187,-0.259694 v 0.15587 m -0.05187,-0.259693 0.05187,0.103823 m -0.103827,-0.155781 0.05196,0.05196 m -0.15587,-0.103912 0.103912,0.05195 m -0.519386,-0.05195 h 0.415474 m -0.415474,1.090645 v -1.090645 m 0.623213,1.090645 -0.36352,-0.519304 M 89.5047,30.48854 89.45274,30.5405 m 0.15587,-0.103826 -0.103912,0.05187 m 0.259693,-0.05187 H 89.60861 m 0.259608,0.05187 -0.103827,-0.05187 m 0.155781,0.155782 -0.05195,-0.103912 m 0.05195,0.675168 v -0.571256 m -0.467432,0.571256 v -1.090643 m -0.623212,0.363605 0.103912,0.05187 m -0.259693,-0.05187 h 0.155781 m -0.259693,0.05187 0.103912,-0.05187 m -0.155781,0.155782 0.05187,-0.103912 m -0.05187,0.155868 v -0.05196 m 0.05187,0.155782 -0.05187,-0.103826 m 0.155781,0.155782 -0.103912,-0.05196 m 0.259693,0.05196 h -0.155781 m 0.259693,0.05196 -0.103912,-0.05196 m 0.155781,0.155782 -0.05187,-0.103826 m 0.05187,0.155782 v -0.05196 m -0.05187,0.155868 0.05187,-0.103912 m -0.155781,0.15578 0.103912,-0.05187 m -0.311651,0.05187 h 0.207739 m -0.311562,-0.05187 0.103823,0.05187 m -0.623213,-0.05187 0.05196,-0.05196 m -0.155785,0.103824 0.103827,-0.05187 m -0.259608,0.05187 h 0.155781 m -0.259693,-0.05187 0.103912,0.05187 m -0.155866,-0.15578 0.05195,0.103912 m -0.05195,-0.67517 v 0.571258 m 0.467432,-0.571258 v 0.727038 m -1.142603,-0.5193 h -0.415474 m 0.519387,-0.05196 -0.103913,0.05196 m 0.15587,-0.103912 -0.05196,0.05196 m 0.103826,-0.155782 -0.05187,0.103826 m 0.05187,-0.259693 v 0.155867 m -0.05187,-0.259693 0.05187,0.103826 m -0.103826,-0.155782 0.05196,0.05196 m -0.15587,-0.103912 0.103913,0.05196 m -0.519387,-0.05196 h 0.415474 m -0.415474,1.090643 V 30.073063 M 85.4019,31.267618 h 0.830952 m -1.246429,-0.103912 0.259696,-1.090643 m -0.467432,0.311649 0.207736,0.778994 m -0.415474,0 0.207738,-0.778994 m -0.467432,-0.311649 0.259694,1.090643 m -0.779083,-1.090643 0.15587,0.05196 m -0.415478,-0.05196 h 0.259608 m -0.363516,0.05196 0.103908,-0.05196 m -0.155866,0.103912 0.05196,-0.05196 m -0.103827,0.155782 0.05187,-0.103826 m -0.05187,0.207737 v -0.103905 m 0.05187,0.207737 -0.05187,-0.103826 m 0.103827,0.155782 -0.05196,-0.05196 m 0.155866,0.103912 -0.103908,-0.05196 m 0.311647,0.103912 -0.207739,-0.05196 m 0.311566,0.103826 -0.103827,-0.05187 m 0.155781,0.103826 -0.05195,-0.05196 m 0.103912,0.155868 -0.05196,-0.103912 m 0.05196,0.207738 V 30.85213 m -0.05196,0.207738 0.05196,-0.103912 m -0.103912,0.155868 0.05195,-0.05196 m -0.155781,0.103824 0.103827,-0.05187 m -0.36352,0.05187 h 0.259693 m -0.415474,-0.05187 0.155781,0.05187 m 2.233158,-3.012239 -0.103823,0.05196 m 0.207735,-0.155782 -0.103912,0.103826 m 0.207739,-0.259693 -0.103827,0.155867 m 0.103827,0.934777 V 27.89176 m 0.311651,1.090644 h -0.623213 m -0.623216,0 0.259696,-1.090644 m -0.467432,0.311649 0.207736,0.778995 m -0.415474,0 0.207738,-0.778995 m -0.467432,-0.311649 0.259694,1.090644 m -0.779083,-1.090644 0.15587,0.05195 m -0.415478,-0.05195 h 0.259608 m -0.363516,0.05195 0.103908,-0.05195 m -0.155866,0.103911 0.05196,-0.05196 m -0.103827,0.155782 0.05187,-0.103826 m -0.05187,0.207738 v -0.103892 m 0.05187,0.207738 -0.05187,-0.103826 m 0.103827,0.155782 -0.05196,-0.05196 m 0.155866,0.103912 -0.103908,-0.05196 m 0.311647,0.103912 -0.207739,-0.05196 m 0.311566,0.103826 -0.103827,-0.05187 m 0.155781,0.103826 -0.05195,-0.05196 m 0.103912,0.155868 -0.05196,-0.103912 m 0.05196,0.207738 v -0.103826 m -0.05196,0.207737 0.05196,-0.103911 m -0.103912,0.155867 0.05195,-0.05196 m -0.155781,0.103826 0.103827,-0.05187 m -0.36352,0.05187 h 0.259693 m -0.415474,-0.05187 0.155781,0.05187 M 66.661619,66.064426 h -0.259693 m 0.415474,-0.05187 -0.155781,0.05187 m 0.259693,-0.155781 -0.103912,0.103912 m 0.155866,-0.207824 -0.05195,0.103912 m 0.103827,-0.311651 -0.05187,0.207739 m 0.05187,-0.36352 v 0.155781 m -0.05187,-0.36352 0.05187,0.207739 m -0.103827,-0.311562 0.05195,0.103823 m -0.155866,-0.207735 0.103912,0.103912 m -0.259693,-0.15587 0.155781,0.05196 m -0.415474,-0.05196 h 0.259693 m -0.259693,1.090645 v -1.090645 m -0.51939,1.090645 v -1.090645 m -0.623213,0 0.623213,1.090645 m -0.623213,0 v -1.090645 m -0.467431,0.623213 h -0.207736 m 0.207736,0.363605 v -0.363605 m -0.05187,0.415563 0.05187,-0.05196 m -0.207736,0.103827 0.155867,-0.05187 m -0.259693,0.05187 h 0.103826 m -0.259608,-0.05187 0.155782,0.05187 m -0.259694,-0.155781 0.103912,0.103912 m -0.155869,-0.207824 0.05196,0.103912 m -0.103826,-0.311651 0.05187,0.207739 m -0.05187,-0.36352 v 0.155781 m 0.05187,-0.36352 -0.05187,0.207739 m 0.103826,-0.311562 -0.05196,0.103823 m 0.155869,-0.207735 -0.103912,0.103912 m 0.259694,-0.15587 -0.155782,0.05196 m 0.311563,-0.05196 H 64.48033 m 0.259693,0.05196 -0.103912,-0.05196 M 76.901225,51.449702 h -0.259693 m 0.415477,-0.05187 -0.155784,0.05187 m 0.259693,-0.155781 -0.103909,0.103909 m 0.155867,-0.207821 -0.05196,0.103912 m 0.103827,-0.31165 -0.05187,0.207738 m 0.05187,-0.363519 v 0.155781 m -0.05187,-0.36352 0.05187,0.207739 m -0.103827,-0.311566 0.05196,0.103827 m -0.155867,-0.207739 0.103909,0.103912 m -0.259693,-0.155866 0.155784,0.05195 m -0.415477,-0.05195 h 0.259693 m -0.259693,1.090644 v -1.090644 m -0.986733,0 h 0.519387 m -0.519387,1.090644 v -1.090644 m 0.519387,1.090644 h -0.519387 m 0,-0.571258 h 0.363606 m -1.246511,0.571258 v -1.090644 m 0.519386,1.090644 h -0.519386 m 1.97355,1.350338 -0.103827,0.05195 m 0.207739,-0.155781 -0.103912,0.103826 m 0.207739,-0.259693 -0.103827,0.155867 m 0.103827,0.934778 v -1.090645 m 0.311647,1.090645 h -0.623213 m -0.779079,0 h -0.259693 m 0.415474,-0.05187 -0.155781,0.05187 m 0.259693,-0.155781 -0.103912,0.103912 m 0.155867,-0.207824 -0.05196,0.103912 m 0.103827,-0.311651 -0.05187,0.207739 m 0.05187,-0.36352 v 0.155781 m -0.05187,-0.36352 0.05187,0.207739 m -0.103827,-0.311565 0.05196,0.103826 m -0.155867,-0.207739 0.103912,0.103913 m -0.259693,-0.155867 0.155781,0.05195 m -0.415474,-0.05195 h 0.259693 m -0.259693,1.090645 v -1.090645 m -57.315957,-40.966677 -0.103826,0.05196 m 0.207738,-0.155782 -0.103912,0.103826 m 0.207738,-0.259694 -0.103826,0.155868 m 0.103826,0.934777 v -1.090645 m 0.31165,1.090645 h -0.623214 m -0.882907,-1.038689 0.103826,-0.05196 m -0.155781,0.103912 0.05195,-0.05196 m -0.103911,0.155782 0.05196,-0.103826 m -0.103826,0.311564 0.05187,-0.207738 m -0.05187,0.467431 v -0.259693 m 0.05187,0.467431 -0.05187,-0.207738 m 0.103826,0.31165 -0.05196,-0.103912 m 0.103911,0.155868 -0.05195,-0.05196 m 0.155781,0.103826 -0.103826,-0.05187 m 0.207738,0.05187 h -0.103912 m 0.207738,-0.05187 -0.103826,0.05187 m 0.155782,-0.103826 -0.05196,0.05196 m 0.103912,-0.155868 -0.05196,0.103912 m 0.103912,-0.31165 -0.05196,0.207738 m 0.05196,-0.467431 v 0.259693 m -0.05196,-0.467431 0.05196,0.207738 m -0.103912,-0.311564 0.05196,0.103826 m -0.103912,-0.155782 0.05196,0.05196 m -0.155782,-0.103912 0.103826,0.05196 m -0.207738,-0.05196 h 0.103912 m -1.194556,1.090645 v -1.090645 m 0.519387,1.090645 h -0.519387 m -1.090559,-0.36352 h 0.675083 m -0.415475,-0.778995 -0.259608,0.778995 m 0.519301,-0.36352 v 0.72704 m -1.609946,0 h 0.675169 m -0.05196,-0.623214 -0.623213,0.623214 m 0.675169,-0.778995 -0.05196,0.155781 m 0.05196,-0.259693 v 0.103912 m -0.05196,-0.207738 0.05196,0.103826 m -0.103911,-0.155782 0.05195,0.05196 m -0.155781,-0.103912 0.103826,0.05196 m -0.36352,-0.05196 h 0.259694 m -0.363606,0.05196 0.103912,-0.05196 m -0.155782,0.103912 0.05187,-0.05196 m -0.934863,-0.05196 h 0.519388 m -0.519388,1.090645 v -1.090645 m 0.363606,0.519388 h -0.363606 m -0.675169,0.05196 h -0.415475 m 0.519387,-0.05196 -0.103912,0.05196 m 0.155868,-0.103913 -0.05196,0.05196 m 0.103826,-0.155783 -0.05187,0.103826 m 0.05187,-0.259693 v 0.155867 m -0.05187,-0.259693 0.05187,0.103826 m -0.103826,-0.155782 0.05196,0.05196 m -0.155868,-0.103912 0.103912,0.05196 m -0.519387,-0.05196 h 0.415475 m -0.415475,1.090645 v -1.090645 m 0.623213,1.090645 -0.36352,-0.519301 m -0.779081,0.519301 v -1.090645 m -0.623213,0 0.623213,1.090645 m -0.623213,0 v -1.090645 m 4.227579,-0.872516 H 15.97059 M 15.91863,9.8182491 15.295416,10.441462 m 0.675169,-0.778995 -0.05196,0.1557821 m 0.05196,-0.2596938 V 9.662467 m -0.05196,-0.2077377 0.05196,0.103826 m -0.103911,-0.1557817 0.05196,0.051956 m -0.155782,-0.1039117 0.103826,0.051956 m -0.36352,-0.051956 h 0.259694 m -0.363606,0.051956 0.103912,-0.051956 m -0.155782,0.1039117 0.05187,-0.051956 M 14.879869,10.233723 V 9.3508156 m -0.05187,0.9868184 0.05187,-0.103911 m -0.103826,0.155867 0.05196,-0.05196 m -0.155868,0.103826 0.103912,-0.05187 m -0.31165,0.05187 h 0.207738 m -0.311563,-0.05187 0.103825,0.05187 m -0.155781,-0.103826 0.05196,0.05196 m -0.103912,-0.155867 0.05196,0.103911 M 14.256656,9.3508156 V 10.233723 M 53.973642,3.8250255 54.544901,4.552065 m -0.571259,0 0.571259,-0.7270395 M 53.402384,4.552065 V 3.46142 m -0.311648,0 h 0.623213 m -1.03869,0.5193875 -0.103827,-0.051956 m 0.155785,0.1039121 -0.05196,-0.051956 m 0.103912,0.1557817 -0.05195,-0.1038256 m 0.05195,0.3115637 V 4.1365892 m -0.05195,0.3116498 0.05195,-0.1039117 m -0.103912,0.1558674 0.05196,-0.051956 m -0.155785,0.103826 0.103827,-0.05187 m -0.311562,0.05187 h 0.207735 m -0.311647,-0.05187 0.103912,0.05187 m -0.15587,-0.103826 0.05196,0.051956 M 52.15596,4.3443273 52.20783,4.448239 M 52.15596,4.1365892 v 0.2077381 m 0.05187,-0.3115637 -0.05187,0.1038256 m 0.103827,-0.1557817 -0.05196,0.051956 m 0.15587,-0.1039121 -0.103912,0.051956 m 0.311647,-0.051956 h -0.207735 m 0.311562,-0.051956 -0.103827,0.051956 m 0.155785,-0.103826 -0.05196,0.05187 m 0.103912,-0.155782 -0.05195,0.1039117 m 0.05195,-0.1558674 v 0.051956 m -0.05195,-0.1557817 0.05195,0.103826 m -0.103912,-0.155782 0.05196,0.051956 m -0.155785,-0.1039121 0.103827,0.051956 m -0.311562,-0.051956 h 0.207735 m -0.311647,0.051956 0.103912,-0.051956 m -0.15587,0.1039121 0.05196,-0.051956 M 52.15596,3.669158 52.20783,3.565332 m -0.05187,0.1557817 v -0.051956 m 0.05187,0.1558674 -0.05187,-0.1039117 m 0.103827,0.155782 -0.05196,-0.05187 m 0.15587,0.103826 -0.103912,-0.051956 M 51.792353,3.46142 51.065314,4.552065 m 0,-1.090645 0.727039,1.090645 m -1.713772,-0.05187 -0.05196,-0.051956 m 0.155785,0.103826 -0.103827,-0.05187 m 0.415474,0.05187 h -0.311647 m 0.415474,-0.05187 -0.103827,0.05187 m 0.155781,-0.103826 -0.05195,0.051956 m 0.103912,-0.1558674 -0.05196,0.1039117 m 0.05196,-0.3636055 v 0.2596938 m -0.05196,-0.3635198 0.05196,0.103826 m -0.103912,-0.155782 0.05195,0.051956 m -0.155781,-0.1039117 0.103827,0.051956 m -0.259693,-0.051956 h 0.155866 M 50.701794,3.46142 50.338189,3.8768958 M 50.026623,3.46142 h 0.675171 M 49.195672,3.513376 49.299498,3.46142 m -0.155781,0.1039121 0.05195,-0.051956 m -0.103909,0.155782 0.05195,-0.103826 m -0.103826,0.3115637 0.05187,-0.2077377 m -0.05187,0.4674311 V 3.8768958 m 0.05187,0.4674315 -0.05187,-0.2077381 m 0.103826,0.3116498 -0.05195,-0.1039117 m 0.103909,0.1558674 -0.05195,-0.051956 m 0.155781,0.103826 -0.103826,-0.05187 m 0.207739,0.05187 h -0.103913 m 0.207739,-0.05187 -0.103826,0.05187 m 0.155781,-0.103826 -0.05195,0.051956 m 0.103912,-0.1558674 -0.05196,0.1039117 m 0.103912,-0.3116498 -0.05195,0.2077381 m 0.05195,-0.4674315 v 0.2596934 m -0.05195,-0.4674311 0.05195,0.2077377 m -0.103912,-0.3115637 0.05196,0.103826 m -0.103912,-0.155782 0.05195,0.051956 M 49.403411,3.46142 49.507237,3.513376 M 49.299498,3.46142 h 0.103913 m -1.298384,0.2596938 -0.103823,0.051956 m 0.207735,-0.155782 -0.103912,0.103826 M 48.312766,3.46142 48.208939,3.6172878 M 48.312766,4.552065 V 3.46142 m 0.311651,1.090645 H 48.001204 M 47.585726,3.46142 h 0.103827 M 47.481814,3.513376 47.585726,3.46142 M 47.42986,3.6172878 47.48181,3.5133761 M 47.42986,4.552065 V 3.6172878 m -0.155781,0.2077377 h 0.415474 M 46.287346,4.552065 h 0.675168 M 46.910564,3.9288515 46.287351,4.552065 m 0.675168,-0.7789952 -0.05195,0.1557817 m 0.05195,-0.2596934 v 0.1039117 m -0.05195,-0.2077377 0.05195,0.103826 m -0.103912,-0.155782 0.05196,0.051956 M 46.754783,3.46142 46.85861,3.513376 M 46.49509,3.46142 h 0.259693 M 46.391178,3.513376 46.49509,3.46142 m -0.155781,0.1039121 0.05187,-0.051956 M 45.30062,4.5001947 45.24867,4.4482387 m 0.155781,0.103826 -0.103826,-0.05187 m 0.415477,0.05187 h -0.311651 m 0.415478,-0.05187 -0.103827,0.05187 m 0.155781,-0.103826 -0.05195,0.051956 m 0.103912,-0.1558674 -0.05196,0.1039117 m 0.05196,-0.3636055 v 0.2596938 m -0.05196,-0.3635198 0.05196,0.103826 m -0.103912,-0.155782 0.05195,0.051956 m -0.155781,-0.1039117 0.103827,0.051956 m -0.259697,-0.051956 h 0.15587 M 45.923827,3.46142 45.560218,3.8768958 M 45.248656,3.46142 h 0.675171 m -1.090645,0 V 4.552065 M 44.469662,4.2405013 44.833182,3.46142 m -0.727128,0 0.363608,0.7790813 M 44.106054,4.552065 V 3.46142 M 43.430972,4.552065 V 3.46142 m -0.311651,0 h 0.623216 m -1.090648,0 0.15587,0.051956 M 42.392282,3.46142 h 0.259607 M 42.288373,3.513376 42.392282,3.46142 m -0.155867,0.1039121 0.05196,-0.051956 m -0.103827,0.155782 0.05187,-0.103826 m -0.05187,0.2077377 V 3.6691581 m 0.05187,0.2077377 -0.05187,-0.103826 m 0.103827,0.1557817 -0.05196,-0.051956 m 0.155867,0.1039117 -0.103909,-0.051956 m 0.311648,0.1039121 -0.207739,-0.051956 m 0.311565,0.103826 -0.103826,-0.05187 m 0.155781,0.1038256 -0.05195,-0.051956 m 0.103912,0.1558678 -0.05196,-0.1039121 m 0.05196,0.2077381 v -0.103826 m -0.05196,0.2077377 0.05196,-0.1039117 m -0.103912,0.1558674 0.05195,-0.051956 m -0.155781,0.103826 0.103826,-0.05187 m -0.36352,0.05187 h 0.259694 m -0.415475,-0.05187 0.155781,0.05187 m 6.580107,-3.0122405 -0.103823,0.051956 m 0.207736,-0.1557817 -0.103913,0.103826 m 0.207739,-0.2596931 -0.103826,0.1558677 m 0.103826,0.9347769 V 1.2801308 m 0.311651,1.0906446 H 48.816611 M 48.349094,2.1630377 V 1.2801308 m -0.05187,0.9868186 0.05187,-0.1039117 m -0.103827,0.1558677 0.05195,-0.051956 m -0.155867,0.103826 0.103912,-0.05187 m -0.311651,0.05187 h 0.207739 m -0.311565,-0.05187 0.103826,0.05187 m -0.155781,-0.103826 0.05195,0.051956 m -0.103912,-0.1558677 0.05196,0.1039117 m -0.05195,-0.9868186 v 0.8829069 m -36.427446,1.6827702 -0.05196,-0.051956 m 0.155782,0.103826 -0.103826,-0.05187 m 0.415476,0.05187 h -0.31165 m 0.415476,-0.05187 -0.103826,0.05187 m 0.155782,-0.103826 -0.05196,0.051956 m 0.103912,-0.1558677 -0.05196,0.103912 m 0.05196,-0.3636055 v 0.2596935 m -0.05196,-0.3635195 0.05196,0.103826 m -0.103912,-0.155782 0.05196,0.051956 M 11.713904,3.222509 11.81773,3.274465 M 11.558036,3.222509 h 0.155868 m 0.207738,-0.415476 -0.363606,0.4154757 m -0.31156,-0.4154754 h 0.67517 m -1.298469,1.0906449 0.363606,-1.0906449 m -0.727126,0 0.36352,1.0906449 m -1.2982966,-0.05187 -0.051956,-0.051956 m 0.155782,0.103826 -0.103826,-0.05187 m 0.4154755,0.05187 H 9.4287064 m 0.4154755,-0.05187 -0.103826,0.05187 m 0.155782,-0.103826 -0.051956,0.051956 m 0.1039117,-0.155868 -0.051956,0.103912 m 0.051956,-0.3636055 v 0.2596935 m -0.051956,-0.3635195 0.051956,0.103826 m -0.1039117,-0.155782 0.051956,0.051956 M 9.7403559,3.222509 9.8441819,3.2744647 M 9.5844881,3.222509 H 9.7403559 M 9.9480936,2.8070333 9.5844881,3.222509 M 9.2729244,2.8070333 H 9.9480936 M 8.4418878,3.8976782 V 3.066727 M 8.026412,3.4822024 H 8.857449 M 83.94765,43.160803 83.324438,43.784016 m 0.623212,0.467432 -0.467346,-0.623213 m -0.155866,0.623213 v -1.090645 m -0.986733,0.259693 -0.103827,0.05195 m 0.207736,-0.155781 -0.103909,0.103826 m 0.207735,-0.259693 -0.103826,0.155867 m 0.103826,0.934778 v -1.09064 m 0.311651,1.090645 h -0.623213 m 1.038687,-2.181289 h 0.675171 m -0.05196,-0.623216 -0.623213,0.623216 m 0.675171,-0.778997 -0.05196,0.155781 m 0.05196,-0.259694 v 0.103913 m -0.05196,-0.207736 0.05196,0.103823 m -0.103912,-0.155781 0.05195,0.05196 m -0.155781,-0.103912 0.103827,0.05195 m -0.36352,-0.05195 h 0.259693 m -0.363605,0.05195 0.103912,-0.05195 m -0.155781,0.103912 0.05187,-0.05196 m -0.675171,0.519387 h -0.415474 m 0.519386,-0.05195 -0.103912,0.05195 m 0.15587,-0.103912 -0.05196,0.05196 m 0.103827,-0.155781 -0.05187,0.103824 m 0.05187,-0.259694 v 0.15587 m -0.05187,-0.259693 0.05187,0.103823 m -0.103827,-0.155781 0.05196,0.05196 m -0.15587,-0.103912 0.103912,0.05195 m -0.519386,-0.05195 h 0.415474 m -0.415474,1.090645 v -1.090645 m 0.623213,1.090645 -0.36352,-0.519304" />
  <path
     id="path3523"
     style="fill:none;stroke:#008400;stroke-width:0.264583;stroke-linecap:round;stroke-linejoin:round;stroke-dasharray:none;stroke-opacity:1"
     d="m 20.854541,18.673251 h 4.362578 m 54.532235,27.26612 v 15.269025 m 0,0 H 72.114842 M 0.13229166,54.664528 H 30.670343 M 9.9480936,9.9480939 H 0.13229166 M 72.114842,39.395503 V 36.123566 M 0.13229166,9.9480939 V 54.664528 M 20.854541,29.579699 h 9.815802 m 41.444499,25.084829 v 6.543868 m 7.634512,-27.266119 v 5.453226 M 25.217119,18.673251 V 0.13229166 M 20.854541,27.398409 h 9.815802 M 20.854541,25.21712 h 9.815802 m -9.815802,-2.18129 h 9.815802 M 9.9480936,7.7668044 V 9.9480939 M 72.114842,48.12066 V 45.939371 M 9.9480936,36.123566 v 25.08483 m 0,0 H 65.570974 m 0,-44.716434 h 14.17838 M 68.842908,14.310673 H 65.570974 M 68.842908,0.13229166 V 14.310673 M 25.217119,0.13229166 H 68.842908 M 65.570974,36.123566 h 6.543868 m -6.543868,25.08483 h 6.543868 m -6.543868,0 v -5.453223 m 14.17838,-39.263211 v 8.725158" />
  <path
     id="path3579"
     style="fill:none;stroke:#000084;stroke-width:0.212118;stroke-linecap:round;stroke-linejoin:round;stroke-opacity:1"
     d="m 66.094483,22.512321 -1.047018,1.047019 m 0,-1.047019 1.047018,1.047019 m 0,5.496849 -1.047018,1.047019 m 0,-1.047019 1.047018,1.047019 m 0,-5.409598 -1.047018,1.047019 m 0,-1.047019 1.047018,1.047019 m 0,7.678139 -1.047018,1.047021 m 0,-1.047021 1.047018,1.047021 M 31.193851,9.4245845 30.146834,10.471603 m 0,-1.0470185 1.047017,1.0470185 m 34.900632,27.309743 -1.047018,1.047021 m 0,-1.047021 1.047018,1.047021 m 0,1.134269 -1.047018,1.047021 m 0,-1.047021 1.047018,1.047021 m -34.900632,9.859428 -1.047017,1.047018 m 0,-1.047018 1.047017,1.047018 m 0,-9.772178 -1.047017,1.047021 m 0,-1.047021 1.047017,1.047021 m 0,-3.22831 -1.047017,1.047021 m 0,-1.047021 1.047017,1.047021 M 66.094483,26.8749 65.047465,27.921918 m 0,-1.047018 1.047018,1.047018 m -34.900632,18.584585 -1.047017,1.047021 m 0,-1.047021 1.047017,1.047021 m 0,-27.222492 -1.047017,1.047018 m 0,-1.047018 1.047017,1.047018 m -9.815801,-5.409597 -1.047019,1.047019 m 0,-1.047019 1.047019,1.047019 m 9.815801,1.13427 -1.047017,1.047019 m 0,-1.047019 1.047017,1.047019 m 0,14.222007 -1.047017,1.047021 m 0,-1.047021 1.047017,1.047021 m 0,1.134268 -1.047017,1.047021 m 0,-1.047021 1.047017,1.047021 m 0,1.134268 -1.047017,1.047021 m 0,-1.047021 1.047017,1.047021 m 0,-7.590889 -1.047017,1.047021 m 0,-1.047021 1.047017,1.047021 m 0,-16.316046 -1.047017,1.047019 m 0,-1.047019 1.047017,1.047019 m 0,-3.228309 -1.047017,1.047019 m 0,-1.047019 1.047017,1.047019 m 0,33.853614 -1.047017,1.047018 m 0,-1.047018 1.047017,1.047018 M 66.094483,20.331032 65.047465,21.37805 m 0,-1.047018 1.047018,1.047018 m 0,22.947164 -1.047018,1.047021 m 0,-1.047021 1.047018,1.047021 m 0,-35.9476505 -1.047018,1.0470185 m 0,-1.0470185 1.047018,1.0470185 m 0,7.678139 -1.047018,1.047019 m 0,-1.047019 1.047018,1.047019 m 0,22.947164 -1.047018,1.047021 m 0,-1.047021 1.047018,1.047021 m 0,-11.953468 -1.047018,1.047021 m 0,-1.047021 1.047018,1.047021" />
  <circle
     cx="9.9480906"
     cy="9.9480934"
     r="0.3926321"
     id="circle3579"
     style="fill:#008400;fill-opacity:1;stroke:#008400;stroke-width:0.130877;stroke-linecap:round;stroke-linejoin:round;stroke-opacity:1" />
  <circle
     cx="65.570969"
     cy="61.208397"
     r="0.3926321"
     id="circle3580"
     style="fill:#008400;fill-opacity:1;stroke:#008400;stroke-width:0.130877;stroke-linecap:round;stroke-linejoin:round;stroke-opacity:1" />
  <circle
     cx="72.114838"
     cy="61.208397"
     r="0.3926321"
     id="circle3581"
     style="fill:#008400;fill-opacity:1;stroke:#008400;stroke-width:0.130877;stroke-linecap:round;stroke-linejoin:round;stroke-opacity:1" />
  <metadata
     id="metadata1">
    <rdf:RDF>
      <cc:Work
         rdf:about="">
        <dc:title>SVG Image created as transceiver.svg date 2026/03/26 19:22:31 </dc:title>
      </cc:Work>
    </rdf:RDF>
  </metadata>
</svg>
