<?xml version="1.0" encoding="UTF-8" standalone="no"?>
<svg
   version="1.1"
   width="80.016785mm"
   height="68.431976mm"
   viewBox="0 0 80.016785 68.431976"
   id="svg3450"
   xmlns="http://www.w3.org/2000/svg"
   xmlns:svg="http://www.w3.org/2000/svg"
   xmlns:rdf="http://www.w3.org/1999/02/22-rdf-syntax-ns#"
   xmlns:cc="http://creativecommons.org/ns#"
   xmlns:dc="http://purl.org/dc/elements/1.1/">
  <defs
     id="defs3450" />
  <title
     id="title1">SVG Image created as transceiver.svg date 2026/03/26 19:13:23 </title>
  <desc
     id="desc1">Image generated by Eeschema-SVG </desc>
  <g
     id="g3450"
     transform="matrix(0.88799791,0,0,0.88799791,-0.00680108,-0.00680108)">
    <rect
       x="40.816505"
       y="6.5265012"
       width="30.48"
       height="60.959999"
       rx="0.000000"
       id="rect929"
       style="fill:#ffffc2;fill-opacity:1;stroke:none" />
    <rect
       x="2.7164977"
       y="15.416496"
       width="17.780001"
       height="22.860001"
       rx="0.000000"
       id="rect2906"
       style="fill:#ffffc2;fill-opacity:1;stroke:none" />
    <circle
       cx="7.1614971"
       cy="29.386497"
       r="0.63499999"
       id="circle2908"
       style="fill:#840000;fill-opacity:1;stroke:#840000;stroke-width:0.353;stroke-linecap:round;stroke-linejoin:round;stroke-opacity:1" />
    <path
       id="path3249"
       style="fill:none;stroke:#840000;stroke-width:0.297955;stroke-linecap:round;stroke-linejoin:round;stroke-dasharray:none;stroke-opacity:1"
       d="m 11.6065,15.4165 v -3.81 m 0,26.67 v 3.81 m 8.89,-22.86 h 3.81 m -3.81,2.54 h 3.81 m -3.81,5.08 h 3.81 m -3.81,3.175 -1.27,-0.635 1.27,-0.635 m 0,0.635 h 3.81 m -3.81,2.54 h 3.81 m -3.81,2.54 h 3.81 M 5.8863,29.3863 a 1.2308,1.2308 0 0 0 1.2752,1.2702 m -1.911,-1.9071 a 1.9911,1.9911 0 0 0 2.546,2.5421 m -0.635,-2.54 v -3.175 m -2.534,2.543 a 2.8376,2.8376 0 0 0 3.804,3.807 M 2.7164977,15.416496 H 20.496498 V 38.276497 H 2.7164977 Z M 83.9965,58.5965 v -2.54 m 0,5.08 v 2.54 m 1.27,-5.08 h -2.54 l 1.27,2.54 z m 0,2.54 h -2.54 m 1.27,0 v -2.54 m 0.762,3.048 1.524,1.524 v -0.762 0.762 h -0.762 m -0.762,-0.254 1.524,1.524 v -0.762 0.762 h -0.762 m -9.144,6.858 v 0 m 0,0 v 1.27 h 1.27 l -1.27,1.27 -1.27,-1.27 h 1.27 m 7.62,-20.32 v 1.27 m 0,-6.35 v -1.27 m -1.015993,1.269996 h 2.032 v 5.08 h -2.032 z M 71.2965,64.9465 h 5.08 m -5.08,-12.7 h 5.08 m -5.08,-2.54 h 5.08 m -5.08,-2.54 h 5.08 m -5.08,-2.54 h 5.08 m -5.08,-2.54 h 5.08 m -5.08,-2.54 h 5.08 m -5.08,-2.54 h 5.08 m -5.08,-2.54 h 5.08 m -5.08,-2.54 h 5.08 m -5.08,-2.54 h 5.08 m -5.08,-2.54 h 5.08 m -5.08,-2.54 h 5.08 m -5.08,-2.54 h 5.08 m -5.08,-2.54 h 5.08 m -5.08,-2.54 h 5.08 m -5.08,-5.08 h 5.08 m -5.08,-2.54 h 5.08 m -35.56,54.61 h -5.08 m 5.08,-3.81 h -5.08 m 5.08,-2.54 h -5.08 m 5.08,-2.54 h -5.08 m 5.08,-5.08 h -5.08 m 5.08,-2.54 h -5.08 m 5.08,-2.54 h -5.08 m 5.08,-2.54 h -5.08 m 5.08,-2.54 h -5.08 m 5.08,-2.54 h -5.08 m 5.08,-2.54 h -5.08 m 5.08,-2.54 h -5.08 m 5.08,-2.54 h -5.08 m 5.08,-2.54 h -5.08 m 5.08,-2.54 h -5.08 m 5.08,-2.54 h -5.08 m 5.08,-2.54 h -5.08 m 5.08,-2.54 h -5.08 m 5.08,-5.08 h -5.08 m 5.080005,-5.0799988 h 30.48 V 67.4865 h -30.48 z M 11.6065,9.0665 v 0 m 0,0 v -2.54 m 0,0 0.762,1.27 m -1.524,0 0.762,-1.27" />
    <path
       id="path3293"
       style="fill:none;stroke:#840000;stroke-width:0.1524;stroke-linecap:round;stroke-linejoin:round;stroke-opacity:1"
       d="m 11.189,13.9347 v -0.7862 m -0.7257,0.0605 0.7257,0.7257 m -0.9071,-0.7862 0.1814,0.0605 m -0.3024,-0.0605 h 0.121 M 10.04,13.209 10.1609,13.1485 M 9.9795,13.2695 10.04,13.209 M 9.919,13.3904 9.9795,13.2695 M 9.919,13.6928 v -0.3024 m 0.0605,0.4234 -0.0605,-0.121 m 0.121,0.1814 -0.0605,-0.0604 m 0.2419,26.6095 0.0605,0.1209 m -0.1814,-0.2419 0.1209,0.121 m -0.3024,-0.2419 0.1815,0.1209 m 1.0885,-0.1209 h -1.27 m 1.27,-0.3629 v 0.7257 M 22.6434,18.1438 22.5225,18.0833 m 0.1814,0.121 -0.0605,-0.0605 m 0.121,0.1814 -0.0605,-0.1209 m 0.0605,0.3628 v -0.2419 m -0.0605,0.3629 0.0605,-0.121 m -0.121,0.1815 0.0605,-0.0605 m -0.1814,0.1209 0.1209,-0.0604 m -0.3628,0.0604 h 0.2419 m -0.3629,-0.0604 0.121,0.0604 m -0.1815,-0.1209 0.0605,0.0605 m -0.1209,-0.1815 0.0604,0.121 m -0.0604,-0.3629 v 0.2419 m 0.0604,-0.3628 -0.0604,0.1209 m 0.1209,-0.1814 -0.0605,0.0605 m 0.1815,-0.121 -0.121,0.0605 m 0.3629,-0.0605 h -0.2419 m 0.3628,-0.0605 -0.1209,0.0605 m 0.1814,-0.1209 -0.0605,0.0604 m 0.121,-0.1814 -0.0605,0.121 m 0.0605,-0.1815 v 0.0605 m -0.0605,-0.1814 0.0605,0.1209 m -0.121,-0.1814 0.0605,0.0605 m -0.1814,-0.121 0.1209,0.0605 M 22.2806,17.539 h 0.2419 m -0.3629,0.0605 0.121,-0.0605 m -0.1815,0.121 0.0605,-0.0605 m -0.1209,0.1814 0.0604,-0.1209 m -0.0604,0.1814 v -0.0605 m 0.0604,0.1815 -0.0604,-0.121 m 0.1209,0.1814 -0.0605,-0.0604 m 0.1815,0.1209 -0.121,-0.0605 m -0.1209,3.2658 -0.0605,-0.0605 m 0.1814,0.1209 -0.1209,-0.0604 m 0.4838,0.0604 h -0.3629 m 0.4838,-0.0604 -0.1209,0.0604 m 0.1814,-0.1209 -0.0605,0.0605 m 0.121,-0.1815 -0.0605,0.121 m 0.0605,-0.4234 v 0.3024 m -0.0605,-0.4233 0.0605,0.1209 m -0.121,-0.1814 0.0605,0.0605 m -0.1814,-0.121 0.1209,0.0605 M 22.341,20.5628 h 0.1815 M 22.7644,20.079 22.341,20.5628 M 21.9782,20.079 h 0.7862 m -0.7257,5.9267 h 0.7861 m -0.4838,-0.9071 -0.3023,0.9071 m 0.6047,-0.4233 v 0.8466 m -0.5443,2.4796 -0.0604,-0.0605 m 0.1814,0.1209 -0.121,-0.0604 m 0.4234,0.0604 h -0.3024 m 0.4233,-0.0604 -0.1209,0.0604 m 0.1814,-0.1209 -0.0605,0.0605 m 0.121,-0.1815 -0.0605,0.121 m 0.0605,-0.4234 v 0.3024 m -0.0605,-0.4233 0.0605,0.1209 m -0.121,-0.1814 0.0605,0.0605 m -0.1814,-0.121 0.1209,0.0605 m -0.4233,-0.0605 h 0.3024 m -0.4234,0.0605 0.121,-0.0605 m -0.1814,0.121 0.0604,-0.0605 m 0,-0.5443 -0.0604,0.6048 m 0.6652,-0.6048 h -0.6048 m 0.7257,2.54 -0.5442,1.27 m -0.3024,-1.27 h 0.8466 m -0.7257,3.1448 -0.0604,0.1209 m 0.1209,-0.1814 -0.0605,0.0605 m 0.1815,-0.121 -0.121,0.0605 m 0.3629,-0.0605 h -0.2419 m 0.3628,0.0605 -0.1209,-0.0605 m 0.1814,0.121 -0.0605,-0.0605 m 0.121,0.1814 -0.0605,-0.1209 m 0.0605,0.4233 v -0.3024 m -0.0605,0.4234 0.0605,-0.121 m -0.121,0.1815 0.0605,-0.0605 m -0.1814,0.1209 0.1209,-0.0604 m -0.3628,0.0604 h 0.2419 m -0.3629,-0.0604 0.121,0.0604 m -0.1815,-0.1209 0.0605,0.0605 m -0.1209,-0.1815 0.0604,0.121 m -0.0604,-0.6048 v 0.4838 m 0.0604,-0.7257 -0.0604,0.2419 M 22.2201,32.9 22.0991,33.0814 M 22.2806,32.8395 22.2201,32.9 m 0.1814,-0.121 -0.1209,0.0605 m 0.3628,-0.0605 h -0.2419 m 52.1607,31.2973 0.0483,-0.0967 m -0.0967,0.1451 0.0484,-0.0484 m -0.1452,0.0968 0.0968,-0.0484 m -0.2903,0.0484 h 0.1935 m -0.2903,-0.0484 0.0968,0.0484 m -0.1451,-0.0968 0.0483,0.0484 M 74.03,63.9796 74.0784,64.0763 M 74.03,63.7377 v 0.2419 m 0.0484,-0.3387 -0.0484,0.0968 m 0.0967,-0.1452 -0.0483,0.0484 m 0.1451,-0.0968 -0.0968,0.0484 m 0.2903,-0.0484 h -0.1935 m 0.2903,0.0484 -0.0968,-0.0484 m 0.1452,0.0968 -0.0484,-0.0484 m 0.0967,0.1452 -0.0483,-0.0968 m 0.0483,0.4838 v -0.387 m -0.0483,0.5805 0.0483,-0.1935 m -0.1451,0.3387 0.0968,-0.1452 m -0.1452,0.1936 0.0484,-0.0484 m -0.1451,0.0967 0.0967,-0.0483 m -0.2903,0.0483 h 0.1936 m -1.1612,-0.7741 -0.0967,0.0484 m 0.1935,-0.1451 -0.0968,0.0967 m 0.1936,-0.2419 -0.0968,0.1452 m 0.0968,0.8708 v -1.016 m 0.2902,1.016 H 73.0624 M 74.03,51.5215 h 0.6289 m -0.387,-0.7257 -0.2419,0.7257 m 0.4838,-0.3387 v 0.6773 m -1.4998,0 h 0.6289 m -0.0483,-0.5805 -0.5806,0.5805 m 0.6289,-0.7257 -0.0483,0.1452 m 0.0483,-0.2419 v 0.0967 m -0.0483,-0.1935 0.0483,0.0968 m -0.0967,-0.1452 0.0484,0.0484 m -0.1452,-0.0968 0.0968,0.0484 m -0.3387,-0.0484 h 0.2419 m -0.3386,0.0484 0.0967,-0.0484 m -0.1451,0.0968 0.0484,-0.0484 M 74.03,49.2718 73.9816,49.2234 m 0.1451,0.0967 -0.0967,-0.0483 m 0.387,0.0483 h -0.2903 m 0.3871,-0.0483 -0.0968,0.0483 m 0.1452,-0.0967 -0.0484,0.0484 m 0.0967,-0.1452 -0.0483,0.0968 m 0.0483,-0.3387 v 0.2419 m -0.0483,-0.3387 0.0483,0.0968 m -0.0967,-0.1451 0.0484,0.0483 m -0.1452,-0.0967 0.0968,0.0484 m -0.2419,-0.0484 h 0.1451 m 0.1935,-0.3871 -0.3386,0.3871 m -0.2903,-0.3871 h 0.6289 m -1.5965,1.016 h 0.6289 m -0.0483,-0.5805 -0.5806,0.5805 m 0.6289,-0.7257 -0.0483,0.1452 m 0.0483,-0.2419 v 0.0967 m -0.0483,-0.1935 0.0483,0.0968 m -0.0967,-0.1452 0.0484,0.0484 m -0.1452,-0.0968 0.0968,0.0484 m -0.3387,-0.0484 h 0.2419 m -0.3386,0.0484 0.0967,-0.0484 m -0.1451,0.0968 0.0484,-0.0484 m 0.8708,-1.5724 h 0.6289 m -0.0483,-0.5805 -0.5806,0.5805 m 0.6289,-0.7257 -0.0483,0.1452 m 0.0483,-0.2419 v 0.0967 m -0.0483,-0.1935 0.0483,0.0968 m -0.0967,-0.1452 0.0484,0.0484 m -0.1452,-0.0968 0.0968,0.0484 m -0.3387,-0.0484 h 0.2419 m -0.3386,0.0484 0.0967,-0.0484 m -0.1451,0.0968 0.0484,-0.0484 m -1.0644,0.9676 h 0.6289 m -0.0483,-0.5805 -0.5806,0.5805 m 0.6289,-0.7257 -0.0483,0.1452 m 0.0483,-0.2419 v 0.0967 m -0.0483,-0.1935 0.0483,0.0968 m -0.0967,-0.1452 0.0484,0.0484 m -0.1452,-0.0968 0.0968,0.0484 m -0.3387,-0.0484 h 0.2419 m -0.3386,0.0484 0.0967,-0.0484 m -0.1451,0.0968 0.0484,-0.0484 M 74.1267,43.466 74.03,43.5144 m 0.1935,-0.1451 -0.0968,0.0967 m 0.1936,-0.2419 -0.0968,0.1452 m 0.0968,0.8708 v -1.016 m 0.2902,1.016 H 74.03 m -1.016,0 h 0.6289 m -0.0483,-0.5805 -0.5806,0.5805 m 0.6289,-0.7257 -0.0483,0.1452 m 0.0483,-0.2419 v 0.0967 m -0.0483,-0.1935 0.0483,0.0968 m -0.0967,-0.1452 0.0484,0.0484 m -0.1452,-0.0968 0.0968,0.0484 m -0.3387,-0.0484 h 0.2419 m -0.3386,0.0484 0.0967,-0.0484 m -0.1451,0.0968 0.0484,-0.0484 m 0.9676,-2.1046 -0.0484,0.0968 m 0.0967,-0.1451 -0.0483,0.0483 m 0.1451,-0.0967 -0.0968,0.0484 m 0.2903,-0.0484 h -0.1935 m 0.2903,0.0484 -0.0968,-0.0484 m 0.1452,0.0967 -0.0484,-0.0483 m 0.0967,0.1451 -0.0483,-0.0968 m 0.0483,0.3387 v -0.2419 m -0.0483,0.3387 0.0483,-0.0968 m -0.0967,0.1452 0.0484,-0.0484 m -0.1452,0.0967 0.0968,-0.0483 m -0.2903,0.0483 h 0.1935 m -0.2903,-0.0483 0.0968,0.0483 m -0.1451,-0.0967 0.0483,0.0484 M 74.03,41.5066 74.0784,41.6034 M 74.03,41.1196 v 0.387 M 74.0784,40.926 74.03,41.1196 m 0.1451,-0.3387 -0.0967,0.1451 m 0.1451,-0.1935 -0.0484,0.0484 m 0.1452,-0.0968 -0.0968,0.0484 m 0.2903,-0.0484 h -0.1935 m -1.1612,0.2419 -0.0967,0.0484 m 0.1935,-0.1451 -0.0968,0.0967 m 0.1936,-0.2419 -0.0968,0.1452 m 0.0968,0.8708 v -1.016 m 0.2902,1.016 h -0.5805 m 1.016,-2.5883 -0.0484,-0.0484 m 0.1451,0.0967 -0.0967,-0.0483 m 0.3386,0.0483 h -0.2419 m 0.3387,-0.0483 -0.0968,0.0483 m 0.1452,-0.0967 -0.0484,0.0484 m 0.0967,-0.1452 -0.0483,0.0968 m 0.0483,-0.3387 v 0.2419 m -0.0483,-0.3387 0.0483,0.0968 m -0.0967,-0.1451 0.0484,0.0483 m -0.1452,-0.0967 0.0968,0.0484 m -0.3387,-0.0484 h 0.2419 m -0.3386,0.0484 0.0967,-0.0484 m -0.1451,0.0967 0.0484,-0.0483 m 0,-0.4355 -0.0484,0.4838 m 0.5322,-0.4838 h -0.4838 m -0.9193,0.2419 -0.0967,0.0484 m 0.1935,-0.1451 -0.0968,0.0967 m 0.1936,-0.2419 -0.0968,0.1452 m 0.0968,0.8708 v -1.016 m 0.2902,1.016 h -0.5805 m 1.5965,-3.556 -0.4354,1.016 m -0.2419,-1.016 h 0.6773 m -1.5965,0.9677 -0.0484,-0.0484 m 0.1451,0.0967 -0.0967,-0.0483 m 0.387,0.0483 h -0.2903 m 0.3871,-0.0483 -0.0968,0.0483 m 0.1452,-0.0967 -0.0484,0.0484 m 0.0967,-0.1452 -0.0483,0.0968 m 0.0483,-0.3387 v 0.2419 m -0.0483,-0.3387 0.0483,0.0968 m -0.0967,-0.1451 0.0484,0.0483 m -0.1452,-0.0967 0.0968,0.0484 m -0.2419,-0.0484 h 0.1451 m 0.1935,-0.3871 -0.3386,0.3871 M 73.014,35.6041 h 0.6289 m 0.4355,-2.0562 -0.0484,0.0968 m 0.0967,-0.1451 -0.0483,0.0483 m 0.1451,-0.0967 -0.0968,0.0484 m 0.2903,-0.0484 h -0.1935 m 0.2903,0.0484 -0.0968,-0.0484 m 0.1452,0.0967 -0.0484,-0.0483 m 0.0967,0.1451 -0.0483,-0.0968 m 0.0483,0.3387 v -0.2419 m -0.0483,0.3387 0.0483,-0.0968 m -0.0967,0.1452 0.0484,-0.0484 m -0.1452,0.0967 0.0968,-0.0483 m -0.2903,0.0483 h 0.1935 m -0.2903,-0.0483 0.0968,0.0483 m -0.1451,-0.0967 0.0483,0.0484 M 74.03,33.8866 74.0784,33.9834 M 74.03,33.4996 v 0.387 M 74.0784,33.306 74.03,33.4996 m 0.1451,-0.3387 -0.0967,0.1451 m 0.1451,-0.1935 -0.0484,0.0484 m 0.1452,-0.0968 -0.0968,0.0484 m 0.2903,-0.0484 h -0.1935 m -1.2579,0.9677 -0.0484,-0.0484 m 0.1451,0.0967 -0.0967,-0.0483 m 0.387,0.0483 h -0.2903 m 0.3871,-0.0483 -0.0968,0.0483 m 0.1452,-0.0967 -0.0484,0.0484 m 0.0967,-0.1452 -0.0483,0.0968 m 0.0483,-0.3387 v 0.2419 m -0.0483,-0.3387 0.0483,0.0968 m -0.0967,-0.1451 0.0484,0.0483 m -0.1452,-0.0967 0.0968,0.0484 m -0.2419,-0.0484 h 0.1451 m 0.1935,-0.3871 -0.3386,0.3871 M 73.014,33.0641 h 0.6289 M 74.0784,31.4918 74.03,31.4434 m 0.1451,0.0967 -0.0967,-0.0483 m 0.3386,0.0483 h -0.2419 m 0.3387,-0.0483 -0.0968,0.0483 m 0.1452,-0.0967 -0.0484,0.0484 m 0.0967,-0.1452 -0.0483,0.0968 m 0.0483,-0.3387 v 0.2419 m -0.0483,-0.3387 0.0483,0.0968 m -0.0967,-0.1451 0.0484,0.0483 m -0.1452,-0.0967 0.0968,0.0484 m -0.3387,-0.0484 h 0.2419 m -0.3386,0.0484 0.0967,-0.0484 m -0.1451,0.0967 0.0484,-0.0483 m 0,-0.4355 -0.0484,0.4838 m 0.5322,-0.4838 h -0.4838 m -1.016,0.9677 -0.0484,-0.0484 m 0.1451,0.0967 -0.0967,-0.0483 m 0.387,0.0483 h -0.2903 m 0.3871,-0.0483 -0.0968,0.0483 m 0.1452,-0.0967 -0.0484,0.0484 m 0.0967,-0.1452 -0.0483,0.0968 m 0.0483,-0.3387 v 0.2419 m -0.0483,-0.3387 0.0483,0.0968 m -0.0967,-0.1451 0.0484,0.0483 m -0.1452,-0.0967 0.0968,0.0484 m -0.2419,-0.0484 h 0.1451 m 0.1935,-0.3871 -0.3386,0.3871 M 73.014,30.5241 h 0.6289 M 74.03,28.6615 h 0.6289 m -0.387,-0.7257 -0.2419,0.7257 m 0.4838,-0.3387 v 0.6773 M 73.0624,28.9518 73.014,28.9034 m 0.1451,0.0967 -0.0967,-0.0483 m 0.387,0.0483 h -0.2903 m 0.3871,-0.0483 -0.0968,0.0483 m 0.1452,-0.0967 -0.0484,0.0484 m 0.0967,-0.1452 -0.0483,0.0968 m 0.0483,-0.3387 v 0.2419 m -0.0483,-0.3387 0.0483,0.0968 m -0.0967,-0.1451 0.0484,0.0483 m -0.1452,-0.0967 0.0968,0.0484 m -0.2419,-0.0484 h 0.1451 m 0.1935,-0.3871 -0.3386,0.3871 M 73.014,27.9841 h 0.6289 M 74.03,26.4118 73.9816,26.3634 m 0.1451,0.0967 -0.0967,-0.0483 m 0.387,0.0483 h -0.2903 m 0.3871,-0.0483 -0.0968,0.0483 m 0.1452,-0.0967 -0.0484,0.0484 m 0.0967,-0.1452 -0.0483,0.0968 m 0.0483,-0.3387 v 0.2419 m -0.0483,-0.3387 0.0483,0.0968 m -0.0967,-0.1451 0.0484,0.0483 m -0.1452,-0.0967 0.0968,0.0484 m -0.2419,-0.0484 h 0.1451 m 0.1935,-0.3871 -0.3386,0.3871 m -0.2903,-0.3871 h 0.6289 m -1.5481,0.9677 -0.0484,-0.0484 m 0.1451,0.0967 -0.0967,-0.0483 m 0.387,0.0483 h -0.2903 m 0.3871,-0.0483 -0.0968,0.0483 m 0.1452,-0.0967 -0.0484,0.0484 m 0.0967,-0.1452 -0.0483,0.0968 m 0.0483,-0.3387 v 0.2419 m -0.0483,-0.3387 0.0483,0.0968 m -0.0967,-0.1451 0.0484,0.0483 m -0.1452,-0.0967 0.0968,0.0484 m -0.2419,-0.0484 h 0.1451 m 0.1935,-0.3871 -0.3386,0.3871 M 73.014,25.4441 h 0.6289 m 0.3387,-1.524 h 0.6289 m -0.0483,-0.5805 -0.5806,0.5805 m 0.6289,-0.7257 -0.0483,0.1452 m 0.0483,-0.2419 v 0.0967 m -0.0483,-0.1935 0.0483,0.0968 m -0.0967,-0.1452 0.0484,0.0484 m -0.1452,-0.0968 0.0968,0.0484 m -0.3387,-0.0484 h 0.2419 m -0.3386,0.0484 0.0967,-0.0484 m -0.1451,0.0968 0.0484,-0.0484 m -1.016,0.9193 -0.0484,-0.0484 m 0.1451,0.0967 -0.0967,-0.0483 m 0.387,0.0483 h -0.2903 m 0.3871,-0.0483 -0.0968,0.0483 m 0.1452,-0.0967 -0.0484,0.0484 m 0.0967,-0.1452 -0.0483,0.0968 m 0.0483,-0.3387 v 0.2419 m -0.0483,-0.3387 0.0483,0.0968 m -0.0967,-0.1451 0.0484,0.0483 m -0.1452,-0.0967 0.0968,0.0484 m -0.2419,-0.0484 h 0.1451 m 0.1935,-0.3871 -0.3386,0.3871 M 73.014,22.9041 h 0.6289 M 74.1267,20.606 74.03,20.6544 m 0.1935,-0.1451 -0.0968,0.0967 m 0.1936,-0.2419 -0.0968,0.1452 m 0.0968,0.8708 v -1.016 m 0.2902,1.016 H 74.03 M 73.0624,21.3318 73.014,21.2834 m 0.1451,0.0967 -0.0967,-0.0483 m 0.387,0.0483 h -0.2903 m 0.3871,-0.0483 -0.0968,0.0483 m 0.1452,-0.0967 -0.0484,0.0484 m 0.0967,-0.1452 -0.0483,0.0968 m 0.0483,-0.3387 v 0.2419 m -0.0483,-0.3387 0.0483,0.0968 m -0.0967,-0.1451 0.0484,0.0483 m -0.1452,-0.0967 0.0968,0.0484 m -0.2419,-0.0484 h 0.1451 m 0.1935,-0.3871 -0.3386,0.3871 M 73.014,20.3641 h 0.6289 M 74.03,18.5015 h 0.6289 m -0.387,-0.7257 -0.2419,0.7257 m 0.4838,-0.3387 v 0.6773 m -1.3547,-0.7741 -0.0967,0.0484 m 0.1935,-0.1451 -0.0968,0.0967 m 0.1936,-0.2419 -0.0968,0.1452 m 0.0968,0.8708 v -1.016 m 0.2902,1.016 H 73.0624 M 74.03,16.2518 73.9816,16.2034 m 0.1451,0.0967 -0.0967,-0.0483 m 0.387,0.0483 h -0.2903 m 0.3871,-0.0483 -0.0968,0.0483 m 0.1452,-0.0967 -0.0484,0.0484 m 0.0967,-0.1452 -0.0483,0.0968 m 0.0483,-0.3387 v 0.2419 m -0.0483,-0.3387 0.0483,0.0968 m -0.0967,-0.1451 0.0484,0.0483 m -0.1452,-0.0967 0.0968,0.0484 m -0.2419,-0.0484 h 0.1451 m 0.1935,-0.3871 -0.3386,0.3871 m -0.2903,-0.3871 h 0.6289 m -1.4514,0.2419 -0.0967,0.0484 m 0.1935,-0.1451 -0.0968,0.0967 m 0.1936,-0.2419 -0.0968,0.1452 m 0.0968,0.8708 v -1.016 m 0.2902,1.016 h -0.5805 m 1.5965,-6.096 -0.4354,1.016 m -0.2419,-1.016 h 0.6773 m -1.4998,0.2419 -0.0967,0.0484 m 0.1935,-0.1451 -0.0968,0.0967 m 0.1936,-0.2419 -0.0968,0.1452 m 0.0968,0.8708 v -1.016 m 0.2902,1.016 H 73.0624 M 74.5138,8.1479 74.417,8.0996 m 0.1452,0.0967 -0.0484,-0.0484 m 0.0967,0.1452 -0.0483,-0.0968 m 0.0483,0.2903 V 8.2931 M 74.5622,8.5834 74.6105,8.4866 M 74.5138,8.6318 74.5622,8.5834 M 74.417,8.6801 74.5138,8.6318 M 74.2235,8.6801 H 74.417 M 74.1267,8.6318 74.2235,8.6801 M 74.0784,8.5834 74.1267,8.6318 M 74.03,8.4866 74.0784,8.5834 M 74.03,8.2931 V 8.4866 M 74.0784,8.1963 74.03,8.2931 M 74.1267,8.1479 74.0784,8.1963 M 74.2235,8.0996 74.1267,8.1479 M 74.417,8.0996 H 74.2235 M 74.5138,8.0512 74.417,8.0996 M 74.5622,8.0028 74.5138,8.0512 M 74.6105,7.906 74.5622,8.0028 M 74.6105,7.8577 V 7.906 M 74.5622,7.7609 74.6105,7.8577 M 74.5138,7.7125 74.5622,7.7609 M 74.417,7.6641 74.5138,7.7125 M 74.2235,7.6641 H 74.417 M 74.1267,7.7125 74.2235,7.6641 M 74.0784,7.7609 74.1267,7.7125 M 74.03,7.8577 74.0784,7.7609 M 74.03,7.906 V 7.8577 M 74.0784,8.0028 74.03,7.906 M 74.1267,8.0512 74.0784,8.0028 M 74.2235,8.0996 74.1267,8.0512 M 73.0624,8.6318 73.014,8.5834 m 0.1451,0.0967 -0.0967,-0.0483 m 0.387,0.0483 H 73.1591 M 73.5462,8.6318 73.4494,8.6801 M 73.5946,8.5834 73.5462,8.6318 M 73.6429,8.4866 73.5946,8.5834 M 73.6429,8.2447 V 8.4866 M 73.5946,8.1479 73.6429,8.2447 M 73.5462,8.0996 73.5946,8.1479 M 73.4494,8.0512 73.5462,8.0996 M 73.3043,8.0512 h 0.1451 M 73.6429,7.6641 73.3043,8.0512 M 73.014,7.6641 h 0.6289 M 38.9538,62.7579 38.857,62.7096 m 0.1452,0.0967 -0.0484,-0.0484 m 0.0967,0.1452 -0.0483,-0.0968 m 0.0483,0.2903 v -0.1935 m -0.0483,0.2903 0.0483,-0.0968 m -0.0967,0.1452 0.0484,-0.0484 m -0.1452,0.0967 0.0968,-0.0483 m -0.2903,0.0483 h 0.1935 m -0.2903,-0.0483 0.0968,0.0483 m -0.1451,-0.0967 0.0483,0.0484 M 38.47,63.0966 38.5184,63.1934 M 38.47,62.9031 v 0.1935 m 0.0484,-0.2903 -0.0484,0.0968 m 0.0967,-0.1452 -0.0483,0.0484 m 0.1451,-0.0967 -0.0968,0.0483 m 0.2903,-0.0483 h -0.1935 m 0.2903,-0.0484 -0.0968,0.0484 m 0.1452,-0.0968 -0.0484,0.0484 m 0.0967,-0.1452 -0.0483,0.0968 m 0.0483,-0.1451 v 0.0483 m -0.0483,-0.1451 0.0483,0.0968 m -0.0967,-0.1452 0.0484,0.0484 m -0.1452,-0.0968 0.0968,0.0484 m -0.2903,-0.0484 h 0.1935 m -0.2903,0.0484 0.0968,-0.0484 m -0.1451,0.0968 0.0483,-0.0484 M 38.47,62.4677 38.5184,62.3709 M 38.47,62.516 V 62.4677 M 38.5184,62.6128 38.47,62.516 m 0.0967,0.1452 -0.0483,-0.0484 m 0.1451,0.0968 -0.0968,-0.0484 m -0.9676,-0.1452 -0.0967,0.0484 m 0.1935,-0.1451 -0.0968,0.0967 m 0.1936,-0.2419 -0.0968,0.1452 m 0.0968,0.8708 v -1.016 m 0.2902,1.016 h -0.5805 m 0.4838,-4.1486 h 0.6289 m -0.387,-0.7257 -0.2419,0.7257 M 38.47,58.8028 v 0.6773 m -0.4838,-2.5883 -0.0484,-0.0484 m 0.1451,0.0967 -0.0967,-0.0483 m 0.387,0.0483 h -0.2903 m 0.3871,-0.0483 -0.0968,0.0483 m 0.1452,-0.0967 -0.0484,0.0484 m 0.0967,-0.1452 -0.0483,0.0968 m 0.0483,-0.3387 v 0.2419 m -0.0483,-0.3387 0.0483,0.0968 m -0.0967,-0.1451 0.0484,0.0483 m -0.1452,-0.0967 0.0968,0.0484 m -0.2419,-0.0484 h 0.1451 m 0.1935,-0.3871 -0.3386,0.3871 m -0.2903,-0.3871 h 0.6289 m -0.6289,-1.524 h 0.6289 m -0.0483,-0.5805 -0.5806,0.5805 m 0.6289,-0.7257 -0.0483,0.1452 m 0.0483,-0.2419 v 0.0967 m -0.0483,-0.1935 0.0483,0.0968 m -0.0967,-0.1452 0.0484,0.0484 m -0.1452,-0.0968 0.0968,0.0484 m -0.3387,-0.0484 h 0.2419 m -0.3386,0.0484 0.0967,-0.0484 m -0.1451,0.0968 0.0484,-0.0484 m 0.5805,-5.08 0.0968,-0.0484 m -0.1452,0.0968 0.0484,-0.0484 m -0.0967,0.1452 0.0483,-0.0968 M 38.47,48.6912 38.5184,48.4977 M 38.47,48.9331 v -0.2419 m 0.0484,0.4354 -0.0484,-0.1935 m 0.0967,0.2903 -0.0483,-0.0968 m 0.0967,0.1452 -0.0484,-0.0484 m 0.1452,0.0967 -0.0968,-0.0483 m 0.1935,0.0483 h -0.0967 m 0.1935,-0.0483 -0.0968,0.0483 m 0.1452,-0.0967 -0.0484,0.0484 m 0.0968,-0.1452 -0.0484,0.0968 m 0.0967,-0.2903 -0.0483,0.1935 m 0.0483,-0.4354 v 0.2419 m -0.0483,-0.4354 0.0483,0.1935 m -0.0967,-0.2903 0.0484,0.0968 m -0.0968,-0.1452 0.0484,0.0484 m -0.1452,-0.0968 0.0968,0.0484 m -0.1935,-0.0484 h 0.0967 m -1.3062,0.9677 -0.0484,-0.0484 m 0.1451,0.0967 -0.0967,-0.0483 m 0.387,0.0483 h -0.2903 m 0.3871,-0.0483 -0.0968,0.0483 m 0.1452,-0.0967 -0.0484,0.0484 m 0.0967,-0.1452 -0.0483,0.0968 m 0.0483,-0.3387 v 0.2419 m -0.0483,-0.3387 0.0483,0.0968 m -0.0967,-0.1451 0.0484,0.0483 m -0.1452,-0.0967 0.0968,0.0484 m -0.2419,-0.0484 h 0.1451 m 0.1935,-0.3871 -0.3386,0.3871 M 37.454,48.3041 h 0.6289 m 0.9193,-2.0078 0.0483,-0.0967 m -0.0967,0.1451 0.0484,-0.0484 m -0.1452,0.0968 0.0968,-0.0484 m -0.2903,0.0484 h 0.1935 m -0.2903,-0.0484 0.0968,0.0484 m -0.1451,-0.0968 0.0483,0.0484 M 38.47,46.1996 38.5184,46.2963 M 38.47,45.9577 v 0.2419 m 0.0484,-0.3387 -0.0484,0.0968 m 0.0967,-0.1452 -0.0483,0.0484 m 0.1451,-0.0968 -0.0968,0.0484 m 0.2903,-0.0484 h -0.1935 m 0.2903,0.0484 -0.0968,-0.0484 m 0.1452,0.0968 -0.0484,-0.0484 m 0.0967,0.1452 -0.0483,-0.0968 m 0.0483,0.4838 v -0.387 m -0.0483,0.5805 0.0483,-0.1935 m -0.1451,0.3387 0.0968,-0.1452 m -0.1452,0.1936 0.0484,-0.0484 m -0.1451,0.0967 0.0967,-0.0483 m -0.2903,0.0483 h 0.1936 m -1.3063,0 h 0.6289 m -0.0483,-0.5805 -0.5806,0.5805 m 0.6289,-0.7257 -0.0483,0.1452 m 0.0483,-0.2419 v 0.0967 m -0.0483,-0.1935 0.0483,0.0968 m -0.0967,-0.1452 0.0484,0.0484 m -0.1452,-0.0968 0.0968,0.0484 m -0.3387,-0.0484 h 0.2419 m -0.3386,0.0484 0.0967,-0.0484 m -0.1451,0.0968 0.0484,-0.0484 m 1.403,-2.1046 -0.0968,-0.0483 m 0.1452,0.0967 -0.0484,-0.0484 m 0.0967,0.1452 -0.0483,-0.0968 m 0.0483,0.2903 v -0.1935 m -0.0483,0.2903 0.0483,-0.0968 m -0.0967,0.1452 0.0484,-0.0484 m -0.1452,0.0967 0.0968,-0.0483 m -0.2903,0.0483 h 0.1935 m -0.2903,-0.0483 0.0968,0.0483 m -0.1451,-0.0967 0.0483,0.0484 M 38.47,44.0466 38.5184,44.1434 M 38.47,43.8531 v 0.1935 m 0.0484,-0.2903 -0.0484,0.0968 m 0.0967,-0.1452 -0.0483,0.0484 m 0.1451,-0.0967 -0.0968,0.0483 m 0.2903,-0.0483 h -0.1935 m 0.2903,-0.0484 -0.0968,0.0484 m 0.1452,-0.0968 -0.0484,0.0484 m 0.0967,-0.1452 -0.0483,0.0968 m 0.0483,-0.1451 v 0.0483 m -0.0483,-0.1451 0.0483,0.0968 m -0.0967,-0.1452 0.0484,0.0484 m -0.1452,-0.0968 0.0968,0.0484 m -0.2903,-0.0484 h 0.1935 m -0.2903,0.0484 0.0968,-0.0484 m -0.1451,0.0968 0.0483,-0.0484 M 38.47,43.4177 38.5184,43.3209 M 38.47,43.466 V 43.4177 M 38.5184,43.5628 38.47,43.466 m 0.0967,0.1452 -0.0483,-0.0484 m 0.1451,0.0968 -0.0968,-0.0484 m -1.1127,0.6289 h 0.6289 m -0.0483,-0.5805 -0.5806,0.5805 m 0.6289,-0.7257 -0.0483,0.1452 m 0.0483,-0.2419 v 0.0967 m -0.0483,-0.1935 0.0483,0.0968 m -0.0967,-0.1452 0.0484,0.0484 m -0.1452,-0.0968 0.0968,0.0484 m -0.3387,-0.0484 h 0.2419 m -0.3386,0.0484 0.0967,-0.0484 m -0.1451,0.0968 0.0484,-0.0484 m 1.5481,-2.5884 -0.4354,1.016 m -0.2419,-1.016 h 0.6773 m -1.6449,1.016 h 0.6289 m -0.0483,-0.5805 -0.5806,0.5805 m 0.6289,-0.7257 -0.0483,0.1452 m 0.0483,-0.2419 v 0.0967 m -0.0483,-0.1935 0.0483,0.0968 m -0.0967,-0.1452 0.0484,0.0484 m -0.1452,-0.0968 0.0968,0.0484 m -0.3387,-0.0484 h 0.2419 m -0.3386,0.0484 0.0967,-0.0484 m -0.1451,0.0968 0.0484,-0.0484 m 0.9676,-2.1046 -0.0484,0.0968 m 0.0967,-0.1451 -0.0483,0.0483 m 0.1451,-0.0967 -0.0968,0.0484 m 0.2903,-0.0484 h -0.1935 m 0.2903,0.0484 -0.0968,-0.0484 m 0.1452,0.0967 -0.0484,-0.0483 m 0.0967,0.1451 -0.0483,-0.0968 m 0.0483,0.3387 v -0.2419 m -0.0483,0.3387 0.0483,-0.0968 m -0.0967,0.1452 0.0484,-0.0484 m -0.1452,0.0967 0.0968,-0.0483 m -0.2903,0.0483 h 0.1935 m -0.2903,-0.0483 0.0968,0.0483 m -0.1451,-0.0967 0.0483,0.0484 M 38.47,38.9666 38.5184,39.0634 M 38.47,38.5796 v 0.387 M 38.5184,38.386 38.47,38.5796 m 0.1451,-0.3387 -0.0967,0.1451 m 0.1451,-0.1935 -0.0484,0.0484 m 0.1452,-0.0968 -0.0968,0.0484 m 0.2903,-0.0484 h -0.1935 m -1.3063,1.016 h 0.6289 m -0.0483,-0.5805 -0.5806,0.5805 m 0.6289,-0.7257 -0.0483,0.1452 m 0.0483,-0.2419 v 0.0967 m -0.0483,-0.1935 0.0483,0.0968 m -0.0967,-0.1452 0.0484,0.0484 m -0.1452,-0.0968 0.0968,0.0484 m -0.3387,-0.0484 h 0.2419 m -0.3386,0.0484 0.0967,-0.0484 m -0.1451,0.0968 0.0484,-0.0484 M 38.5184,36.5718 38.47,36.5234 m 0.1451,0.0967 -0.0967,-0.0483 m 0.3386,0.0483 h -0.2419 m 0.3387,-0.0483 -0.0968,0.0483 m 0.1452,-0.0967 -0.0484,0.0484 m 0.0967,-0.1452 -0.0483,0.0968 m 0.0483,-0.3387 v 0.2419 m -0.0483,-0.3387 0.0483,0.0968 m -0.0967,-0.1451 0.0484,0.0483 m -0.1452,-0.0967 0.0968,0.0484 m -0.3387,-0.0484 h 0.2419 m -0.3386,0.0484 0.0967,-0.0484 m -0.1451,0.0967 0.0484,-0.0483 m 0,-0.4355 -0.0484,0.4838 m 0.5322,-0.4838 h -0.4838 m -1.0644,1.016 h 0.6289 m -0.0483,-0.5805 -0.5806,0.5805 m 0.6289,-0.7257 -0.0483,0.1452 m 0.0483,-0.2419 v 0.0967 m -0.0483,-0.1935 0.0483,0.0968 m -0.0967,-0.1452 0.0484,0.0484 m -0.1452,-0.0968 0.0968,0.0484 m -0.3387,-0.0484 h 0.2419 m -0.3386,0.0484 0.0967,-0.0484 m -0.1451,0.0968 0.0484,-0.0484 m 0.8708,-1.5724 h 0.6289 m -0.0483,-0.5805 -0.5806,0.5805 m 0.6289,-0.7257 -0.0483,0.1452 m 0.0483,-0.2419 v 0.0967 m -0.0483,-0.1935 0.0483,0.0968 m -0.0967,-0.1452 0.0484,0.0484 m -0.1452,-0.0968 0.0968,0.0484 m -0.3387,-0.0484 h 0.2419 m -0.3386,0.0484 0.0967,-0.0484 m -0.1451,0.0968 0.0484,-0.0484 m -0.9193,0.1935 -0.0967,0.0484 m 0.1935,-0.1451 -0.0968,0.0967 m 0.1936,-0.2419 -0.0968,0.1452 m 0.0968,0.8708 v -1.016 m 0.2902,1.016 H 37.5024 M 38.5667,30.766 38.47,30.8144 m 0.1935,-0.1451 -0.0968,0.0967 m 0.1936,-0.2419 -0.0968,0.1452 m 0.0968,0.8708 v -1.016 m 0.2902,1.016 H 38.47 m -0.8709,-0.7741 -0.0967,0.0484 m 0.1935,-0.1451 -0.0968,0.0967 m 0.1936,-0.2419 -0.0968,0.1452 m 0.0968,0.8708 v -1.016 m 0.2902,1.016 h -0.5805 m 1.1127,-3.5076 0.0968,-0.0484 m -0.1452,0.0968 0.0484,-0.0484 m -0.0967,0.1452 0.0483,-0.0968 M 38.47,28.3712 38.5184,28.1777 M 38.47,28.6131 v -0.2419 m 0.0484,0.4354 -0.0484,-0.1935 m 0.0967,0.2903 -0.0483,-0.0968 m 0.0967,0.1452 -0.0484,-0.0484 m 0.1452,0.0967 -0.0968,-0.0483 m 0.1935,0.0483 h -0.0967 m 0.1935,-0.0483 -0.0968,0.0483 m 0.1452,-0.0967 -0.0484,0.0484 m 0.0968,-0.1452 -0.0484,0.0968 m 0.0967,-0.2903 -0.0483,0.1935 m 0.0483,-0.4354 v 0.2419 m -0.0483,-0.4354 0.0483,0.1935 m -0.0967,-0.2903 0.0484,0.0968 m -0.0968,-0.1452 0.0484,0.0484 m -0.1452,-0.0968 0.0968,0.0484 m -0.1935,-0.0484 h 0.0967 m -1.2095,0.2419 -0.0967,0.0484 m 0.1935,-0.1451 -0.0968,0.0967 m 0.1936,-0.2419 -0.0968,0.1452 m 0.0968,0.8708 v -1.016 m 0.2902,1.016 h -0.5805 m 1.016,-3.0238 0.0483,-0.0967 m -0.0967,0.1451 0.0484,-0.0484 m -0.1452,0.0968 0.0968,-0.0484 m -0.2903,0.0484 h 0.1935 m -0.2903,-0.0484 0.0968,0.0484 m -0.1451,-0.0968 0.0483,0.0484 m -0.0967,-0.1451 0.0484,0.0967 m -0.0484,-0.3386 v 0.2419 m 0.0484,-0.3387 -0.0484,0.0968 m 0.0967,-0.1452 -0.0483,0.0484 m 0.1451,-0.0968 -0.0968,0.0484 m 0.2903,-0.0484 h -0.1935 m 0.2903,0.0484 -0.0968,-0.0484 m 0.1452,0.0968 -0.0484,-0.0484 m 0.0967,0.1452 -0.0483,-0.0968 m 0.0483,0.4838 v -0.387 m -0.0483,0.5805 0.0483,-0.1935 m -0.1451,0.3387 0.0968,-0.1452 m -0.1452,0.1936 0.0484,-0.0484 m -0.1451,0.0967 0.0967,-0.0483 m -0.2903,0.0483 h 0.1936 M 38.47,23.3879 38.3732,23.3396 m 0.1452,0.0967 -0.0484,-0.0484 m 0.0967,0.1452 -0.0483,-0.0968 m 0.0483,0.2903 v -0.1935 m -0.0483,0.2903 0.0483,-0.0968 m -0.0967,0.1452 0.0484,-0.0484 m -0.1452,0.0967 0.0968,-0.0483 m -0.2903,0.0483 h 0.1935 m -0.2903,-0.0483 0.0968,0.0483 m -0.1451,-0.0967 0.0483,0.0484 m -0.0967,-0.1452 0.0484,0.0968 m -0.0484,-0.2903 v 0.1935 m 0.0484,-0.2903 -0.0484,0.0968 m 0.0967,-0.1452 -0.0483,0.0484 m 0.1451,-0.0967 -0.0968,0.0483 m 0.2903,-0.0483 h -0.1935 m 0.2903,-0.0484 -0.0968,0.0484 m 0.1452,-0.0968 -0.0484,0.0484 m 0.0967,-0.1452 -0.0483,0.0968 m 0.0483,-0.1451 v 0.0483 m -0.0483,-0.1451 0.0483,0.0968 m -0.0967,-0.1452 0.0484,0.0484 m -0.1452,-0.0968 0.0968,0.0484 m -0.2903,-0.0484 h 0.1935 m -0.2903,0.0484 0.0968,-0.0484 m -0.1451,0.0968 0.0483,-0.0484 m -0.0967,0.1452 0.0484,-0.0968 m -0.0484,0.1451 v -0.0483 m 0.0484,0.1451 -0.0484,-0.0968 m 0.0967,0.1452 -0.0483,-0.0484 m 0.1451,0.0968 -0.0968,-0.0484 m 0.5322,-2.9271 -0.4354,1.016 m -0.2419,-1.016 h 0.6773 m -0.5805,-2.0562 -0.0484,0.0968 m 0.0967,-0.1451 -0.0483,0.0483 m 0.1451,-0.0967 -0.0968,0.0484 m 0.2903,-0.0484 h -0.1935 m 0.2903,0.0484 -0.0968,-0.0484 m 0.1452,0.0967 -0.0484,-0.0483 m 0.0967,0.1451 -0.0483,-0.0968 m 0.0483,0.3387 v -0.2419 m -0.0483,0.3387 0.0483,-0.0968 m -0.0967,0.1452 0.0484,-0.0484 m -0.1452,0.0967 0.0968,-0.0483 m -0.2903,0.0483 h 0.1935 m -0.2903,-0.0483 0.0968,0.0483 m -0.1451,-0.0967 0.0483,0.0484 m -0.0967,-0.1452 0.0484,0.0968 m -0.0484,-0.4838 v 0.387 m 0.0484,-0.5806 -0.0484,0.1936 m 0.1451,-0.3387 -0.0967,0.1451 m 0.1451,-0.1935 -0.0484,0.0484 m 0.1452,-0.0968 -0.0968,0.0484 M 38.47,17.8241 h -0.1935 m -0.2419,-1.5723 -0.0484,-0.0484 m 0.1451,0.0967 -0.0967,-0.0483 m 0.3386,0.0483 h -0.2419 m 0.3387,-0.0483 -0.0968,0.0483 m 0.1452,-0.0967 -0.0484,0.0484 m 0.0967,-0.1452 -0.0483,0.0968 m 0.0483,-0.3387 v 0.2419 m -0.0483,-0.3387 0.0483,0.0968 m -0.0967,-0.1451 0.0484,0.0483 m -0.1452,-0.0967 0.0968,0.0484 m -0.3387,-0.0484 h 0.2419 m -0.3386,0.0484 0.0967,-0.0484 m -0.1451,0.0967 0.0484,-0.0483 m 0,-0.4355 -0.0484,0.4838 m 0.5322,-0.4838 h -0.4838 m 0.0483,-4.8381 -0.0967,0.0484 m 0.1935,-0.1451 -0.0968,0.0967 m 0.1936,-0.2419 -0.0968,0.1452 m 0.0968,0.8708 v -1.016 m 0.2902,1.016 h -0.5805" />
    <path
       id="path3369"
       d="m 21.3166,13.4957 -0.1209,0.0605 m 0.2419,-0.1814 -0.121,0.1209 m 0.2419,-0.3024 -0.1209,0.1815 m 0.1209,1.0885 v -1.27 m 0.3629,1.27 h -0.7257 m -1.0281,-1.2095 0.1209,-0.0605 m -0.1814,0.121 0.0605,-0.0605 m -0.121,0.1814 0.0605,-0.1209 m -0.1209,0.3628 0.0604,-0.2419 m -0.0604,0.5443 v -0.3024 m 0.0604,0.5443 -0.0604,-0.2419 m 0.1209,0.3629 -0.0605,-0.121 m 0.121,0.1815 -0.0605,-0.0605 m 0.1814,0.1209 -0.1209,-0.0604 m 0.2419,0.0604 h -0.121 m 0.2419,-0.0604 -0.1209,0.0604 m 0.1814,-0.1209 -0.0605,0.0605 m 0.121,-0.1815 -0.0605,0.121 m 0.121,-0.3629 -0.0605,0.2419 m 0.0605,-0.5443 v 0.3024 m -0.0605,-0.5443 0.0605,0.2419 m -0.121,-0.3628 0.0605,0.1209 m -0.121,-0.1814 0.0605,0.0605 m -0.1814,-0.121 0.1209,0.0605 m -0.2419,-0.0605 h 0.121 m -1.391,1.27 v -1.27 m 0.6048,1.27 H 19.0185 M 17.7486,14.04 h 0.7861 M 18.0509,13.1329 17.7486,14.04 m 0.6047,-0.4233 v 0.8466 m -1.8747,0 h 0.7862 m -0.0605,-0.7257 -0.7257,0.7257 m 0.7862,-0.9071 -0.0605,0.1814 m 0.0605,-0.3024 v 0.121 m -0.0605,-0.2419 0.0605,0.1209 m -0.121,-0.1814 0.0605,0.0605 m -0.1814,-0.121 0.1209,0.0605 m -0.4233,-0.0605 h 0.3024 m -0.4234,0.0605 0.121,-0.0605 m -0.1814,0.121 0.0604,-0.0605 m -1.0886,-0.0605 h 0.6048 m -0.6048,1.27 v -1.27 m 0.4234,0.6048 h -0.4234 m -0.7862,0.0605 h -0.4838 m 0.6048,-0.0605 -0.121,0.0605 m 0.1815,-0.121 -0.0605,0.0605 m 0.1209,-0.1814 -0.0604,0.1209 m 0.0604,-0.3024 v 0.1815 m -0.0604,-0.3024 0.0604,0.1209 m -0.1209,-0.1814 0.0605,0.0605 m -0.1815,-0.121 0.121,0.0605 m -0.6048,-0.0605 h 0.4838 m -0.4838,1.27 v -1.27 m 0.7257,1.27 -0.4233,-0.6047 m -0.9072,0.6047 v -1.27 m -0.7257,0 0.7257,1.27 m -0.7257,0 v -1.27 m 4.9228,-1.016 h 0.7862 m -0.0605,-0.7257 -0.7257,0.7257 m 0.7862,-0.9071 -0.0605,0.1814 m 0.0605,-0.3024 v 0.121 m -0.0605,-0.2419 0.0605,0.1209 m -0.121,-0.1814 0.0605,0.0605 m -0.1814,-0.121 0.1209,0.0605 m -0.4233,-0.0605 h 0.3024 m -0.4234,0.0605 0.121,-0.0605 m -0.1814,0.121 0.0604,-0.0605 m -0.6048,0.9676 v -1.0281 m -0.0604,1.1491 0.0604,-0.121 m -0.1209,0.1815 0.0605,-0.0605 m -0.1815,0.1209 0.121,-0.0604 m -0.3629,0.0604 h 0.2419 m -0.3628,-0.0604 0.1209,0.0604 m -0.1814,-0.1209 0.0605,0.0605 m -0.121,-0.1815 0.0605,0.121 m -0.0605,-1.1491 v 1.0281 m -5.6471,4.8996 0.0605,-0.0604 m -0.121,0.2419 0.0605,-0.1815 m -0.0605,0.3024 v -0.1209 m 0.0605,0.3023 -0.0605,-0.1814 m 0.1815,0.3024 -0.121,-0.121 m 0.2419,0.1815 -0.1209,-0.0605 m 0.3628,0.1209 -0.2419,-0.0604 m 0.4233,0.0604 h -0.1814 m 0.4233,-0.0604 -0.2419,0.0604 m 0.3629,-0.1209 -0.121,0.0605 m 0.242,-0.1815 -0.121,0.121 m 0.1814,-0.3024 -0.0604,0.1814 m 0.0604,-0.3023 v 0.1209 m -0.0604,-0.3024 0.0604,0.1815 m -0.1209,-0.2419 0.0605,0.0604 m -1.1491,1.27 0.0605,-0.0604 m -0.121,0.2419 0.0605,-0.1815 m -0.0605,0.3024 v -0.1209 m 0.0605,0.3023 -0.0605,-0.1814 m 0.1815,0.3024 -0.121,-0.121 m 0.2419,0.1815 -0.1209,-0.0605 m 0.3628,0.1209 -0.2419,-0.0604 m 0.4233,0.0604 h -0.1814 m 0.4233,-0.0604 -0.2419,0.0604 m 0.3629,-0.1209 -0.121,0.0605 m 0.242,-0.1815 -0.121,0.121 m 0.1814,-0.3024 -0.0604,0.1814 m 0.0604,-0.3023 v 0.1209 m -0.0604,-0.3024 0.0604,0.1815 m -0.1209,-0.2419 0.0605,0.0604 m 0.0604,1.512 -1.27,-0.4234 m 0,0.8467 1.27,-0.4233 m 0,14.338 v 0.3024 m -0.0604,-0.4838 0.0604,0.1814 m -0.1814,-0.3024 0.121,0.121 m -0.242,-0.1815 0.121,0.0605 m -0.3629,-0.1209 0.2419,0.0604 m -0.4233,-0.0604 h 0.1814 m -0.4233,0.0604 0.2419,-0.0604 m -0.3628,0.1209 0.1209,-0.0605 m -0.2419,0.1815 0.121,-0.121 M 10.916,33.955 10.9765,33.7736 M 10.916,34.2574 V 33.955 m 1.27,0.3024 h -1.27 m 1.27,0.6048 h -1.27 m 0,0.7257 1.27,-0.7257 m 0,0.7257 h -1.27 m 0.7257,0.5443 v 0.2419 m 0.4234,-0.2419 h -0.4234 m 0.4839,0.0604 -0.0605,-0.0604 m 0.1209,0.2419 -0.0604,-0.1815 m 0.0604,0.3024 v -0.1209 m -0.0604,0.3023 0.0604,-0.1814 m -0.1814,0.3024 0.121,-0.121 m -0.242,0.1815 0.121,-0.0605 m -0.3629,0.1209 0.2419,-0.0604 m -0.4233,0.0604 h 0.1814 m -0.4233,-0.0604 0.2419,0.0604 m -0.3628,-0.1209 0.1209,0.0605 m -0.2419,-0.1815 0.121,0.121 M 10.916,36.495 10.9765,36.6764 M 10.916,36.3136 v 0.1814 m 0.0605,-0.3024 -0.0605,0.121 M 18.8359,19.806 H 18.594 m 0.3629,-0.0604 -0.121,0.0604 m 0.2419,-0.1814 -0.1209,0.121 m 0.1814,-0.3629 -0.0605,0.2419 m 0.0605,-0.6652 v 0.4233 m -0.0605,-0.6652 0.0605,0.2419 m -0.1814,-0.3629 0.1209,0.121 m -0.2419,-0.1815 0.121,0.0605 M 18.594,18.536 h 0.2419 m -0.3628,0.0605 0.1209,-0.0605 m -0.2419,0.1815 0.121,-0.121 m -0.1814,0.3629 0.0604,-0.2419 m -0.0604,0.6652 v -0.4233 m 0.0604,0.6652 -0.0604,-0.2419 m 0.1814,0.3629 -0.121,-0.121 m 0.2419,0.1814 -0.1209,-0.0604 m 0.1814,-0.242 h -0.1209 m 0.2419,0.0605 -0.121,-0.0605 m 0.3024,0.242 -0.1814,-0.1815 m 0.3023,0.3024 -0.1209,-0.1209 m 0.2419,0.1814 -0.121,-0.0605 m -1.5119,-0.6652 h -0.4838 m 0.6048,-0.0605 -0.121,0.0605 m 0.1815,-0.121 -0.0605,0.0605 m 0.1209,-0.1814 -0.0604,0.1209 m 0.0604,-0.3024 v 0.1815 m -0.0604,-0.3024 0.0604,0.1209 m -0.1209,-0.1814 0.0605,0.0605 m -0.1815,-0.121 0.121,0.0605 M 17.0821,18.536 h 0.4838 m -0.4838,1.27 v -1.27 m 0.7257,1.27 -0.4233,-0.6047 m -0.9072,0.6047 v -1.27 m 2.0563,2.54 h 0.6048 m -0.6048,1.27 v -1.27 m 0.6048,1.27 h -0.6048 m 0,-0.6652 h 0.4234 m -1.0281,-0.5443 0.0604,0.0605 m -0.2419,-0.121 0.1815,0.0605 M 17.6265,21.076 h 0.1209 m -0.3023,0.0605 0.1814,-0.0605 m -0.3024,0.1815 0.121,-0.121 m -0.1815,0.2419 0.0605,-0.1209 m -0.1209,0.3628 0.0604,-0.2419 m -0.0604,0.4233 v -0.1814 m 0.0604,0.4233 -0.0604,-0.2419 m 0.1209,0.3629 -0.0605,-0.121 m 0.1815,0.242 -0.121,-0.121 m 0.3024,0.1814 -0.1814,-0.0604 m 0.3023,0.0604 h -0.1209 m 0.3024,-0.0604 -0.1815,0.0604 m 0.2419,-0.1209 -0.0604,0.0605 m -2.2316,3.5179 h 3.556 m -0.1755,1.6225 v -1.27 m -0.7257,0 0.7257,1.27 m -0.7257,0 v -1.27 m -0.7257,0 0.1815,0.0605 M 17.3241,26.156 h 0.3023 m -0.4233,0.0605 0.121,-0.0605 m -0.1815,0.121 0.0605,-0.0605 m -0.1209,0.1814 0.0604,-0.1209 m -0.0604,0.2419 v -0.121 m 0.0604,0.2419 -0.0604,-0.1209 m 0.1209,0.1814 -0.0605,-0.0605 m 0.1815,0.121 -0.121,-0.0605 m 0.3629,0.121 -0.2419,-0.0605 m 0.3628,0.1209 -0.1209,-0.0604 m 0.1814,0.1209 -0.0605,-0.0605 m 0.121,0.1815 -0.0605,-0.121 m 0.0605,0.2419 v -0.1209 m -0.0605,0.2419 0.0605,-0.121 m -0.121,0.1815 0.0605,-0.0605 m -0.1814,0.1209 0.1209,-0.0604 m -0.4233,0.0604 h 0.3024 m -0.4838,-0.0604 0.1814,0.0604 m -0.7257,-1.2095 0.0604,0.0605 m -0.2419,-0.121 0.1815,0.0605 M 16.2355,26.156 h 0.1209 m -0.3023,0.0605 0.1814,-0.0605 m -0.3024,0.1815 0.121,-0.121 m -0.1815,0.2419 0.0605,-0.1209 m -0.1209,0.3628 0.0604,-0.2419 m -0.0604,0.4233 v -0.1814 m 0.0604,0.4233 -0.0604,-0.2419 m 0.1209,0.3629 -0.0605,-0.121 m 0.1815,0.242 -0.121,-0.121 m 0.3024,0.1814 -0.1814,-0.0604 m 0.3023,0.0604 h -0.1209 m 0.3024,-0.0604 -0.1815,0.0604 m 0.2419,-0.1209 -0.0604,0.0605 m 2.6004,1.3304 -0.7257,0.7257 m 0.7257,0.5443 -0.5442,-0.7257 m -0.1815,0.7257 v -1.27 m -0.6047,0.0605 0.0604,0.0605 m -0.2419,-0.121 0.1815,0.0605 M 17.5055,28.696 h 0.1209 m -0.3023,0.0605 0.1814,-0.0605 m -0.3024,0.1815 0.121,-0.121 m -0.1815,0.2419 0.0605,-0.1209 m -0.1209,0.3628 0.0604,-0.2419 m -0.0604,0.4233 v -0.1814 m 0.0604,0.4233 -0.0604,-0.2419 m 0.1209,0.3629 -0.0605,-0.121 m 0.1815,0.242 -0.121,-0.121 m 0.3024,0.1814 -0.1814,-0.0604 m 0.3023,0.0604 h -0.1209 m 0.3024,-0.0604 -0.1815,0.0604 m 0.2419,-0.1209 -0.0604,0.0605 m -1.391,-1.2096 0.1815,0.0605 M 16.1146,28.696 h 0.3023 m -0.4233,0.0605 0.121,-0.0605 m -0.1815,0.121 0.0605,-0.0605 m -0.1209,0.1814 0.0604,-0.1209 m -0.0604,0.2419 v -0.121 m 0.0604,0.2419 -0.0604,-0.1209 m 0.1209,0.1814 -0.0605,-0.0605 m 0.1815,0.121 -0.121,-0.0605 m 0.3629,0.121 -0.2419,-0.0605 m 0.3628,0.1209 -0.1209,-0.0604 m 0.1814,0.1209 -0.0605,-0.0605 m 0.121,0.1815 -0.0605,-0.121 m 0.0605,0.2419 v -0.1209 m -0.0605,0.2419 0.0605,-0.121 m -0.121,0.1815 0.0605,-0.0605 m -0.1814,0.1209 0.1209,-0.0604 m -0.4233,0.0604 h 0.3024 m -0.4838,-0.0604 0.1814,0.0604 m 2.419,1.3305 0.1209,-0.0605 m -0.2419,0.1815 0.121,-0.121 m -0.1814,0.3629 0.0604,-0.2419 m -0.0604,0.6652 v -0.4233 m 0.0604,0.6652 -0.0604,-0.2419 m 0.1814,0.3629 -0.121,-0.121 m 0.2419,0.1814 -0.1209,-0.0604 m 0.3628,0.0604 H 18.594 m 0.3629,-0.0604 -0.121,0.0604 m 0.2419,-0.1814 -0.1209,0.121 m 0.1814,-0.3629 -0.0605,0.2419 m 0.0605,-0.6652 v 0.4233 m -0.0605,-0.6652 0.0605,0.2419 m -0.1814,-0.3629 0.1209,0.121 m -0.2419,-0.1815 0.121,0.0605 M 18.594,31.236 h 0.2419 m -1.2095,0 0.1815,0.0605 M 17.3241,31.236 h 0.3023 m -0.4233,0.0605 0.121,-0.0605 m -0.1815,0.121 0.0605,-0.0605 m -0.1209,0.1814 0.0604,-0.1209 m -0.0604,0.2419 v -0.121 m 0.0604,0.2419 -0.0604,-0.1209 m 0.1209,0.1814 -0.0605,-0.0605 m 0.1815,0.121 -0.121,-0.0605 m 0.3629,0.121 -0.2419,-0.0605 m 0.3628,0.1209 -0.1209,-0.0604 m 0.1814,0.1209 -0.0605,-0.0605 m 0.121,0.1815 -0.0605,-0.121 m 0.0605,0.2419 v -0.1209 m -0.0605,0.2419 0.0605,-0.121 m -0.121,0.1815 0.0605,-0.0605 m -0.1814,0.1209 0.1209,-0.0604 m -0.4233,0.0604 h 0.3024 m -0.4838,-0.0604 0.1814,0.0604 m -0.7258,0 v -1.27 m -0.6047,0 v 1.27 m -0.4233,-0.3628 0.4233,-0.9072 m -0.8467,0 0.4234,0.9072 m -0.4234,0.3628 v -1.27 m 3.9914,3.81 v -1.27 m -0.7257,0 0.1815,0.0605 M 18.0498,33.776 h 0.3023 m -0.4233,0.0605 0.121,-0.0605 m -0.1815,0.121 0.0605,-0.0605 m -0.1209,0.1814 0.0604,-0.1209 m -0.0604,0.2419 v -0.121 m 0.0604,0.2419 -0.0604,-0.1209 m 0.1209,0.1814 -0.0605,-0.0605 m 0.1815,0.121 -0.121,-0.0605 m 0.3629,0.121 -0.2419,-0.0605 m 0.3628,0.1209 -0.1209,-0.0604 m 0.1814,0.1209 -0.0605,-0.0605 m 0.121,0.1815 -0.0605,-0.121 m 0.0605,0.2419 v -0.1209 m -0.0605,0.2419 0.0605,-0.121 m -0.121,0.1815 0.0605,-0.0605 m -0.1814,0.1209 0.1209,-0.0604 m -0.4233,0.0604 h 0.3024 m -0.4838,-0.0604 0.1814,0.0604 m -1.3305,-1.2095 0.1209,-0.0605 m -0.2419,0.1815 0.121,-0.121 m -0.1814,0.3629 0.0604,-0.2419 m -0.0604,0.6652 v -0.4233 m 0.0604,0.6652 -0.0604,-0.2419 m 0.1814,0.3629 -0.121,-0.121 m 0.2419,0.1814 -0.1209,-0.0604 m 0.3628,0.0604 h -0.2419 m 0.3629,-0.0604 -0.121,0.0604 m 0.2419,-0.1814 -0.1209,0.121 m 0.1814,-0.3629 -0.0605,0.2419 m 0.0605,-0.6652 v 0.4233 m -0.0605,-0.6652 0.0605,0.2419 m -0.1814,-0.3629 0.1209,0.121 m -0.2419,-0.1815 0.121,0.0605 M 16.7797,33.776 h 0.2419 m -1.0885,0 v 1.27 m -0.4233,-0.3628 0.4233,-0.9072 m -0.8467,0 0.4234,0.9072 m -0.4234,0.3628 v -1.27 M 89.57,59.9293 h -0.3024 m 0.4838,-0.0604 -0.1814,0.0604 m 0.3024,-0.1814 -0.121,0.121 m 0.1815,-0.242 -0.0605,0.121 m 0.1209,-0.3629 -0.0604,0.2419 m 0.0604,-0.4233 v 0.1814 m -0.0604,-0.4233 0.0604,0.2419 m -0.1209,-0.3628 0.0605,0.1209 m -0.1815,-0.2419 0.121,0.121 M 89.57,58.6593 89.7514,58.7198 M 89.2676,58.6593 H 89.57 m -0.3024,1.27 v -1.27 m -1.149,0 h 0.6048 m -0.6048,1.27 v -1.27 m 0.6048,1.27 h -0.6048 m 0,-0.6652 h 0.4234 m -1.4515,0.6652 v -1.27 m 0.6048,1.27 h -0.6048 m 2.2981,1.5724 -0.1209,0.0605 m 0.2419,-0.1814 -0.121,0.1209 m 0.2419,-0.3024 -0.1209,0.1815 m 0.1209,1.0885 v -1.27 m 0.3629,1.27 h -0.7257 m -0.9072,0 h -0.3024 m 0.4838,-0.0604 -0.1814,0.0604 m 0.3024,-0.1814 -0.121,0.121 m 0.1815,-0.242 -0.0605,0.121 m 0.1209,-0.3629 -0.0604,0.2419 m 0.0604,-0.4233 v 0.1814 m -0.0604,-0.4233 0.0604,0.2419 m -0.1209,-0.3628 0.0605,0.1209 m -0.1815,-0.2419 0.121,0.121 m -0.3024,-0.1815 0.1814,0.0605 m -0.4838,-0.0605 h 0.3024 m -0.3024,1.27 v -1.27 M 77.6465,76.9474 h -0.3024 m 0.4838,-0.0604 -0.1814,0.0604 m 0.3024,-0.1814 -0.121,0.121 m 0.1815,-0.242 -0.0605,0.121 m 0.1209,-0.3629 -0.0604,0.2419 m 0.0604,-0.4233 v 0.1814 m -0.0604,-0.4233 0.0604,0.2419 m -0.1209,-0.3628 0.0605,0.1209 m -0.1815,-0.2419 0.121,0.121 m -0.3024,-0.1815 0.1814,0.0605 m -0.4838,-0.0605 h 0.3024 m -0.3024,1.27 v -1.27 m -0.6048,1.27 v -1.27 m -0.7257,0 0.7257,1.27 m -0.7257,0 v -1.27 m -0.5443,0.7257 h -0.2419 m 0.2419,0.4234 v -0.4234 m -0.0604,0.4839 0.0604,-0.0605 m -0.2419,0.1209 0.1815,-0.0604 m -0.3024,0.0604 h 0.1209 m -0.3023,-0.0604 0.1814,0.0604 m -0.3024,-0.1814 0.121,0.121 m -0.1815,-0.242 0.0605,0.121 m -0.1209,-0.3629 0.0604,0.2419 m -0.0604,-0.4233 v 0.1814 m 0.0604,-0.4233 -0.0604,0.2419 m 0.1209,-0.3628 -0.0605,0.1209 m 0.1815,-0.2419 -0.121,0.121 m 0.3024,-0.1815 -0.1814,0.0605 m 0.3628,-0.0605 h -0.1814 m 0.3024,0.0605 -0.121,-0.0605 M 88.8852,50.2773 88.1595,51.003 m 0.7257,0.5443 -0.5442,-0.7257 m -0.1815,0.7257 v -1.27 m -1.149,0.3024 -0.1209,0.0605 m 0.2419,-0.1814 -0.121,0.1209 m 0.2419,-0.3024 -0.1209,0.1815 m 0.1209,1.0885 v -1.27 m 0.3629,1.27 h -0.7257 m 1.3909,-3.5076 -0.1209,0.0605 m 0.2419,-0.1814 -0.121,0.1209 m 0.2419,-0.3024 -0.1209,0.1815 m 0.1209,1.0885 v -1.27 m 0.3629,1.27 H 88.1596 M 87.4338,48.4026 H 86.95 m 0.6048,-0.0605 -0.121,0.0605 m 0.1815,-0.121 -0.0605,0.0605 m 0.1209,-0.1814 -0.0604,0.1209 m 0.0604,-0.3024 v 0.1815 m -0.0604,-0.3024 0.0604,0.1209 m -0.1209,-0.1814 0.0605,0.0605 m -0.1815,-0.121 0.121,0.0605 M 86.95,47.7373 h 0.4838 m -0.4838,1.27 v -1.27 m 0.7257,1.27 -0.4233,-0.6047 M 62.872,4.4728 63.5372,5.3194 m -0.6652,0 0.6652,-0.8466 m -1.3304,0.8466 v -1.27 m -0.3629,0 h 0.7257 M 61.3601,4.6542 61.2392,4.5937 m 0.1814,0.121 -0.0605,-0.0605 m 0.121,0.1814 -0.0605,-0.1209 m 0.0605,0.3628 V 4.8356 m -0.0605,0.3629 0.0605,-0.121 M 61.3601,5.259 61.4206,5.1985 M 61.2392,5.3194 61.3601,5.259 m -0.3628,0.0604 h 0.2419 M 60.8763,5.259 60.9973,5.3194 M 60.8158,5.1985 60.8763,5.259 m -0.1209,-0.1815 0.0604,0.121 M 60.7554,4.8356 v 0.2419 m 0.0604,-0.3628 -0.0604,0.1209 m 0.1209,-0.1814 -0.0605,0.0605 m 0.1815,-0.121 -0.121,0.0605 m 0.3629,-0.0605 h -0.2419 m 0.3628,-0.0605 -0.1209,0.0605 m 0.1814,-0.1209 -0.0605,0.0604 m 0.121,-0.1814 -0.0605,0.121 m 0.0605,-0.1815 v 0.0605 m -0.0605,-0.1814 0.0605,0.1209 m -0.121,-0.1814 0.0605,0.0605 m -0.1814,-0.121 0.1209,0.0605 M 60.9973,4.0494 h 0.2419 m -0.3629,0.0605 0.121,-0.0605 m -0.1815,0.121 0.0605,-0.0605 M 60.7554,4.2913 60.8158,4.1704 M 60.7554,4.3518 V 4.2913 m 0.0604,0.1815 -0.0604,-0.121 m 0.1209,0.1814 -0.0605,-0.0604 m 0.1815,0.1209 -0.121,-0.0605 m -0.5443,-0.4838 -0.8466,1.27 m 0,-1.27 0.8466,1.27 M 58.3364,5.259 58.2759,5.1985 M 58.4573,5.3194 58.3364,5.259 m 0.4838,0.0604 H 58.4573 M 58.9411,5.259 58.8202,5.3194 M 59.0016,5.1985 58.9411,5.259 m 0.121,-0.1815 -0.0605,0.121 m 0.0605,-0.4234 v 0.3024 m -0.0605,-0.4233 0.0605,0.1209 m -0.121,-0.1814 0.0605,0.0605 m -0.1814,-0.121 0.1209,0.0605 M 58.6387,4.5332 h 0.1815 M 59.0621,4.0494 58.6387,4.5332 M 58.2759,4.0494 h 0.7862 m -1.7538,0.0605 0.1209,-0.0605 m -0.1814,0.121 0.0605,-0.0605 m -0.121,0.1814 0.0605,-0.1209 M 57.1269,4.5332 57.1873,4.2913 M 57.1269,4.8356 V 4.5332 m 0.0604,0.5443 -0.0604,-0.2419 m 0.1209,0.3629 -0.0605,-0.121 M 57.3083,5.259 57.2478,5.1985 M 57.4292,5.3194 57.3083,5.259 m 0.2419,0.0604 h -0.121 M 57.6711,5.259 57.5502,5.3194 M 57.7316,5.1985 57.6711,5.259 m 0.121,-0.1815 -0.0605,0.121 m 0.121,-0.3629 -0.0605,0.2419 m 0.0605,-0.5443 v 0.3024 m -0.0605,-0.5443 0.0605,0.2419 m -0.121,-0.3628 0.0605,0.1209 m -0.121,-0.1814 0.0605,0.0605 m -0.1814,-0.121 0.1209,0.0605 M 57.4292,4.0494 h 0.121 m -1.5119,0.3024 -0.1209,0.0605 m 0.2419,-0.1814 -0.121,0.1209 m 0.2419,-0.3024 -0.1209,0.1815 m 0.1209,1.0885 v -1.27 m 0.3629,1.27 h -0.7257 m -0.4838,-1.27 h 0.1209 m -0.2419,0.0605 0.121,-0.0605 m -0.1815,0.1815 0.0605,-0.121 M 55.2521,5.3194 V 4.2309 m -0.1814,0.2419 h 0.4838 m -1.6328,0.8466 h 0.7862 M 54.6474,4.5937 53.9217,5.3194 m 0.7862,-0.9071 -0.0605,0.1814 m 0.0605,-0.3024 v 0.121 m -0.0605,-0.2419 0.0605,0.1209 m -0.121,-0.1814 0.0605,0.0605 M 54.466,4.0494 54.5869,4.1099 M 54.1636,4.0494 h 0.3024 m -0.4234,0.0605 0.121,-0.0605 m -0.1814,0.121 0.0604,-0.0605 M 52.7727,5.259 52.7122,5.1985 M 52.8936,5.3194 52.7727,5.259 m 0.4838,0.0604 H 52.8936 M 53.3774,5.259 53.2565,5.3194 M 53.4379,5.1985 53.3774,5.259 m 0.121,-0.1815 -0.0605,0.121 m 0.0605,-0.4234 v 0.3024 m -0.0605,-0.4233 0.0605,0.1209 m -0.121,-0.1814 0.0605,0.0605 m -0.1814,-0.121 0.1209,0.0605 M 53.075,4.5332 h 0.1815 M 53.4984,4.0494 53.075,4.5332 M 52.7122,4.0494 h 0.7862 m -1.27,0 v 1.27 M 51.8051,4.9566 52.2284,4.0494 m -0.8467,0 0.4234,0.9072 m -0.4234,0.3628 v -1.27 m -0.7861,1.27 v -1.27 m -0.3629,0 h 0.7257 m -1.27,0 0.1815,0.0605 M 49.3861,4.0494 h 0.3023 m -0.4233,0.0605 0.121,-0.0605 m -0.1815,0.121 0.0605,-0.0605 m -0.1209,0.1814 0.0604,-0.1209 m -0.0604,0.2419 v -0.121 m 0.0604,0.2419 -0.0604,-0.1209 m 0.1209,0.1814 -0.0605,-0.0605 m 0.1815,0.121 -0.121,-0.0605 M 49.628,4.7147 49.3861,4.6542 M 49.7489,4.7751 49.628,4.7147 m 0.1814,0.1209 -0.0605,-0.0605 m 0.121,0.1815 -0.0605,-0.121 m 0.0605,0.2419 V 4.9566 m -0.0605,0.2419 0.0605,-0.121 M 49.7489,5.259 49.8094,5.1985 M 49.628,5.3194 49.7489,5.259 M 49.3256,5.3194 H 49.628 M 49.1442,5.259 49.3256,5.3194 m 7.6622,-3.5076 -0.1209,0.0605 m 0.2419,-0.1814 -0.121,0.1209 m 0.2419,-0.3024 -0.1209,0.1815 m 0.1209,1.0885 v -1.27 m 0.3629,1.27 H 56.8669 M 56.3225,2.5375 V 1.5094 m -0.0604,1.1491 0.0604,-0.121 M 56.2016,2.719 56.2621,2.6585 m -0.1815,0.1209 0.121,-0.0604 m -0.3629,0.0604 h 0.2419 M 55.7178,2.719 55.8387,2.7794 M 55.6573,2.6585 55.7178,2.719 m -0.121,-0.1815 0.0605,0.121 M 55.5968,1.5094 v 1.0281 m 14.3899,62.4356 h -0.1935 m 0.1935,0.3387 v -0.3387 m -0.0484,0.3871 0.0484,-0.0484 m -0.1935,0.0967 0.1451,-0.0483 m -0.2419,0.0483 h 0.0968 m -0.2419,-0.0483 0.1451,0.0483 m -0.2419,-0.1451 0.0968,0.0968 m -0.1451,-0.1936 0.0483,0.0968 m -0.0967,-0.2903 0.0484,0.1935 M 69.3578,64.828 v 0.1451 m 0.0484,-0.3387 -0.0484,0.1936 m 0.0967,-0.2903 -0.0483,0.0967 m 0.1451,-0.1935 -0.0968,0.0968 m 0.2419,-0.1452 -0.1451,0.0484 m 0.2903,-0.0484 h -0.1452 m 0.2419,0.0484 -0.0967,-0.0484 m -0.387,-11.7323 -0.0484,-0.0484 m 0.1451,0.0967 -0.0967,-0.0483 m 0.3386,0.0483 h -0.2419 m 0.3387,-0.0483 -0.0968,0.0483 m 0.1452,-0.0967 -0.0484,0.0484 m 0.0967,-0.1452 -0.0483,0.0968 m 0.0483,-0.3387 v 0.2419 m -0.0483,-0.3387 0.0483,0.0968 M 69.89,52.128 69.9384,52.1763 M 69.7932,52.0796 69.89,52.128 m -0.3387,-0.0484 h 0.2419 m -0.3386,0.0484 0.0967,-0.0484 m -0.1451,0.0967 0.0484,-0.0483 m 0,-0.4355 -0.0484,0.4838 m 0.5322,-0.4838 h -0.4838 m -0.9193,0.2419 -0.0967,0.0484 m 0.1935,-0.1451 -0.0968,0.0967 m 0.1936,-0.2419 -0.0968,0.1452 m 0.0968,0.8708 v -1.016 m 0.2902,1.016 h -0.5805 m -0.629,-0.5322 H 67.471 m 0.4354,-0.0483 -0.0968,0.0483 m 0.1452,-0.0967 -0.0484,0.0484 m 0.0967,-0.1452 -0.0483,0.0968 m 0.0483,-0.1935 v 0.0967 m -0.0483,-0.1935 0.0483,0.0968 m -0.0967,-0.1452 0.0484,0.0484 m -0.1452,-0.0968 0.0968,0.0484 M 67.471,51.6925 h 0.3386 m -0.3386,1.016 v -1.016 m 0.387,1.016 h -0.387 m 0.4838,-0.0483 -0.0968,0.0483 m 0.1451,-0.0967 -0.0483,0.0484 m 0.0967,-0.1452 -0.0484,0.0968 m 0.0484,-0.2419 v 0.1451 m -0.0484,-0.2419 0.0484,0.0968 m -0.0967,-0.1452 0.0483,0.0484 m -0.1935,-0.0968 0.1452,0.0484 m 1.4514,-2.3948 h 0.6289 m -0.387,-0.7257 -0.2419,0.7257 M 69.89,49.4912 v 0.6773 m -1.3547,-0.7741 -0.0967,0.0484 m 0.1935,-0.1451 -0.0968,0.0967 m 0.1936,-0.2419 -0.0968,0.1452 m 0.0968,0.8708 v -1.016 m 0.2902,1.016 h -0.5805 m -0.629,-0.5322 H 67.471 m 0.4354,-0.0483 -0.0968,0.0483 m 0.1452,-0.0967 -0.0484,0.0484 m 0.0967,-0.1452 -0.0483,0.0968 m 0.0483,-0.1935 v 0.0967 m -0.0483,-0.1935 0.0483,0.0968 m -0.0967,-0.1452 0.0484,0.0484 m -0.1452,-0.0968 0.0968,0.0484 M 67.471,49.1525 h 0.3386 m -0.3386,1.016 v -1.016 m 0.387,1.016 h -0.387 m 0.4838,-0.0483 -0.0968,0.0483 m 0.1451,-0.0967 -0.0483,0.0484 m 0.0967,-0.1452 -0.0484,0.0968 m 0.0484,-0.2419 v 0.1451 m -0.0484,-0.2419 0.0484,0.0968 m -0.0967,-0.1452 0.0483,0.0484 m -0.1935,-0.0968 0.1452,0.0484 m 1.4514,-2.1045 -0.0484,-0.0484 m 0.1451,0.0967 -0.0967,-0.0483 m 0.387,0.0483 h -0.2903 m 0.3871,-0.0483 -0.0968,0.0483 m 0.1452,-0.0967 -0.0484,0.0484 m 0.0967,-0.1452 -0.0483,0.0968 m 0.0483,-0.3387 v 0.2419 m -0.0483,-0.3387 0.0483,0.0968 M 69.89,47.048 69.9384,47.0963 M 69.7932,46.9996 69.89,47.048 m -0.2419,-0.0484 h 0.1451 m 0.1935,-0.3871 -0.3386,0.3871 m -0.2903,-0.3871 h 0.6289 m -1.4514,0.2419 -0.0967,0.0484 m 0.1935,-0.1451 -0.0968,0.0967 m 0.1936,-0.2419 -0.0968,0.1452 m 0.0968,0.8708 v -1.016 m 0.2902,1.016 h -0.5805 m -0.629,-0.5322 H 67.471 m 0.4354,-0.0483 -0.0968,0.0483 m 0.1452,-0.0967 -0.0484,0.0484 m 0.0967,-0.1452 -0.0483,0.0968 m 0.0483,-0.1935 v 0.0967 m -0.0483,-0.1935 0.0483,0.0968 m -0.0967,-0.1452 0.0484,0.0484 m -0.1452,-0.0968 0.0968,0.0484 M 67.471,46.6125 h 0.3386 m -0.3386,1.016 v -1.016 m 0.387,1.016 h -0.387 m 0.4838,-0.0483 -0.0968,0.0483 m 0.1451,-0.0967 -0.0483,0.0484 m 0.0967,-0.1452 -0.0484,0.0968 m 0.0484,-0.2419 v 0.1451 m -0.0484,-0.2419 0.0484,0.0968 m -0.0967,-0.1452 0.0483,0.0484 m -0.1935,-0.0968 0.1452,0.0484 m 1.403,-2.0562 h 0.6289 m -0.0483,-0.5805 -0.5806,0.5805 m 0.6289,-0.7257 -0.0483,0.1452 m 0.0483,-0.2419 v 0.0967 m -0.0483,-0.1935 0.0483,0.0968 m -0.0967,-0.1452 0.0484,0.0484 m -0.1452,-0.0968 0.0968,0.0484 m -0.3387,-0.0484 h 0.2419 m -0.3386,0.0484 0.0967,-0.0484 m -0.1451,0.0968 0.0484,-0.0484 m -0.9193,0.1935 -0.0967,0.0484 m 0.1935,-0.1451 -0.0968,0.0967 m 0.1936,-0.2419 -0.0968,0.1452 m 0.0968,0.8708 v -1.016 m 0.2902,1.016 h -0.5805 m -0.629,-0.5322 H 67.471 m 0.4354,-0.0483 -0.0968,0.0483 m 0.1452,-0.0967 -0.0484,0.0484 m 0.0967,-0.1452 -0.0483,0.0968 m 0.0483,-0.1935 v 0.0967 m -0.0483,-0.1935 0.0483,0.0968 m -0.0967,-0.1452 0.0484,0.0484 m -0.1452,-0.0968 0.0968,0.0484 M 67.471,44.0725 h 0.3386 m -0.3386,1.016 v -1.016 m 0.387,1.016 h -0.387 m 0.4838,-0.0483 -0.0968,0.0483 m 0.1451,-0.0967 -0.0483,0.0484 m 0.0967,-0.1452 -0.0484,0.0968 m 0.0484,-0.2419 v 0.1451 m -0.0484,-0.2419 0.0484,0.0968 m -0.0967,-0.1452 0.0483,0.0484 m -0.1935,-0.0968 0.1452,0.0484 m 1.5481,-2.8303 -0.0967,0.0484 m 0.1935,-0.1451 -0.0968,0.0967 m 0.1936,-0.2419 -0.0968,0.1452 m 0.0968,0.8708 v -1.016 m 0.2902,1.016 h -0.5805 m -0.8709,-0.7741 -0.0967,0.0484 m 0.1935,-0.1451 -0.0968,0.0967 m 0.1936,-0.2419 -0.0968,0.1452 m 0.0968,0.8708 v -1.016 m 0.2902,1.016 h -0.5805 m -0.629,-0.5322 H 67.471 m 0.4354,-0.0483 -0.0968,0.0483 m 0.1452,-0.0967 -0.0484,0.0484 m 0.0967,-0.1452 -0.0483,0.0968 m 0.0483,-0.1935 v 0.0967 m -0.0483,-0.1935 0.0483,0.0968 m -0.0967,-0.1452 0.0484,0.0484 m -0.1452,-0.0968 0.0968,0.0484 M 67.471,41.5325 h 0.3386 m -0.3386,1.016 v -1.016 m 0.387,1.016 h -0.387 m 0.4838,-0.0483 -0.0968,0.0483 m 0.1451,-0.0967 -0.0483,0.0484 m 0.0967,-0.1452 -0.0484,0.0968 m 0.0484,-0.2419 v 0.1451 m -0.0484,-0.2419 0.0484,0.0968 m -0.0967,-0.1452 0.0483,0.0484 m -0.1935,-0.0968 0.1452,0.0484 m 1.5965,-3.0238 0.0968,-0.0484 m -0.1452,0.0968 0.0484,-0.0484 m -0.0967,0.1452 0.0483,-0.0968 m -0.0967,0.2903 0.0484,-0.1935 m -0.0484,0.4354 v -0.2419 m 0.0484,0.4354 -0.0484,-0.1935 m 0.0967,0.2903 -0.0483,-0.0968 m 0.0967,0.1452 -0.0484,-0.0484 m 0.1452,0.0967 -0.0968,-0.0483 m 0.1935,0.0483 h -0.0967 m 0.1935,-0.0483 -0.0968,0.0483 M 69.89,39.9118 69.8416,39.9602 M 69.9384,39.815 69.89,39.9118 m 0.0967,-0.2903 -0.0483,0.1935 m 0.0483,-0.4354 v 0.2419 m -0.0483,-0.4354 0.0483,0.1935 m -0.0967,-0.2903 0.0484,0.0968 m -0.0968,-0.1452 0.0484,0.0484 m -0.1452,-0.0968 0.0968,0.0484 m -0.1935,-0.0484 h 0.0967 m -1.2095,0.2419 -0.0967,0.0484 m 0.1935,-0.1451 -0.0968,0.0967 m 0.1936,-0.2419 -0.0968,0.1452 m 0.0968,0.8708 v -1.016 m 0.2902,1.016 h -0.5805 m -0.629,-0.5322 H 67.471 m 0.4354,-0.0483 -0.0968,0.0483 m 0.1452,-0.0967 -0.0484,0.0484 m 0.0967,-0.1452 -0.0483,0.0968 m 0.0483,-0.1935 v 0.0967 m -0.0483,-0.1935 0.0483,0.0968 m -0.0967,-0.1452 0.0484,0.0484 m -0.1452,-0.0968 0.0968,0.0484 M 67.471,38.9925 h 0.3386 m -0.3386,1.016 v -1.016 m 0.387,1.016 h -0.387 m 0.4838,-0.0483 -0.0968,0.0483 m 0.1451,-0.0967 -0.0483,0.0484 m 0.0967,-0.1452 -0.0484,0.0968 m 0.0484,-0.2419 v 0.1451 m -0.0484,-0.2419 0.0484,0.0968 m -0.0967,-0.1452 0.0483,0.0484 m -0.1935,-0.0968 0.1452,0.0484 m 1.9836,-2.54 0.0483,-0.0967 m -0.0967,0.1451 0.0484,-0.0484 m -0.1452,0.0968 0.0968,-0.0484 m -0.2903,0.0484 h 0.1935 m -0.2903,-0.0484 0.0968,0.0484 m -0.1451,-0.0968 0.0483,0.0484 m -0.0967,-0.1451 0.0484,0.0967 m -0.0484,-0.3386 v 0.2419 m 0.0484,-0.3387 -0.0484,0.0968 m 0.0967,-0.1452 -0.0483,0.0484 m 0.1451,-0.0968 -0.0968,0.0484 m 0.2903,-0.0484 h -0.1935 m 0.2903,0.0484 -0.0968,-0.0484 m 0.1452,0.0968 -0.0484,-0.0484 m 0.0967,0.1452 -0.0483,-0.0968 m 0.0483,0.4838 v -0.387 m -0.0483,0.5805 0.0483,-0.1935 m -0.1451,0.3387 0.0968,-0.1452 m -0.1452,0.1936 0.0484,-0.0484 m -0.1451,0.0967 0.0967,-0.0483 m -0.2903,0.0483 h 0.1936 m -0.9193,-0.5322 h -0.3386 m 0.4354,-0.0483 -0.0968,0.0483 m 0.1452,-0.0967 -0.0484,0.0484 m 0.0967,-0.1452 -0.0483,0.0968 m 0.0483,-0.1935 v 0.0967 m -0.0483,-0.1935 0.0483,0.0968 m -0.0967,-0.1452 0.0484,0.0484 m -0.1452,-0.0968 0.0968,0.0484 m -0.4354,-0.0484 h 0.3386 m -0.3386,1.016 v -1.016 m 0.387,1.016 h -0.387 m 0.4838,-0.0483 -0.0968,0.0483 m 0.1451,-0.0967 -0.0483,0.0484 m 0.0967,-0.1452 -0.0484,0.0968 m 0.0484,-0.2419 v 0.1451 m -0.0484,-0.2419 0.0484,0.0968 m -0.0967,-0.1452 0.0483,0.0484 m -0.1935,-0.0968 0.1452,0.0484 M 69.89,34.3963 69.7932,34.348 m 0.1452,0.0967 -0.0484,-0.0484 m 0.0967,0.1452 -0.0483,-0.0968 m 0.0483,0.2903 v -0.1935 m -0.0483,0.2903 0.0483,-0.0968 m -0.0967,0.1452 0.0484,-0.0484 m -0.1452,0.0967 0.0968,-0.0483 m -0.2903,0.0483 h 0.1935 m -0.2903,-0.0483 0.0968,0.0483 m -0.1451,-0.0967 0.0483,0.0484 m -0.0967,-0.1452 0.0484,0.0968 m -0.0484,-0.2903 v 0.1935 m 0.0484,-0.2903 -0.0484,0.0968 m 0.0967,-0.1452 -0.0483,0.0484 m 0.1451,-0.0967 -0.0968,0.0483 M 69.7932,34.348 H 69.5997 M 69.89,34.2996 69.7932,34.348 m 0.1452,-0.0968 -0.0484,0.0484 m 0.0967,-0.1452 -0.0483,0.0968 m 0.0483,-0.1451 v 0.0483 m -0.0483,-0.1451 0.0483,0.0968 m -0.0967,-0.1452 0.0484,0.0484 m -0.1452,-0.0968 0.0968,0.0484 m -0.2903,-0.0484 h 0.1935 m -0.2903,0.0484 0.0968,-0.0484 m -0.1451,0.0968 0.0483,-0.0484 m -0.0967,0.1452 0.0484,-0.0968 m -0.0484,0.1451 v -0.0483 m 0.0484,0.1451 -0.0484,-0.0968 m 0.0967,0.1452 -0.0483,-0.0484 m 0.1451,0.0968 -0.0968,-0.0484 m -0.7257,0.0967 h -0.3386 m 0.4354,-0.0483 -0.0968,0.0483 m 0.1452,-0.0967 -0.0484,0.0484 m 0.0967,-0.1452 -0.0483,0.0968 m 0.0483,-0.1935 v 0.0967 m -0.0483,-0.1935 0.0483,0.0968 m -0.0967,-0.1452 0.0484,0.0484 m -0.1452,-0.0968 0.0968,0.0484 m -0.4354,-0.0484 h 0.3386 m -0.3386,1.016 v -1.016 m 0.387,1.016 h -0.387 m 0.4838,-0.0483 -0.0968,0.0483 m 0.1451,-0.0967 -0.0483,0.0484 m 0.0967,-0.1452 -0.0484,0.0968 m 0.0484,-0.2419 v 0.1451 m -0.0484,-0.2419 0.0484,0.0968 m -0.0967,-0.1452 0.0483,0.0484 m -0.1935,-0.0968 0.1452,0.0484 m 1.1127,-3.0722 -0.4354,1.016 m -0.2419,-1.016 h 0.6773 m -1.2579,0.4838 h -0.3386 m 0.4354,-0.0483 -0.0968,0.0483 m 0.1452,-0.0967 -0.0484,0.0484 m 0.0967,-0.1452 -0.0483,0.0968 m 0.0483,-0.1935 v 0.0967 m -0.0483,-0.1935 0.0483,0.0968 m -0.0967,-0.1452 0.0484,0.0484 m -0.1452,-0.0968 0.0968,0.0484 m -0.4354,-0.0484 h 0.3386 m -0.3386,1.016 v -1.016 m 0.387,1.016 h -0.387 m 0.4838,-0.0483 -0.0968,0.0483 m 0.1451,-0.0967 -0.0483,0.0484 m 0.0967,-0.1452 -0.0484,0.0968 m 0.0484,-0.2419 v 0.1451 m -0.0484,-0.2419 0.0484,0.0968 m -0.0967,-0.1452 0.0483,0.0484 m -0.1935,-0.0968 0.1452,0.0484 m 0.5322,-2.5884 -0.0484,0.0968 m 0.0967,-0.1451 -0.0483,0.0483 m 0.1451,-0.0967 -0.0968,0.0484 m 0.2903,-0.0484 H 69.5997 M 69.89,29.268 69.7932,29.2196 M 69.9384,29.3163 69.89,29.268 m 0.0967,0.1451 -0.0483,-0.0968 m 0.0483,0.3387 v -0.2419 m -0.0483,0.3387 0.0483,-0.0968 m -0.0967,0.1452 0.0484,-0.0484 m -0.1452,0.0967 0.0968,-0.0483 m -0.2903,0.0483 h 0.1935 m -0.2903,-0.0483 0.0968,0.0483 m -0.1451,-0.0967 0.0483,0.0484 m -0.0967,-0.1452 0.0484,0.0968 M 69.4062,29.268 v 0.387 m 0.0484,-0.5806 -0.0484,0.1936 m 0.1451,-0.3387 -0.0967,0.1451 m 0.1451,-0.1935 -0.0484,0.0484 m 0.1452,-0.0968 -0.0968,0.0484 M 69.89,28.8325 h -0.1935 m -0.9193,0.4838 h -0.3386 m 0.4354,-0.0483 -0.0968,0.0483 m 0.1452,-0.0967 -0.0484,0.0484 m 0.0967,-0.1452 -0.0483,0.0968 m 0.0483,-0.1935 v 0.0967 m -0.0483,-0.1935 0.0483,0.0968 m -0.0967,-0.1452 0.0484,0.0484 m -0.1452,-0.0968 0.0968,0.0484 m -0.4354,-0.0484 h 0.3386 m -0.3386,1.016 v -1.016 m 0.387,1.016 h -0.387 m 0.4838,-0.0483 -0.0968,0.0483 m 0.1451,-0.0967 -0.0483,0.0484 m 0.0967,-0.1452 -0.0484,0.0968 m 0.0484,-0.2419 v 0.1451 m -0.0484,-0.2419 0.0484,0.0968 m -0.0967,-0.1452 0.0483,0.0484 m -0.1935,-0.0968 0.1452,0.0484 m 0.5322,-2.1045 -0.0484,-0.0484 m 0.1451,0.0967 -0.0967,-0.0483 m 0.3386,0.0483 h -0.2419 m 0.3387,-0.0483 -0.0968,0.0483 m 0.1452,-0.0967 -0.0484,0.0484 m 0.0967,-0.1452 -0.0483,0.0968 m 0.0483,-0.3387 v 0.2419 m -0.0483,-0.3387 0.0483,0.0968 M 69.89,26.728 69.9384,26.7763 M 69.7932,26.6796 69.89,26.728 m -0.3387,-0.0484 h 0.2419 m -0.3386,0.0484 0.0967,-0.0484 m -0.1451,0.0967 0.0484,-0.0483 m 0,-0.4355 -0.0484,0.4838 m 0.5322,-0.4838 h -0.4838 m -0.6774,0.4838 h -0.3386 m 0.4354,-0.0483 -0.0968,0.0483 m 0.1452,-0.0967 -0.0484,0.0484 m 0.0967,-0.1452 -0.0483,0.0968 m 0.0483,-0.1935 v 0.0967 m -0.0483,-0.1935 0.0483,0.0968 m -0.0967,-0.1452 0.0484,0.0484 m -0.1452,-0.0968 0.0968,0.0484 m -0.4354,-0.0484 h 0.3386 m -0.3386,1.016 v -1.016 m 0.387,1.016 h -0.387 m 0.4838,-0.0483 -0.0968,0.0483 m 0.1451,-0.0967 -0.0483,0.0484 m 0.0967,-0.1452 -0.0484,0.0968 m 0.0484,-0.2419 v 0.1451 m -0.0484,-0.2419 0.0484,0.0968 m -0.0967,-0.1452 0.0483,0.0484 m -0.1935,-0.0968 0.1452,0.0484 m 0.4838,-2.3948 h 0.6289 m -0.387,-0.7257 -0.2419,0.7257 M 69.89,24.0912 v 0.6773 m -1.1128,-0.5322 h -0.3386 m 0.4354,-0.0483 -0.0968,0.0483 m 0.1452,-0.0967 -0.0484,0.0484 m 0.0967,-0.1452 -0.0483,0.0968 m 0.0483,-0.1935 v 0.0967 m -0.0483,-0.1935 0.0483,0.0968 m -0.0967,-0.1452 0.0484,0.0484 m -0.1452,-0.0968 0.0968,0.0484 m -0.4354,-0.0484 h 0.3386 m -0.3386,1.016 v -1.016 m 0.387,1.016 h -0.387 m 0.4838,-0.0483 -0.0968,0.0483 m 0.1451,-0.0967 -0.0483,0.0484 m 0.0967,-0.1452 -0.0484,0.0968 m 0.0484,-0.2419 v 0.1451 m -0.0484,-0.2419 0.0484,0.0968 m -0.0967,-0.1452 0.0483,0.0484 m -0.1935,-0.0968 0.1452,0.0484 m 0.4838,-2.1045 -0.0484,-0.0484 m 0.1451,0.0967 -0.0967,-0.0483 m 0.387,0.0483 h -0.2903 m 0.3871,-0.0483 -0.0968,0.0483 m 0.1452,-0.0967 -0.0484,0.0484 m 0.0967,-0.1452 -0.0483,0.0968 m 0.0483,-0.3387 v 0.2419 m -0.0483,-0.3387 0.0483,0.0968 M 69.89,21.648 69.9384,21.6963 M 69.7932,21.5996 69.89,21.648 m -0.2419,-0.0484 h 0.1451 m 0.1935,-0.3871 -0.3386,0.3871 m -0.2903,-0.3871 h 0.6289 m -1.2095,0.4838 h -0.3386 m 0.4354,-0.0483 -0.0968,0.0483 m 0.1452,-0.0967 -0.0484,0.0484 m 0.0967,-0.1452 -0.0483,0.0968 m 0.0483,-0.1935 v 0.0967 m -0.0483,-0.1935 0.0483,0.0968 m -0.0967,-0.1452 0.0484,0.0484 m -0.1452,-0.0968 0.0968,0.0484 m -0.4354,-0.0484 h 0.3386 m -0.3386,1.016 v -1.016 m 0.387,1.016 h -0.387 m 0.4838,-0.0483 -0.0968,0.0483 m 0.1451,-0.0967 -0.0483,0.0484 m 0.0967,-0.1452 -0.0484,0.0968 m 0.0484,-0.2419 v 0.1451 m -0.0484,-0.2419 0.0484,0.0968 m -0.0967,-0.1452 0.0483,0.0484 m -0.1935,-0.0968 0.1452,0.0484 m 0.5805,-2.8303 -0.0967,0.0484 m 0.1935,-0.1451 -0.0968,0.0967 m 0.1936,-0.2419 -0.0968,0.1452 m 0.0968,0.8708 v -1.016 m 0.2902,1.016 h -0.5805 m -0.629,-0.5322 h -0.3386 m 0.4354,-0.0483 -0.0968,0.0483 m 0.1452,-0.0967 -0.0484,0.0484 m 0.0967,-0.1452 -0.0483,0.0968 m 0.0483,-0.1935 v 0.0967 m -0.0483,-0.1935 0.0483,0.0968 m -0.0967,-0.1452 0.0484,0.0484 m -0.1452,-0.0968 0.0968,0.0484 m -0.4354,-0.0484 h 0.3386 m -0.3386,1.016 v -1.016 m 0.387,1.016 h -0.387 m 0.4838,-0.0483 -0.0968,0.0483 m 0.1451,-0.0967 -0.0483,0.0484 m 0.0967,-0.1452 -0.0484,0.0968 m 0.0484,-0.2419 v 0.1451 m -0.0484,-0.2419 0.0484,0.0968 m -0.0967,-0.1452 0.0483,0.0484 m -0.1935,-0.0968 0.1452,0.0484 m 0.6289,-3.0238 0.0968,-0.0484 m -0.1452,0.0968 0.0484,-0.0484 m -0.0967,0.1452 0.0483,-0.0968 m -0.0967,0.2903 0.0484,-0.1935 m -0.0484,0.4354 v -0.2419 m 0.0484,0.4354 -0.0484,-0.1935 m 0.0967,0.2903 -0.0483,-0.0968 m 0.0967,0.1452 -0.0484,-0.0484 m 0.1452,0.0967 -0.0968,-0.0483 m 0.1935,0.0483 h -0.0967 m 0.1935,-0.0483 -0.0968,0.0483 M 69.89,17.0518 69.8416,17.1002 M 69.9384,16.955 69.89,17.0518 m 0.0967,-0.2903 -0.0483,0.1935 m 0.0483,-0.4354 v 0.2419 m -0.0483,-0.4354 0.0483,0.1935 m -0.0967,-0.2903 0.0484,0.0968 m -0.0968,-0.1452 0.0484,0.0484 m -0.1452,-0.0968 0.0968,0.0484 m -0.1935,-0.0484 h 0.0967 m -0.9676,0.4838 h -0.3386 m 0.4354,-0.0483 -0.0968,0.0483 m 0.1452,-0.0967 -0.0484,0.0484 m 0.0967,-0.1452 -0.0483,0.0968 m 0.0483,-0.1935 v 0.0967 m -0.0483,-0.1935 0.0483,0.0968 m -0.0967,-0.1452 0.0484,0.0484 m -0.1452,-0.0968 0.0968,0.0484 m -0.4354,-0.0484 h 0.3386 m -0.3386,1.016 v -1.016 m 0.387,1.016 h -0.387 m 0.4838,-0.0483 -0.0968,0.0483 m 0.1451,-0.0967 -0.0483,0.0484 m 0.0967,-0.1452 -0.0484,0.0968 m 0.0484,-0.2419 v 0.1451 m -0.0484,-0.2419 0.0484,0.0968 m -0.0967,-0.1452 0.0483,0.0484 m -0.1935,-0.0968 0.1452,0.0484 m 0.8708,-5.08 h -0.387 M 69.89,11.5363 69.7932,11.5847 M 69.9383,11.488 69.89,11.5363 m 0.0967,-0.1451 -0.0484,0.0968 m 0.0484,-0.2419 v 0.1451 m -0.0484,-0.2419 0.0484,0.0968 m -0.0967,-0.1452 0.0483,0.0484 m -0.1451,-0.0968 0.0968,0.0484 m -0.4838,-0.0484 h 0.387 m -0.387,1.016 v -1.016 m 0.5805,1.016 -0.3386,-0.4838 m 0.0967,-2.0562 0.3386,-1.016 m -0.6773,0 0.3387,1.016 M 68.5837,9.4802 68.5353,9.4318 m 0.1451,0.0967 -0.0967,-0.0483 m 0.3386,0.0483 H 68.6804 M 69.0191,9.4802 68.9223,9.5285 M 69.0675,9.4318 69.0191,9.4802 M 69.1158,9.335 69.0675,9.4318 M 69.1158,9.0931 V 9.335 M 69.0675,8.9963 69.1158,9.0931 M 69.0191,8.948 69.0675,8.9963 M 68.9223,8.8996 69.0191,8.948 M 68.6804,8.8996 h 0.2419 M 68.5837,8.948 68.6804,8.8996 M 68.5353,8.9963 68.5837,8.948 m 0,-0.4355 -0.0484,0.4838 M 69.0675,8.5125 H 68.5837 M 43.5776,64.0902 43.5292,64.0418 m 0.1451,0.0967 -0.0967,-0.0483 m 0.387,0.0483 h -0.2903 m 0.3871,-0.0483 -0.0968,0.0483 m 0.1452,-0.0967 -0.0484,0.0484 m 0.0967,-0.1452 -0.0483,0.0968 m 0.0483,-0.3387 v 0.2419 m -0.0483,-0.3387 0.0483,0.0968 m -0.0967,-0.1451 0.0484,0.0483 m -0.1452,-0.0967 0.0968,0.0484 m -0.2419,-0.0484 h 0.1451 m 0.1935,-0.3871 -0.3386,0.3871 m -0.2903,-0.3871 h 0.6289 m -1.0159,0.9193 v 0.0967 m -0.0484,-0.0483 0.0484,-0.0484 m 0,0.0967 -0.0484,-0.0483 m 0.0967,0 -0.0483,0.0483 m 0,-0.0967 0.0483,0.0484 m -1.0643,0 -0.0484,-0.0484 m 0.1451,0.0967 -0.0967,-0.0483 m 0.387,0.0483 h -0.2903 m 0.3871,-0.0483 -0.0968,0.0483 m 0.1452,-0.0967 -0.0484,0.0484 m 0.0967,-0.1452 -0.0483,0.0968 m 0.0483,-0.3387 v 0.2419 m -0.0483,-0.3387 0.0483,0.0968 M 42.61,63.558 42.6584,63.6063 M 42.5132,63.5096 42.61,63.558 m -0.2419,-0.0484 h 0.1451 m 0.1935,-0.3871 -0.3386,0.3871 m -0.2903,-0.3871 h 0.6289 m 1.4515,-2.8423 -0.0484,-0.0484 m 0.1451,0.0967 -0.0967,-0.0483 m 0.3386,0.0483 h -0.2419 m 0.3387,-0.0483 -0.0968,0.0483 m 0.1452,-0.0967 -0.0484,0.0484 m 0.0967,-0.1452 -0.0483,0.0968 m 0.0483,-0.3387 v 0.2419 m -0.0483,-0.3387 0.0483,0.0968 m -0.0967,-0.1451 0.0484,0.0483 m -0.1452,-0.0967 0.0968,0.0484 m -0.3387,-0.0484 h 0.2419 m -0.3386,0.0484 0.0967,-0.0484 m -0.1451,0.0967 0.0484,-0.0483 m 0,-0.4355 -0.0484,0.4838 m 0.5322,-0.4838 h -0.4838 m -0.9193,0.2419 -0.0967,0.0484 m 0.1935,-0.1451 -0.0968,0.0967 m 0.1936,-0.2419 -0.0968,0.1452 m 0.0968,0.8708 v -1.016 m 0.2902,1.016 h -0.5805 m -0.4355,-0.9676 0.0484,0.0484 m -0.1935,-0.0968 0.1451,0.0484 m -0.2419,-0.0484 h 0.0968 m -0.2419,0.0484 0.1451,-0.0484 m -0.2419,0.1452 0.0968,-0.0968 m -0.1451,0.1935 0.0483,-0.0967 m -0.0967,0.2903 0.0484,-0.1936 m -0.0484,0.3387 V 59.748 m 0.0484,0.3386 -0.0484,-0.1935 m 0.0967,0.2903 -0.0483,-0.0968 m 0.1451,0.1936 -0.0968,-0.0968 m 0.2419,0.1451 -0.1451,-0.0483 m 0.2419,0.0483 h -0.0968 m 0.2419,-0.0483 -0.1451,0.0483 m 0.1935,-0.0967 -0.0484,0.0484 m 1.4031,-2.8303 h 0.6289 m -0.387,-0.7257 -0.2419,0.7257 m 0.4838,-0.3387 v 0.6773 m -1.3547,-0.7741 -0.0967,0.0484 m 0.1935,-0.1451 -0.0968,0.0967 m 0.1936,-0.2419 -0.0968,0.1452 m 0.0968,0.8708 v -1.016 m 0.2902,1.016 h -0.5805 m -0.4355,-0.9676 0.0484,0.0484 m -0.1935,-0.0968 0.1451,0.0484 m -0.2419,-0.0484 h 0.0968 m -0.2419,0.0484 0.1451,-0.0484 m -0.2419,0.1452 0.0968,-0.0968 m -0.1451,0.1935 0.0483,-0.0967 m -0.0967,0.2903 0.0484,-0.1936 m -0.0484,0.3387 V 57.208 m 0.0484,0.3386 -0.0484,-0.1935 m 0.0967,0.2903 -0.0483,-0.0968 m 0.1451,0.1936 -0.0968,-0.0968 m 0.2419,0.1451 -0.1451,-0.0483 m 0.2419,0.0483 h -0.0968 m 0.2419,-0.0483 -0.1451,0.0483 m 0.1935,-0.0967 -0.0484,0.0484 m 1.4031,-2.54 -0.0484,-0.0484 m 0.1451,0.0967 -0.0967,-0.0483 m 0.387,0.0483 h -0.2903 m 0.3871,-0.0483 -0.0968,0.0483 m 0.1452,-0.0967 -0.0484,0.0484 m 0.0967,-0.1452 -0.0483,0.0968 m 0.0483,-0.3387 v 0.2419 m -0.0483,-0.3387 0.0483,0.0968 m -0.0967,-0.1451 0.0484,0.0483 m -0.1452,-0.0967 0.0968,0.0484 m -0.2419,-0.0484 h 0.1451 m 0.1935,-0.3871 -0.3386,0.3871 m -0.2903,-0.3871 h 0.6289 m -1.4514,0.2419 -0.0967,0.0484 m 0.1935,-0.1451 -0.0968,0.0967 m 0.1936,-0.2419 -0.0968,0.1452 m 0.0968,0.8708 v -1.016 m 0.2902,1.016 h -0.5805 m -0.4355,-0.9676 0.0484,0.0484 m -0.1935,-0.0968 0.1451,0.0484 m -0.2419,-0.0484 h 0.0968 m -0.2419,0.0484 0.1451,-0.0484 m -0.2419,0.1452 0.0968,-0.0968 m -0.1451,0.1935 0.0483,-0.0967 m -0.0967,0.2903 0.0484,-0.1936 m -0.0484,0.3387 V 54.668 m 0.0484,0.3386 -0.0484,-0.1935 m 0.0967,0.2903 -0.0483,-0.0968 m 0.1451,0.1936 -0.0968,-0.0968 m 0.2419,0.1451 -0.1451,-0.0483 m 0.2419,0.0483 h -0.0968 m 0.2419,-0.0483 -0.1451,0.0483 m 0.1935,-0.0967 -0.0484,0.0484 m 1.3064,-5.08 -0.0484,-0.0484 m 0.1451,0.0967 -0.0967,-0.0483 m 0.3386,0.0483 h -0.2419 m 0.3387,-0.0483 -0.0968,0.0483 m 0.1452,-0.0967 -0.0484,0.0484 m 0.0967,-0.1452 -0.0483,0.0968 m 0.0483,-0.3387 v 0.2419 m -0.0483,-0.3387 0.0483,0.0968 m -0.0967,-0.1451 0.0484,0.0483 m -0.1452,-0.0967 0.0968,0.0484 m -0.3387,-0.0484 h 0.2419 m -0.3386,0.0484 0.0967,-0.0484 m -0.1451,0.0967 0.0484,-0.0483 m 0,-0.4355 -0.0484,0.4838 m 0.5322,-0.4838 h -0.4838 m -0.9193,0.2419 -0.0967,0.0484 m 0.1935,-0.1451 -0.0968,0.0967 m 0.1936,-0.2419 -0.0968,0.1452 m 0.0968,0.8708 v -1.016 m 0.2902,1.016 h -0.5805 m -0.629,-1.016 0.3386,1.016 m -0.6773,0 0.3387,-1.016 m -0.2419,0.7257 H 42.61 m 1.3063,-2.2497 h 0.6289 m -0.0483,-0.5805 -0.5806,0.5805 m 0.6289,-0.7257 -0.0483,0.1452 m 0.0483,-0.2419 v 0.0967 m -0.0483,-0.1935 0.0483,0.0968 m -0.0967,-0.1452 0.0484,0.0484 m -0.1452,-0.0968 0.0968,0.0484 m -0.3387,-0.0484 h 0.2419 m -0.3386,0.0484 0.0967,-0.0484 m -0.1451,0.0968 0.0484,-0.0484 m -0.9193,0.1935 -0.0967,0.0484 m 0.1935,-0.1451 -0.0968,0.0967 m 0.1936,-0.2419 -0.0968,0.1452 m 0.0968,0.8708 v -1.016 m 0.2902,1.016 h -0.5805 m -0.629,-1.016 0.3386,1.016 m -0.6773,0 0.3387,-1.016 m -0.2419,0.7257 H 42.61 m 1.4514,-3.0238 -0.0967,0.0484 m 0.1935,-0.1451 -0.0968,0.0967 m 0.1936,-0.2419 -0.0968,0.1452 m 0.0968,0.8708 v -1.016 m 0.2902,1.016 h -0.5805 m -0.8709,-0.7741 -0.0967,0.0484 m 0.1935,-0.1451 -0.0968,0.0967 m 0.1936,-0.2419 -0.0968,0.1452 m 0.0968,0.8708 v -1.016 m 0.2902,1.016 h -0.5805 m -0.629,-1.016 0.3386,1.016 m -0.6773,0 0.3387,-1.016 m -0.2419,0.7257 H 42.61 m 1.4998,-3.2173 0.0968,-0.0484 m -0.1452,0.0968 0.0484,-0.0484 m -0.0967,0.1452 0.0483,-0.0968 m -0.0967,0.2903 0.0484,-0.1935 m -0.0484,0.4354 v -0.2419 m 0.0484,0.4354 -0.0484,-0.1935 m 0.0967,0.2903 -0.0483,-0.0968 m 0.0967,0.1452 -0.0484,-0.0484 m 0.1452,0.0967 -0.0968,-0.0483 m 0.1935,0.0483 h -0.0967 m 0.1935,-0.0483 -0.0968,0.0483 m 0.1452,-0.0967 -0.0484,0.0484 m 0.0968,-0.1452 -0.0484,0.0968 m 0.0967,-0.2903 -0.0483,0.1935 m 0.0483,-0.4354 v 0.2419 m -0.0483,-0.4354 0.0483,0.1935 m -0.0967,-0.2903 0.0484,0.0968 m -0.0968,-0.1452 0.0484,0.0484 m -0.1452,-0.0968 0.0968,0.0484 m -0.1935,-0.0484 h 0.0967 m -1.2095,0.2419 -0.0967,0.0484 m 0.1935,-0.1451 -0.0968,0.0967 m 0.1936,-0.2419 -0.0968,0.1452 m 0.0968,0.8708 v -1.016 m 0.2902,1.016 h -0.5805 m -0.629,-1.016 0.3386,1.016 m -0.6773,0 0.3387,-1.016 m -0.2419,0.7257 H 42.61 m 0.9193,-2.7335 0.0483,-0.0967 m -0.0967,0.1451 0.0484,-0.0484 m -0.1452,0.0968 0.0968,-0.0484 m -0.2903,0.0484 h 0.1935 m -0.2903,-0.0484 0.0968,0.0484 m -0.1451,-0.0968 0.0483,0.0484 m -0.0967,-0.1451 0.0484,0.0967 m -0.0484,-0.3386 v 0.2419 m 0.0484,-0.3387 -0.0484,0.0968 m 0.0967,-0.1452 -0.0483,0.0484 m 0.1451,-0.0968 -0.0968,0.0484 m 0.2903,-0.0484 h -0.1935 m 0.2903,0.0484 -0.0968,-0.0484 m 0.1452,0.0968 -0.0484,-0.0484 m 0.0967,0.1452 -0.0483,-0.0968 m 0.0483,0.4838 v -0.387 m -0.0483,0.5805 0.0483,-0.1935 m -0.1451,0.3387 0.0968,-0.1452 m -0.1452,0.1936 0.0484,-0.0484 m -0.1451,0.0967 0.0967,-0.0483 m -0.2903,0.0483 h 0.1936 m -0.9193,-1.016 0.3386,1.016 m -0.6773,0 0.3387,-1.016 m -0.2419,0.7257 H 42.61 m 0.8709,-2.7819 -0.0968,-0.0483 m 0.1452,0.0967 -0.0484,-0.0484 m 0.0967,0.1452 -0.0483,-0.0968 m 0.0483,0.2903 v -0.1935 m -0.0483,0.2903 0.0483,-0.0968 m -0.0967,0.1452 0.0484,-0.0484 m -0.1452,0.0967 0.0968,-0.0483 m -0.2903,0.0483 h 0.1935 m -0.2903,-0.0483 0.0968,0.0483 m -0.1451,-0.0967 0.0483,0.0484 m -0.0967,-0.1452 0.0484,0.0968 m -0.0484,-0.2903 v 0.1935 m 0.0484,-0.2903 -0.0484,0.0968 m 0.0967,-0.1452 -0.0483,0.0484 m 0.1451,-0.0967 -0.0968,0.0483 m 0.2903,-0.0483 h -0.1935 m 0.2903,-0.0484 -0.0968,0.0484 m 0.1452,-0.0968 -0.0484,0.0484 m 0.0967,-0.1452 -0.0483,0.0968 m 0.0483,-0.1451 v 0.0483 m -0.0483,-0.1451 0.0483,0.0968 m -0.0967,-0.1452 0.0484,0.0484 m -0.1452,-0.0968 0.0968,0.0484 m -0.2903,-0.0484 h 0.1935 m -0.2903,0.0484 0.0968,-0.0484 m -0.1451,0.0968 0.0483,-0.0484 m -0.0967,0.1452 0.0484,-0.0968 m -0.0484,0.1451 v -0.0483 m 0.0484,0.1451 -0.0484,-0.0968 m 0.0967,0.1452 -0.0483,-0.0484 m 0.1451,0.0968 -0.0968,-0.0484 m -0.7257,-0.3871 0.3386,1.016 m -0.6773,0 0.3387,-1.016 m -0.2419,0.7257 H 42.61 m 1.016,-3.2657 -0.4354,1.016 m -0.2419,-1.016 h 0.6773 m -1.2579,0 0.3386,1.016 m -0.6773,0 0.3387,-1.016 m -0.2419,0.7257 H 42.61 m 0.4355,-2.7819 -0.0484,0.0968 m 0.0967,-0.1451 -0.0483,0.0483 m 0.1451,-0.0967 -0.0968,0.0484 m 0.2903,-0.0484 h -0.1935 m 0.2903,0.0484 -0.0968,-0.0484 m 0.1452,0.0967 -0.0484,-0.0483 m 0.0967,0.1451 -0.0483,-0.0968 m 0.0483,0.3387 v -0.2419 m -0.0483,0.3387 0.0483,-0.0968 m -0.0967,0.1452 0.0484,-0.0484 m -0.1452,0.0967 0.0968,-0.0483 m -0.2903,0.0483 h 0.1935 m -0.2903,-0.0483 0.0968,0.0483 m -0.1451,-0.0967 0.0483,0.0484 m -0.0967,-0.1452 0.0484,0.0968 M 42.9971,31.808 v 0.387 m 0.0484,-0.5806 -0.0484,0.1936 m 0.1451,-0.3387 -0.0967,0.1451 m 0.1451,-0.1935 -0.0484,0.0484 m 0.1452,-0.0968 -0.0968,0.0484 m 0.2903,-0.0484 h -0.1935 m -0.9193,0 0.3386,1.016 m -0.6773,0 0.3387,-1.016 m -0.2419,0.7257 H 42.61 m 0.4355,-2.298 -0.0484,-0.0484 m 0.1451,0.0967 -0.0967,-0.0483 m 0.3386,0.0483 h -0.2419 m 0.3387,-0.0483 -0.0968,0.0483 m 0.1452,-0.0967 -0.0484,0.0484 m 0.0967,-0.1452 -0.0483,0.0968 m 0.0483,-0.3387 v 0.2419 m -0.0483,-0.3387 0.0483,0.0968 m -0.0967,-0.1451 0.0484,0.0483 m -0.1452,-0.0967 0.0968,0.0484 m -0.3387,-0.0484 h 0.2419 m -0.3386,0.0484 0.0967,-0.0484 m -0.1451,0.0967 0.0484,-0.0483 m 0,-0.4355 -0.0484,0.4838 m 0.5322,-0.4838 h -0.4838 m -0.6774,0 0.3386,1.016 m -0.6773,0 0.3387,-1.016 m -0.2419,0.7257 H 42.61 m 0.3871,-2.5883 h 0.6289 m -0.387,-0.7257 -0.2419,0.7257 m 0.4838,-0.3387 v 0.6773 m -1.1128,-1.016 0.3386,1.016 m -0.6773,0 0.3387,-1.016 m -0.2419,0.7257 H 42.61 m 0.3871,-2.298 -0.0484,-0.0484 m 0.1451,0.0967 -0.0967,-0.0483 m 0.387,0.0483 h -0.2903 m 0.3871,-0.0483 -0.0968,0.0483 m 0.1452,-0.0967 -0.0484,0.0484 m 0.0967,-0.1452 -0.0483,0.0968 m 0.0483,-0.3387 v 0.2419 m -0.0483,-0.3387 0.0483,0.0968 m -0.0967,-0.1451 0.0484,0.0483 m -0.1452,-0.0967 0.0968,0.0484 M 43.239,24.1396 h 0.1451 m 0.1935,-0.3871 -0.3386,0.3871 m -0.2903,-0.3871 h 0.6289 m -1.2095,0 0.3386,1.016 m -0.6773,0 0.3387,-1.016 m -0.2419,0.7257 H 42.61 m 0.3387,-2.2497 h 0.6289 m -0.0483,-0.5805 -0.5806,0.5805 m 0.6289,-0.7257 -0.0483,0.1452 m 0.0483,-0.2419 v 0.0967 m -0.0483,-0.1935 0.0483,0.0968 m -0.0967,-0.1452 0.0484,0.0484 m -0.1452,-0.0968 0.0968,0.0484 m -0.3387,-0.0484 h 0.2419 m -0.3386,0.0484 0.0967,-0.0484 m -0.1451,0.0968 0.0484,-0.0484 m -0.6774,-0.0484 0.3386,1.016 m -0.6773,0 0.3387,-1.016 m -0.2419,0.7257 H 42.61 m 0.4838,-3.0238 -0.0967,0.0484 m 0.1935,-0.1451 -0.0968,0.0967 m 0.1936,-0.2419 -0.0968,0.1452 m 0.0968,0.8708 v -1.016 m 0.2902,1.016 h -0.5805 m -0.629,-1.016 0.3386,1.016 m -0.6773,0 0.3387,-1.016 m -0.2419,0.7257 H 42.61 m 0.5322,-3.2173 0.0968,-0.0484 m -0.1452,0.0968 0.0484,-0.0484 m -0.0967,0.1452 0.0483,-0.0968 m -0.0967,0.2903 0.0484,-0.1935 m -0.0484,0.4354 v -0.2419 m 0.0484,0.4354 -0.0484,-0.1935 m 0.0967,0.2903 -0.0483,-0.0968 m 0.0967,0.1452 -0.0484,-0.0484 m 0.1452,0.0967 -0.0968,-0.0483 m 0.1935,0.0483 H 43.239 m 0.1935,-0.0483 -0.0968,0.0483 m 0.1452,-0.0967 -0.0484,0.0484 m 0.0968,-0.1452 -0.0484,0.0968 m 0.0967,-0.2903 -0.0483,0.1935 m 0.0483,-0.4354 v 0.2419 m -0.0483,-0.4354 0.0483,0.1935 m -0.0967,-0.2903 0.0484,0.0968 m -0.0968,-0.1452 0.0484,0.0484 m -0.1452,-0.0968 0.0968,0.0484 M 43.239,16.1325 h 0.0967 m -0.9676,0 0.3386,1.016 m -0.6773,0 0.3387,-1.016 m -0.2419,0.7257 H 42.61 m 0.7741,-5.3219 h -0.3386 m 0.4354,-0.0483 -0.0968,0.0483 m 0.1452,-0.0967 -0.0484,0.0484 m 0.0967,-0.1452 -0.0483,0.0968 m 0.0483,-0.1935 v 0.0967 m -0.0483,-0.1935 0.0483,0.0968 m -0.0967,-0.1452 0.0484,0.0484 m -0.1452,-0.0968 0.0968,0.0484 m -0.4354,-0.0484 h 0.3386 m -0.3386,1.016 v -1.016 m 0.387,1.016 h -0.387 m 0.4838,-0.0483 -0.0968,0.0483 m 0.1451,-0.0967 -0.0483,0.0484 m 0.0967,-0.1452 -0.0484,0.0968 m 0.0484,-0.2419 v 0.1451 m -0.0484,-0.2419 0.0484,0.0968 m -0.0967,-0.1452 0.0483,0.0484 m -0.1935,-0.0968 0.1452,0.0484 m -1.1612,0.4838 0.3386,-1.016 m -0.6773,0 0.3387,1.016 M 13.1789,4.497 13.1184,4.4365 M 13.2998,4.5574 13.1789,4.497 m 0.4838,0.0604 H 13.2998 M 13.7836,4.497 13.6627,4.5574 M 13.8441,4.4365 13.7836,4.497 m 0.121,-0.1815 -0.0605,0.121 m 0.0605,-0.4234 v 0.3024 m -0.0605,-0.4233 0.0605,0.1209 m -0.121,-0.1814 0.0605,0.0605 m -0.1814,-0.121 0.1209,0.0605 M 13.4812,3.7712 h 0.1815 M 13.9046,3.2874 13.4812,3.7712 M 13.1184,3.2874 h 0.7862 m -1.512,1.27 0.4234,-1.27 m -0.8467,0 0.4233,1.27 M 10.8808,4.497 10.8203,4.4365 M 11.0017,4.5574 10.8808,4.497 m 0.4838,0.0604 H 11.0017 M 11.4855,4.497 11.3646,4.5574 M 11.546,4.4365 11.4855,4.497 m 0.121,-0.1815 -0.0605,0.121 M 11.6065,4.0131 V 4.3155 M 11.546,3.8922 11.6065,4.0131 m -0.121,-0.1814 0.0605,0.0605 m -0.1814,-0.121 0.1209,0.0605 M 11.1831,3.7712 h 0.1815 M 11.6065,3.2874 11.1831,3.7712 M 10.8203,3.2874 h 0.7862 m -1.7539,1.27 V 3.5898 M 9.3688,4.0736 h 0.9677"
       style="fill:none;stroke:#008484;stroke-width:0.246944;stroke-linecap:round;stroke-linejoin:round;stroke-dasharray:none;stroke-opacity:1" />
    <path
       id="path3390"
       style="fill:none;stroke:#008400;stroke-width:0.337682;stroke-linecap:round;stroke-linejoin:round;stroke-dasharray:none;stroke-opacity:1"
       d="m 76.3765,42.0865 h 7.62 m -59.69,-12.7 h 11.43 m 48.26,16.51 v -3.81 m -59.69,-15.24 h 11.43 m 40.64,44.45 h 7.62 m -72.39,-62.23 v 2.54 m 72.39,44.45 v -2.54 m -7.62,17.78 v -6.35 m 7.62,-1.27 v 7.62 m -3.81,-54.61 h -3.81 m -52.07,15.24 h 11.43 m -11.43,2.54 h 11.43 m -35.56,-22.86 v 52.07 m 11.43,-52.07 h -11.43 m 0,52.07 h 35.56 m -11.43,-41.91 h 5.08 m -17.78,20.32 v 29.21 m 0,0 h 64.77 m -46.99,-71.12 h 50.8 m -50.8,21.59 v -21.59 m 50.8,0 v 16.51" />
    <path
       id="path3448"
       style="fill:none;stroke:#000084;stroke-width:0.282222;stroke-linecap:round;stroke-linejoin:round;stroke-dasharray:none;stroke-opacity:1"
       d="m 36.3461,16.0769 -1.2192,1.2192 m 0,-1.2192 1.2192,1.2192 m 0,-6.2992 -1.2192,1.2192 m 0,-1.2192 1.2192,1.2192 m 40.64,34.3408 -1.2192,1.2192 m 0,-1.2192 1.2192,1.2192 m -40.64,1.3208 -1.2192,1.2192 m 0,-1.2192 1.2192,1.2192 m 0,-3.7592 -1.2192,1.2192 m 0,-1.2192 1.2192,1.2192 m 0,8.9408 -1.2192,1.2192 m 0,-1.2192 1.2192,1.2192 m 0,-3.7592 -1.2192,1.2192 m 0,-1.2192 1.2192,1.2192 m 40.64,-18.9992 -1.2192,1.2192 m 0,-1.2192 1.2192,1.2192 m 0,-6.2992 -1.2192,1.2192 m 0,-1.2192 1.2192,1.2192 m -40.64,-13.9192 -1.2192,1.2192 m 0,-1.2192 1.2192,1.2192 m 40.64,14.0208 -1.2192,1.2192 m 0,-1.2192 1.2192,1.2192 m 0,-6.2992 -1.2192,1.2192 m 0,-1.2192 1.2192,1.2192 m 0,-6.2992 -1.2192,1.2192 m 0,-1.2192 1.2192,1.2192 m 0,-6.2992 -1.2192,1.2192 m 0,-1.2192 1.2192,1.2192 m 0,1.3208 -1.2192,1.2192 m 0,-1.2192 1.2192,1.2192 m 0,-11.3792 -1.2192,1.2192 m 0,-1.2192 1.2192,1.2192 m 0,26.7208 -1.2192,1.2192 m 0,-1.2192 1.2192,1.2192 m 0,8.9408 -1.2192,1.2192 m 0,-1.2192 1.2192,1.2192 m 0,1.3208 -1.2192,1.2192 m 0,-1.2192 1.2192,1.2192 m 0,-8.8392 -1.2192,1.2192 m 0,-1.2192 1.2192,1.2192 m 0,-18.9992 -1.2192,1.2192 m 0,-1.2192 1.2192,1.2192 m -52.07,-8.8392 -1.2192,1.2192 m 0,-1.2192 1.2192,1.2192 m 11.43,1.3208 -1.2192,1.2192 m 0,-1.2192 1.2192,1.2192 m 0,16.5608 -1.2192,1.2192 m 0,-1.2192 1.2192,1.2192 m 0,1.3208 -1.2192,1.2192 m 0,-1.2192 1.2192,1.2192 m 0,1.3208 -1.2192,1.2192 m 0,-1.2192 1.2192,1.2192 m 0,-8.8392 -1.2192,1.2192 m 0,-1.2192 1.2192,1.2192 m 0,-13.9192 -1.2192,1.2192 m 0,-1.2192 1.2192,1.2192 m 0,34.3408 -1.2192,1.2192 m 0,-1.2192 1.2192,1.2192" />
    <circle
       cx="76.376503"
       cy="71.296501"
       r="0.45719999"
       id="circle3448"
       style="fill:#008400;fill-opacity:1;stroke:#008400;stroke-width:0.1524;stroke-linecap:round;stroke-linejoin:round;stroke-opacity:1" />
    <circle
       cx="11.606497"
       cy="11.606499"
       r="0.45719999"
       id="circle3449"
       style="fill:#008400;fill-opacity:1;stroke:#008400;stroke-width:0.1524;stroke-linecap:round;stroke-linejoin:round;stroke-opacity:1" />
  </g>
  <metadata
     id="metadata3450">
    <rdf:RDF>
      <cc:Work
         rdf:about="">
        <dc:title>SVG Image created as transceiver.svg date 2026/03/26 19:13:23 </dc:title>
      </cc:Work>
    </rdf:RDF>
  </metadata>
</svg>
