<?xml version="1.0" encoding="UTF-8" standalone="no"?>
<!-- Created with Inkscape (http://www.inkscape.org/) -->

<svg
   width="217.569mm"
   height="140.429mm"
   viewBox="0 0 217.569 140.429"
   version="1.1"
   id="svg1"
   sodipodi:docname="balanced_modulator.svg"
   inkscape:export-filename="balanced_modulator.pdf"
   inkscape:export-xdpi="96"
   inkscape:export-ydpi="96"
   xmlns:inkscape="http://www.inkscape.org/namespaces/inkscape"
   xmlns:sodipodi="http://sodipodi.sourceforge.net/DTD/sodipodi-0.dtd"
   xmlns="http://www.w3.org/2000/svg"
   xmlns:svg="http://www.w3.org/2000/svg">
  <sodipodi:namedview
     id="namedview1"
     pagecolor="#ffffff"
     bordercolor="#eeeeeeff"
     borderopacity="1"
     inkscape:showpageshadow="0"
     inkscape:pageopacity="0"
     inkscape:pagecheckerboard="0"
     inkscape:deskcolor="#505050ff"
     inkscape:document-units="mm"
     showgrid="false"
     inkscape:zoom="0.51587483"
     inkscape:cx="385.75249"
     inkscape:cy="101.76887"
     inkscape:window-width="1098"
     inkscape:window-height="791"
     inkscape:window-maximized="0"
     inkscape:current-layer="layer1" />
  <defs
     id="defs1">
    <marker
       style="overflow:visible"
       id="Triangle"
       refX="0"
       refY="0"
       orient="auto-start-reverse"
       inkscape:stockid="Triangle arrow"
       markerWidth="1"
       markerHeight="1"
       viewBox="0 0 1 1"
       inkscape:isstock="true"
       inkscape:collect="always"
       preserveAspectRatio="xMidYMid">
      <path
         transform="scale(0.5)"
         style="fill:context-stroke;fill-rule:evenodd;stroke:context-stroke;stroke-width:1pt"
         d="M 5.77,0 -2.88,5 V -5 Z"
         id="path135" />
    </marker>
    <marker
       style="overflow:visible"
       id="marker13"
       refX="0"
       refY="0"
       orient="auto-start-reverse"
       inkscape:stockid="Triangle arrow"
       markerWidth="1"
       markerHeight="1"
       viewBox="0 0 1 1"
       inkscape:isstock="true"
       inkscape:collect="always"
       preserveAspectRatio="xMidYMid">
      <path
         transform="scale(0.5)"
         style="fill:context-stroke;fill-rule:evenodd;stroke:context-stroke;stroke-width:1pt"
         d="M 5.77,0 -2.88,5 V -5 Z"
         id="path13" />
    </marker>
    <g
       id="g2020">
      <g
         id="g3040">
        <path
           d="m 3.953125,-3.78125 c -0.171875,0 -0.296875,0 -0.4375,0.125 -0.171875,0.15625 -0.1875,0.328125 -0.1875,0.390625 0,0.25 0.1875,0.359375 0.375,0.359375 0.28125,0 0.546875,-0.25 0.546875,-0.640625 0,-0.484375 -0.46875,-0.859375 -1.171875,-0.859375 -1.34375,0 -2.671875,1.421875 -2.671875,2.828125 0,0.90625 0.578125,1.6875 1.625,1.6875 1.421875,0 2.25,-1.0625 2.25,-1.171875 0,-0.0625 -0.046875,-0.140625 -0.109375,-0.140625 -0.0625,0 -0.078125,0.03125 -0.140625,0.109375 -0.78125,0.984375 -1.875,0.984375 -1.984375,0.984375 -0.625,0 -0.90625,-0.484375 -0.90625,-1.09375 0,-0.40625 0.203125,-1.375 0.546875,-1.984375 0.3125,-0.578125 0.859375,-1 1.40625,-1 0.328125,0 0.71875,0.125 0.859375,0.40625 z m 0,0"
           id="path3929" />
      </g>
      <g
         id="g4252">
        <path
           d="m 2.046875,-3.984375 h 0.9375 c 0.203125,0 0.3125,0 0.3125,-0.203125 0,-0.109375 -0.109375,-0.109375 -0.28125,-0.109375 h -0.875 C 2.5,-5.71875 2.546875,-5.90625 2.546875,-5.96875 c 0,-0.171875 -0.125,-0.265625 -0.296875,-0.265625 -0.03125,0 -0.3125,0 -0.390625,0.359375 L 1.46875,-4.296875 h -0.9375 c -0.203125,0 -0.296875,0 -0.296875,0.1875 0,0.125 0.078125,0.125 0.28125,0.125 h 0.875 C 0.671875,-1.15625 0.625,-0.984375 0.625,-0.8125 0.625,-0.265625 1,0.109375 1.546875,0.109375 2.5625,0.109375 3.125,-1.34375 3.125,-1.421875 3.125,-1.53125 3.046875,-1.53125 3.015625,-1.53125 2.921875,-1.53125 2.90625,-1.5 2.859375,-1.390625 2.4375,-0.34375 1.90625,-0.109375 1.5625,-0.109375 c -0.203125,0 -0.3125,-0.125 -0.3125,-0.453125 0,-0.25 0.03125,-0.3125 0.0625,-0.484375 z m 0,0"
           id="path7173" />
      </g>
      <g
         id="g9114">
        <path
           d="M 1.78125,-1.140625 C 1.390625,-0.484375 1,-0.34375 0.5625,-0.3125 0.4375,-0.296875 0.34375,-0.296875 0.34375,-0.109375 0.34375,-0.046875 0.40625,0 0.484375,0 0.75,0 1.0625,-0.03125 1.328125,-0.03125 c 0.34375,0 0.6875,0.03125 1,0.03125 0.0625,0 0.1875,0 0.1875,-0.1875 0,-0.109375 -0.078125,-0.125 -0.15625,-0.125 -0.21875,-0.015625 -0.46875,-0.09375 -0.46875,-0.34375 0,-0.125 0.0625,-0.234375 0.140625,-0.375 l 0.765625,-1.265625 h 2.5 c 0.015625,0.203125 0.15625,1.5625 0.15625,1.65625 0,0.296875 -0.515625,0.328125 -0.71875,0.328125 C 4.59375,-0.3125 4.5,-0.3125 4.5,-0.109375 4.5,0 4.609375,0 4.640625,0 5.046875,0 5.46875,-0.03125 5.875,-0.03125 6.125,-0.03125 6.765625,0 7.015625,0 7.0625,0 7.1875,0 7.1875,-0.203125 7.1875,-0.3125 7.09375,-0.3125 6.953125,-0.3125 6.34375,-0.3125 6.34375,-0.375 6.3125,-0.671875 l -0.609375,-6.21875 c -0.015625,-0.203125 -0.015625,-0.25 -0.1875,-0.25 -0.15625,0 -0.203125,0.078125 -0.265625,0.171875 z M 2.984375,-2.609375 4.9375,-5.90625 5.265625,-2.609375 Z m 0,0"
           id="path6869" />
      </g>
      <g
         id="g9781">
        <path
           d="m 2.640625,-3.71875 h 1.125 C 3.4375,-2.25 3.34375,-1.8125 3.34375,-1.140625 c 0,0.140625 0,0.40625 0.078125,0.75 0.109375,0.4375 0.21875,0.5 0.359375,0.5 0.203125,0 0.421875,-0.171875 0.421875,-0.375 0,-0.0625 0,-0.078125 -0.0625,-0.21875 -0.296875,-0.71875 -0.296875,-1.375 -0.296875,-1.65625 0,-0.515625 0.078125,-1.0625 0.1875,-1.578125 h 1.125 c 0.140625,0 0.5,0 0.5,-0.34375 0,-0.234375 -0.21875,-0.234375 -0.40625,-0.234375 H 1.90625 c -0.21875,0 -0.59375,0 -1.03125,0.46875 -0.34375,0.390625 -0.609375,0.84375 -0.609375,0.890625 0,0.015625 0,0.109375 0.125,0.109375 0.078125,0 0.09375,-0.046875 0.15625,-0.125 C 1.03125,-3.71875 1.609375,-3.71875 1.8125,-3.71875 H 2.375 C 2.0625,-2.515625 1.53125,-1.3125 1.109375,-0.40625 1.03125,-0.25 1.03125,-0.234375 1.03125,-0.15625 c 0,0.1875 0.15625,0.265625 0.28125,0.265625 0.296875,0 0.375,-0.28125 0.5,-0.640625 C 1.953125,-1 1.953125,-1.015625 2.078125,-1.515625 Z m 0,0"
           id="path7361" />
      </g>
      <g
         id="g714">
        <path
           d="m 3.65625,-3.984375 h 0.859375 c 0.203125,0 0.296875,0 0.296875,-0.203125 0,-0.109375 -0.09375,-0.109375 -0.265625,-0.109375 H 3.71875 L 3.921875,-5.4375 c 0.046875,-0.203125 0.1875,-0.90625 0.25,-1.03125 0.078125,-0.1875 0.25,-0.34375 0.46875,-0.34375 0.03125,0 0.296875,0 0.484375,0.1875 -0.4375,0.03125 -0.546875,0.390625 -0.546875,0.53125 0,0.234375 0.1875,0.359375 0.375,0.359375 C 5.21875,-5.734375 5.5,-5.96875 5.5,-6.34375 c 0,-0.453125 -0.453125,-0.6875 -0.859375,-0.6875 -0.34375,0 -0.96875,0.1875 -1.265625,1.171875 -0.0625,0.203125 -0.09375,0.3125 -0.328125,1.5625 h -0.6875 c -0.203125,0 -0.3125,0 -0.3125,0.1875 0,0.125 0.09375,0.125 0.28125,0.125 h 0.65625 L 2.25,-0.046875 c -0.1875,0.96875 -0.359375,1.875 -0.875,1.875 -0.046875,0 -0.28125,0 -0.484375,-0.1875 C 1.359375,1.609375 1.453125,1.25 1.453125,1.109375 1.453125,0.875 1.265625,0.75 1.078125,0.75 0.8125,0.75 0.53125,0.984375 0.53125,1.359375 c 0,0.4375 0.4375,0.6875 0.84375,0.6875 0.546875,0 0.953125,-0.59375 1.125,-0.96875 0.328125,-0.625 0.546875,-1.828125 0.5625,-1.90625 z m 0,0"
           id="path3383" />
      </g>
      <g
         id="g8627">
        <path
           d="m 3.296875,2.390625 c 0,-0.03125 0,-0.046875 -0.171875,-0.21875 C 1.890625,0.921875 1.5625,-0.96875 1.5625,-2.5 c 0,-1.734375 0.375,-3.46875 1.609375,-4.703125 0.125,-0.125 0.125,-0.140625 0.125,-0.171875 0,-0.078125 -0.03125,-0.109375 -0.09375,-0.109375 -0.109375,0 -1,0.6875 -1.59375,1.953125 -0.5,1.09375 -0.625,2.203125 -0.625,3.03125 0,0.78125 0.109375,1.984375 0.65625,3.125 C 2.25,1.84375 3.09375,2.5 3.203125,2.5 c 0.0625,0 0.09375,-0.03125 0.09375,-0.109375 z m 0,0"
           id="path5771" />
      </g>
      <g
         id="g7586">
        <path
           d="m 4.578125,-3.1875 c 0,-0.796875 -0.046875,-1.59375 -0.390625,-2.328125 -0.453125,-0.96875 -1.28125,-1.125 -1.6875,-1.125 -0.609375,0 -1.328125,0.265625 -1.75,1.1875 -0.3125,0.6875 -0.359375,1.46875 -0.359375,2.265625 0,0.75 0.03125,1.640625 0.453125,2.40625 0.421875,0.796875 1.15625,1 1.640625,1 0.53125,0 1.296875,-0.203125 1.734375,-1.15625 0.3125,-0.6875 0.359375,-1.46875 0.359375,-2.25 z M 2.484375,0 C 2.09375,0 1.5,-0.25 1.328125,-1.203125 1.21875,-1.796875 1.21875,-2.71875 1.21875,-3.3125 c 0,-0.640625 0,-1.296875 0.078125,-1.828125 0.1875,-1.1875 0.9375,-1.28125 1.1875,-1.28125 0.328125,0 0.984375,0.1875 1.171875,1.171875 0.109375,0.5625 0.109375,1.3125 0.109375,1.9375 0,0.75 0,1.421875 -0.109375,2.0625 C 3.5,-0.296875 2.9375,0 2.484375,0 Z m 0,0"
           id="path2251" />
      </g>
      <g
         id="g6663">
        <path
           d="m 6.84375,-3.265625 c 0.15625,0 0.34375,0 0.34375,-0.1875 C 7.1875,-3.65625 7,-3.65625 6.859375,-3.65625 h -5.96875 c -0.140625,0 -0.328125,0 -0.328125,0.203125 0,0.1875 0.1875,0.1875 0.328125,0.1875 z m 0.015625,1.9375 c 0.140625,0 0.328125,0 0.328125,-0.203125 0,-0.1875 -0.1875,-0.1875 -0.34375,-0.1875 H 0.890625 c -0.140625,0 -0.328125,0 -0.328125,0.1875 0,0.203125 0.1875,0.203125 0.328125,0.203125 z m 0,0"
           id="path8657" />
      </g>
      <g
         id="g7691">
        <path
           d="m 1.171875,-2.171875 c 0,-1.625 0.8125,-2.046875 1.34375,-2.046875 0.09375,0 0.71875,0.015625 1.0625,0.375 -0.40625,0.03125 -0.46875,0.328125 -0.46875,0.453125 0,0.265625 0.1875,0.453125 0.453125,0.453125 0.265625,0 0.46875,-0.15625 0.46875,-0.46875 0,-0.671875 -0.765625,-1.0625 -1.53125,-1.0625 -1.25,0 -2.15625,1.078125 -2.15625,2.3125 0,1.28125 0.984375,2.265625 2.140625,2.265625 1.328125,0 1.65625,-1.203125 1.65625,-1.296875 0,-0.09375 -0.109375,-0.09375 -0.140625,-0.09375 -0.078125,0 -0.109375,0.03125 -0.125,0.09375 -0.28125,0.921875 -0.9375,1.046875 -1.296875,1.046875 -0.53125,0 -1.40625,-0.421875 -1.40625,-2.03125 z m 0,0"
           id="path7111" />
      </g>
      <g
         id="g2145">
        <path
           d="M 4.6875,-2.140625 C 4.6875,-3.40625 3.703125,-4.46875 2.5,-4.46875 c -1.25,0 -2.21875,1.09375 -2.21875,2.328125 0,1.296875 1.03125,2.25 2.203125,2.25 1.203125,0 2.203125,-0.984375 2.203125,-2.25 z m -2.1875,2 c -0.4375,0 -0.875,-0.203125 -1.140625,-0.671875 -0.25,-0.4375 -0.25,-1.046875 -0.25,-1.40625 0,-0.390625 0,-0.921875 0.234375,-1.359375 C 1.609375,-4.03125 2.078125,-4.25 2.484375,-4.25 c 0.4375,0 0.859375,0.21875 1.125,0.65625 0.265625,0.421875 0.265625,1 0.265625,1.375 0,0.359375 0,0.90625 -0.21875,1.34375 C 3.421875,-0.421875 2.984375,-0.140625 2.5,-0.140625 Z m 0,0"
           id="path7837" />
      </g>
      <g
         id="g9937">
        <path
           d="m 2.078125,-1.9375 c 0.21875,0.046875 1.03125,0.203125 1.03125,0.921875 0,0.5 -0.34375,0.90625 -1.125,0.90625 -0.84375,0 -1.203125,-0.5625 -1.390625,-1.421875 C 0.5625,-1.65625 0.5625,-1.6875 0.453125,-1.6875 c -0.125,0 -0.125,0.0625 -0.125,0.234375 V -0.125 c 0,0.171875 0,0.234375 0.109375,0.234375 0.046875,0 0.0625,-0.015625 0.25,-0.203125 0.015625,-0.015625 0.015625,-0.03125 0.203125,-0.21875 0.4375,0.40625 0.890625,0.421875 1.09375,0.421875 1.140625,0 1.609375,-0.671875 1.609375,-1.390625 0,-0.515625 -0.296875,-0.828125 -0.421875,-0.9375 C 2.84375,-2.546875 2.453125,-2.625 2.03125,-2.703125 1.46875,-2.8125 0.8125,-2.9375 0.8125,-3.515625 c 0,-0.359375 0.25,-0.765625 1.109375,-0.765625 1.09375,0 1.15625,0.90625 1.171875,1.203125 0,0.09375 0.09375,0.09375 0.109375,0.09375 0.140625,0 0.140625,-0.046875 0.140625,-0.234375 v -1.015625 c 0,-0.15625 0,-0.234375 -0.109375,-0.234375 -0.046875,0 -0.078125,0 -0.203125,0.125 -0.03125,0.03125 -0.125,0.125 -0.171875,0.15625 -0.375,-0.28125 -0.78125,-0.28125 -0.9375,-0.28125 -1.21875,0 -1.59375,0.671875 -1.59375,1.234375 0,0.34375 0.15625,0.625 0.421875,0.84375 0.328125,0.25 0.609375,0.3125 1.328125,0.453125 z m 0,0"
           id="path8857" />
      </g>
      <g
         id="g626">
        <path
           d="m 1.265625,-0.765625 1.0625,-1.03125 c 1.546875,-1.375 2.140625,-1.90625 2.140625,-2.90625 0,-1.140625 -0.890625,-1.9375 -2.109375,-1.9375 -1.125,0 -1.859375,0.921875 -1.859375,1.8125 0,0.546875 0.5,0.546875 0.53125,0.546875 0.171875,0 0.515625,-0.109375 0.515625,-0.53125 0,-0.25 -0.1875,-0.515625 -0.53125,-0.515625 -0.078125,0 -0.09375,0 -0.125,0.015625 0.21875,-0.65625 0.765625,-1.015625 1.34375,-1.015625 0.90625,0 1.328125,0.8125 1.328125,1.625 C 3.5625,-3.90625 3.078125,-3.125 2.515625,-2.5 l -1.90625,2.125 C 0.5,-0.265625 0.5,-0.234375 0.5,0 H 4.203125 L 4.46875,-1.734375 H 4.234375 C 4.171875,-1.4375 4.109375,-1 4,-0.84375 3.9375,-0.765625 3.28125,-0.765625 3.0625,-0.765625 Z m 0,0"
           id="path1860" />
      </g>
      <g
         id="g311">
        <path
           d="m 2.875,-2.5 c 0,-0.765625 -0.109375,-1.96875 -0.65625,-3.109375 -0.59375,-1.21875 -1.453125,-1.875 -1.546875,-1.875 -0.0625,0 -0.109375,0.046875 -0.109375,0.109375 0,0.03125 0,0.046875 0.1875,0.234375 0.984375,0.984375 1.546875,2.5625 1.546875,4.640625 0,1.71875 -0.359375,3.46875 -1.59375,4.71875 C 0.5625,2.34375 0.5625,2.359375 0.5625,2.390625 0.5625,2.453125 0.609375,2.5 0.671875,2.5 0.765625,2.5 1.671875,1.8125 2.25,0.546875 2.765625,-0.546875 2.875,-1.65625 2.875,-2.5 Z m 0,0"
           id="path7074" />
      </g>
      <g
         id="g5207">
        <path
           d="m 3.046875,-2.671875 c -0.25,0.046875 -0.34375,0.234375 -0.34375,0.390625 0,0.1875 0.140625,0.265625 0.265625,0.265625 0.15625,0 0.390625,-0.109375 0.390625,-0.453125 0,-0.46875 -0.53125,-0.609375 -0.90625,-0.609375 -1.046875,0 -2.015625,0.96875 -2.015625,1.9375 0,0.59375 0.40625,1.203125 1.28125,1.203125 1.1875,0 1.734375,-0.6875 1.734375,-0.78125 0,-0.046875 -0.0625,-0.125 -0.125,-0.125 -0.03125,0 -0.046875,0.015625 -0.109375,0.078125 C 2.671875,-0.125 1.859375,-0.125 1.734375,-0.125 c -0.5,0 -0.71875,-0.34375 -0.71875,-0.78125 0,-0.1875 0.09375,-0.953125 0.453125,-1.4375 0.265625,-0.34375 0.625,-0.53125 0.984375,-0.53125 0.09375,0 0.421875,0.015625 0.59375,0.203125 z m 0,0"
           id="path4432" />
      </g>
    </g>
    <g
       id="g8630">
      <g
         id="g2899">
        <path
           d="m 3.953125,-3.78125 c -0.171875,0 -0.296875,0 -0.4375,0.125 -0.171875,0.15625 -0.1875,0.328125 -0.1875,0.390625 0,0.25 0.1875,0.359375 0.375,0.359375 0.28125,0 0.546875,-0.25 0.546875,-0.640625 0,-0.484375 -0.46875,-0.859375 -1.171875,-0.859375 -1.34375,0 -2.671875,1.421875 -2.671875,2.828125 0,0.90625 0.578125,1.6875 1.625,1.6875 1.421875,0 2.25,-1.0625 2.25,-1.171875 0,-0.0625 -0.046875,-0.140625 -0.109375,-0.140625 -0.0625,0 -0.078125,0.03125 -0.140625,0.109375 -0.78125,0.984375 -1.875,0.984375 -1.984375,0.984375 -0.625,0 -0.90625,-0.484375 -0.90625,-1.09375 0,-0.40625 0.203125,-1.375 0.546875,-1.984375 0.3125,-0.578125 0.859375,-1 1.40625,-1 0.328125,0 0.71875,0.125 0.859375,0.40625 z m 0,0"
           id="path1617" />
      </g>
      <g
         id="g8279">
        <path
           d="m 2.046875,-3.984375 h 0.9375 c 0.203125,0 0.3125,0 0.3125,-0.203125 0,-0.109375 -0.109375,-0.109375 -0.28125,-0.109375 h -0.875 C 2.5,-5.71875 2.546875,-5.90625 2.546875,-5.96875 c 0,-0.171875 -0.125,-0.265625 -0.296875,-0.265625 -0.03125,0 -0.3125,0 -0.390625,0.359375 L 1.46875,-4.296875 h -0.9375 c -0.203125,0 -0.296875,0 -0.296875,0.1875 0,0.125 0.078125,0.125 0.28125,0.125 h 0.875 C 0.671875,-1.15625 0.625,-0.984375 0.625,-0.8125 0.625,-0.265625 1,0.109375 1.546875,0.109375 2.5625,0.109375 3.125,-1.34375 3.125,-1.421875 3.125,-1.53125 3.046875,-1.53125 3.015625,-1.53125 2.921875,-1.53125 2.90625,-1.5 2.859375,-1.390625 2.4375,-0.34375 1.90625,-0.109375 1.5625,-0.109375 c -0.203125,0 -0.3125,-0.125 -0.3125,-0.453125 0,-0.25 0.03125,-0.3125 0.0625,-0.484375 z m 0,0"
           id="path474" />
      </g>
      <g
         id="g9490">
        <path
           d="M 1.78125,-1.140625 C 1.390625,-0.484375 1,-0.34375 0.5625,-0.3125 0.4375,-0.296875 0.34375,-0.296875 0.34375,-0.109375 0.34375,-0.046875 0.40625,0 0.484375,0 0.75,0 1.0625,-0.03125 1.328125,-0.03125 c 0.34375,0 0.6875,0.03125 1,0.03125 0.0625,0 0.1875,0 0.1875,-0.1875 0,-0.109375 -0.078125,-0.125 -0.15625,-0.125 -0.21875,-0.015625 -0.46875,-0.09375 -0.46875,-0.34375 0,-0.125 0.0625,-0.234375 0.140625,-0.375 l 0.765625,-1.265625 h 2.5 c 0.015625,0.203125 0.15625,1.5625 0.15625,1.65625 0,0.296875 -0.515625,0.328125 -0.71875,0.328125 C 4.59375,-0.3125 4.5,-0.3125 4.5,-0.109375 4.5,0 4.609375,0 4.640625,0 5.046875,0 5.46875,-0.03125 5.875,-0.03125 6.125,-0.03125 6.765625,0 7.015625,0 7.0625,0 7.1875,0 7.1875,-0.203125 7.1875,-0.3125 7.09375,-0.3125 6.953125,-0.3125 6.34375,-0.3125 6.34375,-0.375 6.3125,-0.671875 l -0.609375,-6.21875 c -0.015625,-0.203125 -0.015625,-0.25 -0.1875,-0.25 -0.15625,0 -0.203125,0.078125 -0.265625,0.171875 z M 2.984375,-2.609375 4.9375,-5.90625 5.265625,-2.609375 Z m 0,0"
           id="path1638" />
      </g>
      <g
         id="g179">
        <path
           d="m 2.640625,-3.71875 h 1.125 C 3.4375,-2.25 3.34375,-1.8125 3.34375,-1.140625 c 0,0.140625 0,0.40625 0.078125,0.75 0.109375,0.4375 0.21875,0.5 0.359375,0.5 0.203125,0 0.421875,-0.171875 0.421875,-0.375 0,-0.0625 0,-0.078125 -0.0625,-0.21875 -0.296875,-0.71875 -0.296875,-1.375 -0.296875,-1.65625 0,-0.515625 0.078125,-1.0625 0.1875,-1.578125 h 1.125 c 0.140625,0 0.5,0 0.5,-0.34375 0,-0.234375 -0.21875,-0.234375 -0.40625,-0.234375 H 1.90625 c -0.21875,0 -0.59375,0 -1.03125,0.46875 -0.34375,0.390625 -0.609375,0.84375 -0.609375,0.890625 0,0.015625 0,0.109375 0.125,0.109375 0.078125,0 0.09375,-0.046875 0.15625,-0.125 C 1.03125,-3.71875 1.609375,-3.71875 1.8125,-3.71875 H 2.375 C 2.0625,-2.515625 1.53125,-1.3125 1.109375,-0.40625 1.03125,-0.25 1.03125,-0.234375 1.03125,-0.15625 c 0,0.1875 0.15625,0.265625 0.28125,0.265625 0.296875,0 0.375,-0.28125 0.5,-0.640625 C 1.953125,-1 1.953125,-1.015625 2.078125,-1.515625 Z m 0,0"
           id="path4723" />
      </g>
      <g
         id="g4228">
        <path
           d="m 3.65625,-3.984375 h 0.859375 c 0.203125,0 0.296875,0 0.296875,-0.203125 0,-0.109375 -0.09375,-0.109375 -0.265625,-0.109375 H 3.71875 L 3.921875,-5.4375 c 0.046875,-0.203125 0.1875,-0.90625 0.25,-1.03125 0.078125,-0.1875 0.25,-0.34375 0.46875,-0.34375 0.03125,0 0.296875,0 0.484375,0.1875 -0.4375,0.03125 -0.546875,0.390625 -0.546875,0.53125 0,0.234375 0.1875,0.359375 0.375,0.359375 C 5.21875,-5.734375 5.5,-5.96875 5.5,-6.34375 c 0,-0.453125 -0.453125,-0.6875 -0.859375,-0.6875 -0.34375,0 -0.96875,0.1875 -1.265625,1.171875 -0.0625,0.203125 -0.09375,0.3125 -0.328125,1.5625 h -0.6875 c -0.203125,0 -0.3125,0 -0.3125,0.1875 0,0.125 0.09375,0.125 0.28125,0.125 h 0.65625 L 2.25,-0.046875 c -0.1875,0.96875 -0.359375,1.875 -0.875,1.875 -0.046875,0 -0.28125,0 -0.484375,-0.1875 C 1.359375,1.609375 1.453125,1.25 1.453125,1.109375 1.453125,0.875 1.265625,0.75 1.078125,0.75 0.8125,0.75 0.53125,0.984375 0.53125,1.359375 c 0,0.4375 0.4375,0.6875 0.84375,0.6875 0.546875,0 0.953125,-0.59375 1.125,-0.96875 0.328125,-0.625 0.546875,-1.828125 0.5625,-1.90625 z m 0,0"
           id="path9239" />
      </g>
      <g
         id="g7894">
        <path
           d="m 3.296875,2.390625 c 0,-0.03125 0,-0.046875 -0.171875,-0.21875 C 1.890625,0.921875 1.5625,-0.96875 1.5625,-2.5 c 0,-1.734375 0.375,-3.46875 1.609375,-4.703125 0.125,-0.125 0.125,-0.140625 0.125,-0.171875 0,-0.078125 -0.03125,-0.109375 -0.09375,-0.109375 -0.109375,0 -1,0.6875 -1.59375,1.953125 -0.5,1.09375 -0.625,2.203125 -0.625,3.03125 0,0.78125 0.109375,1.984375 0.65625,3.125 C 2.25,1.84375 3.09375,2.5 3.203125,2.5 c 0.0625,0 0.09375,-0.03125 0.09375,-0.109375 z m 0,0"
           id="path7589" />
      </g>
      <g
         id="g4015">
        <path
           d="m 2.875,-2.5 c 0,-0.765625 -0.109375,-1.96875 -0.65625,-3.109375 -0.59375,-1.21875 -1.453125,-1.875 -1.546875,-1.875 -0.0625,0 -0.109375,0.046875 -0.109375,0.109375 0,0.03125 0,0.046875 0.1875,0.234375 0.984375,0.984375 1.546875,2.5625 1.546875,4.640625 0,1.71875 -0.359375,3.46875 -1.59375,4.71875 C 0.5625,2.34375 0.5625,2.359375 0.5625,2.390625 0.5625,2.453125 0.609375,2.5 0.671875,2.5 0.765625,2.5 1.671875,1.8125 2.25,0.546875 2.765625,-0.546875 2.875,-1.65625 2.875,-2.5 Z m 0,0"
           id="path9493" />
      </g>
      <g
         id="g6195">
        <path
           d="m 6.84375,-3.265625 c 0.15625,0 0.34375,0 0.34375,-0.1875 C 7.1875,-3.65625 7,-3.65625 6.859375,-3.65625 h -5.96875 c -0.140625,0 -0.328125,0 -0.328125,0.203125 0,0.1875 0.1875,0.1875 0.328125,0.1875 z m 0.015625,1.9375 c 0.140625,0 0.328125,0 0.328125,-0.203125 0,-0.1875 -0.1875,-0.1875 -0.34375,-0.1875 H 0.890625 c -0.140625,0 -0.328125,0 -0.328125,0.1875 0,0.203125 0.1875,0.203125 0.328125,0.203125 z m 0,0"
           id="path6334" />
      </g>
      <g
         id="g3921">
        <path
           d="m 1.171875,-2.171875 c 0,-1.625 0.8125,-2.046875 1.34375,-2.046875 0.09375,0 0.71875,0.015625 1.0625,0.375 -0.40625,0.03125 -0.46875,0.328125 -0.46875,0.453125 0,0.265625 0.1875,0.453125 0.453125,0.453125 0.265625,0 0.46875,-0.15625 0.46875,-0.46875 0,-0.671875 -0.765625,-1.0625 -1.53125,-1.0625 -1.25,0 -2.15625,1.078125 -2.15625,2.3125 0,1.28125 0.984375,2.265625 2.140625,2.265625 1.328125,0 1.65625,-1.203125 1.65625,-1.296875 0,-0.09375 -0.109375,-0.09375 -0.140625,-0.09375 -0.078125,0 -0.109375,0.03125 -0.125,0.09375 -0.28125,0.921875 -0.9375,1.046875 -1.296875,1.046875 -0.53125,0 -1.40625,-0.421875 -1.40625,-2.03125 z m 0,0"
           id="path339" />
      </g>
      <g
         id="g4645">
        <path
           d="M 4.6875,-2.140625 C 4.6875,-3.40625 3.703125,-4.46875 2.5,-4.46875 c -1.25,0 -2.21875,1.09375 -2.21875,2.328125 0,1.296875 1.03125,2.25 2.203125,2.25 1.203125,0 2.203125,-0.984375 2.203125,-2.25 z m -2.1875,2 c -0.4375,0 -0.875,-0.203125 -1.140625,-0.671875 -0.25,-0.4375 -0.25,-1.046875 -0.25,-1.40625 0,-0.390625 0,-0.921875 0.234375,-1.359375 C 1.609375,-4.03125 2.078125,-4.25 2.484375,-4.25 c 0.4375,0 0.859375,0.21875 1.125,0.65625 0.265625,0.421875 0.265625,1 0.265625,1.375 0,0.359375 0,0.90625 -0.21875,1.34375 C 3.421875,-0.421875 2.984375,-0.140625 2.5,-0.140625 Z m 0,0"
           id="path2953" />
      </g>
      <g
         id="g6705">
        <path
           d="m 2.078125,-1.9375 c 0.21875,0.046875 1.03125,0.203125 1.03125,0.921875 0,0.5 -0.34375,0.90625 -1.125,0.90625 -0.84375,0 -1.203125,-0.5625 -1.390625,-1.421875 C 0.5625,-1.65625 0.5625,-1.6875 0.453125,-1.6875 c -0.125,0 -0.125,0.0625 -0.125,0.234375 V -0.125 c 0,0.171875 0,0.234375 0.109375,0.234375 0.046875,0 0.0625,-0.015625 0.25,-0.203125 0.015625,-0.015625 0.015625,-0.03125 0.203125,-0.21875 0.4375,0.40625 0.890625,0.421875 1.09375,0.421875 1.140625,0 1.609375,-0.671875 1.609375,-1.390625 0,-0.515625 -0.296875,-0.828125 -0.421875,-0.9375 C 2.84375,-2.546875 2.453125,-2.625 2.03125,-2.703125 1.46875,-2.8125 0.8125,-2.9375 0.8125,-3.515625 c 0,-0.359375 0.25,-0.765625 1.109375,-0.765625 1.09375,0 1.15625,0.90625 1.171875,1.203125 0,0.09375 0.09375,0.09375 0.109375,0.09375 0.140625,0 0.140625,-0.046875 0.140625,-0.234375 v -1.015625 c 0,-0.15625 0,-0.234375 -0.109375,-0.234375 -0.046875,0 -0.078125,0 -0.203125,0.125 -0.03125,0.03125 -0.125,0.125 -0.171875,0.15625 -0.375,-0.28125 -0.78125,-0.28125 -0.9375,-0.28125 -1.21875,0 -1.59375,0.671875 -1.59375,1.234375 0,0.34375 0.15625,0.625 0.421875,0.84375 0.328125,0.25 0.609375,0.3125 1.328125,0.453125 z m 0,0"
           id="path6592" />
      </g>
      <g
         id="g699">
        <path
           d="m 1.265625,-0.765625 1.0625,-1.03125 c 1.546875,-1.375 2.140625,-1.90625 2.140625,-2.90625 0,-1.140625 -0.890625,-1.9375 -2.109375,-1.9375 -1.125,0 -1.859375,0.921875 -1.859375,1.8125 0,0.546875 0.5,0.546875 0.53125,0.546875 0.171875,0 0.515625,-0.109375 0.515625,-0.53125 0,-0.25 -0.1875,-0.515625 -0.53125,-0.515625 -0.078125,0 -0.09375,0 -0.125,0.015625 0.21875,-0.65625 0.765625,-1.015625 1.34375,-1.015625 0.90625,0 1.328125,0.8125 1.328125,1.625 C 3.5625,-3.90625 3.078125,-3.125 2.515625,-2.5 l -1.90625,2.125 C 0.5,-0.265625 0.5,-0.234375 0.5,0 H 4.203125 L 4.46875,-1.734375 H 4.234375 C 4.171875,-1.4375 4.109375,-1 4,-0.84375 3.9375,-0.765625 3.28125,-0.765625 3.0625,-0.765625 Z m 0,0"
           id="path2751" />
      </g>
      <g
         id="g3257">
        <path
           d="m 3.046875,-2.671875 c -0.25,0.046875 -0.34375,0.234375 -0.34375,0.390625 0,0.1875 0.140625,0.265625 0.265625,0.265625 0.15625,0 0.390625,-0.109375 0.390625,-0.453125 0,-0.46875 -0.53125,-0.609375 -0.90625,-0.609375 -1.046875,0 -2.015625,0.96875 -2.015625,1.9375 0,0.59375 0.40625,1.203125 1.28125,1.203125 1.1875,0 1.734375,-0.6875 1.734375,-0.78125 0,-0.046875 -0.0625,-0.125 -0.125,-0.125 -0.03125,0 -0.046875,0.015625 -0.109375,0.078125 C 2.671875,-0.125 1.859375,-0.125 1.734375,-0.125 c -0.5,0 -0.71875,-0.34375 -0.71875,-0.78125 0,-0.1875 0.09375,-0.953125 0.453125,-1.4375 0.265625,-0.34375 0.625,-0.53125 0.984375,-0.53125 0.09375,0 0.421875,0.015625 0.59375,0.203125 z m 0,0"
           id="path2624" />
      </g>
    </g>
    <g
       id="g3363">
      <g
         id="g4322">
        <path
           d="m 12.625,13.953125 1.203125,-3.1875 h -0.25 c -0.390625,1.03125 -1.453125,1.71875 -2.59375,2.015625 -0.203125,0.04687 -1.1875,0.3125 -3.09375,0.3125 H 1.875 L 6.953125,7.140625 C 7.015625,7.0625 7.03125,7.03125 7.03125,6.984375 c 0,-0.03125 0,-0.0625 -0.0625,-0.15625 L 2.328125,0.484375 H 7.78125 c 1.34375,0 2.25,0.140625 2.34375,0.15625 0.53125,0.078125 1.40625,0.25 2.1875,0.75 0.25,0.15625 0.921875,0.609375 1.265625,1.40625 h 0.25 L 12.625,0 H 0.84375 c -0.234375,0 -0.25,0.015625 -0.28125,0.0625 0,0.03125 0,0.234375 0,0.34375 l 5.265625,7.203125 -5.15625,6.0625 C 0.5625,13.78125 0.5625,13.84375 0.5625,13.84375 c 0,0.109375 0.09375,0.109375 0.28125,0.109375 z m 0,0"
           id="path712" />
      </g>
    </g>
  </defs>
  <g
     inkscape:label="Layer 1"
     inkscape:groupmode="layer"
     id="layer1"
     transform="translate(-18.813114,-71.800343)">
    <text
       xml:space="preserve"
       style="font-weight:bold;font-size:8.65984px;line-height:1.25;font-family:'Gentium Basic';-inkscape-font-specification:'Gentium Basic, Bold';text-align:center;text-anchor:middle;fill:#000000;stroke:none;stroke-width:0.38915"
       x="96.780569"
       y="89.494533"
       id="text1"><tspan
         sodipodi:role="line"
         id="tspan1"
         style="fill:#000000;stroke:none;stroke-width:0.38915"
         x="96.780569"
         y="89.494533">AM</tspan><tspan
         sodipodi:role="line"
         style="fill:#000000;stroke:none;stroke-width:0.38915"
         x="96.780567"
         y="100.31933"
         id="tspan2">Modulator</tspan></text>
    <rect
       style="fill:none;stroke:#000000;stroke-width:0.8;stroke-dasharray:none"
       id="rect2"
       width="47.453346"
       height="29.971187"
       x="73.106756"
       y="77.200343" />
    <text
       xml:space="preserve"
       style="font-weight:bold;font-size:8.65984px;line-height:1.25;font-family:'Gentium Basic';-inkscape-font-specification:'Gentium Basic, Bold';text-align:center;text-anchor:middle;fill:#000000;stroke:none;stroke-width:0.38915"
       x="96.780569"
       y="189.15253"
       id="text4"><tspan
         sodipodi:role="line"
         id="tspan3"
         style="fill:#000000;stroke:none;stroke-width:0.38915"
         x="96.780569"
         y="189.15253">AM</tspan><tspan
         sodipodi:role="line"
         style="fill:#000000;stroke:none;stroke-width:0.38915"
         x="96.780567"
         y="199.97733"
         id="tspan4">Modulator</tspan></text>
    <rect
       style="fill:none;stroke:#000000;stroke-width:0.8;stroke-dasharray:none"
       id="rect4"
       width="47.453346"
       height="29.971187"
       x="73.106756"
       y="176.85834" />
    <text
       xml:space="preserve"
       style="font-weight:bold;font-size:8.4072px;line-height:1.25;font-family:'Gentium Basic';-inkscape-font-specification:'Gentium Basic, Bold';text-align:center;text-anchor:middle;fill:#000000;stroke:none;stroke-width:0.377797"
       x="44.108279"
       y="142.72639"
       id="text7"><tspan
         sodipodi:role="line"
         style="fill:#000000;stroke:none;stroke-width:0.377797"
         x="44.108279"
         y="142.72639"
         id="tspan7">Local</tspan><tspan
         sodipodi:role="line"
         style="fill:#000000;stroke:none;stroke-width:0.377797"
         x="44.108279"
         y="153.23539"
         id="tspan8">Oscillator</tspan></text>
    <rect
       style="fill:none;stroke:#000000;stroke-width:0.8;stroke-dasharray:none"
       id="rect7"
       width="39.901165"
       height="30.020547"
       x="24.213114"
       y="129.85076" />
    <path
       style="fill:none;stroke:black;stroke-width:0.8;stroke-linecap:butt;stroke-linejoin:miter;stroke-dasharray:none;stroke-opacity:1"
       d="M 64.11428,144.86103 H 96.646933"
       id="path10" />
    <path
       style="fill:none;stroke:black;stroke-width:0.8;stroke-linecap:butt;stroke-linejoin:miter;stroke-dasharray:none;stroke-opacity:1;marker-start:url(#Triangle);marker-end:url(#Triangle)"
       d="m 96.833429,110.29582 v 63.70382"
       id="path11"
       sodipodi:nodetypes="cc" />
    <path
       style="fill:none;stroke:black;stroke-width:0.8;stroke-linecap:butt;stroke-linejoin:miter;stroke-dasharray:none;stroke-opacity:1;marker-end:url(#marker13)"
       d="m 36.495709,92.630268 h 33.96521"
       id="path12" />
    <path
       style="fill:none;stroke:black;stroke-width:0.8;stroke-linecap:butt;stroke-linejoin:miter;stroke-dasharray:none;stroke-opacity:1;marker-end:url(#marker13)"
       d="M 36.18173,191.55591 H 70.14694"
       id="path14" />
    <text
       xml:space="preserve"
       style="font-weight:bold;font-size:9.83553px;line-height:1.25;font-family:'Gentium Basic';-inkscape-font-specification:'Gentium Basic, Bold';fill:#000000;stroke-width:0.44198;stroke:none"
       x="36.265189"
       y="90.313461"
       id="text14"><tspan
         sodipodi:role="line"
         id="tspan14"
         style="stroke-width:0.44198;stroke:none"
         x="36.265189"
         y="90.313461">m(t)</tspan></text>
    <text
       xml:space="preserve"
       style="font-weight:bold;font-size:9.83553px;line-height:1.25;font-family:'Gentium Basic';-inkscape-font-specification:'Gentium Basic, Bold';fill:#000000;stroke-width:0.44198;stroke:none"
       x="37.755644"
       y="187.35126"
       id="text15"><tspan
         sodipodi:role="line"
         id="tspan15"
         style="stroke-width:0.44198;stroke:none"
         x="37.755644"
         y="187.35126">-m(t)</tspan></text>
    <text
       xml:space="preserve"
       style="font-weight:bold;font-size:5.88785px;line-height:1.25;font-family:'Gentium Basic';-inkscape-font-specification:'Gentium Basic, Bold';fill:#000000;stroke-width:0.264583;stroke:none"
       x="98.294381"
       y="140.36192"
       id="text16"><tspan
         sodipodi:role="line"
         id="tspan16"
         style="stroke-width:0.264583;stroke:none"
         x="98.294381"
         y="140.36192" /></text>
    <path
       d="m 102.69851,140.98615 c -0.1154,0 -0.19933,0 -0.29375,0.0839 -0.1154,0.10491 -0.12589,0.22031 -0.12589,0.26227 0,0.16786 0.12589,0.2413 0.25178,0.2413 0.18884,0 0.36719,-0.16786 0.36719,-0.43014 0,-0.32522 -0.31473,-0.57701 -0.78683,-0.57701 -0.90224,0 -1.79399,0.95469 -1.79399,1.8989 0,0.60848 0.38818,1.13304 1.09108,1.13304 0.9547,0 1.51073,-0.7134 1.51073,-0.78684 0,-0.042 -0.0315,-0.0944 -0.0734,-0.0944 -0.042,0 -0.0525,0.021 -0.0944,0.0734 -0.52456,0.66094 -1.25894,0.66094 -1.33238,0.66094 -0.41964,0 -0.60848,-0.32522 -0.60848,-0.73438 0,-0.27277 0.13638,-0.92322 0.36719,-1.33237 0.20982,-0.38817 0.57701,-0.67143 0.9442,-0.67143 0.22031,0 0.48259,0.0839 0.57701,0.27277 z m 0,0"
       id="path29"
       style="fill:#000000;fill-opacity:1;stroke:#000000;stroke-width:0.1;stroke-dasharray:none" />
    <path
       d="m 105.15297,145.13014 c 0,-0.021 0,-0.0315 -0.1154,-0.14687 -0.8288,-0.83929 -1.04911,-2.10872 -1.04911,-3.13685 0,-1.16452 0.25179,-2.32903 1.08058,-3.15783 0.0839,-0.0839 0.0839,-0.0944 0.0839,-0.1154 0,-0.0525 -0.021,-0.0734 -0.063,-0.0734 -0.0734,0 -0.67143,0.46161 -1.07009,1.31139 -0.33572,0.73438 -0.41965,1.47925 -0.41965,2.03528 0,0.52456 0.0734,1.33237 0.44063,2.09823 0.40916,0.8183 0.97568,1.25893 1.04911,1.25893 0.042,0 0.063,-0.021 0.063,-0.0734 z m 0,0"
       id="path30-1"
       style="fill:#000000;fill-opacity:1;stroke:#000000;stroke-width:0.1;stroke-dasharray:none" />
    <path
       d="m 106.91512,140.84976 h 0.62947 c 0.13638,0 0.20982,0 0.20982,-0.13638 0,-0.0734 -0.0734,-0.0734 -0.18884,-0.0734 h -0.5875 c 0.24129,-0.95469 0.27277,-1.08059 0.27277,-1.12255 0,-0.1154 -0.0839,-0.17835 -0.19934,-0.17835 -0.021,0 -0.20982,0 -0.26227,0.24129 l -0.26228,1.05961 h -0.62947 c -0.13639,0 -0.19933,0 -0.19933,0.12589 0,0.0839 0.0525,0.0839 0.18884,0.0839 h 0.5875 c -0.48259,1.8989 -0.51406,2.0143 -0.51406,2.1297 0,0.36719 0.25178,0.61898 0.61897,0.61898 0.68193,0 1.05961,-0.97568 1.05961,-1.02813 0,-0.0734 -0.0525,-0.0734 -0.0734,-0.0734 -0.063,0 -0.0734,0.021 -0.10491,0.0944 -0.28327,0.70291 -0.63996,0.86027 -0.87077,0.86027 -0.13638,0 -0.20982,-0.0839 -0.20982,-0.30424 0,-0.16786 0.021,-0.20982 0.042,-0.32523 z m 0,0"
       id="path31-1"
       style="fill:#000000;fill-opacity:1;stroke:#000000;stroke-width:0.1;stroke-dasharray:none" />
    <path
       d="m 109.88662,141.84642 c 0,-0.51407 -0.0734,-1.32188 -0.44062,-2.08774 -0.39867,-0.8183 -0.97568,-1.25893 -1.03863,-1.25893 -0.042,0 -0.0734,0.0315 -0.0734,0.0734 0,0.021 0,0.0315 0.1259,0.15736 0.66094,0.66094 1.03862,1.72055 1.03862,3.11587 0,1.15402 -0.2413,2.32903 -1.0701,3.16832 -0.0944,0.0839 -0.0944,0.0944 -0.0944,0.1154 0,0.042 0.0315,0.0734 0.0734,0.0734 0.063,0 0.67144,-0.46161 1.05961,-1.31139 0.34621,-0.73438 0.41964,-1.47925 0.41964,-2.04577 z m 0,0"
       id="path32-1"
       style="fill:#000000;fill-opacity:1;stroke:#000000;stroke-width:0.1;stroke-dasharray:none" />
    <path
       d="m 117.01241,141.33235 c 0.10491,0 0.2308,0 0.2308,-0.12589 0,-0.13638 -0.12589,-0.13638 -0.22031,-0.13638 h -4.00762 c -0.0944,0 -0.22031,0 -0.22031,0.13638 0,0.12589 0.12589,0.12589 0.22031,0.12589 z m 0.0105,1.3009 c 0.0944,0 0.22031,0 0.22031,-0.13638 0,-0.12589 -0.12589,-0.12589 -0.2308,-0.12589 h -3.99713 c -0.0944,0 -0.22031,0 -0.22031,0.12589 0,0.13638 0.12589,0.13638 0.22031,0.13638 z m 0,0"
       id="path33-1"
       style="fill:#000000;fill-opacity:1;stroke:#000000;stroke-width:0.1;stroke-dasharray:none" />
    <path
       d="m 120.66906,142.75915 c -0.26228,0.44062 -0.52456,0.53505 -0.81831,0.55603 -0.0839,0.0105 -0.14688,0.0105 -0.14688,0.13638 0,0.042 0.042,0.0734 0.0944,0.0734 0.17834,0 0.38817,-0.021 0.56652,-0.021 0.2308,0 0.46161,0.021 0.67143,0.021 0.042,0 0.12589,0 0.12589,-0.12589 0,-0.0734 -0.0524,-0.0839 -0.10491,-0.0839 -0.14688,-0.0105 -0.31473,-0.063 -0.31473,-0.23081 0,-0.0839 0.042,-0.15736 0.0944,-0.25178 l 0.51406,-0.84979 h 1.67858 c 0.0105,0.13639 0.10491,1.04912 0.10491,1.11206 0,0.19934 -0.3462,0.22032 -0.48259,0.22032 -0.0944,0 -0.15736,0 -0.15736,0.13638 0,0.0734 0.0734,0.0734 0.0944,0.0734 0.27277,0 0.55603,-0.021 0.8288,-0.021 0.16785,0 0.59799,0.021 0.76585,0.021 0.0315,0 0.1154,0 0.1154,-0.13638 0,-0.0734 -0.063,-0.0734 -0.15737,-0.0734 -0.40915,0 -0.40915,-0.042 -0.43013,-0.2413 l -0.40916,-4.17547 c -0.0105,-0.13638 -0.0105,-0.16786 -0.12589,-0.16786 -0.10491,0 -0.13639,0.0525 -0.17835,0.11541 z m 0.80782,-0.98617 1.31139,-2.21363 0.22031,2.21363 z m 0,0"
       id="path34-1"
       style="fill:#000000;fill-opacity:1;stroke:#000000;stroke-width:0.1;stroke-dasharray:none" />
    <path
       d="m 126.53889,142.73414 c -0.16786,0.0315 -0.2308,0.15736 -0.2308,0.26227 0,0.1259 0.0944,0.17835 0.17834,0.17835 0.10492,0 0.26228,-0.0734 0.26228,-0.30424 0,-0.31473 -0.3567,-0.40915 -0.60848,-0.40915 -0.70291,0 -1.35336,0.65045 -1.35336,1.3009 0,0.39866 0.27277,0.80781 0.86027,0.80781 0.79733,0 1.16452,-0.46161 1.16452,-0.52455 0,-0.0315 -0.042,-0.0839 -0.0839,-0.0839 -0.021,0 -0.0315,0.0105 -0.0734,0.0524 -0.36719,0.43014 -0.91273,0.43014 -0.99665,0.43014 -0.33572,0 -0.4826,-0.2308 -0.4826,-0.52456 0,-0.12589 0.063,-0.63995 0.30425,-0.96518 0.17835,-0.2308 0.41964,-0.3567 0.66094,-0.3567 0.0629,0 0.28326,0.0105 0.39866,0.13639 z m 0,0"
       id="path35-1"
       style="fill:#000000;fill-opacity:1;stroke:#000000;stroke-width:0.1;stroke-dasharray:none" />
    <path
       d="m 129.11987,142.06673 c 0,-1.09107 0.54554,-1.37434 0.90224,-1.37434 0.063,0 0.48259,0.0105 0.7134,0.25179 -0.27277,0.021 -0.31474,0.22032 -0.31474,0.30424 0,0.17835 0.1259,0.30425 0.30425,0.30425 0.17835,0 0.31473,-0.10491 0.31473,-0.31474 0,-0.45112 -0.51406,-0.71339 -1.02813,-0.71339 -0.83929,0 -1.44778,0.72388 -1.44778,1.55268 0,0.86028 0.66095,1.52122 1.43729,1.52122 0.89175,0 1.11206,-0.80782 1.11206,-0.87077 0,-0.0629 -0.0734,-0.0629 -0.0944,-0.0629 -0.0525,0 -0.0734,0.021 -0.0839,0.0629 -0.18884,0.61898 -0.62947,0.70291 -0.87076,0.70291 -0.3567,0 -0.94421,-0.28326 -0.94421,-1.36385 z m 0,0"
       id="path36-1"
       style="fill:#000000;fill-opacity:1;stroke:#000000;stroke-width:0.1;stroke-dasharray:none" />
    <path
       d="m 134.45307,142.08772 c 0,-0.84979 -0.66094,-1.56318 -1.46876,-1.56318 -0.83929,0 -1.48974,0.73438 -1.48974,1.56318 0,0.87076 0.69241,1.51072 1.47925,1.51072 0.80782,0 1.47925,-0.66094 1.47925,-1.51072 z m -1.46876,1.34286 c -0.29375,0 -0.5875,-0.13638 -0.76585,-0.45112 -0.16786,-0.29375 -0.16786,-0.7029 -0.16786,-0.9442 0,-0.26228 0,-0.61898 0.15737,-0.91273 0.17835,-0.30424 0.49308,-0.45112 0.76585,-0.45112 0.29375,0 0.57701,0.14688 0.75536,0.44063 0.17835,0.28326 0.17835,0.67143 0.17835,0.92322 0,0.2413 0,0.60849 -0.14688,0.90224 -0.15736,0.30424 -0.45111,0.49308 -0.77634,0.49308 z m 0,0"
       id="path37-1"
       style="fill:#000000;fill-opacity:1;stroke:#000000;stroke-width:0.1;stroke-dasharray:none" />
    <path
       d="m 136.04565,142.2241 c 0.14688,0.0315 0.69241,0.13638 0.69241,0.61898 0,0.33571 -0.2308,0.60848 -0.75536,0.60848 -0.56652,0 -0.80781,-0.37768 -0.93371,-0.95469 -0.021,-0.0839 -0.021,-0.10491 -0.0944,-0.10491 -0.0839,0 -0.0839,0.042 -0.0839,0.15736 v 0.89175 c 0,0.1154 0,0.15737 0.0734,0.15737 0.0315,0 0.042,-0.0105 0.16786,-0.13639 0.0105,-0.0105 0.0105,-0.021 0.13638,-0.14687 0.29376,0.27277 0.598,0.28326 0.73438,0.28326 0.76586,0 1.08059,-0.45112 1.08059,-0.93371 0,-0.34621 -0.19933,-0.55603 -0.28326,-0.62947 -0.22031,-0.22031 -0.48259,-0.27277 -0.76585,-0.32523 -0.37768,-0.0734 -0.81831,-0.15736 -0.81831,-0.54553 0,-0.2413 0.16786,-0.51407 0.74487,-0.51407 0.73438,0 0.77634,0.60849 0.78683,0.80782 0,0.0629 0.063,0.0629 0.0734,0.0629 0.0944,0 0.0944,-0.0315 0.0944,-0.15736 v -0.68193 c 0,-0.10491 0,-0.15736 -0.0734,-0.15736 -0.0315,0 -0.0524,0 -0.13638,0.0839 -0.021,0.021 -0.0839,0.0839 -0.1154,0.10491 -0.25179,-0.18884 -0.52456,-0.18884 -0.62947,-0.18884 -0.81831,0 -1.0701,0.45112 -1.0701,0.8288 0,0.2308 0.10492,0.41964 0.28326,0.56652 0.22032,0.16786 0.40916,0.20982 0.89175,0.30424 z m 0,0"
       id="path38-1"
       style="fill:#000000;fill-opacity:1;stroke:#000000;stroke-width:0.1;stroke-dasharray:none" />
    <path
       d="m 139.50219,145.13014 c 0,-0.021 0,-0.0315 -0.1154,-0.14687 -0.8288,-0.83929 -1.04912,-2.10872 -1.04912,-3.13685 0,-1.16452 0.25179,-2.32903 1.08059,-3.15783 0.0839,-0.0839 0.0839,-0.0944 0.0839,-0.1154 0,-0.0525 -0.021,-0.0734 -0.063,-0.0734 -0.0734,0 -0.67143,0.46161 -1.07009,1.31139 -0.33572,0.73438 -0.41965,1.47925 -0.41965,2.03528 0,0.52456 0.0734,1.33237 0.44063,2.09823 0.40915,0.8183 0.97567,1.25893 1.04911,1.25893 0.042,0 0.063,-0.021 0.063,-0.0734 z m 0,0"
       id="path39-1"
       style="fill:#000000;fill-opacity:1;stroke:#000000;stroke-width:0.1;stroke-dasharray:none" />
    <path
       d="m 140.73977,143.01093 0.7134,-0.69241 c 1.03862,-0.92322 1.43728,-1.27992 1.43728,-1.95135 0,-0.76585 -0.59799,-1.3009 -1.4163,-1.3009 -0.75536,0 -1.24844,0.61898 -1.24844,1.21697 0,0.36719 0.33571,0.36719 0.35669,0.36719 0.11541,0 0.34621,-0.0734 0.34621,-0.3567 0,-0.16786 -0.12589,-0.34621 -0.3567,-0.34621 -0.0524,0 -0.0629,0 -0.0839,0.0105 0.14688,-0.44063 0.51407,-0.68193 0.90224,-0.68193 0.60849,0 0.89175,0.54554 0.89175,1.09108 0,0.53505 -0.32523,1.0596 -0.70291,1.47925 l -1.27992,1.42679 c -0.0734,0.0734 -0.0734,0.0944 -0.0734,0.25179 h 2.48639 l 0.17835,-1.16452 h -0.15736 c -0.042,0.19934 -0.0839,0.49309 -0.15737,0.598 -0.042,0.0524 -0.48259,0.0524 -0.62947,0.0524 z m 0,0"
       id="path40-1"
       style="fill:#000000;fill-opacity:1;stroke:#000000;stroke-width:0.1;stroke-dasharray:none" />
    <path
       d="m 145.0076,141.02811 h 0.75536 c -0.22031,0.98617 -0.28326,1.27992 -0.28326,1.73104 0,0.0944 0,0.27277 0.0525,0.50357 0.0734,0.29375 0.14687,0.33572 0.24129,0.33572 0.13639,0 0.28326,-0.1154 0.28326,-0.25179 0,-0.042 0,-0.0525 -0.042,-0.14688 -0.19933,-0.48259 -0.19933,-0.92321 -0.19933,-1.11205 0,-0.34621 0.0525,-0.7134 0.12589,-1.05961 h 0.75536 c 0.0944,0 0.33572,0 0.33572,-0.2308 0,-0.15737 -0.14688,-0.15737 -0.27277,-0.15737 h -2.2451 c -0.14688,0 -0.39867,0 -0.69242,0.31473 -0.2308,0.26228 -0.40915,0.56652 -0.40915,0.598 0,0.0105 0,0.0734 0.0839,0.0734 0.0524,0 0.063,-0.0315 0.10491,-0.0839 0.32522,-0.51407 0.7134,-0.51407 0.84978,-0.51407 h 0.37768 c -0.20982,0.80782 -0.56652,1.61564 -0.84978,2.22412 -0.0525,0.10491 -0.0525,0.1154 -0.0525,0.16786 0,0.12589 0.10492,0.17835 0.18884,0.17835 0.19934,0 0.25179,-0.18884 0.33572,-0.43014 0.0944,-0.31473 0.0944,-0.32522 0.17835,-0.66094 z m 0,0"
       id="path41-1"
       style="fill:#000000;fill-opacity:1;stroke:#000000;stroke-width:0.1;stroke-dasharray:none" />
    <path
       d="m 149.74318,140.84976 h 0.57702 c 0.13638,0 0.19933,0 0.19933,-0.13638 0,-0.0734 -0.063,-0.0734 -0.17835,-0.0734 h -0.55603 l 0.13638,-0.76585 c 0.0315,-0.13639 0.1259,-0.60849 0.16786,-0.69242 0.0525,-0.12589 0.16786,-0.2308 0.31474,-0.2308 0.021,0 0.19933,0 0.32522,0.12589 -0.29375,0.021 -0.36719,0.26228 -0.36719,0.3567 0,0.15737 0.12589,0.2413 0.25179,0.2413 0.17835,0 0.36719,-0.15737 0.36719,-0.40916 0,-0.30424 -0.30424,-0.46161 -0.57701,-0.46161 -0.23081,0 -0.65045,0.12589 -0.84979,0.78684 -0.042,0.13638 -0.0629,0.20982 -0.22031,1.04911 h -0.46161 c -0.13638,0 -0.20982,0 -0.20982,0.12589 0,0.0839 0.0629,0.0839 0.18884,0.0839 h 0.44063 l -0.49309,2.64377 c -0.12589,0.65045 -0.24129,1.25893 -0.5875,1.25893 -0.0315,0 -0.18884,0 -0.32523,-0.12589 0.31474,-0.021 0.37769,-0.26228 0.37769,-0.3567 0,-0.15737 -0.1259,-0.2413 -0.25179,-0.2413 -0.17835,0 -0.36719,0.15737 -0.36719,0.40916 0,0.29375 0.29375,0.46161 0.56652,0.46161 0.36719,0 0.63996,-0.39866 0.75536,-0.65045 0.22031,-0.41965 0.36719,-1.22746 0.37768,-1.27992 z m 0,0"
       id="path42-1"
       style="fill:#000000;fill-opacity:1;stroke:#000000;stroke-width:0.1;stroke-dasharray:none" />
    <path
       d="m 152.6086,142.73414 c -0.16786,0.0315 -0.2308,0.15736 -0.2308,0.26227 0,0.1259 0.0944,0.17835 0.17834,0.17835 0.10492,0 0.26228,-0.0734 0.26228,-0.30424 0,-0.31473 -0.3567,-0.40915 -0.60848,-0.40915 -0.70291,0 -1.35336,0.65045 -1.35336,1.3009 0,0.39866 0.27277,0.80781 0.86027,0.80781 0.79733,0 1.16452,-0.46161 1.16452,-0.52455 0,-0.0315 -0.042,-0.0839 -0.0839,-0.0839 -0.021,0 -0.0315,0.0105 -0.0734,0.0524 -0.36719,0.43014 -0.91273,0.43014 -0.99665,0.43014 -0.33572,0 -0.4826,-0.2308 -0.4826,-0.52456 0,-0.12589 0.063,-0.63995 0.30425,-0.96518 0.17835,-0.2308 0.41964,-0.3567 0.66094,-0.3567 0.0629,0 0.28326,0.0105 0.39866,0.13639 z m 0,0"
       id="path43-1"
       style="fill:#000000;fill-opacity:1;stroke:#000000;stroke-width:0.1;stroke-dasharray:none" />
    <path
       d="m 154.66251,140.84976 h 0.62947 c 0.13638,0 0.20982,0 0.20982,-0.13638 0,-0.0734 -0.0734,-0.0734 -0.18884,-0.0734 h -0.58751 c 0.2413,-0.95469 0.27277,-1.08059 0.27277,-1.12255 0,-0.1154 -0.0839,-0.17835 -0.19933,-0.17835 -0.021,0 -0.20982,0 -0.26228,0.24129 l -0.26227,1.05961 h -0.62947 c -0.13639,0 -0.19933,0 -0.19933,0.12589 0,0.0839 0.0524,0.0839 0.18884,0.0839 h 0.5875 c -0.48259,1.8989 -0.51406,2.0143 -0.51406,2.1297 0,0.36719 0.25178,0.61898 0.61897,0.61898 0.68193,0 1.05961,-0.97568 1.05961,-1.02813 0,-0.0734 -0.0525,-0.0734 -0.0734,-0.0734 -0.063,0 -0.0734,0.021 -0.10491,0.0944 -0.28326,0.70291 -0.63996,0.86027 -0.87077,0.86027 -0.13638,0 -0.20982,-0.0839 -0.20982,-0.30424 0,-0.16786 0.021,-0.20982 0.042,-0.32523 z m 0,0"
       id="path44-1"
       style="fill:#000000;fill-opacity:1;stroke:#000000;stroke-width:0.1;stroke-dasharray:none" />
    <path
       d="m 157.63401,141.84642 c 0,-0.51407 -0.0734,-1.32188 -0.44063,-2.08774 -0.39866,-0.8183 -0.97567,-1.25893 -1.03862,-1.25893 -0.042,0 -0.0734,0.0315 -0.0734,0.0734 0,0.021 0,0.0315 0.12589,0.15736 0.66095,0.66094 1.03863,1.72055 1.03863,3.11587 0,1.15402 -0.2413,2.32903 -1.0701,3.16832 -0.0944,0.0839 -0.0944,0.0944 -0.0944,0.1154 0,0.042 0.0315,0.0734 0.0734,0.0734 0.063,0 0.67143,-0.46161 1.0596,-1.31139 0.34621,-0.73438 0.41965,-1.47925 0.41965,-2.04577 z m 0,0"
       id="path45-1"
       style="fill:#000000;fill-opacity:1;stroke:#000000;stroke-width:0.1;stroke-dasharray:none" />
    <circle
       style="fill:none;stroke:#000000;stroke-width:0.8;stroke-dasharray:none"
       id="path2"
       cx="184.19129"
       cy="141.32249"
       r="10.463522" />
    <path
       d="m 187.85958,146.06903 0.81857,-2.1687 h -0.17009 c -0.26577,0.70164 -0.98867,1.1694 -1.76473,1.37138 -0.1382,0.0319 -0.80794,0.21262 -2.10491,0.21262 h -4.09289 l 3.45504,-4.05036 c 0.0425,-0.0532 0.0531,-0.0744 0.0531,-0.10631 0,-0.0213 0,-0.0425 -0.0425,-0.10631 l -3.15737,-4.31613 h 3.71017 c 0.91426,0 1.53085,0.0957 1.59464,0.10631 0.36145,0.0532 0.95677,0.17009 1.48832,0.51028 0.17009,0.10631 0.62722,0.4146 0.8611,0.95678 h 0.17009 l -0.81857,-1.90293 h -8.01568 c -0.15947,0 -0.1701,0.0106 -0.19136,0.0425 0,0.0213 0,0.15947 0,0.23388 l 3.58261,4.90084 -3.50819,4.12477 c -0.0744,0.0744 -0.0744,0.11694 -0.0744,0.11694 0,0.0744 0.0638,0.0744 0.19136,0.0744 z m 0,0"
       id="path2-1"
       style="fill:#000000;fill-opacity:1;stroke:#000000;stroke-width:0.2;stroke-dasharray:none" />
    <path
       style="fill:none;stroke:black;stroke-width:0.8;stroke-linecap:butt;stroke-linejoin:miter;stroke-dasharray:none;stroke-opacity:1;marker-end:url(#Triangle)"
       d="m 120.61965,89.232698 h 62.65919 v 39.070662"
       id="path1"
       sodipodi:nodetypes="ccc" />
    <path
       style="fill:none;stroke:black;stroke-width:0.8;stroke-linecap:butt;stroke-linejoin:miter;stroke-dasharray:none;stroke-opacity:1;marker-end:url(#Triangle)"
       d="m 120.61965,193.63405 h 62.65919 v -39.07068"
       id="path3"
       sodipodi:nodetypes="ccc" />
    <text
       xml:space="preserve"
       style="font-style:normal;font-variant:normal;font-weight:normal;font-stretch:normal;font-size:15.5476px;line-height:1.25;font-family:'Asana Math';-inkscape-font-specification:'Asana Math, Normal';font-variant-ligatures:normal;font-variant-caps:normal;font-variant-numeric:normal;font-variant-east-asian:normal;fill:#000000;stroke-width:0.698664;stroke:none"
       x="176.25952"
       y="124.9909"
       id="text5"
       transform="scale(0.98678157,1.0133955)"><tspan
         sodipodi:role="line"
         id="tspan5"
         style="font-style:normal;font-variant:normal;font-weight:normal;font-stretch:normal;font-size:15.5476px;font-family:'Gentium Basic';-inkscape-font-specification:'Gentium Basic, Normal';font-variant-ligatures:normal;font-variant-caps:normal;font-variant-numeric:normal;font-variant-east-asian:normal;stroke-width:0.698664;stroke:none"
         x="176.25952"
         y="124.9909">+</tspan></text>
    <text
       xml:space="preserve"
       style="font-style:normal;font-variant:normal;font-weight:normal;font-stretch:normal;font-size:11.6587px;line-height:1.25;font-family:'Gentium Basic';-inkscape-font-specification:'Gentium Basic, Normal';font-variant-ligatures:normal;font-variant-caps:normal;font-variant-numeric:normal;font-variant-east-asian:normal;fill:#000000;stroke-width:0.523907;stroke:none"
       x="177.64227"
       y="159.34147"
       id="text6"
       transform="scale(0.98678157,1.0133955)"><tspan
         sodipodi:role="line"
         id="tspan6"
         style="font-style:normal;font-variant:normal;font-weight:normal;font-stretch:normal;font-size:11.6587px;font-family:'Gentium Basic';-inkscape-font-specification:'Gentium Basic, Normal';font-variant-ligatures:normal;font-variant-caps:normal;font-variant-numeric:normal;font-variant-east-asian:normal;stroke-width:0.523907;stroke:none"
         x="177.64227"
         y="159.34147">-</tspan></text>
    <path
       style="fill:none;stroke:black;stroke-width:0.8;stroke-linecap:butt;stroke-linejoin:miter;stroke-dasharray:none;stroke-opacity:1;marker-end:url(#marker13)"
       d="m 194.57616,141.61404 h 33.96521"
       id="path4" />
    <text
       xml:space="preserve"
       style="font-weight:bold;font-size:9.83553px;line-height:1.25;font-family:'Gentium Basic';-inkscape-font-specification:'Gentium Basic, Bold';fill:#000000;stroke-width:0.44198;stroke:none"
       x="207.52688"
       y="136.74826"
       id="text9"><tspan
         sodipodi:role="line"
         id="tspan9"
         style="stroke-width:0.44198;stroke:none"
         x="207.52688"
         y="136.74826">s(t)</tspan></text>
    <text
       xml:space="preserve"
       style="font-weight:bold;font-size:9.83553px;line-height:1.25;font-family:'Gentium Basic';-inkscape-font-specification:'Gentium Basic, Bold';fill:#000000;stroke-width:0.44198;stroke:none"
       x="160.66854"
       y="189.19868"
       id="text21"><tspan
         sodipodi:role="line"
         id="tspan21"
         style="stroke-width:0.44198;stroke:none"
         x="160.66854"
         y="189.19868">s (t)</tspan></text>
    <text
       xml:space="preserve"
       style="font-style:normal;font-variant:normal;font-weight:bold;font-stretch:normal;font-size:6.00374px;line-height:1.25;font-family:'Gentium Basic';-inkscape-font-specification:'Gentium Basic, Bold';font-variant-ligatures:normal;font-variant-caps:normal;font-variant-numeric:normal;font-variant-east-asian:normal;fill:#000000;stroke-width:0.0759569;stroke:none"
       x="161.9211"
       y="194.89453"
       id="text22"
       transform="scale(1.0156526,0.98458862)"><tspan
         sodipodi:role="line"
         id="tspan22"
         style="font-style:normal;font-variant:normal;font-weight:bold;font-stretch:normal;font-size:6.00374px;font-family:'Gentium Basic';-inkscape-font-specification:'Gentium Basic, Bold';font-variant-ligatures:normal;font-variant-caps:normal;font-variant-numeric:normal;font-variant-east-asian:normal;stroke-width:0.0759569;stroke:none"
         x="161.9211"
         y="194.89453">2</tspan></text>
    <text
       xml:space="preserve"
       style="font-weight:bold;font-size:9.83553px;line-height:1.25;font-family:'Gentium Basic';-inkscape-font-specification:'Gentium Basic, Bold';fill:#000000;stroke-width:0.44198;stroke:none"
       x="162.90099"
       y="99.196391"
       id="text10"><tspan
         sodipodi:role="line"
         id="tspan10"
         style="stroke-width:0.44198;stroke:none"
         x="162.90099"
         y="99.196391">s (t)</tspan></text>
    <text
       xml:space="preserve"
       style="font-style:normal;font-variant:normal;font-weight:bold;font-stretch:normal;font-size:6.00374px;line-height:1.25;font-family:'Gentium Basic';-inkscape-font-specification:'Gentium Basic, Bold';font-variant-ligatures:normal;font-variant-caps:normal;font-variant-numeric:normal;font-variant-east-asian:normal;fill:#000000;stroke-width:0.0759569;stroke:none"
       x="164.64018"
       y="103.48345"
       id="text18"
       transform="scale(1.0156526,0.98458862)"><tspan
         sodipodi:role="line"
         id="tspan18"
         style="font-style:normal;font-variant:normal;font-weight:bold;font-stretch:normal;font-size:6.00374px;font-family:'Gentium Basic';-inkscape-font-specification:'Gentium Basic, Bold';font-variant-ligatures:normal;font-variant-caps:normal;font-variant-numeric:normal;font-variant-east-asian:normal;stroke-width:0.0759569;stroke:none"
         x="164.64018"
         y="103.48345">1</tspan></text>
  </g>
</svg>
