<?xml version="1.0" encoding="UTF-8"?>
<svg width="401.36" height="490.73" version="1.1" viewBox="0 0 401.36 490.73" xmlns="http://www.w3.org/2000/svg"><g fill="#f00"><path class="UnoptimicedTransforms" d="m8.6841 489.81 0.1732-81.864 52.863-34.872 21.987-0.59515-64.759-21.939 25.219-22.928s-1.7647-2.1433-3.9069-4.8489c-9.3297-12.494-20.835-32.023-28.662-53.681-7.8266-21.658-11.773-51.252-11.585-67.804 1.3678-49.501 15.573-83.081 36.403-114.87 19.392-27.116 42.699-48.443 71.677-63.376 7.6459-4.2854 20.055-9.9474 34.77-14.306 17.535-5.1938 38.306-8.5221 58.118-8.5092 14.025 0.009143 38.27 2.3726 63.779 10.829 14.844 4.9211 31.01 13.056 43.496 20.977 33.943 21.534 51.71 44.026 70.457 77.767 5.4505 9.8495 10.754 23.816 14.961 39.269 4.6905 17.231 6.9034 36.66 7.1577 53.883 0.0896 19.936-3.2381 40.014-9.2781 59.719-4.81 15.692-16.102 41.045-30.118 59.313-1.9656 2.4761-3.7523 4.9599-3.7523 4.9599s27.772 25.2 27.936 26.335c0.16427 1.1345-16.153 5.6006-31.113 10.3-13.983 4.3925-27.484 9.3153-27.484 9.3153l19.824 0.013 50.402 34.87-0.0281 82.06zm382.6-7.0815-0.0194-68.617-375.69 0.14426 0.03577 68.44zm-280.82-101.24-47.215 0.20147-36.031 24.106 154.69 0.0905s-10.339-3.8035-22.246-7.8698c-11.907-4.0663-49.198-16.528-49.198-16.528zm269.25 24.397-35.474-24.596-44.139-0.0301-75.738 24.602zm-140.86-26.392c5.7571-3.3765 14.935-8.2457 25.487-12.574 5.5323-2.2692 11.378-4.246 17.25-6.2343 13.563-4.5138 22.324-6.8676 33.769-9.7841 7.4362-2.0074 16.214-3.823 29.38-5.4216 5.5333-0.86788 7.923-0.95252 7.923-0.95252l-38.886-45.892s-5.7988 0.6954-10.83 1.5867c-16.058 2.8451-27.82 5.4243-38.451 8.8055-11.438 3.6378-21.566 8.204-34.329 15.029-4.5559 2.3832-9.5844 5.2422-14.35 8.0409-3.0559 1.7947-8.5622 5.3424-8.5622 5.3424s-0.0315 23.051-0.0315 34.099v31.795s7.2854-5.9514 11.526-9.3495c6.256-5.3405 14.347-11.115 20.104-14.491zm-39.62-8.8427-0.0596-33.244c-14.304-10.765-28.447-20.077-44.359-25.753-17.466-6.9403-37.495-10.708-53.38-13.82-3.4027-0.59403-7.2011-1.253-10.526-1.8644-1.1892 1.4503-2.4299 2.7-3.5715 4.1023-0.68157 0.85907-3.2274 3.8679-6.5126 8.008-5.8567 7.0294-11.63 14.609-16.663 21.09-3.109 4.0037-9.4681 12.039-9.4681 12.039s4.5006 0.94595 9.2788 1.8188c15.71 2.8697-92.89-16.456 16.102 2.9455 2.026 0.36065 4.4044 0.77399 5.2853 0.91853 5.048 0.82835 18.861 4.0974 24.184 5.7235 5.9652 1.8223 18.851 6.7271 24.344 9.2662 1.1452 0.52932 3.7397 1.7202 5.7658 2.6465 7.1296 3.2595 18.464 8.8747 22.583 11.188 2.2903 1.2863 5.3329 2.9556 6.7613 3.7096 6.0088 3.1718 16.551 10.967 20.61 15.239 1.5334 1.614 9.177 8.296 9.4898 8.296 0.0746 0 0.13559-14.539 0.13559-32.309zm171.57-21.854-27.154-25.477s5.5193 7.2736 8.2361 10.216c2.796 3.6395 12.018 13.638 10.921 14.851-2.0185 1.5554 1.6776 0.2971-15.495 3.0219s-26.897 3.9444-41.135 8.1681c-14.238 4.2238-10.706 3.1029-22.147 6.7055s-25.945 9.4205-38.288 16.289c-5.2522 2.9227-9.3497 5.6115-12.907 8.1237-6.2508 3.5539-8.5587 6.6693-8.5587 6.6693zm-189.45 47.771s-0.7283-1.932-3.3818-3.8336c-4.9505-3.5478-14.61-8.7922-24.713-13.88-14.602-7.3536-26.936-12.683-39.737-17.084-16.911-5.815-34.837-9.4763-60.199-13.343-2.4665-0.37608-4.8315-0.74079-5.2557-0.81048-0.42418-0.0697-1.4332-0.22262-2.2422-0.33985-2.1386-0.3099-2.9121-0.23056-2.9121-1.4326v-1.0381l3.0674-3.6753c0.4688-0.87591 4.0673-4.8627 6.6139-7.9761 1.6135-1.9727 2.7587-3.6062 2.6703-3.7124-0.08843-0.10615-2.6609 1.9338-3.7947 3.0272-4.6917 4.524-13.843 13.936-13.843 13.936s58.63 20.906 101.06 35.276c13.582 4.5998 19.209 6.543 26.358 9.269 7.1484 2.5115 16.307 5.6176 16.307 5.6176zm73.835-94.718-16.083 3.7232 7.3834-17.373s-7.8934 4.4038-13.264 8.1679c-2.9023 1.7015-4.1492 2.0414-4.1492 2.0414s2.5663-10.809 3.3928-14.095c0.6718-3.2196 0.638-5.223 0.638-5.223l-13.783 13.204-0.39422-17.114-9.3065 15.139-5.6556-17.347-5.5234 17.223-9.359-13.274-0.37184 19.052-13.787-14.701 4.6854 17.77-15.33-7.9579 8.8114 14.657s-21.335-4.9192-21.48-4.774c8.8543 3.6772 19.44 8.1661 27.597 12.84 7.1331 4.0599 13.579 8.4358 19.867 12.885 2.2629 1.6033 4.2234 2.9152 4.3567 2.9152 0.13326 0 2.7961-1.8246 6.83-4.1838 27.195-15.905 33.976-16.419 44.925-23.574zm-187.87 4.3771 16.835-15.414c-0.91958-1.079-4.7971-5.4459-8.325-12.341-16.245-28.039-20.453-50.24-21.308-77.634-0.21561-11.851 1.837-30.199 6.8703-45.222 4.205-14.452 13.181-31.037 17.902-38.382 8.4495-11.266 11.906-17.255 26.226-29.154 11.178-10.343 24.247-18.626 38.124-24.714s36.892-11.843 57.306-12.083c20.414-0.24048 44.362 4.7126 61.09 12.899s26.039 14.393 36.572 23.782c11.851 10.564 20.941 21.684 25.027 28.139 7.7172 12.192 14.058 25 16.202 30.835s3.5449 11.077 3.5449 11.077l-7.9647 2.4086c-3.5607-10.602-7.8218-21.249-13.144-31.072-3.6773-6.5149-6.5599-9.992-9.6542-13.941s-10.018-12.942-14.912-16.976l-83.606-0.29687s-0.0827 1.2482 3.747 19.665c3.8298 18.417 19.231 90.837 19.231 90.837l9.0441-6.8025 0.27553 14.549 23.255-13.946-0.0583 11.944s11.057-5.8281 11.76-6.5067c0.76548-0.73926-13.849-30.756-16.736-45.925-2.9156 5.4466-2.7262 11.698-2.2945 17.265l-1.7685-1.9219c-6.0768-6.6041-5.1691-10.602-7.1204-14.039-1.7233 3.8204-1.2026 3.7644-1.547 5.5501-0.3444 1.7856 0.19842 3.846-0.75526 3.8666-0.95368 0.0206-3.7399-3.4405-4.9958-6.9554s-1.426-6.5857-1.426-6.5857-3.1639 1.392-4.041 2.6926c-0.85099 1.2619-2.3226 4.592-2.3226 4.592s-0.37445-2.454-0.52233-3.6961c-0.12847-1.0042-0.10538-3.41 0.0961-5.3243 0.2015-1.9143 1.3991-6.6717 0.83586-6.9459-0.56324-0.27418-2.9703 0.51521-4.9502 1.6949-3.1623 1.6994-1.7925 3.3138-1.7925 3.3138s-1.9668-1.629-1.9522-2.5027c0.0146-0.87364 0.30352-2.888 0.59162-3.9131 0.36838-1.3108 3.0803-5.7292 4.9012-7.9985s4.2819-4.5566 7.1799-6.3307c-7.5981-1.0544-12.287-0.19742-12.287-0.19742s2.2644-4.6333 3.4796-6.0181c1.675-1.9087 7.0009-5.9627 10.849-6.2764 2.9649-0.2418 3.1555-0.58195 1.1573-1.5531-1.1237-0.54617-1.1552-0.92385-2.8022-1.0521-1.2739-0.36934-4.3656-0.6818-4.3656-0.6818s-9e-3 -2.7663 3.0399-5.2412c3.0486-2.4749 5.011-3.3101 6.5587-3.5768s3.52 0.19077 5.0451 1.5356c3.9895 3.0889 1.7697 4.3001 3.6279 4.9615 0.57756-0.0513 2.1256-3.682 6.0155-8.5376 3.8898-4.8555 12.599-8.5831 12.599-8.5831s-2.3148 8.0971-3.4333 12.112c0 0 1.1215-1.4251 2.2626-3.3645 1.2379-2.104 2.7531-4.8226 4.7165-5.986 1.2627-0.74816 3.3866-0.68735 3.3866-0.68735s-1.582 2.4693-1.0282 3.3735c0.96795 1.5804-0.89238 1.9616-0.87584 4.0406-0.0129 2.1499-1.1302 3.1292-0.0488 3.6899 0.90871-0.19718 1.9993-1.2352 2.9993-2.575 2.0907-0.5003 5.1274-1.3574 7.0254-1.2166 3.1544 0.23403 4.358 3.0918 4.2905 3.8729-0.0675 0.78112-3.9756 3.7848-6.1221 5.612-2.5648 2.1834-4.1159 5.3028-4.1159 5.3028s10.621-0.16027 12.657 0.23062 3.3104 1.0562 5.188 2.7005 2.7568 3.6132 1.8232 5.1575c-0.93363 1.5443-2.7263 0.90497-2.7263 0.90497-2.6704 0.0155-6.9685 0.46201-6.9685 0.93902 1.1574 0.80018 2.8838 1.4402 3.8381 2.6362 3.2481 4.0705 3.8755 3.0406 7.1284 8.557 1.2022 3.1088 0.36385 3.0633 0.86132 4.331-1.8662-1.3376-8.1188-0.89128-10.849-0.88517-0.47382 0.83875 0.84284 4.56 0.20061 7.9644-0.5563 2.9489-2.0134 9.5134-2.3887 9.0761-2.4853-2.8962-4.9136-6.3805-7.3272-8.1188-1.0375 0.85262-0.72864 4.2255-0.93701 7.749-0.19022 2.723-0.16627 5.7607-1.2475 8.2771-0.7513 1.7484-0.78951 0.41628-1.6062-0.69637-5.6716-7.7272-6.0296-8.8129-7.9295-10.724-0.59791 1.1523 2.0867 7.0382 2.8429 9.0744 3.1394 8.4745 5.12 13.718 6.9848 17.934 1.4301 3.2331 5.8833 12.64 6.3765 13.553 0.65818 0.19647 1.8601-1.6199 2.8403-1.3448 0.6176 1.7886 0.33991 5.7347 0.33991 6.8943 0.98333 1.5923 2.0635 3.755 3.7779 5.556 1.4052-0.79498 21.161-13.465 21.161-13.465l0.0547 44.23 10.252 13.548s1.048-1.6715 2.2115-4.4561c3.4106-8.1629 5.8729-16.89 7.7844-28.373s2.7735-25.905 1.5995-36.972l-0.19537-1.8418 8.4774-0.125 0.29039 2.545c0.69051 10.322-0.18169 19.252-1.0052 29.518-1.5243 19.738-12.202 50.137-26.436 70.478-0.80109 1.2584-2.4908 2.893-2.4908 2.893l32.071 29.99s4.9066-6.2142 6.9967-9.1926c8.365-11.921 14.87-24.94 20.972-40.249 8.0828-18.494 13.707-49.725 13.266-70.002 0.22924-21.008-3.6085-42.418-10.224-61.78-5.0693-14.836-11.091-27.409-19.018-41.19-13.304-22.863-38.754-47.056-59.356-59.714-14.273-8.7449-28.715-15.733-41.819-20.344-22.701-7.9878-43.317-10.558-60.713-10.433-19.833 0.18389-39.237 3.3797-57.226 8.7833-16.558 4.9736-31.112 11.897-47.11 21.734-9.8091 5.8453-33.48 23.467-51.205 48.207-13.348 18.471-23.069 38.886-28.634 57.612-7.6861 28.956-8.2456 39.858-8.5307 56.578-0.28512 16.719 2.2669 40.361 10.297 63.206 4.2567 12.11 10.077 25.199 17.459 37.615 6.858 11.534 13.932 19.278 13.932 19.278s7.7522-6.9399 16.866-15.284zm209.59-8.9723c6.4975-1.5882 15.71-3.4679 25.229-5.1475 4.0939-0.72241 7.5312-1.4092 7.6385-1.5263 2.7052-2.9515 9.9627-13.906 10.342-14.594s1.4509-2.342 3.9229-7.3031l-15.31-18.137-104.13 0.22872c2.2818 7.1579 6.8594 22.602 6.8594 22.602s6.2693-10.544 8.377-13.937 4.2693-6.4228 4.2693-6.4228l1.2778 22.507 17.721-14.995-3.7683 24.072s5.5928-3.6458 9.1738-5.885c3.5809-2.2392 12.312-7.5505 12.312-7.5505s-2.6373 6.9618-4.3064 10.981c-1.6691 4.0189-5.708 13.133-5.708 13.133s6.5805-1.889 10.403-2.8103c3.8225-0.92128 12.532-2.7174 12.532-2.7174l-6.893 9.99 2.7713-0.60115c1.1891-0.34782 4.4683-1.1961 7.2871-1.8851zm-146.9-5.9861 27.468 3.3116-12.119-20.157 22.524 9.8775-5.5705-25.875 19.467 19.297 0.869-23.413s1.6588 1.0012 3.9646 4.2743c2.3058 3.2732 9.4281 14.702 9.4281 14.702l6.8209-22.581-129.18-0.0833-0.03545-17.417-6.8563-0.0121s0.06958 1.5604 0.4712 3.2697c1.9266 8.1997 6.5767 19.877 11.391 29.401 4.9914 9.8744 13.103 22.102 14.662 22.102 0.67162 0 14.869 2.6722 21.48 4.043 6.5626 1.4046 14.085 2.7828 19.86 4.2563-1.1746-1.8572-4.6408-4.9962-4.6408-4.9962zm109.73-74.681-16.52 13.106-0.0302 14.759 16.652-0.20404zm-61.054 15.887-99.523-9e-3v12.009l99.554-0.15276zm37.496-7.1078-4.6548-1.5008-0.0446-12.36-10.491-10.623-10.166 9.7206-2.3e-4 10.456-6.6331 8.5662-0.0216 14.433 32.045 0.022zm48.086-11.584-17.586 11.398-0.16233 19.104 17.744-0.20291zm21.801 0.30224c-0.86998-0.52837-4.3484 1.9554-8.0563 4.2619-4.184 2.6026-8.5921 5.1019-8.5921 5.1019l0.23242 20.795 17.032-0.16225s-0.0438-7.0329 0.0359-14.346c0.0806-7.4003 0.2791-15.085-0.65223-15.651zm7.4391 15.166 0.073 14.93 9.2542-0.17619s-1.4725-3.8631-3.0271-6.322c-1.5545-2.4589-6.3002-8.4313-6.3002-8.4313zm18.437-15.356s-1.1528-0.57819-1.5102-0.35059c-0.35741 0.22757-4.6994 2.1028-8.8445 6.1613 0.0736 0.0969 6.258 8.0628 7.0355 9.0747 0.77749 1.0119 2.8324 3.0943 2.8324 3.0943zm-244.84 15.047c4.8664-4.0054 13.774-11.305 13.774-11.305l0.18944-4.3067h-11.24c-0.06067-0.74038 0.37718-1.0764 0.69844-1.5449 0.0563-0.32118 4.715-4.5881 10.353-9.482 5.6376-4.8939 10.639-9.2709 11.051-9.7814 0.7478-1.6102 5.182-1.6766 5.182-1.6766l1.1434-10.508 4.7672-50.72 0.21424-1.871-0.92871 0.0631c-1.9166 0.13022-2.3954-0.12395-4.8956-2.5993-2.2119-2.1899-2.9352-5.1785-1.9648-8.1187l0.37577-1.1386h3.1535s-0.0394-0.82243 0.3125-1.1094c1.6856-1.3746 1.8419-0.79418 5.1209-3.0732 1.9928-1.3851 5.7982-2.7984 6.1501-2.6031 0.17902 0.0994 0.10249 0.6208 0.33182 0.53341 0.22937-0.0874 2.4351-0.22084 4.9015-0.29657 6.5319-0.20053 8.6369-1.2296 9.4494-1.9468s4.2418-1.7802 6.2602-3.8008c1.1552-1.1564 2.2383-1.0258 2.8646-1.7976s1.5635-1.869 2.6403-1.9427c1.0768-0.07369 1.3611 0.15745 1.808 0.32567 0.4469 0.16822 1.042 0.69568 1.3086 1.1978 0.32059 0.60371 2.5466 1.746 3.2267 2.0375 0.43814 0.18776 7.954 0.027 8.3478-0.0647s1.209-0.27224 2.481-0.27224c0 0 1.5306-0.37541 2.3128 0s1.9686 1.5235 2.2296 1.9219c0.31091 0.47469 0.40854 0.98505-0.4909 3.043-0.308 0.70471-0.65895 1.6056-0.7799 2.002-0.30217 0.99033-0.73315 0.48307-1.2673 1.2136-0.55674 0.76138-4.5217 2.0697-6.2724 2.0697-2.1312 0-1.0049 0.37921-3.9204 0.94254-1.2347 0.23856-6.0917 2.0017-6.1193 2.0736-0.26989 0.70333-3.5431 1.2747-7.422 1.2956-3.585 0.0193-4.1929 0.18218-5.7313 1.5355-2.2668 1.9942-4.7647 2.2533-8.8392 0.91683-2.8902-0.94801-3.9262-0.90164-5.352 0.23953l-0.65458 0.52393c4.271 23.263 13.037 69.75 13.037 69.75l41.931 0.24024 18.622-91.561-80.134-0.16174-1.8008 1.8418c-10.326 10.561-16.916 18.824-25.249 35.351-9.2653 16.383-13.727 36.764-15.294 53.421-0.95622 18.691 0.20624 25.511 2.3872 36.984 0.58624 3.084 0.60999 3.1136 1.7322 2.1584zm113.18-5.6451-94.762-0.15293-3.6393 2.5568-0.05421 1.3158 96.911 0.0873zm51.733-10.708-3.0008-14.86-20.248 0.19182 9.0374 9.5538v11.32l3.8543-0.0325-0.0195 1.5794 0.75871-0.036zm-47.223-0.79247-97.549-0.0384 0.0291 5.4452 97.491-0.17085zm7.6157-13.49-95.809-0.24897-8.8753 7.5102 97.783 0.0117 6.9009-7.2728zm-75.207-7.639s-5.7238-31.025-8.5241-46.499l-4.9706 46.61zm101.76 0.0958-19.259-8.9244-21.369 8.8989zm8.7934-0.19832-4.1501-18.795-19.389 8.2586zm-32.529-10.69-17.836-8.238-3.1323 16.952zm22.354-9.3437-34.439-0.0534 16.695 7.6474zm0.49674-5.0455-16.513-8.664-17.186 8.6818zm-20.873-10.648-15.231-7.888-3.2543 16.988zm21.663-6.41-13.238 6.5959 16.014 8.0543zm-1.9855-3.1388-30.497-0.10456 15.034 7.6212zm-16.274-14.992-13.929 9.5686 28.053 0.11145zm15.993 6.8688-3.091-15.664-10.087 6.8432zm-19.408-9.194-10.408-6.9992-2.9461 15.549zm12.808-8.3002-19.273-0.0935 9.3085 6.7092zm0.16535-4.1794-10.373-6.7826-9.1273 6.8648zm-13.557-8.6761-6.4864-4.3825-2.0865 10.354zm14.901 5.1455-1.9662-10.218-6.3885 4.6999zm-4.3225-12.494-14.436-0.0181 7.3434 5.0592zm-0.96406-11.536-14.715-0.08823 0.0873 6.0578 14.664-0.05658zm-30.168 2.273c3.2929 0.0042 4.4057 3.3788 4.4057 3.3788l5.5168-0.01169-0.0283-5.4622h-67.597l-6.3998 5.3417 59.557 0.02073s1.2523-3.2715 4.5453-3.2673zm46.107-0.5889c3.2007 0.09306 4.3206 3.3116 4.3206 3.3116l63.93-0.137-4.8832-4.6808-73.929 0.05915 0.0191 4.7292 6.214-0.02635s1.1281-3.3488 4.3288-3.2558zm0.0972-9.248c3.1836-0.0046 4.1335 3.2286 4.1335 3.2286l52.628-0.03784-6.1663-4.0141-61.077-0.09013-0.0429 4.2285 6.2095-0.14988c0.12901-0.38175 1.1316-3.1606 4.3152-3.1651zm-46.604-0.3112c3.5696-0.02367 4.2502 3.1805 4.2502 3.1805l6.1317 0.04287-0.0214-4.2928-54.025-0.07755-6.8757 4.3535 46.519 0.07211s0.44097-3.2978 4.021-3.2787zm31.272 3.0689v-4.2285l-15.359 0.02582v4.1427zm55.789-8.9526c-2.2913-1.3995-9.1054-4.0474-10.425-4.655-13.027-5.8835-35.175-9.9238-49.507-9.9587-15.268-0.03721-33.712 3.3849-44.889 7.4248-11.177 4.0399-15.282 6.111-16.271 6.99 0 0.2418 29.659 0.0298 29.659 0.0298s1.3575-3.0996 4.4639-3.1347c3.1064-0.03508 4.608 2.9729 4.608 2.9729h5.7468v-9.7971l0.82166-0.31239c0.47823-0.18182 5.6071-0.31239 12.271-0.31239l11.156 0.03848 0.62179 0.45399 0.62178 0.45399c0.0684 3.3276 0.15824 10.006 0.15824 10.006l6.243 0.02252s1.5108-2.6381 4.1341-2.675 4.5289 3.2352 4.5289 3.2352l37.18 0.03514zm-55.617-6.4935-15.892-0.03848v6.0294l15.892 0.03848z"/><g><path d="m185.21 39.753c-4.1446-1.2406-4.9874-5.6528-4.9874-5.6528 1.3451-0.34505 3.6039-1.062 3.6039-1.062s0.30653 2.1579 2.7845 3.5661l1.332 0.12848c1.5845 0.15284 2.8532-0.59309 3.4426-1.8783 0.48295-1.0532 0.44214-2.4685 0.3149-4.0481-0.1436-1.7828-0.47841-4.0514-1.5564-6.1413-1.4276-2.7677-3.8332-3.6274-5.5549-2.5422-1.1877 0.74859-2.6606 2.6445-2.189 4.7536l0.14129 1.5135-3.7869 0.66947s-0.1678-1.0618-0.1678-2.2198c0-5.6412 4.3325-8.8747 8.514-8.4808 2.4974 0.23526 4.996 1.7278 6.6063 4.6935 1.3884 2.557 1.9324 5.8134 2.044 8.1172 0.21396 4.4142-1.4169 7.1506-4.7791 8.3567-1.5766 0.56553-3.9556 0.85065-5.7618 0.22679z"/><path d="m226.8 41.467c-3.7782-0.48362-7.1408-0.74363-7.4512-0.75875l-0.56434-0.02749 0.20421-1.3614c0.12771-0.85132 6e-3 -1.5354 1.1085-2.3223 1.9666-1.4033 2.6012-3.9841 2.7267-6.4367 0.1255-2.4527-0.21563-3.454-1.1282-4.9301-0.97591-1.5785-2.848-2.6779-4.7087-3.145-1.6833-0.42258-3.5094-0.18306-5.0819 0.54269-2.0523 0.94718-3.4172 2.9192-3.9859 5.2998-0.66564 2.7864-0.24041 6.1324 1.4503 9.0498 0.42756 0.73775 0.70067 1.3549 0.70067 1.3549l-3.7478 1.343s-1.3839-2.5073-1.8275-3.8863c-0.85574-2.6601-1.1465-5.7116-0.50018-8.5198 0.7415-3.2219 2.6511-6.1105 5.2531-7.5002l2.0166-1.077 2.7801-0.13462c5.3564-0.25936 9.7051 1.9628 11.241 4.728 1.5358 2.7652 1.5697 4.1831 1.5944 6.0002-0.0398 1.0429-0.40116 2.9821-0.66925 4.1185-0.26809 1.1364-1.8324 3.3502-2.0683 3.8491-0.10981 0.23217 9.2606 0.79997 9.2606 0.79997l1.5145-17.632 1.1467 0.0044c1.3324 0.0051 2.5995 0.40975 2.5995 0.40975s-0.0114 0.6406-0.0114 1.1122c0 1.1828-1.5049 17.086-1.788 18.894l-0.16295 1.041-1.507-0.04205c-0.82885-0.02313-4.6156-0.28969-8.3939-0.77331z"/><path d="m148.95 47.968c-2.3048-2.7116-5.4564-8.915-4.7355-13.761 0.59068-3.9706 3.9927-7.0455 8.2559-7.2565l2.4374-0.1206 1.2854 0.65578c0.70698 0.36068 1.4736 0.88253 1.7036 1.1597 0.60495 0.72892 0.80443 0.63459 1.2472-0.58979 0.95642-2.6449 4.0198-4.4598 7.5811-4.4914l2.2422-0.01984 1.7082 0.94585c3.5988 1.9927 5.5831 6.6718 5.5963 12.311 6e-3 2.6755-0.60703 6.7489-1.164 6.7912-0.60264 0.04578-3.5714-0.07717-3.6462-0.151-0.0376-0.03708 0.14545-0.8535 0.40668-1.8143 0.37555-1.3812 0.40405-2.6754 0.42359-4.0149 0.0524-3.5909-0.62471-6.7463-2.2776-8.6866-1.5974-1.8751-4.2861-2.9618-6.4613-1.4129-1.5924 1.1339-2.4144 2.9672-2.0402 5.952 0.18933 1.5104 0.86782 3.4186 1.5352 5.9802 0.90166 3.4605 1.609 6.1695 1.609 6.1695l-3.6313 0.99261-1.5504-6.0861c-1.8718-7.3479-2.3021-7.7524-3.5192-8.9655s-1.2873-1.4319-4.2824-0.9402c-1.563 0.25657-3.1538 1.3457-3.6122 5.2142-0.054 2.869 1.0997 6.7326 3.9285 9.9063 0.9618 1.0791 1.9485 2.1102 1.9485 2.1102l-3.2428 2.031c-0.55609-0.69515-1.5163-1.5231-1.7454-1.9085z"/><path d="m131.33 46.05c-6.5907-9.3139-7.3878-10.323-8.6803-10.992-2.57-1.329-5.9093 0.68095-5.5913 4.0223l0.17746 1.8646-3.0217 1.8051s-0.45389-0.7813-0.63948-1.6753c-0.66192-3.1885 0.75586-6.298 3.0156-8.2388 2.1379-1.8362 5.0295-2.6263 7.6264-1.4477 2.0299 0.92126 3.5974 2.7848 10.305 12.251l6.069 8.5648-1.4732 1.1249c-0.81027 0.61868-1.5606 1.1182-1.6674 1.11-0.10679-0.0082-2.8608-3.7833-6.1201-8.3893z"/><path d="m266.44 55.623c-3.0312-0.84721-6.023-3.8191-6.023-5.983 0-1.2148-0.24714-1.3124-1.5519-0.61309-4.3079 2.3089-10.689-1.6942-11.17-7.0081-0.42564-4.694 3.9828-12.167 8.7679-14.863l0.97829-0.55112 1.3279 1.1366c1.5713 1.345 1.6352 1.728 0.40924 2.4522-7.9322 4.6856-10.129 15.932-3.1117 15.932 2.7782 0 3.8384-1.2228 7.6161-8.7844 1.591-3.1846 2.9342-5.8359 2.985-5.8917 0.11844-0.13034 3.3592 1.5066 3.3592 1.6967 0 0.07858-1.3595 2.8799-3.0211 6.2251-4.0243 8.102-4.2172 10.09-1.1758 12.115 4.2683 2.8429 9.2017-2.7855 9.5699-10.918l0.15732-3.475 0.95856 0.19171c0.52721 0.10544 1.2185 0.19171 1.5363 0.19171 3.3199 0 0.97155 11.343-3.2372 15.637-2.4239 2.4728-5.3585 3.352-8.3745 2.509z"/><path d="m285.89 65.131c-0.88088-0.45372-1.6462-0.86394-1.7006-0.9116-0.0545-0.04766 2.1642-4.5346 4.9304-9.971l5.0294-9.8843 0.13251-1.6016c0.14412-1.742-0.72683-3.6837-1.6523-3.6837h-0.47726l0.32944 0.86651c0.81256 2.1372-0.85594 5.1873-3.226 5.8974-5.0836 1.5231-9.3809-4.0592-6.4835-8.4221 4.3472-6.546 17.152-1.1888 15.444 6.4612-0.31304 1.4017-10.313 22.152-10.645 22.089-0.0435-0.0082-0.79983-0.38614-1.6807-0.83986zm2.5771-23.315c1.4888-1.4889 0.80575-4.3341-0.93562-3.897-1.7084 0.42877-2.5794 2.7902-1.4689 3.9822 0.84403 0.90596 1.4342 0.88505 2.4045-0.0852z"/><path d="m118.4 65.993c-0.46385-0.70093-0.84336-1.3429-0.84336-1.4266 0-0.0837 1.8378-1.4695 4.0841-3.0796 2.2462-1.6101 4.0692-3.0993 4.0511-3.3093-0.0181-0.21004-2.2164-3.446-4.8849-7.1909-2.6685-3.745-4.8519-6.9462-4.8519-7.1139 0-0.31153 2.4784-2.2309 2.8807-2.2309 0.12212 0 2.6505 3.4234 5.6187 7.6076 2.9682 4.1842 5.7351 8.061 6.1488 8.6152l0.75215 1.0076-5.9158 4.1976c-6.8765 4.8793-5.989 4.5108-7.0396 2.9232z"/><path d="m83.09 90.863c-5.5546-2.9944-9.2707-8.2307-9.2441-13.026 0.03119-5.6099 5.5702-9.8211 10.799-8.21l0.88088 0.27144v-1.3288c0-4.3781 5.2476-8.1895 9.5095-6.9068 2.1109 0.63529 3.374 1.771 5.8925 5.2985 2.8228 3.9538 3.5949 5.1994 5.2978 5.1558l1.798-0.046 1.2436-1.2436c1.2326-1.2326 1.39-1.7134 1.2709-3.8815-0.17279-3.1445-3.8751-7.6248-7.9409-9.6096-2.7164-1.3261-2.6541-1.1615-1.1015-2.9111l1.2352-1.3919 1.2908 0.58208c2.5966 1.1709 5.1645 3.2491 6.8296 5.1822 2.2619 2.626 3.3189 5.3729 3.3513 8.1716 0.0268 2.3071-0.73645 4.4618-2.3432 6.1162-1.1179 1.151-2.6441 2.3657-4.5967 2.8756l-1.4862 0.38814-1.4636-0.55895c-1.6405-0.6265-3.033-2.2122-6.2622-6.6004-3.0245-4.11-5.1208-5.8389-8.2459-2.9519-2.9197 2.6973-1.4904 4.8895 3.3193 11.737 2.0717 2.9494 3.6167 5.1267 3.6167 5.1267l-2.7984 2.144s-1.1713-1.9816-3.6972-5.523c-4.7211-6.6193-6.9698-8.2302-9.8802-6.8412-2.3304 1.1122-3.2608 3.7354-2.654 6.2383 0.7541 3.1105 3.757 6.5116 7.9292 8.6691 2.4771 1.281 2.3977 1.0859 1.1389 2.7976-1.1834 1.6092-1.2119 1.6113-3.6891 0.27593z"/><path d="m324.99 99.813c-0.95626-1.9039-0.93373-1.9483 1.2621-2.49 3.443-0.8493 6.5032-2.4283 8.4593-5.418 0.96062-1.4682 1.2581-3.1923 1.0747-4.8923-0.19014-1.7618-0.90813-3.4965-2.597-4.8249-1.1215-0.88216-1.2343-0.79739-1.4721 1.1063-0.84943 6.7986-7.7982 12.298-13.126 9.7476-8.6266-3.6906-3.218-15.639 6.4286-16.535 2.3347-0.14866 2.2843-0.08877 1.2338-1.466-4.4012-5.7703-12.896-2.2908-15.372 6.296-0.60625 2.1029-0.71453 2.1439-2.6558 1.0063l-1.4258-0.83556 0.18839-1.1664c0.55993-3.4669 4.7945-9.2064 7.9855-10.823 5.6321-2.854 12.738-0.1839 15.486 5.8192l0.81472 1.7796 1.3384 0.62914c2.3701 1.1141 4.656 3.8241 5.8242 5.8773s1.053 3.4959 1.0474 5.2845c-0.019 6.0241-5.4639 11.08-12.48 12.373l-1.1694 0.21559zm-2.2815-10.128c2.5059-1.047 5.1661-5.0762 5.5288-8.1384l0.19779-1.67-1.9123 0.1734c-3.3496 0.30373-6.2979 2.3395-7.6976 4.559-0.94898 1.5048-1.3288 3.1461-0.0892 4.1891 1.1147 0.93794 2.3866 1.5496 3.9725 0.88698z"/><path d="m60.96 117.32c-1.4191-0.79303-2.4654-2.3712-1.267-6.1919 0.52924-1.6873 1.7235-3.647 3.1307-6.4496 1.4617-2.9111 2.6468-5.0358 3.1973-6.629 0.91759-2.6561 0.43752-3.8318-0.78012-4.6846-2.34-1.639-4.7284 0.47114-4.7179 2.8146 0.0045 1.0053 0.71012 1.9681 1.6233 2.8368l1.1048 1.054-1.0094 1.3133c-0.63383 0.82469-0.8081 1.3497-1.1686 1.3692-0.31757 0.0172-0.67231-0.26688-1.3993-0.76331 0 0-0.7465-0.67336-1.2154-0.8299s-1.4929-0.0677-1.4929-0.0677c-1.0136-0.0459-1.7087 0.56976-2.4186 1.2797-0.56756 0.56757-0.69307 1.0235-0.62775 1.202 0.07104 0.19407 0.51588 0.15713 1.3334-0.11268 1.3533-0.44663 2.6646-0.0397 3.5165 0.89305 0.59876 0.65554 0.97059 1.5708 0.97059 2.6319 0 1.8413-0.81828 2.9294-1.9552 3.6499-1.172 0.74267-2.6843 1.0825-4.1042 0.62579-1.6889-0.54318-3.2084-1.9377-3.7386-4.1907-0.44397-1.8868-0.05443-4.0994 1.0734-5.8602 1.1853-1.8506 3.1683-3.2082 5.0971-3.4256l1.396-0.15734v-1.8131c0-2.6924 1.6234-5.0293 3.755-6.165 1.9941-1.0624 4.4406-1.0644 6.2036 0.42071 1.3928 1.1732 2.0485 2.2761 2.1859 3.6977 0.21283 2.2012-0.97065 5.182-3.9406 11.406-1.174 2.4601-2.9711 4.9426-3.1996 6.4333 0.01909 1.4253-0.15973 2.2084 1.4747 2.7135 2.0281 0.31709 3.2524-5.4104 3.909-7.7882 0.77587-2.8358 1.1167-4.8118 2.0449-6.419 1.8369-3.1806 4.4635-4.1809 6.7389-2.391 2.2957 1.8058 1.9894 4.5394 0.45298 6.3076-1.1438 1.3162-3.0105 2.2634-4.7725 1.0088-0.49906-0.35537-0.9555-0.88266-1.1405-0.68177-0.20984 0.22788-0.12844 1.3004-0.41759 2.9468-0.65557 3.7328-1.872 6.6922-3.3745 8.582-1.4188 2.1184-4.4219 2.5776-6.4678 1.4343zm-4.2634-9.0553c0.51508-0.96244-0.19543-2.1648-1.347-2.1648-1.1847 0-1.7022 1.325-0.88462 2.2284 0.72238 0.79822 1.7975 0.74747 2.2316-0.0637zm18.523-5.8584c0.58914-0.70987-0.17708-2.4066-1.3309-2.5196-1.2248-0.12007-1.9553 1.1286-1.2399 2.2203 0.54268 0.82824 2.0165 0.96729 2.5708 0.29931z"/><path d="m337 118.76c-3.1848-4.9263-5.7838-9.0705-5.7756-9.2092 0.0189-0.31925 9.4571-6.4097 11.461-7.3954l1.4975-0.73681 2.2885 0.12596c3.8574 0.21232 7.3799 3.0481 9.6041 7.7316l1.135 2.3899 0.0114 2.1796c0.022 4.2022-1.1649 5.6742-8.394 10.409-2.9068 1.904-5.4542 3.4619-5.6609 3.4619-0.20673 0-2.9816-4.0306-6.1664-8.957zm11.31 1.1261c4.6894-3.0835 6.1996-5.4346 5.1866-8.0746l-0.21376-0.55706-0.71635 1.1869c-1.8453 3.0575-6.705 4.1896-12.469 2.9047-1.2428-0.27705-1.1536-0.0263 1.3698 3.8502 1.5493 2.38 2.3937 3.4027 2.7097 3.2814 0.25247-0.0969 2.1121-1.2631 4.1325-2.5916zm-1.431-7.8575c1.5637-0.44846 3.4309-1.8312 3.8549-2.8547 1.0168-2.4547-2.0156-4.7128-5.1833-3.8598-1.5636 0.42102-8.7359 4.9577-8.7359 5.5256 0 0.95516 7.7054 1.8654 10.064 1.1888z"/><path d="m43.218 155.46c-3.8458-0.61261-6.2919-1.8315-8.1821-3.9336-1.7814-1.9811-2.5947-4.4483-2.6387-7.0594-0.04501-2.6715 0.72255-5.4939 2.7346-8.1299l1.0549-1.382 0.0018-1.6789c0.0031-2.8448 0.84911-5.1053 2.087-6.9541 1.8355-2.7414 4.6708-4.4352 8.0175-4.6328 3.8438-0.22697 8.21 1.3631 12.01 5.0902 2.2413 2.1985 2.174 1.8712 0.77618 3.7765l-1.1161 1.5213-1.9991-2.0181c-5.9324-5.9888-12.927-6.0892-15.586-0.22363-0.60054 1.3247-0.8919 2.2199-0.67174 2.4978 0.20636 0.26048 0.86834-0.0425 1.9659-0.42984 2.5629-0.90441 5.5534-0.49583 7.9914 0.326 3.7287 1.2569 6.4319 3.8757 6.4263 7.3402-0.0067 4.133-2.8413 6.528-6.3728 7.0056-3.8532 0.52113-8.5362-1.2404-11.281-5.5179l-1.0823-1.6866-0.42623 0.5829c-1.5721 2.15-1.6745 5.3877-0.24298 7.7289 1.3461 1.9728 4.4159 3.4056 5.7486 3.7535 1.3327 0.34788 3.5126 0.32482 3.5126 0.32482 1.7982 0.0189 3.5528-0.37935 5.2962-0.76827v3.8437l-0.78205 0.29733c-2.3968 0.30706-3.396 0.93891-7.2418 0.32631zm8.7329-13.778c1.1477-1.4173 0.72659-2.973-0.75525-4.2064-2.3627-1.9667-7.1089-3.1024-10.127-1.4616l-1.0442 0.56764 0.50065 0.96815c1.2477 2.4128 4.1397 4.6426 6.8095 5.2821 1.9088 0.45725 3.738-0.065 4.6164-1.1498z"/><path d="m35.468 176.35c-2.9696-0.14945-5.8827-1.679-7.5227-3.3868-1.9164-1.9957-3.0714-4.5465-2.8991-7.7474 0.18431-3.425 1.331-6.2676 3.1266-7.9108 2.1045-1.9257 5.0194-2.2116 7.1097 0.026 2.4967 2.6727 0.98184 6.5421-1.644 7.7877-1.1475 0.5443-2.2914 0.67496-3.6392-0.12596l-1.2465-0.74073-0.2771 0.43802c-0.15241 0.24092-0.1913 0.94253-0.08644 1.5592 0.54164 3.1849 3.3188 5.4516 6.3514 6.1196 2.3595 0.51971 4.8737 0.0717 6.6101-1.6647 0.91321-0.91321 1.2775-1.4291 1.1302-1.6491s-0.42218-0.72221-1.0705-0.4272c-0.6483 0.295-2.7096-0.26561-3.2259-1.1772-0.51628-0.91162-0.80106-2.1697-0.80591-2.9685-0.0048-0.79875-0.01117-1.7632 1.3932-3.6908 0.86674-1.1897 2.7995-1.6325 4.4287-1.2004 1.2884 0.34171 2.4005 1.2933 3.1889 2.8332 0.8216 1.6047 0.6739 2.1931 0.54249 3.6367-0.29993 3.2947-1.7283 5.8053-3.7948 7.756-2.967 2.8008-4.6996 2.6826-7.6692 2.5332zm8.2726-11.108c0.3727-0.88591-0.21037-2.1345-1.3484-2.5502-0.47788-0.17456-1.3126-0.0308-1.7204 0.45163-0.56341 0.66643-0.57716 1.8259-0.09734 2.3058 0.82713 0.82713 2.7935 0.67875 3.1662-0.20715zm-10.449-3.7573c0.39466-1.038 0.1041-1.7412-0.87299-2.1127-0.96941-0.36857-2.4305 0.24838-2.5936 1.0952-0.32003 1.6618 2.866 2.597 3.4665 1.0176z"/><path d="m337.06 181.16c-0.1544-0.5765-0.31915-1.3031-0.71626-2.7098-0.19693-1.5975-1.6758-6.8321-2.0814-8.3649-0.40566-1.5328-1.3891-4.8763-1.2438-5.54s1.1442-1.5012 1.7563-1.587c0.6121-0.0858 1.5179-0.20974 2.07 0.0473 0.55203 0.25702 1.2421 1.183 1.4395 1.5954 0.19736 0.41234 1.1005 2.2044 2.3207 6.5696 0.7426 2.145 1.5656 3.578 2.7149 4.5205 1.153 0.9455 2.4782 1.3062 4.3214 1.1704 3.0278-0.22306 4.5572-1.62 4.5572-4.1391 0-0.81018-0.0345-1.4727-0.37014-1.5698-0.31856-0.0922-0.4756 0.20696-1.1463 0.90706-1.3545 1.4138-3.3792 2.0707-5.0984 2.046-1.2702-0.0182-3.3306-0.45142-4.0043-3.2948-0.41931-1.7697 0.8392-3.7188 3.0132-4.5346 1.319-0.49497 2.9751-0.57277 4.7978 0.0598l1.0133 0.46908s0.087-0.64562 0.0726-1.0826c-0.46793-1.8201-2.7877-3.1247-4.3622-2.9538-1.5745 0.17093-2.5679 0.76898-3.7986 1.8496-0.7852 0.68941-1.3636 1.2381-1.3636 1.2381-0.37469-0.68442-0.69482-1.3986-1.0364-2.1007 1.0012-1.0425 1.6962-1.4564 2.7571-2.0157 1.0609-0.55926 1.755-0.92611 2.4106-1.0321s1.0313-0.11452 2.0885-0.0995c1.0572 0.015 3.525 0.92539 4.2134 2.4052l0.4485 0.9641c0.68762-1.8911 1.1854-2.8937 2.568-3.8739 1.0858-0.76981 2.971-1.7049 6.7577-2.3419 6.1138-1.2018 7.137-2.6556 6.8444-5.2755-0.60693-2.603-1.8046-4.0731-5.1695-4.0033-1.6262 0.0338-3.6644 0.5721-6.5658 1.2401-3.3901 0.78045-6.6439 1.6996-6.6439 1.6996l-0.62993-3.6405s3.0836-0.73125 6.4236-1.5029c8.0592-1.862 9.357-2.8652 9.7724-6.1392-0.0386-4.0703-3.9865-6.0286-8.6835-4.8943-2.3576 0.56938-6.1177 2.9166-7.2797 3.9799-1.162 1.0633-1.4641 1.5379-1.4641 1.5379l-0.83131-1.5068-1.1473-1.8094s0.19313-0.51328 1.9263-1.9907 6.6288-4.4748 11.551-4.3548c2.8933-0.0156 5.2948 1.1398 6.9067 2.9756 1.5322 1.7451 2.1167 3.8878 2.2221 5.8913 0.0877 1.6669 0.0355 2.532-0.92615 3.8354-0.50872 0.68955-1.1483 1.6226-1.1496 1.8668-1e-3 0.22702 0.71351 0.43089 1.1293 0.56286 2.0194 1.3193 4.1398 4.0003 4.1398 7.1606-0.39962 4.7008-2.2797 6.379-8.768 7.8041-3.8287 0.84093-6.2117 1.4296-6.8664 3.1787-0.38254 0.89057-0.20973 2.3266 0.39053 3.5916 1.0915 1.5571 3.2045 2.4111 5.7247 2.3452 3.0012-0.0785 6.3045-1.5268 9.1662-4.0302 0.99401-0.86954 1.8447-1.7503 1.8447-1.7503 1.472 1.6116 1.9353 3.0593 1.8795 3.5436-0.0583 0.50589-0.85073 1.0272-1.9716 1.9922-3.2465 2.7949-7.2212 4.1654-10.776 4.2387-2.6508 0.0546-5.0248-0.55158-6.9248-2.1503l-1.2869-0.99884s0.20314 0.91373 0.36412 1.956c-0.15772 2.1886-1.4439 5.0781-4.9832 5.8421-0.9938 0.25307-2.0654 0.25887-3.0674 0.17818-1.2715-0.10239-2.6202-0.52711-3.7699-1.6874-2.412-1.9977-2.6975-2.9916-4.3182-7.4839-1.6207-4.4922-1.5874-5.08-2.8431-5.1116-1.0014 0.25268-0.30366 1.2025 0.78136 4.8903 1.4456 5.3372 3.0477 11.291 2.5633 11.875-0.8522 0.88173-1.5074 0.11837-1.6618-0.45813zm10.88-9.8147c1.0096-0.4791 1.4934-1.0238 1.7023-1.2462 0.20889-0.22236 0.47986-0.72798 0.4585-0.98076-0.0296-0.35027-1.2954-1.1348-3.9051-0.87551-2.6097 0.25933-3.0131 1.8014-2.5408 2.6827 0.79694 1.4871 3.2755 0.89888 4.2852 0.41977z"/></g><path d="m263.21 423.52c-0.89063 0-1.7344 0.0977-2.5312 0.29297-0.79688 0.1875-1.6192 0.77148-2.2285 1.1777-0.60156 0.40625-1.0058 1.0723-1.3574 1.7012-0.35156 0.62891-0.53516 1.3945-0.53516 2.2695 0 1.1172 0.58984 2.0039 1.2305 2.793 0.64843 0.78906 1.6289 1.457 2.9414 2.0039 0.51563 0.21094 0.99609 0.41796 1.4414 0.62109 0.44531 0.20312 0.82812 0.41407 1.1484 0.63282 0.32813 0.21875 0.58594 0.45703 0.77344 0.71484 0.18755 0.25781 0.37117 0.66836 0.32617 1.1094-0.045 0.441-0.31743 1.065-0.88867 1.4356-0.23437 0.14844-0.53125 0.26566-0.89063 0.35156-0.35157 0.0859-0.76562 0.12891-1.2422 0.12891-0.8125 0-1.7422-0.25-2.5391-0.53125-0.79688-0.28906-1.5352-0.71875-2.2148-1.2891l-0.0566 3.6094c0.69756 0.30039 1.396 0.59379 2.1562 0.70313 0.83594 0.15627 1.7148 0.23437 2.6367 0.23437 0.89844 0 1.8066 0.0547 2.6113-0.11718 0.8125-0.17188 1.7774-0.79102 2.3867-1.1816 0.60937-0.39844 1.0898-0.91406 1.4414-1.5469 0.35938-0.64062 0.39063-1.2812 0.39063-2.2188 0-0.67969-0.10156-1.2734-0.30469-1.7812-0.20312-0.51563-0.4961-0.97265-0.87891-1.3711-0.38281-0.39843-0.96483-0.60352-1.5039-0.91602-0.53125-0.32031-0.98243-0.76953-1.6543-1.0508-0.49219-0.20313-1.0742-0.39844-1.4648-0.58594-0.39063-0.19531-0.72266-0.39063-0.9961-0.58594-0.27343-0.20313-0.36328-0.56445-0.51172-0.7832-0.14845-0.22656-0.4375-0.86328-0.4375-1.1445 0-0.25781 0.0664-0.48828 0.19922-0.69141 0.13281-0.21094 0.32031-0.39063 0.5625-0.53906 0.24219-0.14844 0.53907-0.26174 0.89063-0.33984 0.35156-0.0859 0.88086-0.12891 1.3106-0.12891 0.3125 0 0.64062 0.0234 0.98437 0.0703 0.35156 0.0469 0.70312 0.12109 1.0547 0.22266 0.35156 0.0937 0.6914 0.21484 1.0195 0.36328 0.33593 0.14843 0.64453 0.32032 0.92578 0.51563v-3.5039c-0.57031-0.21875-1.1953-0.37891-1.875-0.48047-0.67187-0.10937-1.4453-0.16406-2.3203-0.16406zm-156.86 0.0254c-2.6484 0-4.8047 0.83593-6.4688 2.5078-1.6562 1.6719-2.8418 4.0898-2.8418 6.7773 1e-6 2.5234 0.73828 4.6621 2.2148 6.1777 1.4766 1.5156 3.8223 2.5508 6.4004 2.5508 1.9766 0 3.5781-0.29687 4.8047-0.89062v-3.457c-1.2266 0.71875-2.5781 1.3535-4.0547 1.3535-1.5469 0-3.332-1.0332-4.2461-1.9941-0.91407-0.96875-1.3711-2.2656-1.3711-3.8906 0-1.6953 0.83984-3.5937 1.8086-4.5859s2.4805-1.291 4.0586-1.291c1.4375 0 2.7188 0.33594 3.8438 1.0078v-3.6445c-1.125-0.41407-2.5078-0.62109-4.1484-0.62109zm-34.496 0.041c-2.6484 0-4.8047 0.83594-6.4688 2.5078-1.6562 1.6719-2.7207 4.2461-2.7207 6.9336 0 2.5234 0.73828 4.543 2.2148 6.0586 1.4766 1.5156 3.8203 2.4727 6.3984 2.4727 1.9766 0 3.5781-0.29688 4.8047-0.89062v-3.457c-1.2266 0.71875-2.5781 1.0781-4.0547 1.0781-1.5469 0-3.1348-0.40234-4.0488-1.3633-0.91406-0.96875-1.5293-2.543-1.5293-4.168 0-1.6953 0.64258-3.5527 1.6113-4.5449 0.96875-0.99219 2.5195-1.3691 4.0977-1.3691 1.4375 0 2.7188 0.33593 3.8438 1.0078v-3.6445c-1.125-0.41407-2.5078-0.6211-4.1484-0.6211zm15.002 0.11719c-2.5391 0-4.8535 1.0195-6.3926 2.6602-1.5391 1.6406-2.3086 3.7891-2.3086 6.4453 0 2.5156 0.75781 4.5586 2.2734 6.1289 1.5156 1.5625 3.6348 2.6211 6.041 2.6211 2.4688 0 4.5469-0.80859 6.0781-2.4258 1.5391-1.6172 2.3086-3.7461 2.3086-6.3867 0-2.5703-0.70312-5.1172-2.1875-6.6875-1.4766-1.5703-3.4141-2.3555-5.8125-2.3555zm235.84 0.043c-2.5391 0-4.5781 0.82031-6.1172 2.4609-1.5391 1.6406-2.502 3.8281-2.502 6.4844 0 2.5156 0.95117 4.5195 2.4668 6.0898 1.5156 1.5625 3.4766 2.5371 5.8828 2.5371 2.4688 0 4.4688-1.002 6-2.6191 1.5391-1.6172 2.3086-3.7461 2.3086-6.3867 0-2.5703-0.74219-4.6406-2.2266-6.2109-1.4766-1.5703-3.4141-2.3555-5.8125-2.3555zm-118.45 0.26563v17.043l3.3516 0.17188v-17.043zm73.232 0v2.8438h4.7695l0.11914 14.199h3.7969l-0.11914-14.199h4.793v-2.8438zm66.148 0.0156-9.5742 0.10547v17.09l3.4316-0.0371v-6.8105l5.6621-0.0703v-3.0703l-5.6621 0.0703v-4.373l6.1426-0.0703zm-147.27 0.0195 0.14648 9.293c0.018 1.1483-0.11524 1.918-0.0527 2.3086l-0.45703 0.13672c-0.25781-0.45313-0.53906-0.91015-0.84375-1.3711l-6.668-10.23h-4.0781v16.805l3.3418 0.11523v-9.2344c0-1.2188 0.0996-1.9297 0.0371-2.5234l0.58593 0.0488c2.8896 3.6666 5.1242 8.0572 7.8379 11.852l3.7461-0.0117-0.0215-17.188zm-56.264 0.0137 0.0801 16.928 3.4473 0.10937v-9.2344c0-1.2188 0.11523-2.0586 0.0527-2.6524l0.4375-0.0391c0.15625 0.3125 0.31836 0.56836 0.72461 1.1856l7.4199 10.818 3.3809 0.0625 0.0469-17.094-3.4629-0.0547 0.12109 7.9551-0.0176 3.4453-0.5332 0.10156c-0.25781-0.45313-0.56641-0.71679-0.87109-1.1777l-6.748-10.354zm-15.301 0.0293 0.0234 6.9883-7.4277 0.0137v-6.9082h-3.7852v16.805h3.7852l-0.0683-7.2031 7.4453 0.10742 0.0684 7.2031h3.5547l-0.0391-17.006zm177.57 2e-3c-1.0911 2.5657-3.5293 7.7539-3.5293 7.7539s-2.1933-4.852-3.0879-7.4766l-3.9648-0.11914 5.332 10.898v5.9062l3.4258 0.0801v-5.9766l5.4726-10.988zm-80.281 0.0488c-1.3286 4.4467-4.1797 13.209-4.1797 13.209s-2.6564-8.8522-4.2246-13.168l-3.6113 2e-3 5.6074 16.998h4.2891l5.9004-16.998zm-89.963 0.043v16.805h3.7852v-16.805zm34.281 0v9.7031c0 4.9297 2.3965 7.7031 6.959 7.7031 4.7031 0 7.1328-2.793 7.1328-7.8398v-9.5274l-3.3418-0.0391v9.8906c0 2.625-1.3672 4.498-3.4531 4.498-2.8924-0.14758-3.5-1.9199-3.5-4.6387v-9.75zm61.928 0-0.0391 16.986h10.078l0.0391-2.8262-6.4746 0.14258-0.0605-4.5742h5.7598l-0.0215-2.8066h-5.7383l-0.0215-4.2656h6.1504l0.0195-2.6562zm19.225 0-6.1953 0.0957v16.805l3.6894-0.0391v-6.4336l1.3106-0.0566c0.23436 0 0.44922 0.0508 0.64453 0.15235 0.20313 0.0937 0.39453 0.23437 0.57421 0.42187 0.1875 0.17969 0.3711 0.39844 0.55079 0.65625s0.36719 0.55079 0.5625 0.87891l2.6777 4.5801h4.3477s-2.2761-3.3052-2.6895-3.998-1.0001-1.7978-1.5625-2.4004c-0.21875-0.23438-0.60547-0.81055-0.83984-0.98242-0.23438-0.17969-0.47656-0.30862-0.72656-0.38672v-0.0469c0.57031-0.16407 1.0859-0.39062 1.5469-0.67968 0.46875-0.28906 0.86719-0.63281 1.1953-1.0312 0.32814-0.39844 0.43164-0.84375 0.61133-1.3359 0.17973-0.5 0.41993-1.043 0.41993-1.6289-1e-5 -0.98606-0.21345-1.8203-0.64063-2.4941-0.89279-1.4083-2.7186-2.1195-5.4766-2.0762zm24.021 0v16.805l3.127 0.0391v-16.805zm-24.629 2.4551c1.7578 0 2.6367 0.73437 2.6367 2.2031 0 0.70312-0.14648 1.6738-0.64648 2.1504-0.49219 0.46875-1.1446 0.68893-1.957 0.70313l-1.9863 0.0332 0.0156-5.0723zm-160 0.0469c1.2891 0 2.582 1.0371 3.3242 2.0059 0.74219 0.96876 1.1133 2.3242 1.1133 4.0664 0 1.6719-0.38281 2.9805-1.1484 3.9258-0.76563 0.9375-2.3164 1.8418-3.6211 1.8418-1.2656 0-2.5254-0.99805-3.3066-1.9668s-1.1719-2.2852-1.1719-3.9492c0-1.6406 0.19141-3.1152 0.97266-4.1074 0.78125-1 2.5098-1.8164 3.8379-1.8164zm235.89 0.10547c1.2891 0 2.3047 0.66211 3.0469 1.6309s1.3262 2.3945 1.3262 4.1367c0 1.6719-0.70116 3.4062-1.4668 4.3516-0.76562 0.9375-2.0488 1.4414-3.3535 1.4414-1.2656 0-2.2891-0.48438-3.0703-1.4531s-1.4922-2.7812-1.4922-4.4453c0-1.6406 0.39063-2.957 1.1719-3.9492 0.78125-1 2.5098-1.7129 3.8379-1.7129zm-205.2 27.762c-2.6484 0-5.1758 1.1133-6.8398 2.7852-1.6562 1.6719-2.4844 3.8516-2.4844 6.5391 0 2.5234 0.73829 4.543 2.2148 6.0586 1.4766 1.5156 3.875 2.6445 6.4531 2.6445 1.9766 0 3.5781-0.29687 4.8047-0.89062v-3.457c-1.2266 0.71875-2.5781 1.0781-4.0547 1.0781-1.5469 0-3.0098-0.48046-3.9238-1.4414-0.91406-0.96875-1.7402-2.6367-1.7402-4.2617 0-1.6953 0.85352-3.3164 1.8223-4.3086 0.96876-0.99219 2.4746-1.4883 4.0527-1.4883 1.4375 0 2.7188 0.33595 3.8438 1.0078v-3.6445c-1.125-0.41407-2.5078-0.6211-4.1484-0.6211zm-55.896 0.0996c-2.6484 0-5.3145 1.0137-6.9785 2.6856-1.6562 1.6719-2.3066 3.8301-2.3066 6.5176 0 2.5234 0.56055 4.5644 2.0371 6.0801 1.4766 1.5156 3.959 2.6152 6.5371 2.6152 1.9766 0 3.5781-0.29688 4.8047-0.89063v-3.457c-1.2266 0.71875-3.1113 1.3457-4.5879 1.3457-1.5469 0-2.9277-0.86133-3.8418-1.8223-0.91406-0.96874-1.1426-2.4941-1.1426-4.1191 0-1.6953 0.50586-3.3496 1.4746-4.3418s2.3984-1.4648 3.9766-1.4648c1.4375 0 3.0508 0.44532 4.1758 1.1172v-3.6445c-1.125-0.41407-2.5078-0.62109-4.1484-0.62109zm-14.688 8e-3c-0.54199-9e-3 -1.1406 0.0645-1.7969 0.0645-0.89062 0-1.7344-0.0879-2.5312 0.10742-0.79688 0.1875-1.5527 0.77539-2.1621 1.1816-0.60156 0.40625-1.0801 0.92578-1.4316 1.5586-0.35156 0.625-0.52734 1.375-0.52734 2.25 0 1.1172 0.32226 1.832 0.96289 2.6211 0.64844 0.78906 1.627 1.6953 2.9395 2.2422 0.51563 0.21094 0.9961 0.41797 1.4414 0.6211 0.44531 0.20312 1.2051 0.51367 1.5254 0.73242 0.32812 0.21875 0.58594 0.45703 0.77344 0.71484s0.28125 0.88673 0.28125 1.2148c0 0.55698-0.29289 0.94652-0.71484 1.2188-0.77997 0.40399-1.6499 0.46326-2.5098 0.38086-0.8599-0.0824-1.6152-0.14062-2.4121-0.42188-0.79688-0.28906-1.5352-0.71874-2.2148-1.2891v3.75c0.69756 0.3004 1.396 0.59379 2.1562 0.70312 0.83594 0.15627 1.7148 0.23438 2.6367 0.23438 0.89844 0 1.748-0.0859 2.5527-0.25781 0.8125-0.17187 1.5254-0.65625 2.1348-1.0469 0.60938-0.39844 1.1152-0.88672 1.4668-1.5195 0.35938-0.64062 0.69922-1.377 0.69922-2.3144 0-0.67969-0.28711-1.4863-0.49024-1.9941-0.20312-0.51563-0.49609-0.97266-0.87891-1.3711-0.38281-0.39843-0.8457-0.7539-1.3848-1.0664-0.53125-0.32031-1.1309-0.6211-1.8027-0.90235-0.49219-0.20313-0.93359-0.39843-1.3242-0.58593-0.39062-0.19532-0.72461-0.39063-0.99805-0.58594-0.27344-0.20313-0.48242-0.41406-0.63086-0.63282-0.14844-0.22656-0.22461-0.48046-0.22461-0.76171 0-0.25781 0.12109-0.7793 0.25391-0.98243 0.13281-0.21094 0.32031-0.39063 0.5625-0.53906 0.24219-0.14844 0.53906-0.26174 0.89062-0.33984 0.35156-0.0859 0.74219-0.12891 1.1719-0.12891 0.3125 0 0.64062 0.0234 0.98438 0.0703 0.35156 0.0469 0.70312 0.12109 1.0547 0.22266 0.35156 0.0937 0.69141 0.21484 1.0195 0.36328 0.33594 0.14843 0.64453 0.32032 0.92578 0.51563v-3.5039c-0.57031-0.21875-1.1953-0.37891-1.875-0.48047-0.16797-0.0274-0.34277-0.0399-0.52344-0.043zm134.78 0.17054-0.0514 17.404 5.8507-0.0512c2.7108-0.0237 4.8789-1.0488 6.5039-2.6113 1.6328-1.5625 2.5951-3.543 2.5951-6.1601 0-5.4609-3.1556-8.6582-9.1244-8.6582zm125.07-0.0338v17.387h10.008v-2.916h-6.2226v-14.471zm-64.502 0.0332c-2.6484 0-4.7779 0.67551-6.442 2.3474-1.6562 1.6719-2.6448 4.012-2.6448 6.6995 0 2.5234 0.76503 4.8104 2.2416 6.326 1.4766 1.5156 3.6109 2.2736 6.189 2.2736 1.9766 0 3.5781-0.29688 4.8047-0.89063l0.0332-3.293c-1.2266 0.71875-2.5514 1.1049-4.028 1.1049-1.5469 0-2.9645-0.427-3.8786-1.3879-0.91407-0.96875-1.6496-2.7443-1.6496-4.3693 0-1.6953 0.69093-3.3691 1.6597-4.3613s2.375-1.4551 3.9531-1.4551c1.4375 0 2.8184 0.33594 3.9434 1.0078l-0.0332-3.3809c-1.125-0.41407-2.5078-0.6211-4.1484-0.6211zm53.086 0c-2.5391 1e-5 -4.5781 0.82031-6.1172 2.4609-1.5391 1.6406-2.3086 3.7891-2.3086 6.4453 0 2.5156 0.75781 4.5586 2.2734 6.1289 1.5156 1.5625 3.4766 2.6113 5.8828 2.6113 2.4688 0 4.7598-0.94726 6.291-2.5644 1.5391-1.6172 2.3086-3.7461 2.3086-6.3867 0-2.5703-0.74219-4.6406-2.2266-6.2109-1.4766-1.5703-3.7051-2.4844-6.1035-2.4844zm-218.97 0.0117v17.391h10.291v-3.0703h-6.5059l0.044922-4.1604h5.709v-2.7988h-5.709l-0.04492-4.2793h6.1191v-3.082zm281.8 0-4.1367 0.1875 5.4473 11.014 0.0137 6.1191h3.5527l-0.0137-6.1895 5.7539-11.061h-3.5879l-3.7012 7.8496zm-31.082 0.0215c-2.5391 0-4.5781 0.82031-6.1172 2.4609-1.5391 1.6406-2.3086 3.7891-2.3086 6.4453 0 2.5156 0.7578 4.5586 2.2734 6.1289 1.5156 1.5625 3.4766 2.3438 5.8828 2.3438 2.4688 0 4.4688-0.80859 6-2.4258 1.5391-1.6172 2.3086-3.7461 2.3086-6.3867 0-2.5703-0.74219-4.6406-2.2266-6.2109-1.4766-1.5703-3.4141-2.3555-5.8125-2.3555zm19.555 0c-2.8281 0-5.0938 0.83202-6.7969 2.4961-1.7031 1.6641-2.5547 3.8164-2.5547 6.457 0 2.625 0.77734 4.6875 2.332 6.1875 1.5625 1.4922 3.7285 2.5039 6.4316 2.5039 2.4375 0 4.709-0.73828 6.3496-1.6836v-8.4492l-7.2109 0.041-0.0138 2.8852 3.5016-0.0276-8e-3 3.7691c-0.53125 0.25781-1.3883 0.41438-2.2945 0.41438-1.5078 0-2.9102-0.51368-3.8008-1.459-0.88282-0.94531-1.4785-2.6113-1.4785-4.3379 0-1.7031 0.55077-3.5098 1.5352-4.5254 0.99219-1.0234 2.4492-1.5547 4.0195-1.5547 1.875 0 3.4609 0.375 4.7578 1.125l-0.0586-3.1035c-1.3594-0.49219-2.9297-0.73828-4.7109-0.73828zm-278.05 0.24805v17.014h3.7852v-17.014zm21.238 0-0.13477 17.121h3.5742l0.08789-12.27 7.9961 12.316h3.8203l-0.22657-17.168h-3.3027l0.0488 11.648-0.27344-0.0469-7.5117-11.602zm34.797 0 0.14063 17.223h10.078v-2.793h-6.293l-0.14062-4.5393h5.7285v-2.8379h-5.7285v-4.2949l6.1387 0.0469v-2.7578zm24.521 0-6.1172 17.072 3.8652 0.0293 1.1836-4.0039 6.2871-0.14453 1.3438 4.1738 3.9023-0.0547-5.9766-17.072zm12.992 0-0.15429 17.174h3.5742l-0.01-12.523 8.2031 12.422h3.6328l-2e-3 -17.072-3.4746 0.0469 6e-3 11.887-7.6973-11.934zm42.961 0v2.7676l5.1387 0.0527v14.305l3.4277-0.0527v-14.305h4.793v-2.7676zm15.943 0 0.0182 17.072h10.169l-0.0176-2.9102-6.4205-0.0182 0.0176-4.2717 5.4596 0.0182 0.0182-2.9063-5.5143-0.0364 0.0481-4.1952 5.9245 0.0364 0.0977-2.7891zm28.719 0v17.072l3.5107 0.0376-0.0376-7.2619 7.4723-0.0941v7.3183l3.5977 0.0225 0.0451-17.14-3.6427 0.0451v6.9167l-7.3167-0.0854-0.0427-6.8313zm18.884-0.0225 0.0451 17.072 3.2291 0.0225-0.0937-12.221 0.39258-0.10352 8.0039 12.219 3.6172 0.10547 2e-3 -17.072-3.334 0.0781-6e-3 11.703-7.8457-11.781zm26.977 2.71c1.2891 0 2.3047 0.48437 3.0469 1.4531s1.3398 2.7246 1.3398 4.4668c0 1.6719-0.56055 3.332-1.3262 4.2773-0.76563 0.9375-2.1875 1.2949-3.4922 1.2949-1.2656 0-2.2891-0.48437-3.0703-1.4531s-1.416-2.6367-1.416-4.3008c0-1.6406 0.58398-3.3574 1.3652-4.3496 0.78125-1 2.2246-1.3887 3.5527-1.3887zm31.057 0.0269c1.8591 0.0197 2.799 0.46472 3.5411 1.4335s1.294 2.7786 1.294 4.5208c0 1.6719-0.49711 3.2942-1.2627 4.2395-0.76563 0.9375-2.2754 1.4062-3.5801 1.4062-1.2656 0-2.2891-0.48438-3.0703-1.4531-0.78126-0.96875-1.2954-2.7168-1.2954-4.3809 0-1.6406 0.44777-3.2148 1.229-4.207 0.78125-1 1.8164-1.573 3.1444-1.559zm-141.59 0.061h2.0257c1.6719 0 3.0417 0.24217 3.9636 1.164 0.92969 0.91406 1.836 2.877 1.836 4.4785 0 1.6953-0.79691 3.181-1.7344 4.1654-0.92969 0.98436-2.3502 1.4342-3.9909 1.4342h-2.0492zm-33.871 0.88085 2.2051 6.5039h-4.4785z" style="white-space:pre"/><g><ellipse cx="102.87" cy="336.25" rx="2.6505" ry="2.3648"/><ellipse cx="113.16" cy="338.35" rx="2.6505" ry="2.3648"/><ellipse cx="114.18" cy="331.05" rx="2.6505" ry="2.3648"/><ellipse cx="104.11" cy="328.49" rx="2.6505" ry="2.3648"/><ellipse cx="95.168" cy="326.54" rx="2.6505" ry="2.3648"/><ellipse cx="93.875" cy="334.85" rx="2.6505" ry="2.3648"/><ellipse cx="93.319" cy="343.26" rx="2.6505" ry="2.3648"/><ellipse cx="102.53" cy="344.15" rx="2.6505" ry="2.3648"/><ellipse cx="85.933" cy="333.27" rx="2.6505" ry="2.3648"/><ellipse cx="83.067" cy="341.92" rx="2.6505" ry="2.3648"/><ellipse cx="77.319" cy="331.68" rx="2.6505" ry="2.3648"/><ellipse cx="72.476" cy="339.39" rx="2.6505" ry="2.3648"/><ellipse cx="84.657" cy="324.06" rx="2.6505" ry="2.3648"/><ellipse transform="scale(1,-1)" cx="105.11" cy="-311.29" rx="2.6505" ry="2.3648"/><ellipse cx="132.35" cy="328.22" rx="2.6505" ry="2.3648"/><ellipse cx="122.68" cy="333.93" rx="2.6505" ry="2.3648"/><ellipse cx="131.7" cy="337.79" rx="2.6505" ry="2.3648"/><ellipse cx="140.4" cy="347.68" rx="2.6505" ry="2.3648"/><ellipse cx="139.99" cy="356.4" rx="2.6505" ry="2.3648"/><ellipse cx="148.01" cy="360.48" rx="2.6505" ry="2.3648"/><ellipse cx="149.32" cy="352.8" rx="2.6505" ry="2.3648"/><ellipse cx="150.27" cy="344.74" rx="2.6505" ry="2.3648"/><ellipse cx="150.3" cy="335.83" rx="2.6505" ry="2.3648"/><ellipse cx="159.18" cy="323.02" rx="2.6505" ry="2.3648"/><ellipse cx="158.9" cy="331.08" rx="2.6505" ry="2.3648"/><ellipse cx="122.06" cy="342.55" rx="2.6505" ry="2.3648"/><ellipse cx="105.71" cy="303.78" rx="2.6505" ry="2.3648"/><ellipse cx="132.6" cy="319.25" rx="2.6505" ry="2.3648"/><ellipse cx="133.29" cy="313.2" rx="2.6505" ry="2.3648"/><ellipse cx="112.14" cy="346.75" rx="2.6505" ry="2.3648"/><ellipse cx="121.45" cy="350.52" rx="2.6505" ry="2.3648"/><ellipse cx="131.4" cy="345.49" rx="2.6505" ry="2.3648"/><ellipse cx="130.78" cy="352.83" rx="2.6505" ry="2.3648"/><ellipse cx="142.56" cy="316.96" rx="2.6505" ry="2.3648"/><ellipse cx="141.59" cy="324.33" rx="2.6505" ry="2.3648"/><ellipse cx="151.2" cy="319.55" rx="2.6505" ry="2.3648"/><ellipse cx="140.91" cy="331.99" rx="2.6505" ry="2.3648"/><ellipse cx="140.34" cy="340.07" rx="2.6505" ry="2.3648"/><ellipse cx="150.63" cy="327.15" rx="2.6505" ry="2.3648"/><ellipse cx="158.24" cy="339.71" rx="2.6505" ry="2.3648"/><ellipse cx="157.59" cy="347.68" rx="2.6505" ry="2.3648"/><ellipse cx="156.99" cy="355.68" rx="2.6505" ry="2.3648"/><ellipse cx="156.99" cy="364.33" rx="2.6505" ry="2.3648"/><ellipse cx="165.87" cy="367.86" rx="2.6505" ry="2.3648"/><ellipse cx="165.93" cy="359.9" rx="2.6505" ry="2.3648"/><ellipse cx="166.56" cy="350.83" rx="2.6505" ry="2.3648"/><ellipse cx="166.9" cy="343.18" rx="2.6505" ry="2.3648"/><ellipse cx="167.56" cy="334.93" rx="2.6505" ry="2.3648"/><ellipse cx="168.81" cy="326.8" rx="2.6505" ry="2.3648"/><ellipse cx="176.03" cy="331.96" rx="2.6505" ry="2.3648"/><ellipse cx="174.87" cy="340.02" rx="2.6505" ry="2.3648"/><ellipse cx="182.56" cy="336.83" rx="2.6505" ry="2.3648"/><ellipse cx="189.62" cy="340.27" rx="2.6505" ry="2.3648"/><ellipse cx="114.44" cy="324.03" rx="2.6505" ry="2.3648"/><ellipse cx="122.71" cy="325.63" rx="2.6505" ry="2.3648"/><ellipse cx="123.66" cy="317.56" rx="2.6505" ry="2.3648"/><ellipse cx="124.32" cy="309.91" rx="2.6505" ry="2.3648"/><ellipse cx="114.29" cy="315.32" rx="2.6505" ry="2.3648"/><ellipse cx="114.73" cy="306.44" rx="2.6505" ry="2.3648"/><ellipse cx="97.172" cy="301.92" rx="2.6505" ry="2.3648"/><ellipse cx="105.13" cy="319.53" rx="2.6505" ry="2.3648"/><ellipse cx="92.349" cy="309.91" rx="2.6505" ry="2.3648"/><ellipse cx="87.21" cy="316.09" rx="2.6505" ry="2.3648"/><ellipse cx="96.128" cy="318.53" rx="2.6505" ry="2.3648"/><ellipse cx="181.31" cy="345.11" rx="2.6505" ry="2.3648"/><ellipse cx="174.21" cy="348.05" rx="2.6505" ry="2.3648"/><ellipse cx="180.65" cy="352.86" rx="2.6505" ry="2.3648"/><ellipse cx="173.62" cy="356.61" rx="2.6505" ry="2.3648"/><ellipse cx="188.65" cy="350.93" rx="2.6505" ry="2.3648"/><ellipse cx="188.03" cy="357.9" rx="2.6505" ry="2.3648"/><ellipse cx="180.96" cy="360.83" rx="2.6505" ry="2.3648"/><ellipse cx="174.28" cy="364.3" rx="2.6505" ry="2.3648"/><ellipse cx="179.93" cy="368.18" rx="2.6505" ry="2.3648"/><ellipse cx="187.65" cy="366.27" rx="2.6505" ry="2.3648"/><ellipse cx="172.37" cy="372.93" rx="2.6505" ry="2.3648"/><ellipse cx="180.03" cy="376.49" rx="2.6505" ry="2.3648"/><ellipse cx="187.96" cy="373.96" rx="2.6505" ry="2.3648"/><ellipse cx="186.71" cy="381.61" rx="2.6505" ry="2.3648"/><ellipse cx="216.53" cy="343.49" rx="2.6505" ry="2.3648"/><ellipse cx="216.45" cy="351.56" rx="2.6505" ry="2.3648"/><ellipse cx="217.09" cy="359.5" rx="2.6505" ry="2.3648"/><ellipse cx="217.74" cy="367.81" rx="2.6505" ry="2.3648"/><ellipse cx="217.41" cy="375.23" rx="2.6505" ry="2.3648"/><ellipse cx="218.03" cy="383.9" rx="2.6505" ry="2.3648"/><ellipse cx="225.54" cy="378.63" rx="2.6505" ry="2.3648"/><ellipse cx="232.16" cy="374.2" rx="2.6505" ry="2.3648"/><ellipse cx="225.05" cy="371.39" rx="2.6505" ry="2.3648"/><ellipse cx="231.54" cy="366.85" rx="2.6505" ry="2.3648"/><ellipse cx="224.07" cy="363.39" rx="2.6505" ry="2.3648"/><ellipse cx="231.82" cy="359.19" rx="2.6505" ry="2.3648"/><ellipse cx="224.11" cy="354.7" rx="2.6505" ry="2.3648"/><ellipse cx="230.57" cy="350.3" rx="2.6505" ry="2.3648"/><ellipse cx="223.45" cy="346.1" rx="2.6505" ry="2.3648"/><ellipse cx="230.58" cy="341.32" rx="2.6505" ry="2.3648"/><ellipse cx="222.87" cy="337.14" rx="2.6505" ry="2.3648"/><ellipse cx="229.65" cy="332.36" rx="2.6505" ry="2.3648"/><ellipse cx="237.32" cy="329.17" rx="2.6505" ry="2.3648"/><ellipse cx="246.78" cy="325.85" rx="2.6505" ry="2.3648"/><ellipse cx="247.23" cy="333.03" rx="2.6505" ry="2.3648"/><ellipse cx="238.16" cy="338.35" rx="2.6505" ry="2.3648"/><ellipse cx="246.85" cy="342.28" rx="2.6505" ry="2.3648"/><ellipse cx="238.81" cy="347.35" rx="2.6505" ry="2.3648"/><ellipse cx="246.29" cy="350.52" rx="2.6505" ry="2.3648"/><ellipse cx="239.5" cy="354.08" rx="2.6505" ry="2.3648"/><ellipse cx="247.92" cy="358.28" rx="2.6505" ry="2.3648"/><ellipse cx="239.45" cy="360.86" rx="2.6505" ry="2.3648"/><ellipse cx="249.08" cy="366.25" rx="2.6505" ry="2.3648"/><ellipse cx="240.15" cy="368.81" rx="2.6505" ry="2.3648"/><ellipse cx="256.83" cy="362.39" rx="2.6505" ry="2.3648"/><ellipse cx="265.47" cy="359.23" rx="2.6505" ry="2.3648"/><ellipse cx="255.47" cy="354.41" rx="2.6505" ry="2.3648"/><ellipse cx="264.81" cy="350.9" rx="2.6505" ry="2.3648"/><ellipse cx="255.18" cy="346.68" rx="2.6505" ry="2.3648"/><ellipse cx="263.9" cy="342.55" rx="2.6505" ry="2.3648"/><ellipse cx="255.28" cy="337.74" rx="2.6505" ry="2.3648"/><ellipse cx="254.87" cy="328.83" rx="2.6505" ry="2.3648"/><ellipse cx="255.23" cy="321.19" rx="2.6505" ry="2.3648"/><ellipse cx="263.49" cy="318.23" rx="2.6505" ry="2.3648"/><ellipse cx="273.16" cy="315.41" rx="2.6505" ry="2.3648"/><ellipse cx="281.99" cy="312.48" rx="2.6505" ry="2.3648"/><ellipse cx="282.45" cy="320.81" rx="2.6505" ry="2.3648"/><ellipse cx="273.14" cy="323.05" rx="2.6505" ry="2.3648"/><ellipse cx="282.43" cy="328.78" rx="2.6505" ry="2.3648"/><ellipse cx="273.48" cy="331.36" rx="2.6505" ry="2.3648"/><ellipse cx="283.02" cy="336.75" rx="2.6505" ry="2.3648"/><ellipse cx="273.73" cy="338.36" rx="2.6505" ry="2.3648"/><ellipse transform="scale(1,-1)" cx="282.39" cy="-344.19" rx="2.6505" ry="2.3648"/><ellipse cx="274.09" cy="346.36" rx="2.6505" ry="2.3648"/><ellipse cx="282.77" cy="352.85" rx="2.6505" ry="2.3648"/><ellipse cx="274.1" cy="355.67" rx="2.6505" ry="2.3648"/><ellipse cx="291.98" cy="349.27" rx="2.6505" ry="2.3648"/><ellipse cx="302.9" cy="347.41" rx="2.6505" ry="2.3648"/><ellipse cx="292.27" cy="340.96" rx="2.6505" ry="2.3648"/><ellipse cx="302.63" cy="338.41" rx="2.6505" ry="2.3648"/><ellipse cx="292.58" cy="332.97" rx="2.6505" ry="2.3648"/><ellipse cx="301.27" cy="331.08" rx="2.6505" ry="2.3648"/><ellipse cx="292" cy="324.99" rx="2.6505" ry="2.3648"/><ellipse cx="301.23" cy="323.06" rx="2.6505" ry="2.3648"/><ellipse cx="292" cy="317.59" rx="2.6505" ry="2.3648"/><ellipse cx="300.94" cy="315.7" rx="2.6505" ry="2.3648"/><ellipse cx="291.69" cy="310.52" rx="2.6505" ry="2.3648"/><ellipse cx="300.32" cy="308.61" rx="2.6505" ry="2.3648"/><ellipse cx="307.68" cy="305.79" rx="2.6505" ry="2.3648"/><ellipse cx="312.48" cy="311.9" rx="2.6505" ry="2.3648"/><ellipse cx="309.87" cy="321.83" rx="2.6505" ry="2.3648"/><ellipse cx="316.24" cy="319.47" rx="2.6505" ry="2.3648"/><ellipse cx="309.89" cy="329.39" rx="2.6505" ry="2.3648"/><ellipse cx="319.5" cy="327.18" rx="2.6505" ry="2.3648"/><ellipse cx="319.9" cy="335.83" rx="2.6505" ry="2.3648"/><ellipse cx="329.81" cy="340.65" rx="2.6505" ry="2.3648"/><ellipse cx="320.47" cy="342.92" rx="2.6505" ry="2.3648"/><ellipse cx="311.85" cy="345.46" rx="2.6505" ry="2.3648"/><ellipse cx="327.43" cy="334.27" rx="2.6505" ry="2.3648"/><ellipse cx="311.78" cy="337.76" rx="2.6505" ry="2.3648"/><ellipse cx="263.49" cy="326.8" rx="2.6505" ry="2.3648"/><ellipse cx="264.21" cy="334.21" rx="2.6505" ry="2.3648"/></g></g></svg>
