<?xml version="1.0" encoding="UTF-8" standalone="no"?>
<!-- Created with Inkscape (http://www.inkscape.org/) -->

<svg
   version="1.1"
   id="svg1"
   width="123.36719"
   height="137.65387"
   viewBox="0 0 123.36719 137.65387"
   xmlns="http://www.w3.org/2000/svg"
   xmlns:svg="http://www.w3.org/2000/svg">
  <defs
     id="defs1" />
  <g
     id="g1"
     transform="translate(-138.55078,-454.17108)">
    <path
       id="path105"
       d="m 126.143,450.905 h 43.092 V 348.598 h -43.092 z"
       style="fill:none;stroke:#000102;stroke-width:0.9334;stroke-linecap:round;stroke-linejoin:round;stroke-miterlimit:10;stroke-dasharray:none;stroke-opacity:1"
       transform="matrix(1.3333333,0,0,-1.3333333,0,1056)" />
    <path
       id="path106"
       d="m 120.182,445.518 h 5.961 v -5.386 h -5.961 z m 0,-10.772 h 5.961 v -5.386 h -5.961 z m 0,-10.773 h 5.961 v -5.386 h -5.961 z m 0,-10.773 h 5.961 v -5.386 h -5.961 z m 0,-10.773 h 5.961 v -5.386 h -5.961 z m 0,-10.773 h 5.961 v -5.386 h -5.961 z m 0,-10.773 h 5.961 v -5.386 h -5.961 z m 0,-10.773 h 5.961 v -5.386 h -5.961 z m 0,-10.773 h 5.961 v -5.386 h -5.961 z m 49.053,37.705 h 5.961 v 5.386 h -5.961 z m 0,10.773 h 5.961 v 5.386 h -5.961 z m 0,10.773 h 5.961 v 5.386 h -5.961 z m 0,10.773 h 5.961 v 5.386 h -5.961 z m 0,10.773 h 5.961 v 5.386 h -5.961 z m 0,-64.637 h 5.961 v 5.386 h -5.961 z m 0,10.772 h 5.961 v 5.386 h -5.961 z m 0,-32.318 h 5.961 v 5.386 h -5.961 z m 0,10.773 h 5.961 v 5.386 h -5.961 z"
       style="fill:none;stroke:#000102;stroke-width:0.807;stroke-linecap:round;stroke-linejoin:round;stroke-miterlimit:10;stroke-dasharray:none;stroke-opacity:1"
       transform="matrix(1.3333333,0,0,-1.3333333,0,1056)" />
    <path
       id="path107"
       d="m 144.062,450.869 c 0,-2.478 1.652,-4.525 3.663,-4.525 2.047,0 3.699,2.047 3.699,4.525 -2.442,0 -4.92,0 -7.362,0 z"
       style="fill:none;fill-opacity:1;fill-rule:evenodd;stroke:#000102;stroke-width:0.7319;stroke-linecap:round;stroke-linejoin:round;stroke-miterlimit:10;stroke-dasharray:none;stroke-opacity:1"
       transform="matrix(1.3333333,0,0,-1.3333333,0,1056)" />
    <path
       id="path109"
       d="M -0.0124375,1.21875e-4 1.8977187,-4.9803469 H 2.6125625 L 4.651625,1.21875e-4 h -0.75 L 3.3156875,-1.5115969 H 1.2414687 L 0.6906875,1.21875e-4 Z M 1.4289687,-2.0506594 h 1.6875 l -0.515625,-1.3710937 c -0.1640625,-0.421875 -0.28125,-0.7617188 -0.3632812,-1.0429688 -0.058594,0.328125 -0.1523438,0.6445313 -0.2578125,0.9609375 z m 3.4951172,-0.4101562 c 0,-0.5859375 0.058594,-1.0546875 0.1757813,-1.4179688 0.1171875,-0.3632812 0.3046875,-0.6328125 0.5390625,-0.8320312 0.234375,-0.1992188 0.5390625,-0.2929688 0.9023437,-0.2929688 0.2695313,0 0.5039063,0.058594 0.703125,0.1640625 0.1992188,0.1054688 0.375,0.2578125 0.5039063,0.46875 0.1289062,0.1992188 0.234375,0.4453125 0.3046875,0.7382813 0.082031,0.2929687 0.1171875,0.6796875 0.1171875,1.171875 0,0.5859375 -0.058594,1.0664062 -0.1757813,1.4179687 -0.1289062,0.36328127 -0.3046875,0.63281252 -0.5507812,0.83203127 -0.234375,0.19921875 -0.5390625,0.29296875 -0.9023438,0.29296875 -0.4804687,0 -0.8554687,-0.1640625 -1.125,-0.515625 C 5.0881484,-0.84362813 4.9240859,-1.5233156 4.9240859,-2.4608156 Z m 0.6210938,0 c 0,0.8203125 0.09375,1.3710937 0.2929687,1.64062497 0.1875,0.26953125 0.421875,0.3984375 0.703125,0.3984375 0.28125,0 0.515625,-0.12890625 0.7148438,-0.3984375 0.1875,-0.28124997 0.28125,-0.82031247 0.28125,-1.64062497 0,-0.8203125 -0.09375,-1.359375 -0.28125,-1.6289063 -0.1992188,-0.2695312 -0.4335938,-0.4101562 -0.7148438,-0.4101562 -0.28125,0 -0.515625,0.1171875 -0.6796875,0.3632812 -0.2109375,0.3046875 -0.3164062,0.8671875 -0.3164062,1.6757813 z M -0.0124375,10.772583 1.8977187,5.7921141 H 2.6125625 L 4.651625,10.772583 h -0.75 L 3.3156875,9.2608641 H 1.2414687 L 0.6906875,10.772583 Z M 1.4289687,8.7218016 h 1.6875 L 2.6008437,7.3507078 C 2.4367812,6.9288328 2.3195937,6.5889891 2.2375625,6.3077391 2.1789687,6.6358641 2.0852187,6.9522703 1.97975,7.2686766 Z M 7.2209609,10.772583 H 6.6115859 V 6.8702391 C 6.4592422,7.0225828 6.2717422,7.1514891 6.0256484,7.2921141 5.7912734,7.4327391 5.5803359,7.5382078 5.3928359,7.6085203 V 7.0225828 C 5.7326797,6.8585203 6.0256484,6.6710203 6.2834609,6.4366453 6.5412734,6.2022703 6.7170547,5.9913328 6.8342422,5.7686766 h 0.3867187 z m -7.2333984,10.772461 1.9101562,-4.980469 h 0.7148438 l 2.0390625,4.980469 h -0.75 L 3.3156875,20.033325 H 1.2414687 l -0.5507812,1.511719 z m 1.4414062,-2.050782 h 1.6875 L 2.6008437,18.123169 C 2.4367812,17.701294 2.3195937,17.36145 2.2375625,17.0802 2.1789687,17.408325 2.0852187,17.724731 1.97975,18.041137 Z m 6.7060547,1.464844 v 0.585938 H 4.8420547 c -0.011719,-0.140625 0.011719,-0.292969 0.070312,-0.421875 0.082031,-0.222657 0.2226562,-0.445313 0.3984375,-0.667969 0.1875,-0.210938 0.4570312,-0.46875 0.8085937,-0.75 0.5390625,-0.445313 0.9023438,-0.796875 1.0898438,-1.054688 0.1992187,-0.257812 0.2929687,-0.503906 0.2929687,-0.738281 0,-0.246094 -0.09375,-0.445312 -0.2695312,-0.609375 -0.1640625,-0.164062 -0.3867188,-0.257812 -0.6679688,-0.257812 -0.2929687,0 -0.5390625,0.09375 -0.7148437,0.269531 -0.1757813,0.175781 -0.2578125,0.421875 -0.2578125,0.738281 l -0.6328125,-0.07031 c 0.035156,-0.46875 0.1992187,-0.820313 0.4804687,-1.066407 0.28125,-0.246093 0.65625,-0.375 1.1367188,-0.375 0.4804687,0 0.8554687,0.128907 1.1367187,0.398438 0.28125,0.269531 0.4101563,0.597656 0.4101563,0.984375 0,0.199219 -0.035156,0.398437 -0.1171875,0.585937 -0.082031,0.199219 -0.2226563,0.398438 -0.4101563,0.609375 -0.1875,0.210938 -0.5039062,0.503907 -0.9375,0.878907 -0.3632812,0.304687 -0.609375,0.515625 -0.703125,0.632812 -0.1054687,0.105469 -0.1992187,0.222656 -0.2695312,0.328125 z m -8.1474609,11.361328 1.9101562,-4.980468 h 0.7148438 l 2.0390625,4.980468 h -0.75 L 3.3156875,30.808716 H 1.2414687 l -0.5507812,1.511718 z m 1.4414062,-2.050781 h 1.6875 L 2.6008437,28.898559 C 2.4367812,28.476684 2.3195937,28.136841 2.2375625,27.855591 2.1789687,28.183716 2.0852187,28.500122 1.97975,28.816528 Z m 3.4951172,0.738281 0.609375,-0.08203 c 0.070312,0.339844 0.1875,0.597656 0.3632813,0.75 0.1640625,0.152344 0.375,0.222656 0.609375,0.222656 0.2929687,0 0.5390625,-0.09375 0.7265625,-0.292968 0.1992187,-0.199219 0.3046875,-0.445313 0.3046875,-0.738282 0,-0.28125 -0.09375,-0.515625 -0.28125,-0.703125 -0.1757813,-0.175781 -0.4101563,-0.269531 -0.6914063,-0.269531 -0.1171875,0 -0.2695312,0.02344 -0.4335937,0.07031 l 0.070312,-0.539063 c 0.035156,0 0.070312,0 0.09375,0 0.2578125,0 0.4921875,-0.05859 0.703125,-0.199219 0.2109375,-0.140625 0.3164062,-0.339843 0.3164062,-0.632812 0,-0.222656 -0.082031,-0.398438 -0.234375,-0.550781 -0.1523437,-0.152344 -0.3398437,-0.222657 -0.5859375,-0.222657 -0.234375,0 -0.4335937,0.07031 -0.5976562,0.222657 -0.1523438,0.152343 -0.2578125,0.375 -0.3046875,0.679687 l -0.609375,-0.117187 c 0.082031,-0.410157 0.2460937,-0.726563 0.515625,-0.949219 0.2578125,-0.222656 0.5859375,-0.339844 0.984375,-0.339844 0.2695312,0 0.515625,0.05859 0.75,0.175781 0.234375,0.117188 0.3984375,0.28125 0.5273437,0.480469 0.1171875,0.199219 0.1757813,0.410156 0.1757813,0.644531 0,0.210938 -0.046875,0.410157 -0.1640625,0.585938 -0.1171875,0.175781 -0.2929688,0.316406 -0.515625,0.421875 0.2929687,0.07031 0.5273437,0.210937 0.6796875,0.421875 0.1640625,0.210937 0.2460937,0.480469 0.2460937,0.796875 0,0.445312 -0.1523437,0.808594 -0.46875,1.113281 -0.3164062,0.304688 -0.7265625,0.457031 -1.2070312,0.457031 -0.4335938,0 -0.796875,-0.128906 -1.0898438,-0.398437 -0.2929682,-0.257811 -0.4570307,-0.597654 -0.492187,-1.007811 z m -4.9365234,12.084961 1.9101562,-4.980468 h 0.7148438 l 2.0390625,4.980468 h -0.75 L 3.3156875,41.581177 H 1.2414687 l -0.5507812,1.511718 z m 1.4414062,-2.050781 h 1.6875 L 2.6008437,39.67102 C 2.4367812,39.249145 2.3195937,38.909302 2.2375625,38.628052 2.1789687,38.956177 2.0852187,39.272583 1.97975,39.588989 Z m 5.4521485,2.050781 v -1.195312 h -2.15625 v -0.5625 l 2.2734375,-3.222656 h 0.4921875 v 3.222656 h 0.6796875 v 0.5625 H 7.4904922 v 1.195312 z m 0,-1.757812 v -2.238281 l -1.5585938,2.238281 z m -6.8935547,12.530273 1.9101562,-4.980469 h 0.7148438 l 2.0390625,4.980469 h -0.75 L 3.3156875,52.353637 H 1.2414687 l -0.5507812,1.511719 z m 1.4414062,-2.050781 h 1.6875 L 2.6008437,50.443481 C 2.4367812,50.021606 2.3195937,49.681762 2.2375625,49.400512 2.1789687,49.728637 2.0852187,50.045044 1.97975,50.36145 Z m 3.4951172,0.75 0.6328125,-0.05859 c 0.058594,0.316406 0.1640625,0.550781 0.3398438,0.703125 0.1640625,0.164063 0.375,0.234375 0.6210937,0.234375 0.2929688,0 0.5507813,-0.105469 0.75,-0.328125 0.1992188,-0.222656 0.3046875,-0.515625 0.3046875,-0.890625 0,-0.339844 -0.09375,-0.621094 -0.2929687,-0.820312 C 7.0803359,51.2052 6.8225234,51.099731 6.5061172,51.099731 c -0.1875,0 -0.375,0.04687 -0.5273438,0.140625 -0.1640625,0.08203 -0.2929687,0.199219 -0.375,0.339844 L 5.0295547,51.509887 5.5100234,48.9552 h 2.484375 v 0.574219 H 6.0022109 l -0.2695312,1.347656 c 0.2929687,-0.210938 0.609375,-0.316406 0.9375,-0.316406 0.4335937,0 0.8085937,0.152343 1.1015625,0.457031 0.3046875,0.292969 0.4570312,0.691406 0.4570312,1.160156 0,0.445313 -0.140625,0.84375 -0.3984375,1.171875 -0.3164062,0.398438 -0.7617187,0.597656 -1.3125,0.597656 -0.4570312,0 -0.8203125,-0.117187 -1.1132812,-0.375 -0.28125,-0.257812 -0.4453125,-0.585937 -0.4804688,-1.007812 z m -4.9365234,12.073242 1.9101562,-4.980469 h 0.7148438 l 2.0390625,4.980469 h -0.75 L 3.3156875,63.126098 H 1.2414687 l -0.5507812,1.511719 z m 1.4414062,-2.050781 h 1.6875 L 2.6008437,61.215942 C 2.4367812,60.794067 2.3195937,60.454223 2.2375625,60.172973 2.1789687,60.501098 2.0852187,60.817505 1.97975,61.133911 Z m 6.6708985,-1.710938 -0.609375,0.04687 c -0.058594,-0.234375 -0.140625,-0.410156 -0.234375,-0.527343 -0.1640625,-0.164063 -0.375,-0.257813 -0.609375,-0.257813 -0.1992188,0 -0.375,0.05859 -0.515625,0.164063 C 5.9318984,60.4425 5.7795547,60.641718 5.6740859,60.91125 5.5568984,61.1925 5.5100234,61.5675 5.4983047,62.071406 5.6506484,61.84875 5.8264297,61.672968 6.0373672,61.5675 c 0.2109375,-0.105469 0.4335937,-0.164063 0.6796875,-0.164063 0.3984375,0 0.75,0.152344 1.03125,0.457031 0.2929687,0.292969 0.4335937,0.679688 0.4335937,1.160157 0,0.316406 -0.070312,0.609375 -0.1992187,0.867187 -0.140625,0.269531 -0.328125,0.480469 -0.5625,0.621094 -0.234375,0.140625 -0.5039063,0.210937 -0.796875,0.210937 -0.515625,0 -0.9257813,-0.1875 -1.2421875,-0.5625 -0.328125,-0.375 -0.4921875,-0.984375 -0.4921875,-1.851562 0,-0.960938 0.1757812,-1.664063 0.5390625,-2.097656 0.3046875,-0.386719 0.7265625,-0.574219 1.2539062,-0.574219 0.3867188,0 0.7148438,0.117187 0.9609375,0.328125 0.2460938,0.222656 0.3984375,0.527344 0.4570313,0.914062 z M 5.5920547,63.02063 c 0,0.210937 0.046875,0.421875 0.140625,0.609375 0.082031,0.1875 0.2109375,0.339843 0.375,0.445312 0.1640625,0.09375 0.328125,0.140625 0.5039062,0.140625 0.2578125,0 0.4804688,-0.09375 0.6679688,-0.304687 0.1875,-0.210938 0.28125,-0.492188 0.28125,-0.855469 0,-0.339844 -0.09375,-0.609375 -0.28125,-0.808594 -0.1757813,-0.199219 -0.4101563,-0.304687 -0.6914063,-0.304687 -0.28125,0 -0.515625,0.105468 -0.703125,0.304687 -0.1992187,0.199219 -0.2929687,0.457031 -0.2929687,0.773438 z m -5.6044922,12.389648 1.9101562,-4.980469 h 0.7148438 l 2.0390625,4.980469 h -0.75 L 3.3156875,73.898559 H 1.2414687 l -0.5507812,1.511719 z m 1.4414062,-2.050781 h 1.6875 L 2.6008437,71.988403 C 2.4367812,71.566528 2.3195937,71.226684 2.2375625,70.945434 2.1789687,71.273559 2.0852187,71.589966 1.97975,71.906372 Z m 3.5302735,-2.285156 v -0.585938 h 3.2226562 v 0.480469 c -0.3164062,0.339844 -0.6328125,0.785156 -0.9375,1.347656 -0.3164062,0.5625 -0.5507812,1.136719 -0.7265625,1.722656 -0.1171875,0.421875 -0.1992187,0.878907 -0.234375,1.371094 H 5.6623672 c 0,-0.386719 0.082031,-0.867187 0.2226562,-1.417969 0.1523438,-0.5625 0.3632813,-1.089843 0.6328125,-1.605468 0.28125,-0.515625 0.5742188,-0.949219 0.8789063,-1.3125 z m -8.4257813,15.108398 -1.921875,-4.980469 h 0.7148438 l 1.2890625,3.621094 c 0.1054687,0.292969 0.1875,0.5625 0.2578125,0.808594 0.082031,-0.269531 0.1757812,-0.539063 0.2695312,-0.808594 l 1.3476563,-3.621094 h 0.67968749 L -2.7868516,86.182739 Z M -0.47239844,84.57727 0.14869531,84.5304 c 0.0234375,0.246094 0.09375,0.457032 0.19921875,0.609375 0.10546875,0.164063 0.28125,0.292969 0.50390625,0.386719 0.22265629,0.105469 0.48046879,0.152344 0.76171879,0.152344 0.2578125,0 0.4804687,-0.03516 0.6679687,-0.117188 0.1875,-0.07031 0.3398438,-0.175781 0.4335938,-0.304687 0.09375,-0.128906 0.140625,-0.269531 0.140625,-0.421875 0,-0.164063 -0.046875,-0.292969 -0.140625,-0.410156 C 2.6213516,84.307744 2.4807266,84.202275 2.2697891,84.131963 2.1291641,84.073373 1.8361953,83.991338 1.3791641,83.885869 0.92213281,83.7804 0.60572656,83.674932 0.41822656,83.569463 c -0.234375,-0.117188 -0.41015625,-0.28125 -0.52734375,-0.457031 -0.1171875,-0.1875 -0.17578125,-0.398438 -0.17578125,-0.621094 0,-0.257813 0.0703125,-0.492188 0.2109375,-0.703125 0.140625,-0.222656 0.3515625,-0.386719 0.6328125,-0.503906 0.26953125,-0.117188 0.57421874,-0.164063 0.91406254,-0.164063 0.3632812,0 0.6914062,0.05859 0.9726562,0.175781 0.28125,0.117188 0.4921875,0.292969 0.65625,0.527344 0.140625,0.222656 0.2226563,0.492188 0.234375,0.785156 l -0.6328125,0.04687 C 2.6799453,82.338989 2.5627578,82.104614 2.3635391,81.940552 2.1643203,81.776489 1.8713516,81.694458 1.4963516,81.694458 c -0.3984375,0 -0.69140629,0.08203 -0.87890629,0.222656 -0.17578125,0.140625 -0.26953125,0.328125 -0.26953125,0.527344 0,0.175781 0.0703125,0.328125 0.19921875,0.445312 0.1171875,0.117188 0.45703129,0.234375 0.98437499,0.351563 0.5390625,0.128906 0.9140625,0.234375 1.1132813,0.316406 0.28125,0.140625 0.5039062,0.304688 0.6328125,0.515625 0.140625,0.199219 0.2109375,0.433594 0.2109375,0.703125 0,0.269531 -0.082031,0.515625 -0.2226563,0.75 -0.1523437,0.234375 -0.375,0.421875 -0.65625,0.550781 -0.2929687,0.128907 -0.609375,0.1875 -0.9609375,0.1875 -0.4570312,0 -0.83203124,-0.05859 -1.13671874,-0.199218 -0.3046875,-0.128907 -0.5390625,-0.316407 -0.71484375,-0.585938 -0.17578125,-0.269531 -0.26953125,-0.5625 -0.26953125,-0.902344 z m 4.66699214,0 0.6210938,-0.04687 c 0.023437,0.246094 0.09375,0.457032 0.1992187,0.609375 0.1054688,0.164063 0.28125,0.292969 0.5039063,0.386719 0.2226562,0.105469 0.4804687,0.152344 0.7617187,0.152344 0.2578125,0 0.4804688,-0.03516 0.6679688,-0.117188 0.1875,-0.07031 0.3398437,-0.175781 0.4335937,-0.304687 0.09375,-0.128906 0.140625,-0.269531 0.140625,-0.421875 0,-0.164063 -0.046875,-0.292969 -0.140625,-0.410156 C 7.2883437,84.307739 7.1477187,84.20227 6.9367812,84.131958 6.7961562,84.073364 6.5031875,83.991333 6.0461562,83.885864 5.589125,83.780395 5.2727187,83.674927 5.0852187,83.569458 4.8508437,83.45227 4.6750625,83.288208 4.557875,83.112427 4.4406875,82.924927 4.3820937,82.713989 4.3820937,82.491333 c 0,-0.257813 0.070312,-0.492188 0.2109375,-0.703125 0.140625,-0.222656 0.3515625,-0.386719 0.6328125,-0.503906 0.2695313,-0.117188 0.5742188,-0.164063 0.9140625,-0.164063 0.3632813,0 0.6914063,0.05859 0.9726563,0.175781 0.28125,0.117188 0.4921875,0.292969 0.65625,0.527344 0.140625,0.222656 0.2226562,0.492188 0.234375,0.785156 L 7.370375,82.655395 C 7.3469375,82.338989 7.22975,82.104614 7.0305312,81.940552 6.8313125,81.776489 6.5383437,81.694458 6.1633437,81.694458 c -0.3984375,0 -0.6914062,0.08203 -0.8789062,0.222656 -0.1757813,0.140625 -0.2695313,0.328125 -0.2695313,0.527344 0,0.175781 0.070312,0.328125 0.1992188,0.445312 0.1171875,0.117188 0.4570312,0.234375 0.984375,0.351563 0.5390625,0.128906 0.9140625,0.234375 1.1132812,0.316406 0.28125,0.140625 0.5039063,0.304688 0.6328125,0.515625 0.140625,0.199219 0.2109375,0.433594 0.2109375,0.703125 0,0.269531 -0.082031,0.515625 -0.2226562,0.75 -0.1523438,0.234375 -0.375,0.421875 -0.65625,0.550781 -0.2929688,0.128907 -0.609375,0.1875 -0.9609375,0.1875 -0.4570313,0 -0.8320313,-0.05859 -1.1367188,-0.199218 C 4.8742812,85.936645 4.6399062,85.749145 4.464125,85.479614 4.2883437,85.210083 4.1945937,84.917114 4.1945937,84.57727 Z M 70.50807,0.07336406 68.586195,-4.9071047 h 0.714844 l 1.289063,3.6210938 c 0.105468,0.29296871 0.1875,0.56249996 0.257812,0.80859371 0.08203,-0.26953125 0.175781,-0.53906251 0.269531,-0.80859371 l 1.347657,-3.6210938 h 0.679687 l -1.957031,4.98046876 z m 3.213867,0 V -4.9071047 h 1.710938 c 0.386719,0 0.691406,0.023437 0.890625,0.070312 0.28125,0.070312 0.527344,0.1875 0.726562,0.3515625 0.269532,0.2226563 0.46875,0.515625 0.597657,0.8554688 0.128906,0.3515625 0.1875,0.7382812 0.1875,1.1835937 0,0.3867188 -0.03516,0.7148438 -0.128907,1.0078125 -0.08203,0.2929688 -0.199218,0.53906251 -0.339843,0.72656251 -0.140625,0.1875 -0.292969,0.33984375 -0.457032,0.45703125 -0.164062,0.10546875 -0.363281,0.1875 -0.597656,0.24609375 -0.222656,0.05859375 -0.492187,0.08203125 -0.796875,0.08203125 z m 0.65625,-0.5859375 h 1.066407 c 0.328125,0 0.585937,-0.0351563 0.773437,-0.09375 0.1875,-0.0585938 0.328125,-0.140625 0.445313,-0.2578125 0.152343,-0.15234376 0.269531,-0.36328126 0.363281,-0.63281246 0.09375,-0.2578125 0.128906,-0.5859375 0.128906,-0.9609375 0,-0.515625 -0.08203,-0.9140625 -0.257812,-1.1953125 -0.164063,-0.28125 -0.375,-0.46875 -0.621094,-0.5625 -0.175781,-0.070312 -0.457031,-0.1054688 -0.855469,-0.1054688 h -1.042969 z m 4.40918,0.5859375 V -4.9071047 h 1.710938 c 0.386718,0 0.691406,0.023437 0.890625,0.070312 0.28125,0.070312 0.527343,0.1875 0.726562,0.3515625 0.269531,0.2226563 0.46875,0.515625 0.597656,0.8554688 0.128907,0.3515625 0.1875,0.7382812 0.1875,1.1835937 0,0.3867188 -0.03516,0.7148438 -0.128906,1.0078125 -0.08203,0.2929688 -0.199219,0.53906251 -0.339844,0.72656251 -0.140625,0.1875 -0.292968,0.33984375 -0.457031,0.45703125 -0.164062,0.10546875 -0.363281,0.1875 -0.597656,0.24609375 -0.222656,0.05859375 -0.492188,0.08203125 -0.796875,0.08203125 z m 0.65625,-0.5859375 h 1.066406 c 0.328125,0 0.585938,-0.0351563 0.773438,-0.09375 0.1875,-0.0585938 0.328125,-0.140625 0.445312,-0.2578125 0.152344,-0.15234376 0.269532,-0.36328126 0.363282,-0.63281246 0.09375,-0.2578125 0.128906,-0.5859375 0.128906,-0.9609375 0,-0.515625 -0.08203,-0.9140625 -0.257813,-1.1953125 -0.164062,-0.28125 -0.375,-0.46875 -0.621093,-0.5625 -0.175782,-0.070312 -0.457032,-0.1054688 -0.855469,-0.1054688 H 79.443617 Z M 70.50807,10.845825 68.586195,5.8653562 h 0.714844 L 70.590102,9.48645 c 0.105468,0.2929687 0.1875,0.5625 0.257812,0.808594 0.08203,-0.269532 0.175781,-0.5390628 0.269531,-0.808594 l 1.347657,-3.6210938 h 0.679687 l -1.957031,4.9804688 z m 4.479492,0 V 6.4512937 H 73.346937 V 5.8653562 h 3.949219 v 0.5859375 h -1.652344 v 4.3945313 z m -6.096679,8.34668 c 0,-0.832032 0.222656,-1.476563 0.667969,-1.945313 0.433593,-0.46875 1.007812,-0.703125 1.710937,-0.703125 0.457031,0 0.878906,0.117188 1.242188,0.328125 0.375,0.222656 0.65625,0.527344 0.84375,0.925781 0.199218,0.398438 0.292968,0.84375 0.292968,1.335938 0,0.503906 -0.09375,0.960937 -0.304687,1.359375 -0.199219,0.398437 -0.492188,0.703125 -0.867188,0.902344 -0.375,0.210937 -0.773437,0.304687 -1.207031,0.304687 -0.46875,0 -0.890625,-0.105469 -1.253906,-0.339844 -0.375,-0.222656 -0.65625,-0.527343 -0.84375,-0.925781 -0.1875,-0.386719 -0.28125,-0.808594 -0.28125,-1.242187 z m 0.679687,0.01172 c 0,0.597657 0.152344,1.066407 0.480469,1.417969 0.316406,0.351563 0.726563,0.515625 1.21875,0.515625 0.492188,0 0.902344,-0.175781 1.21875,-0.527344 0.316406,-0.339843 0.480469,-0.832031 0.480469,-1.476562 0,-0.410156 -0.07031,-0.761719 -0.199219,-1.066406 -0.140625,-0.304688 -0.339844,-0.539063 -0.609375,-0.703125 -0.257812,-0.164063 -0.5625,-0.246094 -0.878906,-0.246094 -0.46875,0 -0.878906,0.164062 -1.207031,0.480469 -0.339844,0.316406 -0.503907,0.855468 -0.503907,1.605468 z m 4.719727,0.808594 0.621094,-0.04687 c 0.02344,0.246094 0.09375,0.457031 0.199218,0.609375 0.105469,0.164063 0.28125,0.292969 0.503907,0.386719 0.222656,0.105469 0.480468,0.152344 0.761718,0.152344 0.257813,0 0.480469,-0.03516 0.667969,-0.117188 0.1875,-0.07031 0.339844,-0.175781 0.433594,-0.304687 0.09375,-0.128907 0.140625,-0.269532 0.140625,-0.421875 0,-0.164063 -0.04687,-0.292969 -0.140625,-0.410157 -0.09375,-0.117187 -0.234375,-0.222656 -0.445313,-0.292968 -0.140625,-0.05859 -0.433593,-0.140625 -0.890625,-0.246094 -0.457031,-0.105469 -0.773437,-0.210938 -0.960937,-0.316406 -0.234375,-0.117188 -0.410156,-0.28125 -0.527344,-0.457032 -0.117187,-0.1875 -0.175781,-0.398437 -0.175781,-0.621093 0,-0.257813 0.07031,-0.492188 0.210937,-0.703125 0.140625,-0.222657 0.351563,-0.386719 0.632813,-0.503907 0.269531,-0.117187 0.574219,-0.164062 0.914062,-0.164062 0.363282,0 0.691407,0.05859 0.972657,0.175781 0.28125,0.117188 0.492187,0.292969 0.65625,0.527344 0.140625,0.222656 0.222656,0.492187 0.234375,0.785156 l -0.632813,0.04687 c -0.02344,-0.316406 -0.140625,-0.550781 -0.339844,-0.714844 -0.199218,-0.164062 -0.492187,-0.246093 -0.867187,-0.246093 -0.398438,0 -0.691406,0.08203 -0.878906,0.222656 -0.175782,0.140625 -0.269532,0.328125 -0.269532,0.527344 0,0.175781 0.07031,0.328125 0.199219,0.445312 0.117188,0.117188 0.457031,0.234375 0.984375,0.351563 0.539063,0.128906 0.914063,0.234375 1.113281,0.316406 0.28125,0.140625 0.503907,0.304687 0.632813,0.515625 0.140625,0.199219 0.210937,0.433594 0.210937,0.703125 0,0.269531 -0.08203,0.515625 -0.222656,0.75 -0.152344,0.234375 -0.375,0.421875 -0.65625,0.550781 -0.292969,0.128906 -0.609375,0.1875 -0.960937,0.1875 -0.457032,0 -0.832032,-0.05859 -1.136719,-0.199219 -0.304688,-0.128906 -0.539063,-0.316406 -0.714844,-0.585937 -0.175781,-0.269531 -0.269531,-0.5625 -0.269531,-0.902344 z m 8.405273,-0.140625 0.65625,0.164063 c -0.128906,0.550781 -0.386718,0.960937 -0.738281,1.242187 -0.363281,0.28125 -0.796875,0.421875 -1.324219,0.421875 -0.527343,0 -0.972656,-0.105469 -1.3125,-0.328125 -0.328125,-0.210937 -0.585937,-0.527344 -0.761718,-0.949219 -0.175782,-0.410156 -0.257813,-0.855468 -0.257813,-1.335937 0,-0.515625 0.09375,-0.960938 0.292969,-1.359375 0.199219,-0.386719 0.480469,-0.679688 0.84375,-0.878906 0.363281,-0.199219 0.773437,-0.292969 1.207031,-0.292969 0.503906,0 0.925781,0.128906 1.265625,0.375 0.339844,0.257812 0.574219,0.609375 0.703125,1.066406 l -0.644531,0.152344 C 82.50807,17.797973 82.332289,17.528442 82.121352,17.36438 81.898695,17.200317 81.629164,17.118286 81.28932,17.118286 c -0.386718,0 -0.703125,0.09375 -0.960937,0.269531 -0.257813,0.1875 -0.433594,0.433594 -0.539063,0.738281 -0.105468,0.316407 -0.152343,0.632813 -0.152343,0.960938 0,0.421875 0.05859,0.796875 0.175781,1.113281 0.128906,0.316406 0.316406,0.550781 0.585937,0.703125 0.257813,0.152344 0.539063,0.234375 0.84375,0.234375 0.363282,0 0.679688,-0.105469 0.9375,-0.316406 0.257813,-0.210938 0.421875,-0.527344 0.515625,-0.949219 z m 3.527344,1.746094 h -0.609375 v -3.902344 c -0.152344,0.152344 -0.339844,0.28125 -0.585937,0.421875 -0.234375,0.140625 -0.445313,0.246094 -0.632813,0.316406 v -0.585937 c 0.339844,-0.164063 0.632813,-0.351563 0.890625,-0.585938 0.257813,-0.234375 0.433594,-0.445312 0.550781,-0.667968 h 0.386719 z m -17.332031,8.34668 c 0,-0.832032 0.222656,-1.476563 0.667969,-1.945313 0.433593,-0.46875 1.007812,-0.703125 1.710937,-0.703125 0.457031,0 0.878906,0.117188 1.242188,0.328125 0.375,0.222656 0.65625,0.527344 0.84375,0.925781 0.199218,0.398438 0.292968,0.84375 0.292968,1.335938 0,0.503906 -0.09375,0.960937 -0.304687,1.359375 -0.199219,0.398437 -0.492188,0.703125 -0.867188,0.902344 -0.375,0.210937 -0.773437,0.304687 -1.207031,0.304687 -0.46875,0 -0.890625,-0.105469 -1.253906,-0.339844 -0.375,-0.222656 -0.65625,-0.527343 -0.84375,-0.925781 -0.1875,-0.386719 -0.28125,-0.808594 -0.28125,-1.242187 z m 0.679687,0.01172 c 0,0.597657 0.152344,1.066407 0.480469,1.417969 0.316406,0.351563 0.726563,0.515625 1.21875,0.515625 0.492188,0 0.902344,-0.175781 1.21875,-0.527344 0.316406,-0.339843 0.480469,-0.832031 0.480469,-1.476562 0,-0.410156 -0.07031,-0.761719 -0.199219,-1.066406 -0.140625,-0.304688 -0.339844,-0.539063 -0.609375,-0.703125 -0.257812,-0.164063 -0.5625,-0.246094 -0.878906,-0.246094 -0.46875,0 -0.878906,0.164062 -1.207031,0.480469 -0.339844,0.316406 -0.503907,0.855468 -0.503907,1.605468 z m 4.719727,0.808594 0.621094,-0.04687 c 0.02344,0.246094 0.09375,0.457031 0.199218,0.609375 0.105469,0.164063 0.28125,0.292969 0.503907,0.386719 0.222656,0.105469 0.480468,0.152344 0.761718,0.152344 0.257813,0 0.480469,-0.03516 0.667969,-0.117188 0.1875,-0.07031 0.339844,-0.175781 0.433594,-0.304687 0.09375,-0.128907 0.140625,-0.269532 0.140625,-0.421875 0,-0.164063 -0.04687,-0.292969 -0.140625,-0.410157 -0.09375,-0.117187 -0.234375,-0.222656 -0.445313,-0.292968 -0.140625,-0.05859 -0.433593,-0.140625 -0.890625,-0.246094 -0.457031,-0.105469 -0.773437,-0.210938 -0.960937,-0.316406 -0.234375,-0.117188 -0.410156,-0.28125 -0.527344,-0.457032 -0.117187,-0.1875 -0.175781,-0.398437 -0.175781,-0.621093 0,-0.257813 0.07031,-0.492188 0.210937,-0.703125 0.140625,-0.222657 0.351563,-0.386719 0.632813,-0.503907 0.269531,-0.117187 0.574219,-0.164062 0.914062,-0.164062 0.363282,0 0.691407,0.05859 0.972657,0.175781 0.28125,0.117188 0.492187,0.292969 0.65625,0.527344 0.140625,0.222656 0.222656,0.492187 0.234375,0.785156 l -0.632813,0.04687 c -0.02344,-0.316406 -0.140625,-0.550781 -0.339844,-0.714844 -0.199218,-0.164062 -0.492187,-0.246093 -0.867187,-0.246093 -0.398438,0 -0.691406,0.08203 -0.878906,0.222656 -0.175782,0.140625 -0.269532,0.328125 -0.269532,0.527344 0,0.175781 0.07031,0.328125 0.199219,0.445312 0.117188,0.117188 0.457031,0.234375 0.984375,0.351563 0.539063,0.128906 0.914063,0.234375 1.113281,0.316406 0.28125,0.140625 0.503907,0.304687 0.632813,0.515625 0.140625,0.199219 0.210937,0.433594 0.210937,0.703125 0,0.269531 -0.08203,0.515625 -0.222656,0.75 -0.152344,0.234375 -0.375,0.421875 -0.65625,0.550781 -0.292969,0.128906 -0.609375,0.1875 -0.960937,0.1875 -0.457032,0 -0.832032,-0.05859 -1.136719,-0.199219 -0.304688,-0.128906 -0.539063,-0.316406 -0.714844,-0.585937 -0.175781,-0.269531 -0.269531,-0.5625 -0.269531,-0.902344 z m 8.405273,-0.140625 0.65625,0.164063 c -0.128906,0.550781 -0.386718,0.960937 -0.738281,1.242187 -0.363281,0.28125 -0.796875,0.421875 -1.324219,0.421875 -0.527343,0 -0.972656,-0.105469 -1.3125,-0.328125 -0.328125,-0.210937 -0.585937,-0.527344 -0.761718,-0.949219 -0.175782,-0.410156 -0.257813,-0.855468 -0.257813,-1.335937 0,-0.515625 0.09375,-0.960938 0.292969,-1.359375 0.199219,-0.386719 0.480469,-0.679688 0.84375,-0.878906 0.363281,-0.199219 0.773437,-0.292969 1.207031,-0.292969 0.503906,0 0.925781,0.128906 1.265625,0.375 0.339844,0.257812 0.574219,0.609375 0.703125,1.066406 l -0.644531,0.152344 c -0.117188,-0.351563 -0.292969,-0.621094 -0.503906,-0.785156 -0.222657,-0.164063 -0.492188,-0.246094 -0.832032,-0.246094 -0.386718,0 -0.703125,0.09375 -0.960937,0.269531 -0.257813,0.1875 -0.433594,0.433594 -0.539063,0.738281 -0.105468,0.316407 -0.152343,0.632813 -0.152343,0.960938 0,0.421875 0.05859,0.796875 0.175781,1.113281 0.128906,0.316406 0.316406,0.550781 0.585937,0.703125 0.257813,0.152344 0.539063,0.234375 0.84375,0.234375 0.363282,0 0.679688,-0.105469 0.9375,-0.316406 0.257813,-0.210938 0.421875,-0.527344 0.515625,-0.949219 z m 4.441407,1.160156 v 0.585938 h -3.292969 c -0.01172,-0.140625 0.01172,-0.292969 0.07031,-0.421875 0.08203,-0.222656 0.222657,-0.445313 0.398438,-0.667969 0.1875,-0.210937 0.457031,-0.46875 0.808594,-0.75 0.539062,-0.445312 0.902343,-0.796875 1.089843,-1.054687 0.199219,-0.257813 0.292969,-0.503907 0.292969,-0.738282 0,-0.246093 -0.09375,-0.445312 -0.269531,-0.609375 -0.164063,-0.164062 -0.386719,-0.257812 -0.667969,-0.257812 -0.292969,0 -0.539062,0.09375 -0.714844,0.269531 -0.175781,0.175781 -0.257812,0.421875 -0.257812,0.738281 l -0.632813,-0.07031 c 0.03516,-0.46875 0.199219,-0.820313 0.480469,-1.066406 0.28125,-0.246094 0.65625,-0.375 1.136719,-0.375 0.480469,0 0.855469,0.128906 1.136719,0.398437 0.28125,0.269531 0.410156,0.597656 0.410156,0.984375 0,0.199219 -0.03516,0.398438 -0.117188,0.585938 -0.08203,0.199218 -0.222656,0.398437 -0.410156,0.609375 -0.1875,0.210937 -0.503906,0.503906 -0.9375,0.878906 -0.363281,0.304687 -0.609375,0.515625 -0.703125,0.632812 -0.105469,0.105469 -0.199219,0.222657 -0.269531,0.328125 z M 69.090102,43.163208 v -4.980469 h 1.710937 c 0.386719,0 0.691406,0.02344 0.890625,0.07031 0.28125,0.07031 0.527344,0.1875 0.726563,0.351562 0.269531,0.222656 0.46875,0.515625 0.597656,0.855469 0.128906,0.351562 0.1875,0.738281 0.1875,1.183594 0,0.386718 -0.03516,0.714843 -0.128906,1.007812 -0.08203,0.292969 -0.199219,0.539063 -0.339844,0.726563 -0.140625,0.1875 -0.292969,0.339843 -0.457031,0.457031 -0.164063,0.105469 -0.363282,0.1875 -0.597657,0.246094 -0.222656,0.05859 -0.492187,0.08203 -0.796875,0.08203 z m 0.65625,-0.585938 h 1.066406 c 0.328125,0 0.585937,-0.03516 0.773437,-0.09375 0.1875,-0.05859 0.328125,-0.140625 0.445313,-0.257812 0.152344,-0.152344 0.269531,-0.363281 0.363281,-0.632813 0.09375,-0.257812 0.128906,-0.585937 0.128906,-0.960937 0,-0.515625 -0.08203,-0.914063 -0.257812,-1.195313 -0.164063,-0.28125 -0.375,-0.46875 -0.621094,-0.5625 -0.175781,-0.07031 -0.457031,-0.105468 -0.855469,-0.105468 h -1.042968 z m 4.476562,0.585938 v -4.980469 h 0.667969 v 4.980469 z m 1.822266,0 v -4.980469 h 0.679687 l 2.613281,3.914063 v -3.914063 h 0.632813 v 4.980469 h -0.667969 l -2.625,-3.914063 v 3.914063 z m -6.955078,10.77539 V 48.95813 h 1.710937 c 0.386719,0 0.691406,0.02344 0.890625,0.07031 0.28125,0.07031 0.527344,0.1875 0.726563,0.351563 0.269531,0.222656 0.46875,0.515625 0.597656,0.855468 0.128906,0.351563 0.1875,0.738282 0.1875,1.183594 0,0.386719 -0.03516,0.714844 -0.128906,1.007813 -0.08203,0.292968 -0.199219,0.539062 -0.339844,0.726562 -0.140625,0.1875 -0.292969,0.339844 -0.457031,0.457031 -0.164063,0.105469 -0.363282,0.1875 -0.597657,0.246094 -0.222656,0.05859 -0.492187,0.08203 -0.796875,0.08203 z m 0.65625,-0.585937 h 1.066406 c 0.328125,0 0.585937,-0.03516 0.773437,-0.09375 0.1875,-0.05859 0.328125,-0.140625 0.445313,-0.257813 0.152344,-0.152343 0.269531,-0.363281 0.363281,-0.632812 0.09375,-0.257813 0.128906,-0.585938 0.128906,-0.960938 0,-0.515625 -0.08203,-0.914062 -0.257812,-1.195312 -0.164063,-0.28125 -0.375,-0.46875 -0.621094,-0.5625 -0.175781,-0.07031 -0.457031,-0.105469 -0.855469,-0.105469 h -1.042968 z m 6.421875,0.585937 h -0.609375 v -3.902343 c -0.152344,0.152343 -0.339844,0.28125 -0.585938,0.421875 -0.234375,0.140625 -0.445312,0.246093 -0.632812,0.316406 v -0.585938 c 0.339843,-0.164062 0.632812,-0.351562 0.890625,-0.585937 0.257812,-0.234375 0.433593,-0.445313 0.550781,-0.667969 h 0.386719 z m 3.875976,0 h -0.609375 v -3.902343 c -0.152344,0.152343 -0.339844,0.28125 -0.585937,0.421875 -0.234375,0.140625 -0.445313,0.246093 -0.632813,0.316406 v -0.585938 c 0.339844,-0.164062 0.632813,-0.351562 0.890625,-0.585937 0.257813,-0.234375 0.433594,-0.445313 0.550781,-0.667969 h 0.386719 z M 69.090102,64.711059 v -4.980468 h 1.710937 c 0.386719,0 0.691406,0.02344 0.890625,0.07031 0.28125,0.07031 0.527344,0.1875 0.726563,0.351563 0.269531,0.222656 0.46875,0.515625 0.597656,0.855468 0.128906,0.351563 0.1875,0.738282 0.1875,1.183594 0,0.386719 -0.03516,0.714844 -0.128906,1.007813 -0.08203,0.292968 -0.199219,0.539062 -0.339844,0.726562 -0.140625,0.1875 -0.292969,0.339844 -0.457031,0.457031 -0.164063,0.105469 -0.363282,0.1875 -0.597657,0.246094 -0.222656,0.05859 -0.492187,0.08203 -0.796875,0.08203 z m 0.65625,-0.585937 h 1.066406 c 0.328125,0 0.585937,-0.03516 0.773437,-0.09375 0.1875,-0.05859 0.328125,-0.140625 0.445313,-0.257813 0.152344,-0.152343 0.269531,-0.363281 0.363281,-0.632812 0.09375,-0.257813 0.128906,-0.585938 0.128906,-0.960938 0,-0.515625 -0.08203,-0.914062 -0.257812,-1.195312 -0.164063,-0.28125 -0.375,-0.46875 -0.621094,-0.5625 -0.175781,-0.07031 -0.457031,-0.105469 -0.855469,-0.105469 h -1.042968 z m 6.418945,0.585937 h -0.609375 v -3.902343 c -0.152344,0.152343 -0.339844,0.28125 -0.585938,0.421875 -0.234375,0.140625 -0.445312,0.246093 -0.632812,0.316406 v -0.585938 c 0.339844,-0.164062 0.632812,-0.351562 0.890625,-0.585937 0.257812,-0.234375 0.433594,-0.445313 0.550781,-0.667969 h 0.386719 z m 1.582031,-2.460937 c 0,-0.585938 0.05859,-1.054688 0.175781,-1.417969 0.117188,-0.363281 0.304688,-0.632812 0.539063,-0.832031 0.234375,-0.199219 0.539062,-0.292969 0.902344,-0.292969 0.269531,0 0.503906,0.05859 0.703125,0.164063 0.199218,0.105468 0.375,0.257812 0.503906,0.46875 0.128906,0.199218 0.234375,0.445312 0.304687,0.738281 0.08203,0.292969 0.117188,0.679687 0.117188,1.171875 0,0.585937 -0.05859,1.066406 -0.175781,1.417969 -0.128907,0.363281 -0.304688,0.632812 -0.550782,0.832031 -0.234375,0.199219 -0.539062,0.292969 -0.902343,0.292969 -0.480469,0 -0.855469,-0.164063 -1.125,-0.515625 -0.328125,-0.410157 -0.492188,-1.089844 -0.492188,-2.027344 z m 0.621094,0 c 0,0.820312 0.09375,1.371094 0.292969,1.640625 0.1875,0.269531 0.421875,0.398437 0.703125,0.398437 0.28125,0 0.515625,-0.128906 0.714843,-0.398437 0.1875,-0.28125 0.28125,-0.820313 0.28125,-1.640625 0,-0.820313 -0.09375,-1.359375 -0.28125,-1.628906 -0.199218,-0.269532 -0.433593,-0.410157 -0.714843,-0.410157 -0.28125,0 -0.515625,0.117188 -0.679688,0.363282 -0.210937,0.304687 -0.316406,0.867187 -0.316406,1.675781 z m -9.28125,13.233398 v -4.980468 h 1.710937 c 0.386719,0 0.691407,0.02344 0.890625,0.07031 0.28125,0.07031 0.527344,0.1875 0.726563,0.351563 0.269531,0.222656 0.46875,0.515625 0.597656,0.855468 0.128906,0.351563 0.1875,0.738282 0.1875,1.183594 0,0.386719 -0.03516,0.714844 -0.128906,1.007813 -0.08203,0.292968 -0.199219,0.539062 -0.339844,0.726562 -0.140625,0.1875 -0.292969,0.339844 -0.457031,0.457031 -0.164063,0.105469 -0.363281,0.1875 -0.597656,0.246094 -0.222657,0.05859 -0.492188,0.08203 -0.796875,0.08203 z m 0.65625,-0.585937 h 1.066406 c 0.328125,0 0.585938,-0.03516 0.773438,-0.09375 0.1875,-0.05859 0.328125,-0.140625 0.445312,-0.257813 0.152344,-0.152343 0.269531,-0.363281 0.363281,-0.632812 0.09375,-0.257813 0.128907,-0.585938 0.128907,-0.960938 0,-0.515625 -0.08203,-0.914062 -0.257813,-1.195312 -0.164062,-0.28125 -0.375,-0.46875 -0.621094,-0.5625 -0.175781,-0.07031 -0.457031,-0.105469 -0.855468,-0.105469 h -1.042969 z m 4.207031,-0.5625 0.597656,-0.05859 c 0.04687,0.28125 0.140625,0.480469 0.28125,0.597656 0.140625,0.128907 0.316407,0.1875 0.539063,0.1875 0.1875,0 0.351562,-0.03516 0.492187,-0.128906 0.140625,-0.08203 0.257813,-0.199219 0.351563,-0.339844 0.09375,-0.140625 0.164062,-0.339843 0.234375,-0.585937 0.05859,-0.246094 0.08203,-0.492188 0.08203,-0.75 0,-0.02344 0,-0.05859 0,-0.117188 -0.117187,0.199219 -0.292969,0.351563 -0.503906,0.46875 -0.210938,0.128907 -0.445313,0.1875 -0.679688,0.1875 -0.421875,0 -0.761718,-0.152343 -1.054687,-0.445312 -0.28125,-0.304688 -0.421875,-0.703125 -0.421875,-1.183594 0,-0.503906 0.140625,-0.914062 0.445312,-1.21875 0.292969,-0.316406 0.667969,-0.46875 1.113282,-0.46875 0.328125,0 0.621093,0.09375 0.890625,0.257813 0.269531,0.175781 0.46875,0.433593 0.609375,0.75 0.140625,0.328125 0.210937,0.785156 0.210937,1.40625 0,0.632812 -0.07031,1.136718 -0.199219,1.523437 -0.140625,0.375 -0.351562,0.65625 -0.621093,0.855469 -0.269532,0.199219 -0.597657,0.292969 -0.960938,0.292969 -0.386719,0 -0.714844,-0.105469 -0.960937,-0.316407 -0.246094,-0.222656 -0.386719,-0.527343 -0.445313,-0.914062 z m 2.507813,-2.203125 c 0,-0.351563 -0.09375,-0.632813 -0.28125,-0.832031 -0.1875,-0.210938 -0.410157,-0.316407 -0.667969,-0.316407 -0.269531,0 -0.515625,0.117188 -0.714844,0.339844 -0.199219,0.222656 -0.304687,0.503906 -0.304687,0.855469 0,0.328125 0.09375,0.585937 0.292968,0.785156 0.1875,0.1875 0.421875,0.292969 0.703125,0.292969 0.28125,0 0.515625,-0.105469 0.703125,-0.292969 0.175782,-0.199219 0.269532,-0.480469 0.269532,-0.832031 z m -7.371094,14.124023 v -4.980469 h 1.710937 c 0.386719,0 0.691407,0.02344 0.890625,0.07031 0.28125,0.07031 0.527344,0.1875 0.726563,0.351562 0.269531,0.222657 0.46875,0.515625 0.597656,0.855469 0.128906,0.351563 0.1875,0.738281 0.1875,1.183594 0,0.386719 -0.03516,0.714844 -0.128906,1.007812 -0.08203,0.292969 -0.199219,0.539063 -0.339844,0.726563 -0.140625,0.1875 -0.292969,0.339844 -0.457031,0.457031 -0.164063,0.105469 -0.363281,0.1875 -0.597656,0.246094 -0.222657,0.05859 -0.492188,0.08203 -0.796875,0.08203 z m 0.65625,-0.585937 h 1.066406 c 0.328125,0 0.585938,-0.03516 0.773438,-0.09375 0.1875,-0.05859 0.328125,-0.140625 0.445312,-0.257813 0.152344,-0.152344 0.269531,-0.363281 0.363281,-0.632812 0.09375,-0.257813 0.128907,-0.585938 0.128907,-0.960938 0,-0.515625 -0.08203,-0.914062 -0.257813,-1.195312 -0.164062,-0.28125 -0.375,-0.46875 -0.621094,-0.5625 -0.175781,-0.07031 -0.457031,-0.105469 -0.855468,-0.105469 h -1.042969 z m 5.0625,-2.121094 c -0.257813,-0.08203 -0.445313,-0.222656 -0.5625,-0.398438 -0.128906,-0.164062 -0.1875,-0.375 -0.1875,-0.609375 0,-0.363281 0.128906,-0.667968 0.398437,-0.914062 0.257813,-0.246094 0.597657,-0.375 1.03125,-0.375 0.433594,0 0.785157,0.128906 1.054688,0.386719 0.269531,0.246093 0.398437,0.550781 0.398437,0.914062 0,0.234375 -0.05859,0.433594 -0.1875,0.609375 -0.117187,0.164063 -0.304687,0.304688 -0.550781,0.386719 0.304688,0.105469 0.539063,0.269531 0.703125,0.492187 0.152344,0.222657 0.234375,0.480469 0.234375,0.785157 0,0.433593 -0.152344,0.785156 -0.445312,1.078125 -0.304688,0.292968 -0.703125,0.433593 -1.195313,0.433593 -0.492187,0 -0.890625,-0.140625 -1.183594,-0.433593 -0.304687,-0.292969 -0.457031,-0.65625 -0.457031,-1.089844 0,-0.328125 0.08203,-0.597656 0.246094,-0.808594 0.164062,-0.222656 0.398437,-0.375 0.703125,-0.457031 z M 74.688734,82.5177 c 0,0.234375 0.07031,0.433594 0.222657,0.574219 0.152343,0.152343 0.351562,0.222656 0.585937,0.222656 0.234375,0 0.433594,-0.07031 0.585938,-0.210938 0.152343,-0.152343 0.222656,-0.339843 0.222656,-0.550781 0,-0.222656 -0.07031,-0.410156 -0.234375,-0.5625 -0.152344,-0.152344 -0.339844,-0.234375 -0.574219,-0.234375 -0.234375,0 -0.433594,0.07031 -0.585937,0.222656 -0.152344,0.152344 -0.222657,0.328125 -0.222657,0.539063 z m -0.199218,2.296875 c 0,0.175781 0.03516,0.351562 0.117187,0.515625 0.08203,0.152344 0.210938,0.28125 0.375,0.375 0.164063,0.09375 0.339844,0.128906 0.527344,0.128906 0.292969,0 0.527344,-0.09375 0.726562,-0.28125 0.1875,-0.1875 0.28125,-0.421875 0.28125,-0.714844 0,-0.292968 -0.105468,-0.539062 -0.292968,-0.726562 -0.199219,-0.199219 -0.445313,-0.292969 -0.738282,-0.292969 -0.292968,0 -0.527343,0.09375 -0.714843,0.28125 -0.1875,0.199219 -0.28125,0.433594 -0.28125,0.714844 z M 22.194594,-0.43054219 H 21.585219 V -4.3328859 c -0.152344,0.1523437 -0.339844,0.28125 -0.585938,0.421875 -0.234375,0.140625 -0.445312,0.2460937 -0.632812,0.3164062 v -0.5859375 c 0.339843,-0.1640625 0.632812,-0.3515625 0.890625,-0.5859375 0.257812,-0.234375 0.433593,-0.4453125 0.550781,-0.6679687 h 0.386719 z M 23.108656,9.7559812 v 0.5859378 h -3.292969 c -0.01172,-0.140625 0.01172,-0.292969 0.07031,-0.4218753 0.08203,-0.2226562 0.222656,-0.4453125 0.398437,-0.6679687 0.1875,-0.2109375 0.457032,-0.46875 0.808594,-0.75 0.539063,-0.4453125 0.902344,-0.796875 1.089844,-1.0546875 0.199219,-0.2578125 0.292969,-0.5039063 0.292969,-0.7382813 0,-0.2460937 -0.09375,-0.4453125 -0.269532,-0.609375 -0.164062,-0.1640625 -0.386718,-0.2578125 -0.667968,-0.2578125 -0.292969,0 -0.539063,0.09375 -0.714844,0.2695313 -0.175781,0.1757812 -0.257813,0.421875 -0.257813,0.7382812 l -0.632812,-0.070312 c 0.03516,-0.46875 0.199219,-0.8203125 0.480469,-1.0664062 0.28125,-0.2460938 0.65625,-0.375 1.136718,-0.375 0.480469,0 0.855469,0.1289062 1.136719,0.3984375 0.28125,0.2695312 0.410156,0.5976562 0.410156,0.984375 0,0.1992187 -0.03516,0.3984375 -0.117187,0.5859375 -0.08203,0.1992187 -0.222656,0.3984375 -0.410156,0.609375 -0.1875,0.2109375 -0.503907,0.5039062 -0.9375,0.8789062 -0.363282,0.3046875 -0.609375,0.515625 -0.703125,0.6328125 C 20.8235,9.533325 20.72975,9.6505125 20.659437,9.7559812 Z m -3.210937,10.0488278 0.609375,-0.08203 c 0.07031,0.339844 0.1875,0.597656 0.363281,0.75 0.164062,0.152344 0.375,0.222656 0.609375,0.222656 0.292969,0 0.539062,-0.09375 0.726562,-0.292968 0.199219,-0.199219 0.304688,-0.445313 0.304688,-0.738282 0,-0.28125 -0.09375,-0.515625 -0.28125,-0.703125 -0.175781,-0.175781 -0.410156,-0.269531 -0.691406,-0.269531 -0.117188,0 -0.269532,0.02344 -0.433594,0.07031 l 0.07031,-0.539063 c 0.03516,0 0.07031,0 0.09375,0 0.257813,0 0.492188,-0.05859 0.703125,-0.199219 0.210938,-0.140625 0.316407,-0.339843 0.316407,-0.632812 0,-0.222656 -0.08203,-0.398438 -0.234375,-0.550781 -0.152344,-0.152344 -0.339844,-0.222657 -0.585938,-0.222657 -0.234375,0 -0.433594,0.07031 -0.597656,0.222657 -0.152344,0.152343 -0.257813,0.375 -0.304688,0.679687 L 19.95631,17.402464 c 0.08203,-0.410157 0.246094,-0.726563 0.515625,-0.949219 0.257813,-0.222656 0.585938,-0.339844 0.984375,-0.339844 0.269532,0 0.515625,0.05859 0.75,0.175781 0.234375,0.117188 0.398438,0.28125 0.527344,0.480469 0.117188,0.199219 0.175781,0.410156 0.175781,0.644531 0,0.210938 -0.04687,0.410157 -0.164062,0.585938 -0.117188,0.175781 -0.292969,0.316406 -0.515625,0.421875 0.292969,0.07031 0.527344,0.210937 0.679687,0.421875 0.164063,0.210937 0.246094,0.480469 0.246094,0.796875 0,0.445312 -0.152344,0.808594 -0.46875,1.113281 -0.316406,0.304688 -0.726562,0.457031 -1.207031,0.457031 -0.433594,0 -0.796875,-0.128906 -1.089844,-0.398437 -0.292969,-0.257813 -0.457031,-0.597656 -0.492187,-1.007813 z M 21.85475,31.88977 V 30.694458 H 19.6985 v -0.5625 l 2.273437,-3.222656 h 0.492188 v 3.222656 h 0.679687 v 0.5625 h -0.679687 v 1.195312 z m 0,-1.757812 v -2.238281 l -1.558594,2.238281 z m -1.957031,11.229492 0.632812,-0.05859 c 0.05859,0.316406 0.164063,0.550781 0.339844,0.703125 0.164062,0.164063 0.375,0.234375 0.621094,0.234375 0.292968,0 0.550781,-0.105469 0.75,-0.328125 0.199218,-0.222656 0.304687,-0.515625 0.304687,-0.890625 0,-0.339844 -0.09375,-0.621094 -0.292969,-0.820312 -0.199218,-0.199219 -0.457031,-0.304688 -0.773437,-0.304688 -0.1875,0 -0.375,0.04687 -0.527344,0.140625 -0.164062,0.08203 -0.292969,0.199219 -0.375,0.339844 l -0.574219,-0.07031 0.480469,-2.554687 h 2.484375 v 0.574219 h -1.992187 l -0.269532,1.347656 c 0.292969,-0.210938 0.609375,-0.316406 0.9375,-0.316406 0.433594,0 0.808594,0.152343 1.101563,0.457031 0.304687,0.292969 0.457031,0.691406 0.457031,1.160156 0,0.445313 -0.140625,0.84375 -0.398437,1.171875 -0.316407,0.398438 -0.761719,0.597656 -1.3125,0.597656 -0.457032,0 -0.820313,-0.117187 -1.113282,-0.375 -0.28125,-0.257812 -0.445312,-0.585937 -0.480468,-1.007812 z m 3.175781,8.311523 -0.609375,0.04687 C 22.405535,49.485468 22.3235,49.309687 22.22975,49.1925 c -0.164063,-0.164063 -0.375,-0.257813 -0.609375,-0.257813 -0.199219,0 -0.375,0.05859 -0.515625,0.164063 -0.199219,0.140625 -0.351563,0.339843 -0.457031,0.609375 -0.117188,0.28125 -0.164063,0.65625 -0.175782,1.160156 0.152344,-0.222656 0.328125,-0.398438 0.539063,-0.503906 0.210937,-0.105469 0.433594,-0.164063 0.679687,-0.164063 0.398438,0 0.75,0.152344 1.03125,0.457031 0.292969,0.292969 0.433594,0.679688 0.433594,1.160157 0,0.316406 -0.07031,0.609375 -0.199219,0.867187 -0.140625,0.269531 -0.328125,0.480469 -0.5625,0.621094 -0.234375,0.140625 -0.503906,0.210937 -0.796875,0.210937 -0.515625,0 -0.925781,-0.1875 -1.242187,-0.5625 -0.328125,-0.375 -0.492188,-0.984375 -0.492188,-1.851562 0,-0.960938 0.175782,-1.664063 0.539063,-2.097656 0.304687,-0.386719 0.726562,-0.574219 1.253906,-0.574219 0.386719,0 0.714844,0.117187 0.960938,0.328125 0.246093,0.222656 0.398437,0.527344 0.457031,0.914062 z m -2.507813,2.144532 c 0,0.210937 0.04687,0.421875 0.140625,0.609375 0.08203,0.1875 0.210938,0.339843 0.375,0.445312 0.164063,0.09375 0.328125,0.140625 0.503907,0.140625 0.257812,0 0.480468,-0.09375 0.667968,-0.304687 0.1875,-0.210938 0.28125,-0.492188 0.28125,-0.855469 0,-0.339844 -0.09375,-0.609375 -0.28125,-0.808594 -0.175781,-0.199219 -0.410156,-0.304687 -0.691406,-0.304687 -0.28125,0 -0.515625,0.105468 -0.703125,0.304687 -0.199219,0.199219 -0.292969,0.457031 -0.292969,0.773438 z m -0.632812,8.053711 v -0.585938 h 3.222656 v 0.480469 c -0.316406,0.339844 -0.632812,0.785156 -0.9375,1.347656 -0.316406,0.5625 -0.550781,1.136719 -0.726562,1.722656 -0.117188,0.421875 -0.199219,0.878907 -0.234375,1.371094 H 20.636 c 0,-0.386719 0.08203,-0.867187 0.222656,-1.417969 0.152344,-0.5625 0.363281,-1.089843 0.632813,-1.605468 0.28125,-0.515625 0.574218,-0.949219 0.878906,-1.3125 z m 0.902344,12.404296 c -0.257813,-0.08203 -0.445313,-0.222656 -0.5625,-0.398437 -0.128907,-0.164063 -0.1875,-0.375 -0.1875,-0.609375 0,-0.363281 0.128906,-0.667969 0.398437,-0.914063 0.257813,-0.246093 0.597656,-0.375 1.03125,-0.375 0.433594,0 0.785156,0.128907 1.054688,0.386719 0.269531,0.246094 0.398437,0.550781 0.398437,0.914063 0,0.234375 -0.05859,0.433593 -0.1875,0.609375 -0.117187,0.164062 -0.304687,0.304687 -0.550781,0.386718 0.304687,0.105469 0.539062,0.269532 0.703125,0.492188 0.152344,0.222656 0.234375,0.480469 0.234375,0.785156 0,0.433594 -0.152344,0.785156 -0.445313,1.078125 -0.304687,0.292969 -0.703125,0.433594 -1.195312,0.433594 -0.492188,0 -0.890625,-0.140625 -1.183594,-0.433594 C 20.038344,74.338012 19.886,73.974731 19.886,73.541137 c 0,-0.328125 0.08203,-0.597656 0.246094,-0.808593 0.164062,-0.222657 0.398437,-0.375 0.703125,-0.457032 z m -0.117188,-1.03125 c 0,0.234375 0.07031,0.433594 0.222656,0.574219 0.152344,0.152344 0.351563,0.222656 0.585938,0.222656 0.234375,0 0.433594,-0.07031 0.585937,-0.210937 0.152344,-0.152344 0.222657,-0.339844 0.222657,-0.550781 0,-0.222657 -0.07031,-0.410157 -0.234375,-0.5625 C 21.9485,70.564575 21.761,70.482544 21.526625,70.482544 c -0.234375,0 -0.433594,0.07031 -0.585938,0.222656 -0.152343,0.152344 -0.222656,0.328125 -0.222656,0.539062 z m -0.199219,2.296875 c 0,0.175782 0.03516,0.351563 0.117188,0.515625 0.08203,0.152344 0.210937,0.28125 0.375,0.375 0.164062,0.09375 0.339844,0.128907 0.527344,0.128907 0.292968,0 0.527343,-0.09375 0.726562,-0.28125 0.1875,-0.1875 0.28125,-0.421875 0.28125,-0.714844 0,-0.292969 -0.105469,-0.539063 -0.292969,-0.726563 -0.199218,-0.199218 -0.445312,-0.292968 -0.738281,-0.292968 -0.292969,0 -0.527344,0.09375 -0.714844,0.28125 -0.1875,0.199218 -0.28125,0.433593 -0.28125,0.714843 z m -0.539062,11.06543 0.597656,-0.05859 c 0.04687,0.28125 0.140625,0.480469 0.28125,0.597657 0.140625,0.128906 0.316406,0.1875 0.539063,0.1875 0.1875,0 0.351562,-0.03516 0.492187,-0.128907 0.140625,-0.08203 0.257813,-0.199218 0.351563,-0.339843 0.09375,-0.140625 0.164062,-0.339844 0.234375,-0.585938 0.05859,-0.246094 0.08203,-0.492187 0.08203,-0.75 0,-0.02344 0,-0.05859 0,-0.117187 -0.117188,0.199218 -0.292969,0.351562 -0.503906,0.46875 -0.210938,0.128906 -0.445313,0.1875 -0.679688,0.1875 -0.421875,0 -0.761719,-0.152344 -1.054687,-0.445313 -0.28125,-0.304687 -0.421875,-0.703125 -0.421875,-1.183594 0,-0.503906 0.140625,-0.914062 0.445312,-1.21875 0.292969,-0.316406 0.667969,-0.46875 1.113281,-0.46875 0.328125,0 0.621094,0.09375 0.890625,0.257813 0.269532,0.175781 0.46875,0.433594 0.609375,0.75 0.140625,0.328125 0.210938,0.785156 0.210938,1.40625 0,0.632812 -0.07031,1.136719 -0.199219,1.523437 -0.140625,0.375 -0.351562,0.65625 -0.621094,0.855469 -0.269531,0.199219 -0.597656,0.292969 -0.960937,0.292969 -0.386719,0 -0.714844,-0.105469 -0.960938,-0.316406 -0.246093,-0.222657 -0.386718,-0.527344 -0.445312,-0.914063 z m 2.507812,-2.203125 c 0,-0.351562 -0.09375,-0.632812 -0.28125,-0.832031 -0.1875,-0.210938 -0.410156,-0.316406 -0.667968,-0.316406 -0.269532,0 -0.515625,0.117187 -0.714844,0.339843 -0.199219,0.222657 -0.304688,0.503907 -0.304688,0.855469 0,0.328125 0.09375,0.585938 0.292969,0.785156 0.1875,0.1875 0.421875,0.292969 0.703125,0.292969 0.28125,0 0.515625,-0.105469 0.703125,-0.292969 0.175781,-0.199218 0.269531,-0.480468 0.269531,-0.832031 z M 52.537367,-0.43054219 H 51.927992 V -4.3328859 c -0.152344,0.1523437 -0.339844,0.28125 -0.585937,0.421875 -0.234375,0.140625 -0.445313,0.2460937 -0.632813,0.3164062 v -0.5859375 c 0.339844,-0.1640625 0.632813,-0.3515625 0.890625,-0.5859375 0.257813,-0.234375 0.433594,-0.4453125 0.550781,-0.6679687 h 0.386719 z m 2.519531,-2.70703121 c -0.257812,-0.082031 -0.445312,-0.2226563 -0.5625,-0.3984375 -0.128906,-0.1640625 -0.1875,-0.375 -0.1875,-0.609375 0,-0.3632813 0.128907,-0.6679688 0.398438,-0.9140625 0.257812,-0.2460938 0.597656,-0.375 1.03125,-0.375 0.433594,0 0.785156,0.1289062 1.054687,0.3867187 0.269532,0.2460938 0.398438,0.5507813 0.398438,0.9140625 0,0.234375 -0.05859,0.4335938 -0.1875,0.609375 -0.117188,0.1640625 -0.304688,0.3046875 -0.550781,0.3867188 0.304687,0.1054687 0.539062,0.2695312 0.703125,0.4921875 0.152343,0.2226562 0.234375,0.4804687 0.234375,0.7851562 0,0.4335938 -0.152344,0.7851563 -0.445313,1.07812501 -0.304687,0.29296875 -0.703125,0.43359375 -1.195312,0.43359375 -0.492188,0 -0.890625,-0.140625 -1.183594,-0.43359375 C 54.260023,-1.0750734 54.10768,-1.4383547 54.10768,-1.8719484 c 0,-0.328125 0.08203,-0.5976563 0.246093,-0.8085938 0.164063,-0.2226562 0.398438,-0.375 0.703125,-0.4570312 z m -0.117187,-1.03125 c 0,0.234375 0.07031,0.4335937 0.222656,0.5742187 0.152344,0.1523438 0.351563,0.2226563 0.585938,0.2226563 0.234375,0 0.433593,-0.070312 0.585937,-0.2109375 0.152344,-0.1523438 0.222656,-0.3398438 0.222656,-0.5507813 0,-0.2226562 -0.07031,-0.4101562 -0.234375,-0.5625 -0.152343,-0.1523437 -0.339843,-0.234375 -0.574218,-0.234375 -0.234375,0 -0.433594,0.070312 -0.585938,0.2226563 -0.152344,0.1523437 -0.222656,0.328125 -0.222656,0.5390625 z m -0.199219,2.296875 c 0,0.1757812 0.03516,0.3515625 0.117188,0.515625 0.08203,0.1523437 0.210937,0.28125 0.375,0.37499996 0.164062,0.09375 0.339843,0.12890625 0.527343,0.12890625 0.292969,0 0.527344,-0.09375 0.726563,-0.28125001 0.1875,-0.1875 0.28125,-0.421875 0.28125,-0.7148437 0,-0.2929688 -0.105469,-0.5390625 -0.292969,-0.7265625 -0.199219,-0.1992188 -0.445312,-0.2929688 -0.738281,-0.2929688 -0.292969,0 -0.527344,0.09375 -0.714844,0.28125 -0.1875,0.1992188 -0.28125,0.4335938 -0.28125,0.7148438 z M 52.537367,10.344848 H 51.927992 V 6.4425047 c -0.152344,0.1523437 -0.339844,0.28125 -0.585937,0.421875 -0.234375,0.140625 -0.445313,0.2460937 -0.632813,0.3164062 V 6.5948484 c 0.339844,-0.1640625 0.632813,-0.3515625 0.890625,-0.5859375 0.257813,-0.234375 0.433594,-0.4453125 0.550781,-0.6679687 h 0.386719 z M 54.154555,6.0089109 V 5.4229734 h 3.222656 v 0.4804688 c -0.316406,0.3398437 -0.632813,0.7851562 -0.9375,1.3476562 -0.316406,0.5625 -0.550781,1.1367188 -0.726563,1.7226563 -0.117187,0.421875 -0.199218,0.8789062 -0.234375,1.3710933 H 54.85768 c 0,-0.3867183 0.08203,-0.8671871 0.222656,-1.4179683 0.152344,-0.5625 0.363281,-1.0898438 0.632812,-1.6054688 0.28125,-0.515625 0.574219,-0.9492187 0.878907,-1.3125 z M 52.537367,21.117309 h -0.609375 v -3.902343 c -0.152344,0.152343 -0.339844,0.28125 -0.585937,0.421875 -0.234375,0.140625 -0.445313,0.246093 -0.632813,0.316406 v -0.585938 c 0.339844,-0.164062 0.632813,-0.351562 0.890625,-0.585937 0.257813,-0.234375 0.433594,-0.445313 0.550781,-0.667969 h 0.386719 z m 4.757813,-3.761718 -0.609375,0.04687 c -0.05859,-0.234375 -0.140625,-0.410157 -0.234375,-0.527344 -0.164063,-0.164063 -0.375,-0.257813 -0.609375,-0.257813 -0.199219,0 -0.375,0.05859 -0.515625,0.164063 -0.199219,0.140625 -0.351563,0.339844 -0.457032,0.609375 -0.117187,0.28125 -0.164062,0.65625 -0.175781,1.160156 0.152344,-0.222656 0.328125,-0.398437 0.539063,-0.503906 0.210937,-0.105469 0.433593,-0.164063 0.679687,-0.164063 0.398438,0 0.75,0.152344 1.03125,0.457032 0.292969,0.292968 0.433594,0.679687 0.433594,1.160156 0,0.316406 -0.07031,0.609375 -0.199219,0.867187 -0.140625,0.269532 -0.328125,0.480469 -0.5625,0.621094 -0.234375,0.140625 -0.503906,0.210938 -0.796875,0.210938 -0.515625,0 -0.925781,-0.1875 -1.242187,-0.5625 -0.328125,-0.375 -0.492188,-0.984375 -0.492188,-1.851563 0,-0.960937 0.175781,-1.664062 0.539063,-2.097656 0.304687,-0.386719 0.726562,-0.574219 1.253906,-0.574219 0.386719,0 0.714844,0.117188 0.960937,0.328125 0.246094,0.222656 0.398438,0.527344 0.457032,0.914063 z m -2.507813,2.144531 c 0,0.210937 0.04687,0.421875 0.140625,0.609375 0.08203,0.1875 0.210938,0.339844 0.375,0.445312 0.164063,0.09375 0.328125,0.140625 0.503906,0.140625 0.257813,0 0.480469,-0.09375 0.667969,-0.304687 0.1875,-0.210938 0.28125,-0.492188 0.28125,-0.855469 0,-0.339844 -0.09375,-0.609375 -0.28125,-0.808594 -0.175781,-0.199218 -0.410156,-0.304687 -0.691406,-0.304687 -0.28125,0 -0.515625,0.105469 -0.703125,0.304687 -0.199219,0.199219 -0.292969,0.457032 -0.292969,0.773438 z m -2.25,12.389648 h -0.609375 v -3.902343 c -0.152344,0.152343 -0.339844,0.28125 -0.585937,0.421875 -0.234375,0.140625 -0.445313,0.246093 -0.632813,0.316406 V 28.13977 c 0.339844,-0.164062 0.632813,-0.351562 0.890625,-0.585937 0.257813,-0.234375 0.433594,-0.445313 0.550781,-0.667969 h 0.386719 z m 1.582031,-1.300781 0.632813,-0.05859 c 0.05859,0.316407 0.164062,0.550782 0.339844,0.703125 0.164062,0.164063 0.375,0.234375 0.621093,0.234375 0.292969,0 0.550782,-0.105468 0.75,-0.328125 0.199219,-0.222656 0.304688,-0.515625 0.304688,-0.890625 0,-0.339843 -0.09375,-0.621093 -0.292969,-0.820312 -0.199219,-0.199219 -0.457031,-0.304688 -0.773437,-0.304688 -0.1875,0 -0.375,0.04687 -0.527344,0.140625 -0.164063,0.08203 -0.292969,0.199219 -0.375,0.339844 l -0.574219,-0.07031 0.480469,-2.554688 h 2.484375 v 0.574219 h -1.992188 l -0.269531,1.347656 c 0.292969,-0.210937 0.609375,-0.316406 0.9375,-0.316406 0.433594,0 0.808594,0.152344 1.101563,0.457031 0.304687,0.292969 0.457031,0.691406 0.457031,1.160156 0,0.445313 -0.140625,0.84375 -0.398438,1.171875 -0.316406,0.398438 -0.761718,0.597657 -1.3125,0.597657 -0.457031,0 -0.820312,-0.117188 -1.113281,-0.375 -0.28125,-0.257813 -0.445312,-0.585938 -0.480469,-1.007813 z m -1.582031,12.073242 h -0.609375 v -3.902344 c -0.152344,0.152344 -0.339844,0.28125 -0.585937,0.421875 -0.234375,0.140625 -0.445313,0.246094 -0.632813,0.316407 v -0.585938 c 0.339844,-0.164062 0.632813,-0.351562 0.890625,-0.585937 0.257813,-0.234375 0.433594,-0.445313 0.550781,-0.667969 h 0.386719 z m 3.539063,0 v -1.195312 h -2.15625 v -0.5625 l 2.273437,-3.222657 h 0.492188 v 3.222657 h 0.679687 v 0.5625 h -0.679687 v 1.195312 z m 0,-1.757812 v -2.238282 l -1.558594,2.238282 z m -3.539063,12.530273 h -0.609375 v -3.902344 c -0.152344,0.152344 -0.339844,0.28125 -0.585937,0.421875 -0.234375,0.140625 -0.445313,0.246094 -0.632813,0.316407 v -0.585938 c 0.339844,-0.164062 0.632813,-0.351562 0.890625,-0.585937 0.257813,-0.234375 0.433594,-0.445313 0.550781,-0.667969 h 0.386719 z m 1.582031,-1.3125 0.609375,-0.08203 c 0.07031,0.339844 0.1875,0.597656 0.363282,0.75 0.164062,0.152344 0.375,0.222656 0.609375,0.222656 0.292968,0 0.539062,-0.09375 0.726562,-0.292969 0.199219,-0.199218 0.304688,-0.445312 0.304688,-0.738281 0,-0.28125 -0.09375,-0.515625 -0.28125,-0.703125 -0.175782,-0.175781 -0.410157,-0.269531 -0.691407,-0.269531 -0.117187,0 -0.269531,0.02344 -0.433593,0.07031 l 0.07031,-0.539062 c 0.03516,0 0.07031,0 0.09375,0 0.257813,0 0.492188,-0.05859 0.703125,-0.199219 0.210938,-0.140625 0.316406,-0.339844 0.316406,-0.632812 0,-0.222657 -0.08203,-0.398438 -0.234375,-0.550782 -0.152343,-0.152343 -0.339843,-0.222656 -0.585937,-0.222656 -0.234375,0 -0.433594,0.07031 -0.597656,0.222656 -0.152344,0.152344 -0.257813,0.375 -0.304688,0.679688 L 54.17799,49.719847 c 0.08203,-0.410156 0.246094,-0.726562 0.515625,-0.949218 0.257813,-0.222657 0.585938,-0.339844 0.984375,-0.339844 0.269531,0 0.515625,0.05859 0.75,0.175781 0.234375,0.117188 0.398438,0.28125 0.527344,0.480469 0.117187,0.199219 0.175781,0.410156 0.175781,0.644531 0,0.210938 -0.04687,0.410156 -0.164062,0.585938 -0.117188,0.175781 -0.292969,0.316406 -0.515625,0.421875 0.292968,0.07031 0.527343,0.210937 0.679687,0.421875 0.164063,0.210937 0.246094,0.480468 0.246094,0.796875 0,0.445312 -0.152344,0.808593 -0.46875,1.113281 -0.316406,0.304687 -0.726563,0.457031 -1.207031,0.457031 -0.433594,0 -0.796875,-0.128906 -1.089844,-0.398437 -0.292969,-0.257813 -0.457031,-0.597657 -0.492188,-1.007813 z m -1.582031,12.087891 h -0.609375 v -3.902344 c -0.152344,0.152344 -0.339844,0.28125 -0.585937,0.421875 -0.234375,0.140625 -0.445313,0.246094 -0.632813,0.316406 v -0.585937 c 0.339844,-0.164063 0.632813,-0.351563 0.890625,-0.585938 0.257813,-0.234375 0.433594,-0.445312 0.550781,-0.667968 h 0.386719 z m 4.792969,-0.585938 v 0.585938 h -3.292969 c -0.01172,-0.140625 0.01172,-0.292969 0.07031,-0.421875 0.08203,-0.222656 0.222656,-0.445313 0.398437,-0.667969 0.1875,-0.210937 0.457031,-0.46875 0.808594,-0.75 0.539062,-0.445312 0.902344,-0.796875 1.089844,-1.054687 0.199218,-0.257813 0.292968,-0.503907 0.292968,-0.738282 0,-0.246093 -0.09375,-0.445312 -0.269531,-0.609375 -0.164062,-0.164062 -0.386719,-0.257812 -0.667969,-0.257812 -0.292968,0 -0.539062,0.09375 -0.714843,0.269531 -0.175782,0.175781 -0.257813,0.421875 -0.257813,0.738281 l -0.632812,-0.07031 c 0.03516,-0.46875 0.199218,-0.820313 0.480468,-1.066406 0.28125,-0.246094 0.65625,-0.375 1.136719,-0.375 0.480469,0 0.855469,0.128906 1.136719,0.398437 0.28125,0.269531 0.410156,0.597656 0.410156,0.984375 0,0.199219 -0.03516,0.398438 -0.117187,0.585938 -0.08203,0.199218 -0.222657,0.398437 -0.410157,0.609375 -0.1875,0.210937 -0.503906,0.503906 -0.9375,0.878906 -0.363281,0.304687 -0.609375,0.515625 -0.703125,0.632812 -0.105468,0.105469 -0.199218,0.222657 -0.269531,0.328125 z M 52.537367,74.982544 H 51.927992 V 71.0802 c -0.152344,0.152344 -0.339844,0.28125 -0.585937,0.421875 -0.234375,0.140625 -0.445313,0.246094 -0.632813,0.316406 v -0.585937 c 0.339844,-0.164063 0.632813,-0.351563 0.890625,-0.585938 0.257813,-0.234375 0.433594,-0.445312 0.550781,-0.667969 h 0.386719 z m 3.878906,0 H 55.806898 V 71.0802 c -0.152343,0.152344 -0.339843,0.28125 -0.585937,0.421875 -0.234375,0.140625 -0.445313,0.246094 -0.632813,0.316406 v -0.585937 c 0.339844,-0.164063 0.632813,-0.351563 0.890625,-0.585938 0.257813,-0.234375 0.433594,-0.445312 0.550782,-0.667969 h 0.386718 z m -3.878906,10.772461 h -0.609375 v -3.902344 c -0.152344,0.152344 -0.339844,0.28125 -0.585937,0.421875 -0.234375,0.140625 -0.445313,0.246094 -0.632813,0.316406 v -0.585937 c 0.339844,-0.164063 0.632813,-0.351563 0.890625,-0.585938 0.257813,-0.234375 0.433594,-0.445312 0.550781,-0.667969 h 0.386719 z m 1.582031,-2.460938 c 0,-0.585937 0.05859,-1.054687 0.175782,-1.417969 0.117187,-0.363281 0.304687,-0.632812 0.539062,-0.832031 0.234375,-0.199219 0.539063,-0.292969 0.902344,-0.292969 0.269531,0 0.503906,0.05859 0.703125,0.164063 0.199219,0.105469 0.375,0.257812 0.503906,0.46875 0.128906,0.199219 0.234375,0.445312 0.304688,0.738281 0.08203,0.292969 0.117187,0.679688 0.117187,1.171875 0,0.585938 -0.05859,1.066406 -0.175781,1.417969 -0.128906,0.363281 -0.304688,0.632812 -0.550781,0.832031 -0.234375,0.199219 -0.539063,0.292969 -0.902344,0.292969 -0.480469,0 -0.855469,-0.164063 -1.125,-0.515625 -0.328125,-0.410156 -0.492188,-1.089844 -0.492188,-2.027344 z m 0.621094,0 c 0,0.820313 0.09375,1.371094 0.292969,1.640625 0.1875,0.269531 0.421875,0.398438 0.703125,0.398438 0.28125,0 0.515625,-0.128907 0.714844,-0.398438 0.1875,-0.28125 0.28125,-0.820312 0.28125,-1.640625 0,-0.820312 -0.09375,-1.359375 -0.28125,-1.628906 -0.199219,-0.269531 -0.433594,-0.410156 -0.714844,-0.410156 -0.28125,0 -0.515625,0.117187 -0.679688,0.363281 -0.210937,0.304687 -0.316406,0.867187 -0.316406,1.675781 z m 0,0"
       style="fill:#000102;fill-opacity:1;fill-rule:nonzero;stroke:none;stroke-width:1.3;stroke-dasharray:none"
       aria-label="A0&#10;A1&#10;A2&#10;A3&#10;A4&#10;A5&#10;A6&#10;A7&#10;VSS&#10;VDD&#10;VT&#10;OSC1&#10;OSC2&#10;DIN&#10;D11&#10;D10&#10;D9&#10;D8&#10;1&#10;2&#10;3&#10;4&#10;5&#10;6&#10;7&#10;8&#10;9&#10;18&#10;17&#10;16&#10;15&#10;14&#10;13&#10;12&#10;11&#10;10"
       transform="matrix(1.3333333,0,0,1.3333333,145.73533,468.7264)" />
  </g>
</svg>
