<?xml version="1.0" encoding="UTF-8" standalone="no"?>
<!-- Created with Inkscape (http://www.inkscape.org/) -->

<svg
   width="180.70868mm"
   height="127.97868mm"
   viewBox="0 0 180.70868 127.97868"
   version="1.1"
   id="svg1"
   xmlns="http://www.w3.org/2000/svg"
   xmlns:svg="http://www.w3.org/2000/svg">
  <defs
     id="defs1">
    <marker
       style="overflow:visible"
       id="marker25"
       refX="0"
       refY="0"
       orient="auto-start-reverse"
       markerWidth="1.4"
       markerHeight="1.4"
       viewBox="0 0 1 1"
       preserveAspectRatio="xMidYMid">
      <path
         transform="scale(0.5)"
         style="fill:context-stroke;fill-rule:evenodd;stroke:context-stroke;stroke-width:1pt"
         d="M 5.77,0 -2.88,5 V -5 Z"
         id="path25" />
    </marker>
    <marker
       style="overflow:visible"
       id="marker20"
       refX="0"
       refY="0"
       orient="auto-start-reverse"
       markerWidth="1.5"
       markerHeight="1.5"
       viewBox="0 0 1 1"
       preserveAspectRatio="xMidYMid">
      <path
         transform="scale(0.5)"
         style="fill:context-stroke;fill-rule:evenodd;stroke:context-stroke;stroke-width:1pt"
         d="M 5.77,0 -2.88,5 V -5 Z"
         id="path20" />
    </marker>
    <marker
       style="overflow:visible"
       id="Triangle"
       refX="0"
       refY="0"
       orient="auto-start-reverse"
       markerWidth="1.501"
       markerHeight="1.501"
       viewBox="0 0 1 1"
       preserveAspectRatio="xMidYMid"
       markerUnits="strokeWidth">
      <path
         transform="scale(0.5)"
         style="fill:context-stroke;fill-rule:evenodd;stroke:context-stroke;stroke-width:1pt"
         d="M 5.77,0 -2.88,5 V -5 Z"
         id="path135" />
    </marker>
  </defs>
  <g
     id="layer1"
     transform="translate(-18.276542,-51.78671)">
    <path
       style="fill:none;stroke:#000000;stroke-width:0.564444;stroke-linecap:round;stroke-linejoin:round;stroke-dasharray:4.51555, 2.25778;stroke-dashoffset:0;marker-end:url(#marker25)"
       d="M 85.836149,83.844658 53.53756,143.66472"
       id="path26" />
    <path
       id="rect5"
       style="fill:#ffffff;stroke:#000000;stroke-width:0.705556;stroke-linecap:round;stroke-linejoin:round"
       d="m 168.31737,124.29941 h 30.1025 v 16.27939 h -30.1025 z" />
    <g
       id="text5"
       style="font-size:4.80853px;line-height:1;font-family:Arial;-inkscape-font-specification:Arial;text-align:center;text-decoration-color:#000000;letter-spacing:0px;word-spacing:0px;text-anchor:middle;white-space:pre;fill:#000000;stroke-width:0.705556;stroke-linecap:round;stroke-linejoin:round"
       aria-label="Main&#10;Receiver">
      <path
         d="m 177.62211,131.59238 v -3.44205 h 0.68559 l 0.81473,2.43714 q 0.1127,0.34045 0.16435,0.5095 0.0587,-0.18784 0.18314,-0.55176 l 0.82412,-2.39488 h 0.6128 v 3.44205 h -0.43906 v -2.88089 l -1.00021,2.88089 h -0.41088 l -0.99552,-2.9302 v 2.9302 z m 5.59273,-0.30758 q -0.23479,0.19957 -0.45314,0.28175 -0.21601,0.0822 -0.46489,0.0822 -0.41089,0 -0.63159,-0.19958 -0.2207,-0.20192 -0.2207,-0.51419 0,-0.18314 0.0822,-0.3334 0.0845,-0.15262 0.21836,-0.24419 0.13618,-0.0916 0.30523,-0.13852 0.12444,-0.0329 0.37566,-0.0634 0.51185,-0.061 0.75369,-0.14557 0.002,-0.0869 0.002,-0.11035 0,-0.25827 -0.11974,-0.36393 -0.16201,-0.14322 -0.48132,-0.14322 -0.29819,0 -0.44141,0.10566 -0.14088,0.1033 -0.20897,0.36862 l -0.41323,-0.0564 q 0.0563,-0.26532 0.18549,-0.42732 0.12913,-0.16436 0.37332,-0.25123 0.24418,-0.0892 0.56584,-0.0892 0.31932,0 0.51889,0.0751 0.19957,0.0751 0.29349,0.19019 0.0939,0.1127 0.13148,0.28644 0.0211,0.10801 0.0211,0.38975 v 0.5635 q 0,0.58933 0.0258,0.74664 0.0282,0.15496 0.10801,0.29819 H 183.299 q -0.0657,-0.13149 -0.0845,-0.30758 z m -0.0352,-0.94386 q -0.2301,0.0939 -0.69029,0.15966 -0.26062,0.0376 -0.36862,0.0845 -0.10801,0.047 -0.16671,0.13853 -0.0587,0.0892 -0.0587,0.19957 0,0.16905 0.12678,0.28175 0.12914,0.1127 0.37567,0.1127 0.24418,0 0.43436,-0.10566 0.19019,-0.108 0.27941,-0.29348 0.0681,-0.14323 0.0681,-0.42263 z m 1.08473,-1.70459 v -0.48602 h 0.42263 v 0.48602 z m 0,2.95603 v -2.49349 h 0.42263 v 2.49349 z m 1.06596,0 v -2.49349 h 0.38036 v 0.35454 q 0.2747,-0.41089 0.79359,-0.41089 0.2254,0 0.41324,0.0822 0.19018,0.0798 0.28409,0.21131 0.0939,0.13148 0.13149,0.31227 0.0235,0.1174 0.0235,0.41089 v 1.53319 h -0.42263 v -1.51676 q 0,-0.25827 -0.0493,-0.38505 -0.0493,-0.12914 -0.1761,-0.20427 -0.12444,-0.0775 -0.29349,-0.0775 -0.27001,0 -0.46723,0.17139 -0.19488,0.1714 -0.19488,0.65038 v 1.36179 z"
         id="path39" />
      <path
         d="m 173.36769,136.40091 v -3.44205 h 1.52614 q 0.4602,0 0.69968,0.0939 0.23949,0.0916 0.38271,0.32636 0.14323,0.23479 0.14323,0.51889 0,0.36627 -0.23714,0.6175 -0.23714,0.25123 -0.73255,0.31932 0.18079,0.0869 0.2747,0.1714 0.19958,0.18313 0.37802,0.45784 l 0.59872,0.93682 h -0.5729 l -0.45549,-0.71612 q -0.19957,-0.30992 -0.32871,-0.47428 -0.12913,-0.16435 -0.23244,-0.23009 -0.10096,-0.0657 -0.20662,-0.0916 -0.0775,-0.0164 -0.25357,-0.0164 h -0.52829 v 1.5285 z m 0.45549,-1.92295 h 0.97909 q 0.31227,0 0.48836,-0.0634 0.1761,-0.0657 0.26766,-0.20662 0.0916,-0.14322 0.0916,-0.30992 0,-0.24418 -0.17844,-0.40149 -0.17609,-0.15731 -0.5588,-0.15731 h -1.08944 z m 4.66296,1.11996 0.43672,0.054 q -0.10331,0.38271 -0.38271,0.59402 -0.27941,0.21132 -0.71377,0.21132 -0.54706,0 -0.86873,-0.33576 -0.31932,-0.3381 -0.31932,-0.94621 0,-0.62924 0.32402,-0.97673 0.32401,-0.34749 0.84055,-0.34749 0.50011,0 0.81707,0.34045 0.31697,0.34045 0.31697,0.95795 0,0.0376 -0.002,0.1127 h -1.85955 q 0.0235,0.41088 0.23244,0.62924 0.20896,0.21836 0.52124,0.21836 0.23244,0 0.3968,-0.1221 0.16435,-0.12209 0.26061,-0.38975 z m -1.38761,-0.68324 h 1.39231 q -0.0282,-0.31462 -0.15966,-0.47193 -0.20192,-0.24419 -0.52358,-0.24419 -0.29115,0 -0.49072,0.19488 -0.19722,0.19488 -0.21835,0.52124 z m 3.98206,0.57289 0.41558,0.054 q -0.0681,0.42967 -0.34984,0.67385 -0.2794,0.24184 -0.68794,0.24184 -0.51184,0 -0.82412,-0.33341 -0.30992,-0.33575 -0.30992,-0.96029 0,-0.40385 0.13383,-0.70673 0.13383,-0.30288 0.40619,-0.45314 0.27471,-0.15262 0.59637,-0.15262 0.40619,0 0.66446,0.20662 0.25827,0.20427 0.33106,0.58228 l -0.41089,0.0634 q -0.0587,-0.25122 -0.20896,-0.37801 -0.14792,-0.12679 -0.35923,-0.12679 -0.31932,0 -0.51889,0.2301 -0.19958,0.22775 -0.19958,0.72316 0,0.50245 0.19253,0.7302 0.19253,0.22775 0.50246,0.22775 0.24888,0 0.41558,-0.15262 0.1667,-0.15261 0.21131,-0.46958 z m 2.48409,0.11035 0.43672,0.054 q -0.10331,0.38271 -0.38271,0.59402 -0.27941,0.21132 -0.71377,0.21132 -0.54706,0 -0.86873,-0.33576 -0.31932,-0.3381 -0.31932,-0.94621 0,-0.62924 0.32402,-0.97673 0.32401,-0.34749 0.84055,-0.34749 0.50011,0 0.81708,0.34045 0.31696,0.34045 0.31696,0.95795 0,0.0376 -0.002,0.1127 h -1.85955 q 0.0235,0.41088 0.23244,0.62924 0.20897,0.21836 0.52124,0.21836 0.23244,0 0.3968,-0.1221 0.16435,-0.12209 0.26061,-0.38975 z m -1.38761,-0.68324 h 1.39231 q -0.0282,-0.31462 -0.15966,-0.47193 -0.20192,-0.24419 -0.52358,-0.24419 -0.29114,0 -0.49072,0.19488 -0.19722,0.19488 -0.21835,0.52124 z m 2.3573,-1.4698 v -0.48602 h 0.42263 v 0.48602 z m 0,2.95603 v -2.49349 h 0.42263 v 2.49349 z m 1.75859,0 -0.94856,-2.49349 h 0.44611 l 0.53532,1.49327 q 0.0869,0.24184 0.15966,0.50246 0.0564,-0.19723 0.15731,-0.47428 l 0.55411,-1.52145 h 0.43436 l -0.94386,2.49349 z m 3.41856,-0.80299 0.43672,0.054 q -0.10331,0.38271 -0.38271,0.59402 -0.2794,0.21132 -0.71377,0.21132 -0.54706,0 -0.86873,-0.33576 -0.31931,-0.3381 -0.31931,-0.94621 0,-0.62924 0.32401,-0.97673 0.32401,-0.34749 0.84055,-0.34749 0.50011,0 0.81708,0.34045 0.31696,0.34045 0.31696,0.95795 0,0.0376 -0.002,0.1127 h -1.85955 q 0.0235,0.41088 0.23244,0.62924 0.20897,0.21836 0.52124,0.21836 0.23244,0 0.3968,-0.1221 0.16435,-0.12209 0.26061,-0.38975 z m -1.38761,-0.68324 h 1.39231 q -0.0282,-0.31462 -0.15966,-0.47193 -0.20192,-0.24419 -0.52358,-0.24419 -0.29114,0 -0.49072,0.19488 -0.19722,0.19488 -0.21835,0.52124 z m 2.35026,1.48623 v -2.49349 h 0.38036 v 0.37802 q 0.14557,-0.26532 0.26766,-0.34984 0.12444,-0.0845 0.27236,-0.0845 0.21366,0 0.43437,0.13618 l -0.14557,0.3921 q -0.15497,-0.0916 -0.30993,-0.0916 -0.13853,0 -0.24888,0.0845 -0.11035,0.0822 -0.15731,0.23009 -0.0704,0.2254 -0.0704,0.49307 v 1.30544 z"
         id="path40" />
    </g>
    <path
       id="path33"
       style="fill:#ffffff;stroke:#000000;stroke-width:0.464634;stroke-linecap:round;stroke-linejoin:round;stroke-dasharray:3.71707, 1.85854"
       d="M 65.25391,112.93244 A 23.378853,16.911022 0 0 1 41.875057,129.84346 23.378853,16.911022 0 0 1 18.496204,112.93244 23.378853,16.911022 0 0 1 41.875057,96.02142 23.378853,16.911022 0 0 1 65.25391,112.93244 Z" />
    <path
       d="m 30.706754,101.98176 v -2.235616 h 1.508201 v 0.263816 h -1.212356 v 0.69234 h 1.049184 v 0.26382 h -1.049184 v 1.01564 z m 1.858945,-1.91995 v -0.315666 h 0.274496 v 0.315666 z m 0,1.91995 v -1.61953 h 0.274496 v 1.61953 z m 1.800997,-0.52154 0.283645,0.0351 q -0.0671,0.24857 -0.248571,0.38582 -0.181472,0.13725 -0.463592,0.13725 -0.35532,0 -0.564241,-0.21807 -0.207397,-0.2196 -0.207397,-0.61457 0,-0.40869 0.210447,-0.63439 0.210446,-0.2257 0.545941,-0.2257 0.32482,0 0.530691,0.22113 0.205872,0.22112 0.205872,0.62219 0,0.0244 -0.0015,0.0732 H 33.45021 q 0.01525,0.26688 0.150973,0.4087 0.135723,0.14182 0.338545,0.14182 0.150972,0 0.25772,-0.0793 0.106749,-0.0793 0.169273,-0.25314 z m -0.901261,-0.44377 h 0.904311 q -0.0183,-0.20435 -0.103699,-0.30652 -0.131148,-0.1586 -0.340069,-0.1586 -0.189097,0 -0.31872,0.12657 -0.128098,0.12658 -0.141823,0.33855 z m 1.523451,0.96531 v -2.235616 h 0.274495 v 2.235616 z m 1.750672,0 v -0.20435 q -0.154023,0.24095 -0.452918,0.24095 -0.193672,0 -0.356844,-0.10675 -0.161648,-0.10675 -0.251621,-0.29737 -0.08845,-0.19215 -0.08845,-0.44072 0,-0.24247 0.08082,-0.43919 0.08082,-0.19825 0.242471,-0.30347 0.161647,-0.10523 0.361419,-0.10523 0.146398,0 0.260771,0.0625 0.114373,0.061 0.186047,0.16012 v -0.802136 h 0.272971 v 2.235616 z m -0.867711,-0.80824 q 0,0.3111 0.131148,0.46512 0.131148,0.15402 0.30957,0.15402 0.179947,0 0.304995,-0.1464 0.126573,-0.14792 0.126573,-0.44986 0,-0.33245 -0.128098,-0.488 -0.128098,-0.15554 -0.31567,-0.15554 -0.182997,0 -0.30652,0.14944 -0.121998,0.14945 -0.121998,0.47122 z m 1.447202,0.13725 v -0.27602 h 0.843311 v 0.27602 z m 2.104466,0.67099 H 39.14902 v -1.74915 q -0.09912,0.0946 -0.260771,0.1891 -0.160123,0.0945 -0.288221,0.14182 v -0.26534 q 0.230272,-0.10828 0.402594,-0.2623 0.172322,-0.154023 0.243996,-0.298896 h 0.176897 z"
       id="text33"
       style="font-size:3.12315px;line-height:1;font-family:Arial;-inkscape-font-specification:Arial;text-align:center;text-decoration-color:#000000;letter-spacing:0px;word-spacing:0px;text-anchor:middle;white-space:pre;fill:#000000;stroke-width:0.832834;stroke-linecap:round;stroke-linejoin:round;stroke-dasharray:6.6627, 3.33135"
       aria-label="Field-1" />
    <g
       id="g8"
       style="stroke-width:0.705556;stroke-dasharray:none"
       transform="matrix(0.76407009,0,0,0.76407009,8.91717,38.541654)">
      <path
         id="rect7"
         style="fill:#ffffff;stroke:#000000;stroke-linecap:round;stroke-linejoin:round"
         d="M 31.998383,94.068497 H 64.44677 V 105.93523 H 31.998383 Z" />
      <path
         d="m 35.78215,101.70175 v -3.035852 h -1.134043 v -0.40619 h 2.728277 v 0.40619 h -1.138739 v 3.035852 z m 1.82433,0 v -2.493484 h 0.380362 v 0.378014 q 0.145571,-0.265314 0.267662,-0.349839 0.12444,-0.08452 0.272359,-0.08452 0.21366,0 0.434364,0.136179 l -0.145571,0.392102 q -0.154962,-0.09157 -0.309925,-0.09157 -0.138527,0 -0.248879,0.08452 -0.110352,0.08218 -0.15731,0.230096 -0.07044,0.225402 -0.07044,0.493062 v 1.30544 z m 3.233079,-0.30758 q -0.234792,0.19958 -0.453148,0.28175 -0.216008,0.0822 -0.464887,0.0822 -0.410885,0 -0.631589,-0.19957 -0.220704,-0.20192 -0.220704,-0.51419 0,-0.18314 0.08218,-0.33341 0.08452,-0.15261 0.218356,-0.24418 0.136179,-0.0916 0.305229,-0.13853 0.124439,-0.0329 0.375666,-0.0634 0.511846,-0.0611 0.753681,-0.14557 0.0023,-0.0869 0.0023,-0.11035 0,-0.258276 -0.119744,-0.363932 -0.162006,-0.143223 -0.481322,-0.143223 -0.298186,0 -0.441408,0.105657 -0.140875,0.103308 -0.208965,0.368622 l -0.413233,-0.05635 q 0.05635,-0.265314 0.185485,-0.42732 0.129136,-0.164354 0.373319,-0.251227 0.244183,-0.08922 0.565847,-0.08922 0.319317,0 0.51889,0.07513 0.199572,0.07513 0.293489,0.190181 0.09392,0.1127 0.131483,0.286446 0.02113,0.108004 0.02113,0.389756 v 0.5635 q 0,0.58933 0.02583,0.74664 0.02818,0.15496 0.108005,0.29818 h -0.441408 q -0.06574,-0.13148 -0.08452,-0.30758 z m -0.03522,-0.94386 q -0.230096,0.0939 -0.690287,0.15966 -0.260619,0.0376 -0.368623,0.0845 -0.108004,0.0469 -0.166702,0.13852 -0.0587,0.0892 -0.0587,0.19958 0,0.16905 0.126788,0.28175 0.129135,0.1127 0.375666,0.1127 0.244183,0 0.434364,-0.10566 0.190182,-0.108 0.279402,-0.29349 0.06809,-0.14322 0.06809,-0.42262 z m 1.082389,1.25144 v -2.493484 h 0.380362 v 0.354535 q 0.274706,-0.410885 0.793595,-0.410885 0.2254,0 0.413233,0.08218 0.190182,0.07983 0.284098,0.211312 0.09392,0.131484 0.131483,0.312273 0.02348,0.117396 0.02348,0.410879 v 1.53319 H 43.490355 V 100.185 q 0,-0.258272 -0.04931,-0.385059 -0.04931,-0.129136 -0.176094,-0.204269 -0.124439,-0.07748 -0.293489,-0.07748 -0.270011,0 -0.467235,0.171398 -0.194877,0.171397 -0.194877,0.65037 v 1.36179 z m 2.505225,-0.74429 0.417929,-0.0657 q 0.03522,0.25123 0.194877,0.38506 0.162006,0.13383 0.4508,0.13383 0.291141,0 0.432016,-0.1174 0.140875,-0.11974 0.140875,-0.2794 0,-0.14322 -0.124439,-0.2254 -0.08687,-0.0563 -0.432017,-0.14322 -0.464887,-0.1174 -0.645676,-0.20192 -0.178442,-0.0869 -0.272358,-0.23714 -0.09157,-0.15261 -0.09157,-0.335752 0,-0.166702 0.07513,-0.307577 0.07748,-0.143223 0.208965,-0.237139 0.09861,-0.07279 0.267662,-0.122092 0.171398,-0.05165 0.366275,-0.05165 0.293489,0 0.514193,0.08452 0.223052,0.08452 0.328708,0.230096 0.105656,0.143222 0.145571,0.385058 l -0.413233,0.05635 q -0.02817,-0.192529 -0.164354,-0.300533 -0.133831,-0.108005 -0.380362,-0.108005 -0.291142,0 -0.415581,0.09626 -0.12444,0.09626 -0.12444,0.2254 0,0.08218 0.05165,0.147918 0.05165,0.06809 0.162006,0.112696 0.06339,0.0235 0.373319,0.108 0.448452,0.11975 0.624545,0.19723 0.178442,0.0751 0.279402,0.2207 0.10096,0.14557 0.10096,0.36158 0,0.21131 -0.124439,0.39915 -0.122092,0.18548 -0.354535,0.28879 -0.232444,0.10096 -0.525933,0.10096 -0.486019,0 -0.741941,-0.20192 -0.253575,-0.20192 -0.324013,-0.59872 z m 2.573315,0.74429 v -2.493484 h 0.378014 v 0.349839 q 0.117396,-0.183137 0.312273,-0.293489 0.194877,-0.1127 0.443756,-0.1127 0.277054,0 0.453147,0.115048 0.178442,0.115048 0.251227,0.321664 0.295837,-0.436712 0.770116,-0.436712 0.370971,0 0.570544,0.206617 0.199572,0.204268 0.199572,0.631589 v 1.711628 H 49.923642 V 100.131 q 0,-0.253578 -0.04226,-0.36393 -0.03991,-0.1127 -0.147918,-0.18079 -0.108005,-0.06809 -0.253575,-0.06809 -0.262967,0 -0.436712,0.176093 -0.173746,0.173746 -0.173746,0.558807 v 1.44866 h -0.422625 v -1.62006 q 0,-0.28175 -0.103308,-0.422625 -0.103308,-0.140875 -0.3381,-0.140875 -0.178441,0 -0.331056,0.09392 -0.150266,0.09392 -0.218356,0.274706 -0.06809,0.180784 -0.06809,0.521234 v 1.2937 z m 4.007891,-2.956023 v -0.486019 h 0.422625 v 0.486019 z m 0,2.956023 v -2.493484 h 0.422625 v 2.493484 z m 1.988683,-0.37801 0.06105,0.37332 q -0.178441,0.0376 -0.319316,0.0376 -0.230096,0 -0.356883,-0.0728 -0.126788,-0.0728 -0.178442,-0.19018 -0.05165,-0.11975 -0.05165,-0.50011 v -1.434576 h -0.309925 v -0.328708 h 0.309925 v -0.617502 l 0.420277,-0.253574 v 0.871076 h 0.424972 v 0.328708 h -0.424972 v 1.458056 q 0,0.18079 0.02113,0.23244 0.02348,0.0517 0.07278,0.0822 0.05165,0.0305 0.145571,0.0305 0.07044,0 0.185485,-0.0164 z m 1.335965,0 0.06105,0.37332 q -0.178441,0.0376 -0.319316,0.0376 -0.230096,0 -0.356883,-0.0728 -0.126788,-0.0728 -0.178442,-0.19018 -0.05165,-0.11975 -0.05165,-0.50011 v -1.434576 h -0.309925 v -0.328708 h 0.309925 v -0.617502 l 0.420277,-0.253574 v 0.871076 h 0.424973 v 0.328708 h -0.424973 v 1.458056 q 0,0.18079 0.02113,0.23244 0.02348,0.0517 0.07279,0.0822 0.05165,0.0305 0.145571,0.0305 0.07044,0 0.185486,-0.0164 z m 2.120167,-0.42498 0.436712,0.054 q -0.103308,0.38271 -0.38271,0.59402 -0.279402,0.21131 -0.713766,0.21131 -0.547064,0 -0.868728,-0.33575 -0.319317,-0.3381 -0.319317,-0.94621 0,-0.629241 0.324012,-0.976733 0.324013,-0.347491 0.840554,-0.347491 0.500106,0 0.817074,0.340448 0.316969,0.340447 0.316969,0.957946 0,0.0376 -0.0023,0.1127 h -1.859549 q 0.02348,0.41089 0.232444,0.62924 0.208964,0.21836 0.521237,0.21836 0.232444,0 0.396798,-0.12209 0.164354,-0.12209 0.260618,-0.38976 z m -1.387617,-0.68324 h 1.392313 q -0.02818,-0.314619 -0.159658,-0.471929 -0.201921,-0.244184 -0.523585,-0.244184 -0.291142,0 -0.490714,0.194877 -0.197225,0.194877 -0.218356,0.521236 z m 2.350262,1.48623 v -2.493484 h 0.380362 v 0.378014 q 0.145571,-0.265314 0.267662,-0.349839 0.12444,-0.08452 0.272358,-0.08452 0.213661,0 0.434365,0.136179 l -0.145571,0.392102 q -0.154962,-0.09157 -0.309925,-0.09157 -0.138527,0 -0.248879,0.08452 -0.110352,0.08218 -0.15731,0.230096 -0.07044,0.225402 -0.07044,0.493062 v 1.30544 z m 4.416427,0 h -0.422625 v -2.693057 q -0.152614,0.145571 -0.401493,0.291142 -0.246531,0.14557 -0.443756,0.218356 v -0.408537 q 0.354535,-0.166702 0.619849,-0.403842 0.265315,-0.237139 0.375667,-0.460191 h 0.272358 z"
         id="text1"
         style="font-size:4.80853px;line-height:1;font-family:Arial;-inkscape-font-specification:Arial;text-align:center;text-decoration-color:#000000;letter-spacing:0px;word-spacing:0px;text-anchor:middle;white-space:pre;fill:#000000;stroke-linecap:round;stroke-linejoin:round"
         aria-label="Transmitter 1" />
    </g>
    <path
       id="rect10-8"
       style="fill:#ffffff;stroke:#000000;stroke-width:0.576167;stroke-linecap:round;stroke-linejoin:round"
       d="m 104.2694,72.051994 h 21.4051 v 11.996119 h -21.4051 z" />
    <path
       d="M 107.38209,80.255917 V 76.80683 h 0.38506 v 0.324012 q 0.13618,-0.190181 0.30758,-0.284097 0.17139,-0.09627 0.41558,-0.09627 0.31931,0 0.5635,0.164354 0.24418,0.164354 0.36862,0.464887 0.12444,0.298186 0.12444,0.655069 0,0.38271 -0.13853,0.690287 -0.13618,0.305229 -0.39914,0.469583 -0.26062,0.162006 -0.54942,0.162006 -0.21131,0 -0.38036,-0.08922 -0.1667,-0.08922 -0.2747,-0.2254 v 1.213872 z m 0.38271,-2.188257 q 0,0.481323 0.19488,0.711419 0.19488,0.230095 0.47193,0.230095 0.28175,0 0.48132,-0.237139 0.20192,-0.239487 0.20192,-0.739593 0,-0.476627 -0.19722,-0.713766 -0.19488,-0.23714 -0.46724,-0.23714 -0.27001,0 -0.47897,0.253575 -0.20662,0.251227 -0.20662,0.732549 z m 3.92572,1.232656 v -0.366275 q -0.29115,0.422625 -0.79125,0.422625 -0.22071,0 -0.41323,-0.08452 -0.19019,-0.08452 -0.2841,-0.211312 -0.0916,-0.129136 -0.12914,-0.314621 -0.0258,-0.12444 -0.0258,-0.39445 V 76.80683 h 0.42262 v 1.382922 q 0,0.331056 0.0258,0.446104 0.0399,0.166702 0.16905,0.262966 0.12913,0.09392 0.31931,0.09392 0.19018,0 0.35689,-0.09627 0.1667,-0.09861 0.23479,-0.265314 0.0704,-0.16905 0.0704,-0.488366 V 76.80683 h 0.42262 v 2.493486 z m 1.04012,0 V 76.80683 h 0.37802 v 0.349839 q 0.11739,-0.183137 0.31227,-0.293489 0.19488,-0.1127 0.44376,-0.1127 0.27705,0 0.45314,0.115048 0.17844,0.115048 0.25123,0.321664 0.29584,-0.436712 0.77012,-0.436712 0.37097,0 0.57054,0.206617 0.19957,0.204268 0.19957,0.631589 v 1.71163 h -0.42027 v -1.570755 q 0,-0.253575 -0.0423,-0.363927 -0.0399,-0.1127 -0.14792,-0.18079 -0.108,-0.06809 -0.25357,-0.06809 -0.26297,0 -0.43671,0.176094 -0.17375,0.173745 -0.17375,0.558803 v 1.448664 h -0.42262 v -1.620061 q 0,-0.28175 -0.10331,-0.422625 -0.10331,-0.140875 -0.3381,-0.140875 -0.17844,0 -0.33106,0.09392 -0.15026,0.09392 -0.21835,0.274706 -0.0681,0.180789 -0.0681,0.521237 v 1.293701 z m 4.00555,0.955601 V 76.80683 h 0.38505 v 0.324012 q 0.13618,-0.190181 0.30758,-0.284097 0.1714,-0.09627 0.41558,-0.09627 0.31932,0 0.5635,0.164354 0.24418,0.164354 0.36862,0.464887 0.12444,0.298186 0.12444,0.655069 0,0.38271 -0.13852,0.690287 -0.13618,0.305229 -0.39915,0.469583 -0.26062,0.162006 -0.54941,0.162006 -0.21131,0 -0.38036,-0.08922 -0.16671,-0.08922 -0.27471,-0.2254 v 1.213872 z m 0.38271,-2.188257 q 0,0.481323 0.19487,0.711419 0.19488,0.230095 0.47193,0.230095 0.28175,0 0.48133,-0.237139 0.20192,-0.239487 0.20192,-0.739593 0,-0.476627 -0.19723,-0.713766 -0.19488,-0.23714 -0.46723,-0.23714 -0.27001,0 -0.47898,0.253575 -0.20661,0.251227 -0.20661,0.732549 z m 5.73126,0.826467 v 0.406189 h -2.27513 q -0.005,-0.152615 0.0493,-0.29349 0.0869,-0.232443 0.27706,-0.457843 0.19253,-0.2254 0.5541,-0.521237 0.56116,-0.460191 0.75838,-0.727854 0.19723,-0.27001 0.19723,-0.509497 0,-0.251227 -0.18079,-0.422625 -0.17845,-0.173746 -0.46724,-0.173746 -0.30523,0 -0.48837,0.183138 -0.18313,0.183137 -0.18548,0.507149 l -0.43436,-0.04461 q 0.0446,-0.486018 0.33575,-0.739593 0.29114,-0.255923 0.78185,-0.255923 0.49541,0 0.78421,0.274706 0.28879,0.274706 0.28879,0.680895 0,0.206617 -0.0845,0.40619 -0.0845,0.199572 -0.28175,0.420276 -0.19488,0.220704 -0.65038,0.605763 -0.38036,0.319316 -0.48836,0.434364 -0.10801,0.1127 -0.17845,0.227748 z"
       id="text2-1"
       style="font-size:4.80853px;line-height:1;font-family:Arial;-inkscape-font-specification:Arial;text-align:center;text-decoration-color:#000000;letter-spacing:0px;word-spacing:0px;text-anchor:middle;white-space:pre;fill:#000000;stroke-width:0.705556;stroke-linecap:round;stroke-linejoin:round"
       aria-label="pump 2" />
    <path
       id="rect13"
       style="fill:#ffffff;stroke:#000000;stroke-width:0.705556;stroke-linecap:round;stroke-linejoin:round"
       d="m 168.52994,52.139488 h 30.1025 v 16.279396 h -30.1025 z" />
    <path
       d="m 175.83307,60.793378 0.45549,0.115048 q -0.14322,0.561151 -0.51654,0.856988 -0.37097,0.29349 -0.90864,0.29349 -0.55646,0 -0.9063,-0.2254 -0.34749,-0.227748 -0.53062,-0.657416 -0.18079,-0.429669 -0.18079,-0.922731 0,-0.537672 0.20426,-0.936818 0.20662,-0.401493 0.58464,-0.60811 0.38036,-0.208964 0.83585,-0.208964 0.51654,0 0.86873,0.262966 0.35219,0.262967 0.49072,0.739593 l -0.44846,0.105657 q -0.11974,-0.375667 -0.34749,-0.547065 -0.22774,-0.171397 -0.57289,-0.171397 -0.3968,0 -0.66446,0.190181 -0.26531,0.190181 -0.37332,0.511845 -0.108,0.319317 -0.108,0.659764 0,0.43906 0.12679,0.767769 0.12913,0.32636 0.39914,0.488366 0.27001,0.162006 0.58463,0.162006 0.38271,0 0.64803,-0.220704 0.26531,-0.220704 0.35923,-0.655068 z m 0.80533,-0.03991 q 0,-0.692635 0.38506,-1.026039 0.32167,-0.277054 0.78421,-0.277054 0.51419,0 0.84055,0.3381 0.32636,0.335752 0.32636,0.929774 0,0.481323 -0.14557,0.758377 -0.14322,0.274706 -0.42028,0.42732 -0.2747,0.152615 -0.60106,0.152615 -0.52359,0 -0.8476,-0.335752 -0.32167,-0.335752 -0.32167,-0.967341 z m 0.43437,0 q 0,0.478975 0.20896,0.718462 0.20897,0.23714 0.52594,0.23714 0.31462,0 0.52358,-0.239488 0.20896,-0.239487 0.20896,-0.730201 0,-0.46254 -0.21131,-0.699679 -0.20896,-0.239487 -0.52123,-0.239487 -0.31697,0 -0.52594,0.237139 -0.20896,0.237139 -0.20896,0.716114 z m 2.39722,1.246743 V 59.50672 h 0.38036 v 0.354535 q 0.27471,-0.410885 0.7936,-0.410885 0.2254,0 0.41323,0.08218 0.19018,0.07983 0.2841,0.211313 0.0939,0.131483 0.13148,0.312272 0.0235,0.117396 0.0235,0.410886 v 1.533188 h -0.42263 v -1.516753 q 0,-0.258271 -0.0493,-0.385058 -0.0493,-0.129135 -0.1761,-0.204269 -0.12443,-0.07748 -0.29348,-0.07748 -0.27001,0 -0.46724,0.171398 -0.19488,0.171398 -0.19488,0.650372 v 1.361791 z m 3.597,-0.378014 0.061,0.373318 q -0.17844,0.03757 -0.31932,0.03757 -0.23009,0 -0.35688,-0.07279 -0.12679,-0.07278 -0.17844,-0.190181 -0.0517,-0.119743 -0.0517,-0.500106 v -1.434576 h -0.30993 V 59.50672 h 0.30993 v -0.617501 l 0.42027,-0.253575 v 0.871076 h 0.42497 v 0.328708 h -0.42497 v 1.458056 q 0,0.180789 0.0211,0.232443 0.0235,0.05165 0.0728,0.08218 0.0516,0.03052 0.14557,0.03052 0.0704,0 0.18548,-0.01644 z m 0.40854,0.378014 V 59.50672 h 0.38036 v 0.378015 q 0.14557,-0.265315 0.26767,-0.34984 0.12444,-0.08452 0.27235,-0.08452 0.21366,0 0.43437,0.136179 l -0.14557,0.392102 q -0.15496,-0.09157 -0.30993,-0.09157 -0.13852,0 -0.24888,0.08452 -0.11035,0.08218 -0.15731,0.230096 -0.0704,0.2254 -0.0704,0.493062 v 1.305441 z m 1.44867,-1.246743 q 0,-0.692635 0.38505,-1.026039 0.32167,-0.277054 0.78421,-0.277054 0.51419,0 0.84055,0.3381 0.32636,0.335752 0.32636,0.929774 0,0.481323 -0.14557,0.758377 -0.14322,0.274706 -0.42028,0.42732 -0.2747,0.152615 -0.60106,0.152615 -0.52359,0 -0.8476,-0.335752 -0.32166,-0.335752 -0.32166,-0.967341 z m 0.43436,0 q 0,0.478975 0.20896,0.718462 0.20897,0.23714 0.52594,0.23714 0.31462,0 0.52358,-0.239488 0.20897,-0.239487 0.20897,-0.730201 0,-0.46254 -0.21132,-0.699679 -0.20896,-0.239487 -0.52123,-0.239487 -0.31697,0 -0.52594,0.237139 -0.20896,0.237139 -0.20896,0.716114 z m 2.38783,1.246743 v -3.442043 h 0.42262 v 3.442043 z m 1.0683,0 v -3.442043 h 0.42263 v 3.442043 z m 2.78463,-0.802987 0.43671,0.054 q -0.10331,0.38271 -0.38271,0.594023 -0.2794,0.211312 -0.71377,0.211312 -0.54706,0 -0.86872,-0.335752 -0.31932,-0.3381 -0.31932,-0.94621 0,-0.629241 0.32401,-0.976732 0.32401,-0.347492 0.84056,-0.347492 0.5001,0 0.81707,0.340448 0.31697,0.340448 0.31697,0.957949 0,0.03757 -0.002,0.1127 h -1.85955 q 0.0235,0.410885 0.23245,0.629241 0.20896,0.218357 0.52123,0.218357 0.23245,0 0.3968,-0.122092 0.16435,-0.122092 0.26062,-0.389754 z m -1.38762,-0.683243 h 1.39231 q -0.0282,-0.314621 -0.15965,-0.471931 -0.20192,-0.244183 -0.52359,-0.244183 -0.29114,0 -0.49071,0.194877 -0.19723,0.194877 -0.21836,0.521237 z m 2.35026,1.48623 V 59.50672 h 0.38037 v 0.378015 q 0.14557,-0.265315 0.26766,-0.34984 0.12444,-0.08452 0.27236,-0.08452 0.21366,0 0.43436,0.136179 l -0.14557,0.392102 q -0.15496,-0.09157 -0.30993,-0.09157 -0.13852,0 -0.24887,0.08452 -0.11036,0.08218 -0.15731,0.230096 -0.0704,0.2254 -0.0704,0.493062 v 1.305441 z"
       id="text14"
       style="font-size:4.80853px;line-height:1;font-family:Arial;-inkscape-font-specification:Arial;text-align:center;text-decoration-color:#000000;letter-spacing:0px;word-spacing:0px;text-anchor:middle;white-space:pre;fill:#000000;stroke-width:0.705556;stroke-linecap:round;stroke-linejoin:round"
       aria-label="Controller" />
    <path
       style="fill:none;stroke:#000000;stroke-width:0.564444;stroke-linecap:round;stroke-linejoin:round;stroke-dasharray:none;marker-end:url(#Triangle)"
       d="m 58.994128,114.47982 102.080682,9.73045"
       id="path15" />
    <path
       style="fill:none;stroke:#000000;stroke-width:0.564444;stroke-linecap:round;stroke-linejoin:round;stroke-dasharray:none;marker-end:url(#marker20)"
       d="m 183.36862,124.29941 0.32687,-52.263358"
       id="path19" />
    <path
       id="rect20"
       style="fill:#ffffff;stroke:#000000;stroke-width:0.576167;stroke-linecap:round;stroke-linejoin:round"
       d="M 50.831516,71.962982 H 72.236612 V 83.959101 H 50.831516 Z" />
    <path
       d="m 53.944207,80.166905 v -3.449087 h 0.385058 v 0.324012 q 0.136179,-0.190181 0.307576,-0.284097 0.171398,-0.09627 0.415581,-0.09627 0.319317,0 0.5635,0.164354 0.244183,0.164354 0.368623,0.464887 0.124439,0.298185 0.124439,0.655069 0,0.38271 -0.138527,0.690287 -0.136179,0.305228 -0.399145,0.469583 -0.260619,0.162006 -0.549412,0.162006 -0.211313,0 -0.380363,-0.08922 -0.166702,-0.08922 -0.274706,-0.2254 v 1.213872 z m 0.38271,-2.188257 q 0,0.481323 0.194877,0.711419 0.194877,0.230095 0.471931,0.230095 0.281749,0 0.481322,-0.237139 0.201921,-0.239487 0.201921,-0.739593 0,-0.476627 -0.197225,-0.713767 -0.194877,-0.237139 -0.467235,-0.237139 -0.27001,0 -0.478975,0.253575 -0.206616,0.251227 -0.206616,0.732549 z m 3.925714,1.232656 v -0.366275 q -0.291142,0.422625 -0.791248,0.422625 -0.220704,0 -0.413233,-0.08452 -0.190181,-0.08452 -0.284098,-0.211313 -0.09157,-0.129135 -0.129135,-0.31462 -0.02583,-0.12444 -0.02583,-0.39445 v -1.544928 h 0.422625 v 1.382922 q 0,0.331056 0.02583,0.446104 0.03991,0.166702 0.16905,0.262966 0.129135,0.09392 0.319316,0.09392 0.190181,0 0.356883,-0.09627 0.166702,-0.09861 0.234792,-0.265314 0.07044,-0.16905 0.07044,-0.488366 v -1.335964 h 0.422625 v 2.493486 z m 1.040126,0 v -2.493486 h 0.378014 v 0.349839 q 0.117396,-0.183137 0.312273,-0.293489 0.194877,-0.1127 0.443756,-0.1127 0.277054,0 0.453147,0.115048 0.178442,0.115048 0.251227,0.321664 0.295838,-0.436712 0.770116,-0.436712 0.370971,0 0.570544,0.206617 0.199573,0.204268 0.199573,0.631589 v 1.71163 H 62.25113 v -1.570755 q 0,-0.253575 -0.04226,-0.363927 -0.03991,-0.1127 -0.147918,-0.18079 -0.108004,-0.06809 -0.253575,-0.06809 -0.262967,0 -0.436712,0.176093 -0.173746,0.173746 -0.173746,0.558804 v 1.448664 h -0.422625 v -1.620062 q 0,-0.281749 -0.103308,-0.422624 -0.103308,-0.140875 -0.3381,-0.140875 -0.178441,0 -0.331056,0.09392 -0.150266,0.09392 -0.218356,0.274706 -0.06809,0.18079 -0.06809,0.521238 v 1.293701 z m 4.005543,0.955601 v -3.449087 h 0.385058 v 0.324012 q 0.136179,-0.190181 0.307577,-0.284097 0.171398,-0.09627 0.415581,-0.09627 0.319316,0 0.5635,0.164354 0.244183,0.164354 0.368622,0.464887 0.12444,0.298185 0.12444,0.655069 0,0.38271 -0.138527,0.690287 -0.136179,0.305228 -0.399146,0.469583 -0.260618,0.162006 -0.549412,0.162006 -0.211312,0 -0.380362,-0.08922 -0.166702,-0.08922 -0.274706,-0.2254 v 1.213872 z m 0.38271,-2.188257 q 0,0.481323 0.194877,0.711419 0.194877,0.230095 0.471931,0.230095 0.28175,0 0.481323,-0.237139 0.20192,-0.239487 0.20192,-0.739593 0,-0.476627 -0.197225,-0.713767 -0.194876,-0.237139 -0.467235,-0.237139 -0.27001,0 -0.478974,0.253575 -0.206617,0.251227 -0.206617,0.732549 z m 5.102019,1.232656 h -0.422624 v -2.693059 q -0.152615,0.145571 -0.401494,0.291142 -0.246531,0.14557 -0.443756,0.218356 v -0.408537 q 0.354535,-0.166702 0.61985,-0.403842 0.265314,-0.237139 0.375666,-0.460191 h 0.272358 z"
       id="text20"
       style="font-size:4.80853px;line-height:1;font-family:Arial;-inkscape-font-specification:Arial;text-align:center;text-decoration-color:#000000;letter-spacing:0px;word-spacing:0px;text-anchor:middle;white-space:pre;fill:#000000;stroke-width:0.705556;stroke-linecap:round;stroke-linejoin:round"
       aria-label="pump 1" />
    <path
       id="rect21"
       style="fill:#ffffff;stroke:#000000;stroke-width:0.576167;stroke-linecap:round;stroke-linejoin:round"
       d="M 76.100685,72.152405 H 97.505781 V 84.148523 H 76.100685 Z" />
    <path
       d="m 79.213375,80.356328 v -3.449087 h 0.385058 v 0.324012 q 0.13618,-0.190181 0.307577,-0.284098 0.171398,-0.09626 0.415581,-0.09626 0.319317,0 0.5635,0.164354 0.244183,0.164354 0.368623,0.464887 0.124439,0.298185 0.124439,0.655068 0,0.38271 -0.138527,0.690287 -0.136179,0.305229 -0.399146,0.469583 -0.260618,0.162006 -0.549412,0.162006 -0.211312,0 -0.380362,-0.08922 -0.166702,-0.08922 -0.274706,-0.2254 v 1.213872 z m 0.382711,-2.188257 q 0,0.481323 0.194876,0.711418 0.194877,0.230096 0.471931,0.230096 0.28175,0 0.481323,-0.23714 0.201921,-0.239487 0.201921,-0.739593 0,-0.476627 -0.197225,-0.713766 -0.194877,-0.237139 -0.467235,-0.237139 -0.270011,0 -0.478975,0.253574 -0.206616,0.251227 -0.206616,0.73255 z m 3.925713,1.232655 v -0.366274 q -0.291141,0.422624 -0.791247,0.422624 -0.220704,0 -0.413233,-0.08452 -0.190181,-0.08452 -0.284098,-0.211312 -0.09157,-0.129135 -0.129135,-0.314621 -0.02583,-0.124439 -0.02583,-0.394449 v -1.544928 h 0.422625 v 1.382922 q 0,0.331056 0.02583,0.446103 0.03991,0.166702 0.16905,0.262967 0.129135,0.09392 0.319316,0.09392 0.190181,0 0.356883,-0.09626 0.166702,-0.09861 0.234792,-0.265314 0.07044,-0.16905 0.07044,-0.488367 v -1.335963 h 0.422625 v 2.493485 z m 1.040127,0 v -2.493485 h 0.378014 v 0.349839 q 0.117396,-0.183137 0.312273,-0.293489 0.194877,-0.1127 0.443756,-0.1127 0.277054,0 0.453147,0.115047 0.178442,0.115048 0.251227,0.321665 0.295837,-0.436712 0.770116,-0.436712 0.370971,0 0.570544,0.206616 0.199572,0.204269 0.199572,0.631589 v 1.71163 h -0.420276 v -1.570755 q 0,-0.253575 -0.04226,-0.363927 -0.03991,-0.1127 -0.147919,-0.180789 -0.108004,-0.06809 -0.253574,-0.06809 -0.262967,0 -0.436713,0.176094 -0.173745,0.173746 -0.173745,0.558804 v 1.448663 H 86.04346 v -1.620061 q 0,-0.28175 -0.103308,-0.422625 -0.103308,-0.140875 -0.3381,-0.140875 -0.178441,0 -0.331056,0.09392 -0.150267,0.09392 -0.218356,0.274706 -0.06809,0.18079 -0.06809,0.521237 v 1.293701 z m 4.005543,0.955602 v -3.449087 h 0.385058 v 0.324012 q 0.136179,-0.190181 0.307577,-0.284098 0.171398,-0.09626 0.415581,-0.09626 0.319316,0 0.563499,0.164354 0.244184,0.164354 0.368623,0.464887 0.12444,0.298185 0.12444,0.655068 0,0.38271 -0.138527,0.690287 -0.13618,0.305229 -0.399146,0.469583 -0.260619,0.162006 -0.549412,0.162006 -0.211312,0 -0.380362,-0.08922 -0.166702,-0.08922 -0.274706,-0.2254 v 1.213872 z m 0.38271,-2.188257 q 0,0.481323 0.194877,0.711418 0.194877,0.230096 0.471931,0.230096 0.28175,0 0.481323,-0.23714 0.20192,-0.239487 0.20192,-0.739593 0,-0.476627 -0.197225,-0.713766 -0.194877,-0.237139 -0.467235,-0.237139 -0.27001,0 -0.478974,0.253574 -0.206617,0.251227 -0.206617,0.73255 z m 3.512481,0.324012 0.422624,-0.05635 q 0.07279,0.359231 0.246532,0.518889 0.176093,0.157311 0.42732,0.157311 0.298185,0 0.502454,-0.206617 0.206616,-0.206616 0.206616,-0.511845 0,-0.291142 -0.190181,-0.478975 -0.190181,-0.190181 -0.48367,-0.190181 -0.119744,0 -0.298185,0.04696 l 0.04696,-0.37097 q 0.04226,0.0047 0.06809,0.0047 0.270011,0 0.486019,-0.140875 0.216008,-0.140875 0.216008,-0.434365 0,-0.232443 -0.15731,-0.385058 -0.157311,-0.152614 -0.40619,-0.152614 -0.246531,0 -0.410885,0.154962 -0.164354,0.154963 -0.211312,0.464887 l -0.422625,-0.07513 q 0.07748,-0.424972 0.352187,-0.657416 0.274707,-0.234792 0.683244,-0.234792 0.28175,0 0.518889,0.122092 0.237139,0.119744 0.361579,0.328708 0.126787,0.208965 0.126787,0.443756 0,0.223052 -0.119743,0.406189 -0.119744,0.183138 -0.354536,0.291142 0.305229,0.07044 0.474279,0.293489 0.16905,0.220704 0.16905,0.554108 0,0.4508 -0.328708,0.76542 -0.328708,0.312273 -0.831162,0.312273 -0.453147,0 -0.753681,-0.27001 -0.298185,-0.27001 -0.340447,-0.699679 z"
       id="text21"
       style="font-size:4.80853px;line-height:1;font-family:Arial;-inkscape-font-specification:Arial;text-align:center;text-decoration-color:#000000;letter-spacing:0px;word-spacing:0px;text-anchor:middle;white-space:pre;fill:#000000;stroke-width:0.705556;stroke-linecap:round;stroke-linejoin:round"
       aria-label="pump 3" />
    <path
       style="fill:none;stroke:#000000;stroke-width:0.564444;stroke-linecap:round;stroke-linejoin:round;stroke-dasharray:4.51555, 2.25778;stroke-dashoffset:0;marker-end:url(#marker25)"
       d="M 61.534063,83.959097 56.003112,96.4867"
       id="path24" />
    <path
       style="fill:none;stroke:#000000;stroke-width:0.564444;stroke-linecap:round;stroke-linejoin:round;stroke-dasharray:4.51555, 2.25778;stroke-dashoffset:0;marker-end:url(#marker25)"
       d="M 112.47098,83.959099 100.05586,116.29112"
       id="path27" />
    <path
       style="fill:none;stroke:#000000;stroke-width:0.564444;stroke-linecap:round;stroke-linejoin:round;stroke-dasharray:none;marker-end:url(#marker20)"
       d="M 167.15096,59.739768 119.74957,70.132041"
       id="path30" />
    <path
       style="fill:none;stroke:#000000;stroke-width:0.564444;stroke-linecap:round;stroke-linejoin:round;stroke-dasharray:none;marker-end:url(#marker20)"
       d="M 166.99135,55.892593 89.341851,70.041423"
       id="path31" />
    <path
       style="fill:none;stroke:#000000;stroke-width:0.564444;stroke-linecap:round;stroke-linejoin:round;stroke-dasharray:none;marker-end:url(#marker20)"
       d="M 167.49988,53.019435 63.352814,69.782954"
       id="path32" />
    <path
       id="ellipse35"
       style="fill:#ffffff;stroke:#000000;stroke-width:0.464634;stroke-linecap:round;stroke-linejoin:round;stroke-dasharray:3.71707, 1.85854"
       d="M 111.27116,136.84557 A 23.378853,16.911022 0 0 1 87.892311,153.75659 23.378853,16.911022 0 0 1 64.513458,136.84557 23.378853,16.911022 0 0 1 87.892311,119.93454 23.378853,16.911022 0 0 1 111.27116,136.84557 Z" />
    <path
       d="m 76.724004,125.89489 v -2.23561 h 1.508201 v 0.26382 h -1.212356 v 0.69234 h 1.049184 v 0.26382 h -1.049184 v 1.01563 z m 1.858946,-1.91994 v -0.31567 h 0.274495 v 0.31567 z m 0,1.91994 v -1.61952 h 0.274495 v 1.61952 z m 1.800996,-0.52154 0.283645,0.0351 q -0.0671,0.24857 -0.248571,0.38582 -0.181472,0.13725 -0.463592,0.13725 -0.35532,0 -0.564241,-0.21807 -0.207397,-0.2196 -0.207397,-0.61457 0,-0.40869 0.210447,-0.63439 0.210446,-0.22569 0.545941,-0.22569 0.32482,0 0.530691,0.22112 0.205872,0.22112 0.205872,0.62219 0,0.0244 -0.0015,0.0732 H 79.46746 q 0.01525,0.26687 0.150973,0.40869 0.135723,0.14182 0.338545,0.14182 0.150972,0 0.257721,-0.0793 0.106748,-0.0793 0.169272,-0.25314 z m -0.901261,-0.44377 h 0.904311 q -0.0183,-0.20435 -0.103699,-0.30652 -0.131147,-0.1586 -0.340069,-0.1586 -0.189097,0 -0.31872,0.12658 -0.128098,0.12657 -0.141823,0.33854 z m 1.523451,0.96531 v -2.23561 h 0.274496 v 2.23561 z m 1.750672,0 v -0.20435 q -0.154023,0.24095 -0.452918,0.24095 -0.193672,0 -0.356844,-0.10675 -0.161648,-0.10675 -0.251621,-0.29737 -0.08845,-0.19215 -0.08845,-0.44072 0,-0.24247 0.08082,-0.43919 0.08082,-0.19825 0.242471,-0.30347 0.161648,-0.10522 0.361419,-0.10522 0.146398,0 0.260771,0.0625 0.114373,0.061 0.186047,0.16012 v -0.80213 h 0.272971 v 2.23561 z m -0.867711,-0.80824 q 0,0.3111 0.131148,0.46512 0.131148,0.15402 0.30957,0.15402 0.179947,0 0.304995,-0.14639 0.126573,-0.14793 0.126573,-0.44987 0,-0.33245 -0.128098,-0.48799 -0.128098,-0.15555 -0.31567,-0.15555 -0.182997,0 -0.30652,0.14945 -0.121998,0.14944 -0.121998,0.47121 z m 1.447202,0.13725 v -0.27602 h 0.843311 v 0.27602 z m 2.51316,0.40717 v 0.26382 h -1.477702 q -0.0031,-0.0991 0.03203,-0.19062 0.05642,-0.15097 0.179947,-0.29737 0.125048,-0.1464 0.359894,-0.33855 0.364469,-0.29889 0.492567,-0.47274 0.128098,-0.17537 0.128098,-0.33092 0,-0.16317 -0.117423,-0.27449 -0.115898,-0.11285 -0.30347,-0.11285 -0.198247,0 -0.317195,0.11895 -0.118948,0.11894 -0.120473,0.32939 l -0.28212,-0.029 q 0.02897,-0.31567 0.218071,-0.48037 0.189097,-0.16622 0.507817,-0.16622 0.32177,0 0.509342,0.17842 0.187572,0.17842 0.187572,0.44224 0,0.1342 -0.0549,0.26382 -0.0549,0.12962 -0.182997,0.27297 -0.126573,0.14335 -0.422419,0.39345 -0.247046,0.20739 -0.317195,0.28212 -0.07015,0.0732 -0.115898,0.14792 z"
       id="text35"
       style="font-size:3.12315px;line-height:1;font-family:Arial;-inkscape-font-specification:Arial;text-align:center;text-decoration-color:#000000;letter-spacing:0px;word-spacing:0px;text-anchor:middle;white-space:pre;fill:#000000;stroke-width:0.832834;stroke-linecap:round;stroke-linejoin:round;stroke-dasharray:6.6627, 3.33135"
       aria-label="Field-2" />
    <g
       id="g36"
       style="stroke-width:0.705556;stroke-dasharray:none"
       transform="matrix(0.76407009,0,0,0.76407009,54.93442,62.454783)">
      <path
         id="rect35"
         style="fill:#ffffff;stroke:#000000;stroke-linecap:round;stroke-linejoin:round"
         d="M 31.998383,94.068497 H 64.44677 V 105.93523 H 31.998383 Z" />
      <path
         d="m 35.78215,101.70175 v -3.035852 h -1.134043 v -0.40619 h 2.728277 v 0.40619 h -1.138739 v 3.035852 z m 1.82433,0 v -2.493484 h 0.380362 v 0.378014 q 0.145571,-0.265314 0.267662,-0.349839 0.12444,-0.08452 0.272359,-0.08452 0.21366,0 0.434364,0.136179 l -0.145571,0.392102 q -0.154962,-0.09157 -0.309925,-0.09157 -0.138527,0 -0.248879,0.08452 -0.110352,0.08218 -0.15731,0.230096 -0.07044,0.225402 -0.07044,0.493062 v 1.30544 z m 3.233079,-0.30758 q -0.234792,0.19958 -0.453148,0.28175 -0.216008,0.0822 -0.464887,0.0822 -0.410885,0 -0.631589,-0.19957 -0.220704,-0.20192 -0.220704,-0.51419 0,-0.18314 0.08218,-0.33341 0.08452,-0.15261 0.218356,-0.24418 0.136179,-0.0916 0.305229,-0.13853 0.124439,-0.0329 0.375666,-0.0634 0.511846,-0.0611 0.753681,-0.14557 0.0023,-0.0869 0.0023,-0.11035 0,-0.258276 -0.119744,-0.363932 -0.162006,-0.143223 -0.481322,-0.143223 -0.298186,0 -0.441408,0.105657 -0.140875,0.103308 -0.208965,0.368622 l -0.413233,-0.05635 q 0.05635,-0.265314 0.185485,-0.42732 0.129136,-0.164354 0.373319,-0.251227 0.244183,-0.08922 0.565847,-0.08922 0.319317,0 0.51889,0.07513 0.199572,0.07513 0.293489,0.190181 0.09392,0.1127 0.131483,0.286446 0.02113,0.108004 0.02113,0.389756 v 0.5635 q 0,0.58933 0.02583,0.74664 0.02818,0.15496 0.108005,0.29818 h -0.441408 q -0.06574,-0.13148 -0.08452,-0.30758 z m -0.03522,-0.94386 q -0.230096,0.0939 -0.690287,0.15966 -0.260619,0.0376 -0.368623,0.0845 -0.108004,0.0469 -0.166702,0.13852 -0.0587,0.0892 -0.0587,0.19958 0,0.16905 0.126788,0.28175 0.129135,0.1127 0.375666,0.1127 0.244183,0 0.434364,-0.10566 0.190182,-0.108 0.279402,-0.29349 0.06809,-0.14322 0.06809,-0.42262 z m 1.082389,1.25144 v -2.493484 h 0.380362 v 0.354535 q 0.274706,-0.410885 0.793595,-0.410885 0.2254,0 0.413233,0.08218 0.190182,0.07983 0.284098,0.211312 0.09392,0.131484 0.131483,0.312273 0.02348,0.117396 0.02348,0.410879 v 1.53319 H 43.490355 V 100.185 q 0,-0.258272 -0.04931,-0.385059 -0.04931,-0.129136 -0.176094,-0.204269 -0.124439,-0.07748 -0.293489,-0.07748 -0.270011,0 -0.467235,0.171398 -0.194877,0.171397 -0.194877,0.65037 v 1.36179 z m 2.505225,-0.74429 0.417929,-0.0657 q 0.03522,0.25123 0.194877,0.38506 0.162006,0.13383 0.4508,0.13383 0.291141,0 0.432016,-0.1174 0.140875,-0.11974 0.140875,-0.2794 0,-0.14322 -0.124439,-0.2254 -0.08687,-0.0563 -0.432017,-0.14322 -0.464887,-0.1174 -0.645676,-0.20192 -0.178442,-0.0869 -0.272358,-0.23714 -0.09157,-0.15261 -0.09157,-0.335752 0,-0.166702 0.07513,-0.307577 0.07748,-0.143223 0.208965,-0.237139 0.09861,-0.07279 0.267662,-0.122092 0.171398,-0.05165 0.366275,-0.05165 0.293489,0 0.514193,0.08452 0.223052,0.08452 0.328708,0.230096 0.105656,0.143222 0.145571,0.385058 l -0.413233,0.05635 q -0.02817,-0.192529 -0.164354,-0.300533 -0.133831,-0.108005 -0.380362,-0.108005 -0.291142,0 -0.415581,0.09626 -0.12444,0.09626 -0.12444,0.2254 0,0.08218 0.05165,0.147918 0.05165,0.06809 0.162006,0.112696 0.06339,0.0235 0.373319,0.108 0.448452,0.11975 0.624545,0.19723 0.178442,0.0751 0.279402,0.2207 0.10096,0.14557 0.10096,0.36158 0,0.21131 -0.124439,0.39915 -0.122092,0.18548 -0.354535,0.28879 -0.232444,0.10096 -0.525933,0.10096 -0.486019,0 -0.741941,-0.20192 -0.253575,-0.20192 -0.324013,-0.59872 z m 2.573315,0.74429 v -2.493484 h 0.378014 v 0.349839 q 0.117396,-0.183137 0.312273,-0.293489 0.194877,-0.1127 0.443756,-0.1127 0.277054,0 0.453147,0.115048 0.178442,0.115048 0.251227,0.321664 0.295837,-0.436712 0.770116,-0.436712 0.370971,0 0.570544,0.206617 0.199572,0.204268 0.199572,0.631589 v 1.711628 H 49.923642 V 100.131 q 0,-0.253578 -0.04226,-0.36393 -0.03991,-0.1127 -0.147918,-0.18079 -0.108005,-0.06809 -0.253575,-0.06809 -0.262967,0 -0.436712,0.176093 -0.173746,0.173746 -0.173746,0.558807 v 1.44866 h -0.422625 v -1.62006 q 0,-0.28175 -0.103308,-0.422625 -0.103308,-0.140875 -0.3381,-0.140875 -0.178441,0 -0.331056,0.09392 -0.150266,0.09392 -0.218356,0.274706 -0.06809,0.180784 -0.06809,0.521234 v 1.2937 z m 4.007891,-2.956023 v -0.486019 h 0.422625 v 0.486019 z m 0,2.956023 v -2.493484 h 0.422625 v 2.493484 z m 1.988683,-0.37801 0.06105,0.37332 q -0.178441,0.0376 -0.319316,0.0376 -0.230096,0 -0.356883,-0.0728 -0.126788,-0.0728 -0.178442,-0.19018 -0.05165,-0.11975 -0.05165,-0.50011 v -1.434576 h -0.309925 v -0.328708 h 0.309925 v -0.617502 l 0.420277,-0.253574 v 0.871076 h 0.424972 v 0.328708 h -0.424972 v 1.458056 q 0,0.18079 0.02113,0.23244 0.02348,0.0517 0.07278,0.0822 0.05165,0.0305 0.145571,0.0305 0.07044,0 0.185485,-0.0164 z m 1.335965,0 0.06105,0.37332 q -0.178441,0.0376 -0.319316,0.0376 -0.230096,0 -0.356883,-0.0728 -0.126788,-0.0728 -0.178442,-0.19018 -0.05165,-0.11975 -0.05165,-0.50011 v -1.434576 h -0.309925 v -0.328708 h 0.309925 v -0.617502 l 0.420277,-0.253574 v 0.871076 h 0.424973 v 0.328708 h -0.424973 v 1.458056 q 0,0.18079 0.02113,0.23244 0.02348,0.0517 0.07279,0.0822 0.05165,0.0305 0.145571,0.0305 0.07044,0 0.185486,-0.0164 z m 2.120167,-0.42498 0.436712,0.054 q -0.103308,0.38271 -0.38271,0.59402 -0.279402,0.21131 -0.713766,0.21131 -0.547064,0 -0.868728,-0.33575 -0.319317,-0.3381 -0.319317,-0.94621 0,-0.629241 0.324012,-0.976733 0.324013,-0.347491 0.840554,-0.347491 0.500106,0 0.817074,0.340448 0.316969,0.340447 0.316969,0.957946 0,0.0376 -0.0023,0.1127 h -1.859549 q 0.02348,0.41089 0.232444,0.62924 0.208964,0.21836 0.521237,0.21836 0.232444,0 0.396798,-0.12209 0.164354,-0.12209 0.260618,-0.38976 z m -1.387617,-0.68324 h 1.392313 q -0.02818,-0.314619 -0.159658,-0.471929 -0.201921,-0.244184 -0.523585,-0.244184 -0.291142,0 -0.490714,0.194877 -0.197225,0.194877 -0.218356,0.521236 z m 2.350262,1.48623 v -2.493484 h 0.380362 v 0.378014 q 0.145571,-0.265314 0.267662,-0.349839 0.12444,-0.08452 0.272358,-0.08452 0.213661,0 0.434365,0.136179 l -0.145571,0.392102 q -0.154962,-0.09157 -0.309925,-0.09157 -0.138527,0 -0.248879,0.08452 -0.110352,0.08218 -0.15731,0.230096 -0.07044,0.225402 -0.07044,0.493062 v 1.30544 z m 5.045668,-0.40619 v 0.40619 h -2.27513 q -0.0047,-0.15261 0.04931,-0.29349 0.08687,-0.23244 0.277054,-0.45784 0.192529,-0.2254 0.554107,-0.52124 0.561152,-0.46019 0.758377,-0.727852 0.197225,-0.27001 0.197225,-0.509497 0,-0.251227 -0.18079,-0.422625 -0.178441,-0.173746 -0.467235,-0.173746 -0.305229,0 -0.488366,0.183138 -0.183137,0.183137 -0.185485,0.507149 l -0.434365,-0.04461 q 0.04461,-0.486019 0.335752,-0.739593 0.291142,-0.255923 0.781856,-0.255923 0.49541,0 0.784204,0.274706 0.288793,0.274706 0.288793,0.680895 0,0.206617 -0.08452,0.40619 -0.08452,0.199572 -0.28175,0.420278 -0.194877,0.2207 -0.650372,0.60576 -0.380362,0.31932 -0.488366,0.43436 -0.108004,0.1127 -0.178442,0.22775 z"
         id="text36"
         style="font-size:4.80853px;line-height:1;font-family:Arial;-inkscape-font-specification:Arial;text-align:center;text-decoration-color:#000000;letter-spacing:0px;word-spacing:0px;text-anchor:middle;white-space:pre;fill:#000000;stroke-linecap:round;stroke-linejoin:round"
         aria-label="Transmitter 2" />
    </g>
    <path
       style="fill:none;stroke:#000000;stroke-width:0.564444;stroke-linecap:round;stroke-linejoin:round;stroke-dasharray:none;marker-end:url(#Triangle)"
       d="m 104.3866,138.39722 56.42185,-6.43177"
       id="path16" />
    <path
       id="ellipse37"
       style="fill:#ffffff;stroke:#000000;stroke-width:0.464634;stroke-linecap:round;stroke-linejoin:round;stroke-dasharray:3.71707, 1.85854"
       d="M 66.976757,162.62332 A 23.378853,16.911022 0 0 1 43.597904,179.53434 23.378853,16.911022 0 0 1 20.219051,162.62332 23.378853,16.911022 0 0 1 43.597904,145.7123 23.378853,16.911022 0 0 1 66.976757,162.62332 Z" />
    <path
       d="m 32.429601,151.67265 v -2.23561 h 1.508201 v 0.26382 h -1.212356 v 0.69234 h 1.049184 v 0.26382 h -1.049184 v 1.01563 z m 1.858945,-1.91994 v -0.31567 h 0.274496 v 0.31567 z m 0,1.91994 v -1.61952 h 0.274496 v 1.61952 z m 1.800997,-0.52154 0.283645,0.0351 q -0.0671,0.24857 -0.248571,0.38581 -0.181472,0.13725 -0.463592,0.13725 -0.35532,0 -0.564241,-0.21807 -0.207397,-0.2196 -0.207397,-0.61456 0,-0.4087 0.210447,-0.63439 0.210446,-0.2257 0.545941,-0.2257 0.32482,0 0.530691,0.22112 0.205872,0.22112 0.205872,0.62219 0,0.0244 -0.0015,0.0732 h -1.207781 q 0.01525,0.26687 0.150973,0.40869 0.135723,0.14183 0.338545,0.14183 0.150972,0 0.25772,-0.0793 0.106749,-0.0793 0.169273,-0.25315 z m -0.901261,-0.44377 h 0.904311 q -0.0183,-0.20434 -0.103699,-0.30652 -0.131148,-0.15859 -0.340069,-0.15859 -0.189097,0 -0.31872,0.12657 -0.128098,0.12657 -0.141823,0.33854 z m 1.523451,0.96531 v -2.23561 h 0.274495 v 2.23561 z m 1.750672,0 v -0.20434 q -0.154023,0.24094 -0.452918,0.24094 -0.193672,0 -0.356844,-0.10675 -0.161648,-0.10674 -0.251621,-0.29737 -0.08845,-0.19214 -0.08845,-0.44071 0,-0.24248 0.08082,-0.4392 0.08082,-0.19824 0.242471,-0.30347 0.161647,-0.10522 0.361419,-0.10522 0.146398,0 0.260771,0.0625 0.114373,0.061 0.186047,0.16013 v -0.80214 h 0.272971 v 2.23561 z m -0.867711,-0.80823 q 0,0.31109 0.131148,0.46511 0.131148,0.15403 0.30957,0.15403 0.179947,0 0.304995,-0.1464 0.126573,-0.14792 0.126573,-0.44987 0,-0.33244 -0.128098,-0.48799 -0.128098,-0.15555 -0.31567,-0.15555 -0.182997,0 -0.30652,0.14945 -0.121998,0.14945 -0.121998,0.47122 z m 1.447202,0.13724 v -0.27602 h 0.843311 v 0.27602 z m 1.072058,0.0808 0.274495,-0.0366 q 0.04727,0.23332 0.160123,0.33702 0.114373,0.10217 0.277545,0.10217 0.193672,0 0.326345,-0.1342 0.134198,-0.13419 0.134198,-0.33244 0,-0.1891 -0.123523,-0.3111 -0.123523,-0.12352 -0.314145,-0.12352 -0.07777,0 -0.193672,0.0305 l 0.0305,-0.24095 q 0.02745,0.003 0.04422,0.003 0.175372,0 0.31567,-0.0915 0.140298,-0.0915 0.140298,-0.28213 0,-0.15097 -0.102174,-0.25009 -0.102173,-0.0991 -0.263821,-0.0991 -0.160122,0 -0.26687,0.10064 -0.106749,0.10065 -0.137248,0.30195 l -0.274496,-0.0488 q 0.05032,-0.27602 0.228747,-0.42699 0.178422,-0.1525 0.443768,-0.1525 0.182997,0 0.337019,0.0793 0.154023,0.0778 0.234846,0.21349 0.08235,0.13573 0.08235,0.28822 0,0.14488 -0.07777,0.26383 -0.07777,0.11894 -0.230271,0.18909 0.198247,0.0457 0.308045,0.19062 0.109798,0.14335 0.109798,0.3599 0,0.29279 -0.213496,0.49714 -0.213497,0.20282 -0.539842,0.20282 -0.29432,0 -0.489517,-0.17537 -0.193672,-0.17537 -0.221121,-0.45444 z"
       id="text37"
       style="font-size:3.12315px;line-height:1;font-family:Arial;-inkscape-font-specification:Arial;text-align:center;text-decoration-color:#000000;letter-spacing:0px;word-spacing:0px;text-anchor:middle;white-space:pre;fill:#000000;stroke-width:0.832834;stroke-linecap:round;stroke-linejoin:round;stroke-dasharray:6.6627, 3.33135"
       aria-label="Field-3" />
    <g
       id="g38"
       style="stroke-width:0.705556;stroke-dasharray:none"
       transform="matrix(0.76407009,0,0,0.76407009,10.640018,88.232541)">
      <path
         id="rect37"
         style="fill:#ffffff;stroke:#000000;stroke-linecap:round;stroke-linejoin:round"
         d="M 31.998383,94.068497 H 64.44677 V 105.93523 H 31.998383 Z" />
      <path
         d="m 35.78215,101.70175 v -3.035852 h -1.134043 v -0.40619 h 2.728277 v 0.40619 h -1.138739 v 3.035852 z m 1.82433,0 v -2.493484 h 0.380362 v 0.378014 q 0.145571,-0.265314 0.267662,-0.349839 0.12444,-0.08452 0.272359,-0.08452 0.21366,0 0.434364,0.136179 l -0.145571,0.392102 q -0.154962,-0.09157 -0.309925,-0.09157 -0.138527,0 -0.248879,0.08452 -0.110352,0.08218 -0.15731,0.230096 -0.07044,0.225402 -0.07044,0.493062 v 1.30544 z m 3.233079,-0.30758 q -0.234792,0.19958 -0.453148,0.28175 -0.216008,0.0822 -0.464887,0.0822 -0.410885,0 -0.631589,-0.19957 -0.220704,-0.20192 -0.220704,-0.51419 0,-0.18314 0.08218,-0.33341 0.08452,-0.15261 0.218356,-0.24418 0.136179,-0.0916 0.305229,-0.13853 0.124439,-0.0329 0.375666,-0.0634 0.511846,-0.0611 0.753681,-0.14557 0.0023,-0.0869 0.0023,-0.11035 0,-0.258276 -0.119744,-0.363932 -0.162006,-0.143223 -0.481322,-0.143223 -0.298186,0 -0.441408,0.105657 -0.140875,0.103308 -0.208965,0.368622 l -0.413233,-0.05635 q 0.05635,-0.265314 0.185485,-0.42732 0.129136,-0.164354 0.373319,-0.251227 0.244183,-0.08922 0.565847,-0.08922 0.319317,0 0.51889,0.07513 0.199572,0.07513 0.293489,0.190181 0.09392,0.1127 0.131483,0.286446 0.02113,0.108004 0.02113,0.389756 v 0.5635 q 0,0.58933 0.02583,0.74664 0.02818,0.15496 0.108005,0.29818 h -0.441408 q -0.06574,-0.13148 -0.08452,-0.30758 z m -0.03522,-0.94386 q -0.230096,0.0939 -0.690287,0.15966 -0.260619,0.0376 -0.368623,0.0845 -0.108004,0.0469 -0.166702,0.13852 -0.0587,0.0892 -0.0587,0.19958 0,0.16905 0.126788,0.28175 0.129135,0.1127 0.375666,0.1127 0.244183,0 0.434364,-0.10566 0.190182,-0.108 0.279402,-0.29349 0.06809,-0.14322 0.06809,-0.42262 z m 1.082389,1.25144 v -2.493484 h 0.380362 v 0.354535 q 0.274706,-0.410885 0.793595,-0.410885 0.2254,0 0.413233,0.08218 0.190182,0.07983 0.284098,0.211312 0.09392,0.131484 0.131483,0.312273 0.02348,0.117396 0.02348,0.410879 v 1.53319 H 43.490355 V 100.185 q 0,-0.258272 -0.04931,-0.385059 -0.04931,-0.129136 -0.176094,-0.204269 -0.124439,-0.07748 -0.293489,-0.07748 -0.270011,0 -0.467235,0.171398 -0.194877,0.171397 -0.194877,0.65037 v 1.36179 z m 2.505225,-0.74429 0.417929,-0.0657 q 0.03522,0.25123 0.194877,0.38506 0.162006,0.13383 0.4508,0.13383 0.291141,0 0.432016,-0.1174 0.140875,-0.11974 0.140875,-0.2794 0,-0.14322 -0.124439,-0.2254 -0.08687,-0.0563 -0.432017,-0.14322 -0.464887,-0.1174 -0.645676,-0.20192 -0.178442,-0.0869 -0.272358,-0.23714 -0.09157,-0.15261 -0.09157,-0.335752 0,-0.166702 0.07513,-0.307577 0.07748,-0.143223 0.208965,-0.237139 0.09861,-0.07279 0.267662,-0.122092 0.171398,-0.05165 0.366275,-0.05165 0.293489,0 0.514193,0.08452 0.223052,0.08452 0.328708,0.230096 0.105656,0.143222 0.145571,0.385058 l -0.413233,0.05635 q -0.02817,-0.192529 -0.164354,-0.300533 -0.133831,-0.108005 -0.380362,-0.108005 -0.291142,0 -0.415581,0.09626 -0.12444,0.09626 -0.12444,0.2254 0,0.08218 0.05165,0.147918 0.05165,0.06809 0.162006,0.112696 0.06339,0.0235 0.373319,0.108 0.448452,0.11975 0.624545,0.19723 0.178442,0.0751 0.279402,0.2207 0.10096,0.14557 0.10096,0.36158 0,0.21131 -0.124439,0.39915 -0.122092,0.18548 -0.354535,0.28879 -0.232444,0.10096 -0.525933,0.10096 -0.486019,0 -0.741941,-0.20192 -0.253575,-0.20192 -0.324013,-0.59872 z m 2.573315,0.74429 v -2.493484 h 0.378014 v 0.349839 q 0.117396,-0.183137 0.312273,-0.293489 0.194877,-0.1127 0.443756,-0.1127 0.277054,0 0.453147,0.115048 0.178442,0.115048 0.251227,0.321664 0.295837,-0.436712 0.770116,-0.436712 0.370971,0 0.570544,0.206617 0.199572,0.204268 0.199572,0.631589 v 1.711628 H 49.923642 V 100.131 q 0,-0.253578 -0.04226,-0.36393 -0.03991,-0.1127 -0.147918,-0.18079 -0.108005,-0.06809 -0.253575,-0.06809 -0.262967,0 -0.436712,0.176093 -0.173746,0.173746 -0.173746,0.558807 v 1.44866 h -0.422625 v -1.62006 q 0,-0.28175 -0.103308,-0.422625 -0.103308,-0.140875 -0.3381,-0.140875 -0.178441,0 -0.331056,0.09392 -0.150266,0.09392 -0.218356,0.274706 -0.06809,0.180784 -0.06809,0.521234 v 1.2937 z m 4.007891,-2.956023 v -0.486019 h 0.422625 v 0.486019 z m 0,2.956023 v -2.493484 h 0.422625 v 2.493484 z m 1.988683,-0.37801 0.06105,0.37332 q -0.178441,0.0376 -0.319316,0.0376 -0.230096,0 -0.356883,-0.0728 -0.126788,-0.0728 -0.178442,-0.19018 -0.05165,-0.11975 -0.05165,-0.50011 v -1.434576 h -0.309925 v -0.328708 h 0.309925 v -0.617502 l 0.420277,-0.253574 v 0.871076 h 0.424972 v 0.328708 h -0.424972 v 1.458056 q 0,0.18079 0.02113,0.23244 0.02348,0.0517 0.07278,0.0822 0.05165,0.0305 0.145571,0.0305 0.07044,0 0.185485,-0.0164 z m 1.335965,0 0.06105,0.37332 q -0.178441,0.0376 -0.319316,0.0376 -0.230096,0 -0.356883,-0.0728 -0.126788,-0.0728 -0.178442,-0.19018 -0.05165,-0.11975 -0.05165,-0.50011 v -1.434576 h -0.309925 v -0.328708 h 0.309925 v -0.617502 l 0.420277,-0.253574 v 0.871076 h 0.424973 v 0.328708 h -0.424973 v 1.458056 q 0,0.18079 0.02113,0.23244 0.02348,0.0517 0.07279,0.0822 0.05165,0.0305 0.145571,0.0305 0.07044,0 0.185486,-0.0164 z m 2.120167,-0.42498 0.436712,0.054 q -0.103308,0.38271 -0.38271,0.59402 -0.279402,0.21131 -0.713766,0.21131 -0.547064,0 -0.868728,-0.33575 -0.319317,-0.3381 -0.319317,-0.94621 0,-0.629241 0.324012,-0.976733 0.324013,-0.347491 0.840554,-0.347491 0.500106,0 0.817074,0.340448 0.316969,0.340447 0.316969,0.957946 0,0.0376 -0.0023,0.1127 h -1.859549 q 0.02348,0.41089 0.232444,0.62924 0.208964,0.21836 0.521237,0.21836 0.232444,0 0.396798,-0.12209 0.164354,-0.12209 0.260618,-0.38976 z m -1.387617,-0.68324 h 1.392313 q -0.02818,-0.314619 -0.159658,-0.471929 -0.201921,-0.244184 -0.523585,-0.244184 -0.291142,0 -0.490714,0.194877 -0.197225,0.194877 -0.218356,0.521236 z m 2.350262,1.48623 v -2.493484 h 0.380362 v 0.378014 q 0.145571,-0.265314 0.267662,-0.349839 0.12444,-0.08452 0.272358,-0.08452 0.213661,0 0.434365,0.136179 l -0.145571,0.392102 q -0.154962,-0.09157 -0.309925,-0.09157 -0.138527,0 -0.248879,0.08452 -0.110352,0.08218 -0.15731,0.230096 -0.07044,0.225402 -0.07044,0.493062 v 1.30544 z m 2.826888,-0.90864 0.422625,-0.0563 q 0.07278,0.35923 0.246531,0.51889 0.176094,0.15731 0.427321,0.15731 0.298185,0 0.502453,-0.20662 0.206617,-0.20661 0.206617,-0.51184 0,-0.29115 -0.190181,-0.47898 -0.190181,-0.19018 -0.483671,-0.19018 -0.119743,0 -0.298185,0.047 l 0.04696,-0.370972 q 0.04226,0.0047 0.06809,0.0047 0.27001,0 0.486018,-0.140875 0.216009,-0.140875 0.216009,-0.434364 0,-0.232444 -0.157311,-0.385058 -0.15731,-0.152615 -0.406189,-0.152615 -0.246531,0 -0.410885,0.154963 -0.164354,0.154962 -0.211312,0.464887 l -0.422625,-0.07513 q 0.07748,-0.424973 0.352187,-0.657417 0.274706,-0.234791 0.683243,-0.234791 0.28175,0 0.51889,0.122091 0.237139,0.119744 0.361578,0.328709 0.126788,0.208964 0.126788,0.443755 0,0.223052 -0.119744,0.40619 -0.119743,0.183137 -0.354535,0.291141 0.305229,0.07044 0.474279,0.293496 0.16905,0.2207 0.16905,0.5541 0,0.4508 -0.328708,0.76542 -0.328708,0.31228 -0.831162,0.31228 -0.453148,0 -0.753681,-0.27001 -0.298185,-0.27001 -0.340448,-0.69968 z"
         id="text38"
         style="font-size:4.80853px;line-height:1;font-family:Arial;-inkscape-font-specification:Arial;text-align:center;text-decoration-color:#000000;letter-spacing:0px;word-spacing:0px;text-anchor:middle;white-space:pre;fill:#000000;stroke-linecap:round;stroke-linejoin:round"
         aria-label="Transmitter 3" />
    </g>
    <path
       style="fill:none;stroke:#000000;stroke-width:0.564444;stroke-linecap:round;stroke-linejoin:round;stroke-dasharray:none;marker-end:url(#Triangle)"
       d="M 61.275101,164.41516 161.69721,140.04093"
       id="path23" />
  </g>
</svg>
